<?xml version="1.0" standalone="no"?>
<!DOCTYPE svg PUBLIC "-//W3C//DTD SVG 20010904//EN"
 "http://www.w3.org/TR/2001/REC-SVG-20010904/DTD/svg10.dtd">
<svg version="1.0" xmlns="http://www.w3.org/2000/svg"
 width="540.000000pt" height="348.000000pt" viewBox="0 0 540.000000 348.000000"
 preserveAspectRatio="xMidYMid meet">
<metadata>
Created by potrace 1.15, written by Peter Selinger 2001-2017
</metadata>
<g transform="translate(0.000000,348.000000) scale(0.100000,-0.100000)"
fill="#000000" stroke="none">
<path d="M2950 2913 c-25 -1 -112 -8 -195 -13 -170 -12 -215 -18 -215 -31 0
-5 3 -8 8 -8 16 3 45 -1 41 -5 -3 -3 -18 -7 -34 -10 -148 -26 -229 -49 -255
-72 -8 -7 -17 -12 -20 -11 -5 1 -102 -54 -110 -63 -3 -3 -11 -6 -18 -8 -12 -2
-70 -40 -82 -53 -3 -3 -22 -15 -42 -28 -20 -12 -59 -40 -85 -61 -26 -22 -49
-38 -51 -35 -5 4 -95 -63 -127 -95 -21 -20 -79 -28 -89 -12 -12 19 265 242
508 410 27 18 46 36 43 39 -8 7 -103 -47 -207 -118 -104 -71 -463 -359 -456
-366 1 -1 56 2 121 8 144 12 1735 16 1916 5 l127 -8 11 54 c18 83 81 462 77
465 -15 16 -694 28 -866 16z"/>
<path d="M4075 2893 c-36 -10 -63 -34 -81 -71 -16 -34 -32 -113 -70 -347 -19
-118 -33 -151 -35 -85 l-1 45 -9 -40 c-13 -67 -11 -95 9 -95 14 0 15 -2 2 -10
-24 -15 -4 -22 40 -15 23 4 51 16 61 26 17 17 39 20 167 25 82 3 171 12 202
20 30 8 105 21 165 28 61 8 98 14 83 15 -21 1 -26 5 -21 17 5 14 2 16 -20 10
-30 -7 -37 8 -11 22 14 8 12 12 -11 30 -15 12 -31 19 -36 16 -5 -3 -9 1 -9 9
0 13 -21 28 -42 31 -3 1 -10 4 -14 8 -3 4 3 6 14 3 12 -2 25 2 28 8 4 7 3 9
-1 4 -5 -4 -16 0 -26 9 -11 10 -19 12 -24 5 -19 -31 -63 26 -49 63 3 8 0 17
-7 22 -8 4 -10 3 -5 -4 4 -7 5 -12 2 -12 -3 0 -18 24 -32 53 -15 28 -46 82
-70 120 -49 76 -47 78 49 46 113 -38 160 -71 198 -141 47 -87 105 -223 120
-280 9 -35 18 -48 31 -48 16 0 16 6 -8 73 -14 39 -49 120 -78 180 -29 59 -51
107 -50 107 2 0 36 -28 75 -61 101 -87 133 -142 154 -261 4 -25 11 -38 21 -38
10 0 14 6 10 18 -3 9 -10 37 -16 62 -7 25 -24 67 -38 94 -30 55 -161 182 -209
202 -17 8 -35 18 -38 24 -10 16 -133 76 -192 93 -56 17 -196 29 -228 20z m265
-345 c78 -11 110 -28 110 -58 0 -16 -18 -19 -165 -25 -102 -5 -165 -11 -165
-18 0 -7 48 -8 145 -4 80 4 145 3 145 -2 0 -29 -81 -46 -272 -57 l-117 -7 -6
25 c-4 13 -5 44 -3 68 3 37 8 47 35 62 64 38 123 41 293 16z"/>
<path d="M2680 1965 c-118 -14 -299 -36 -401 -50 l-187 -25 -48 22 c-47 21
-62 23 -309 23 -292 0 -342 -5 -385 -41 -38 -32 -40 -52 -2 -26 41 29 53 31
200 42 198 15 454 0 513 -31 50 -25 68 -45 69 -74 0 -14 -3 -16 -8 -7 -6 8
-19 10 -41 6 -24 -5 -35 -15 -46 -42 -8 -19 -35 -63 -60 -97 -50 -71 -123
-116 -184 -114 -31 1 -29 2 19 13 88 19 156 80 201 181 25 57 22 82 -14 109
-27 20 -40 21 -310 21 -322 0 -336 -3 -365 -76 -8 -21 -19 -39 -24 -39 -12 0
-9 -120 5 -159 24 -69 39 -73 274 -73 266 0 298 6 413 83 l88 59 91 0 c68 0
103 -5 143 -21 59 -24 104 -23 453 7 187 17 242 29 308 71 54 34 157 135 157
155 0 19 -45 65 -85 85 -49 26 -222 25 -465 -2z m453 -11 c9 -3 17 -9 17 -14
0 -9 -36 -16 -130 -26 -36 -4 -68 -8 -72 -11 -4 -2 -1 -16 7 -31 8 -15 16 -35
19 -45 5 -15 9 -16 27 -7 30 17 32 9 7 -41 -11 -24 -23 -38 -26 -31 -3 10 -7
10 -18 1 -21 -18 -24 -8 -12 40 10 37 8 49 -8 78 -17 33 -20 35 -59 28 -51 -9
-72 -12 -168 -20 -68 -6 -77 -9 -72 -23 4 -10 10 -26 13 -37 7 -23 26 -45 41
-45 5 0 20 -14 32 -31 22 -31 23 -31 83 -25 65 7 86 22 86 63 0 22 -4 23 -45
20 -25 -2 -45 1 -45 6 0 5 -11 7 -24 3 -20 -5 -23 -2 -20 20 4 43 20 49 35 15
13 -28 18 -31 61 -31 52 0 57 7 32 46 -23 34 -9 43 21 14 29 -27 32 -64 10
-117 -12 -29 -13 -33 -1 -24 11 9 15 9 18 -1 10 -28 131 52 148 98 6 16 23 27
51 34 22 6 44 8 48 5 7 -8 -61 -70 -124 -114 -63 -45 -128 -61 -295 -76 -303
-27 -394 -29 -426 -11 l-29 17 30 -6 c17 -3 44 -8 60 -11 27 -5 28 -4 10 7
-10 7 -39 27 -63 46 -39 29 -51 33 -107 33 -70 0 -98 -17 -75 -45 11 -13 7
-15 -26 -15 -30 0 -35 3 -26 12 7 7 12 19 12 28 0 24 57 40 144 40 59 0 78 -3
82 -15 4 -8 10 -12 15 -9 5 3 24 -6 42 -20 48 -37 129 -37 153 -1 9 14 14 28
11 32 -4 3 -34 5 -68 4 -54 -1 -60 1 -49 14 10 12 9 16 -4 21 -14 5 -14 8 -1
21 27 27 18 36 -32 29 -26 -3 -97 -9 -158 -12 -102 -6 -112 -5 -119 11 -3 10
-4 20 -1 23 2 3 62 11 132 18 71 6 203 22 296 33 92 12 189 24 215 27 26 3 76
9 112 13 62 9 196 5 233 -5z"/>
<path d="M5012 1914 c-49 -34 -88 -155 -121 -374 -26 -170 -56 -320 -67 -329
-5 -4 -47 -16 -94 -25 -141 -29 -164 -36 -151 -49 26 -26 10 -32 -82 -29 -80
3 -119 -3 -297 -42 -113 -25 -263 -62 -333 -82 -70 -20 -130 -35 -132 -32 -2
2 3 53 12 113 10 69 16 184 17 310 1 179 -1 208 -22 278 -28 100 -52 146 -100
197 -33 34 -45 40 -81 40 -85 0 -144 -47 -201 -159 -69 -139 -117 -319 -145
-551 -26 -223 -34 -263 -50 -279 -33 -34 -270 -38 -800 -16 -394 16 -367 15
-980 55 -379 25 -984 53 -993 45 -1 -1 4 -18 12 -37 16 -37 32 -48 72 -48 13
0 24 -4 24 -8 0 -5 18 -28 40 -52 22 -24 40 -44 40 -45 0 -1 -39 -5 -88 -8
-163 -11 -224 -48 -196 -121 3 -9 10 -14 14 -11 5 3 6 -4 3 -15 -4 -14 0 -20
11 -20 9 0 16 -5 16 -11 0 -5 4 -8 9 -5 5 4 11 2 13 -3 1 -5 10 -11 18 -13 8
-2 18 -7 22 -12 7 -10 19 -13 78 -22 19 -3 42 -8 50 -11 59 -22 734 -38 1640
-38 805 0 927 2 1105 15 61 5 139 10 175 11 36 2 76 6 90 11 14 4 120 31 235
59 116 28 250 64 300 80 49 16 97 29 106 29 9 0 83 20 165 44 214 63 384 111
524 147 126 32 285 87 294 101 13 21 -17 58 -47 58 -14 0 -17 4 -12 18 36 89
47 166 51 367 5 270 -15 406 -68 462 -25 27 -45 29 -76 7z m-3 -509 c13 -14
21 -29 17 -33 -4 -3 -11 0 -15 7 -5 7 -16 11 -25 9 -14 -3 -13 -8 9 -38 24
-35 25 -37 13 -117 -10 -66 -9 -84 2 -97 12 -15 14 -15 32 0 40 37 60 167 36
245 -13 44 -6 59 17 36 33 -34 6 -251 -39 -303 l-21 -25 -23 19 c-27 23 -46
83 -37 113 4 11 1 51 -6 88 -11 65 -7 121 9 121 4 0 18 -12 31 -25z m-1334
-247 c4 4 5 -33 2 -83 -14 -202 -103 -381 -181 -361 -36 9 -33 30 6 41 36 11
95 81 103 123 3 15 10 47 16 72 5 25 7 77 3 117 -4 39 -3 84 1 99 l7 29 18
-22 c9 -12 21 -19 25 -15z m-197 10 c7 -7 12 -23 12 -36 0 -19 -4 -22 -20 -17
-16 5 -20 2 -20 -14 0 -12 4 -21 10 -21 5 0 19 -18 30 -41 21 -39 21 -42 4
-86 -16 -42 -19 -44 -31 -27 -12 16 -15 17 -24 4 -7 -11 -9 -7 -4 17 4 20 1
42 -9 61 -10 19 -15 54 -14 94 0 34 3 57 5 51 7 -21 33 -15 33 7 0 23 10 26
28 8z"/>
<path d="M666 1869 c-14 -11 -26 -27 -26 -35 0 -8 -4 -13 -8 -10 -4 2 -14 1
-22 -5 -13 -7 -12 -9 3 -9 9 0 17 -8 18 -17 0 -15 2 -15 9 2 5 14 7 6 6 -25
l-3 -45 -41 2 c-55 2 -54 -13 1 -20 24 -3 46 -13 52 -22 33 -56 67 -94 96
-108 80 -37 398 -54 456 -24 34 18 38 27 48 97 8 60 -17 167 -47 196 -31 31
-135 44 -347 44 -155 0 -170 -2 -195 -21z"/>
<path d="M998 1515 c-5 -5 -8 -59 -8 -121 0 -62 -3 -115 -7 -117 -5 -2 -63 -1
-130 4 -67 4 -160 9 -208 10 -53 2 -102 10 -128 20 -23 10 -86 27 -139 39 -59
13 -98 27 -102 36 -8 20 3 18 139 -20 106 -30 138 -36 124 -22 -11 11 -279 89
-285 83 -7 -7 21 -233 32 -262 4 -8 10 -12 16 -9 5 3 17 -1 26 -9 9 -8 48 -25
85 -37 56 -19 80 -22 141 -17 41 4 145 0 232 -8 345 -31 636 -48 1084 -65 163
-6 298 -16 350 -26 102 -20 367 -15 600 11 175 19 208 28 216 61 6 25 -36 143
-79 219 -33 59 -57 61 -368 36 -347 -29 -472 -46 -523 -70 -39 -19 -52 -20
-251 -11 -115 5 -222 10 -237 10 l-28 0 0 124 c0 72 -4 127 -10 131 -15 9
-534 19 -542 10z m1832 -232 c-27 -12 -89 -16 -276 -19 -214 -4 -287 -9 -464
-30 -32 -4 -41 -2 -30 5 8 6 37 13 65 16 89 11 578 43 660 43 l80 0 -35 -15z"/>
<path d="M3820 1486 c0 -36 19 -174 31 -229 10 -44 14 -48 38 -45 22 3 26 7
25 36 -1 18 -5 40 -10 50 -4 9 -9 24 -10 32 -1 8 -5 26 -8 40 -3 14 -9 39 -12
55 -15 68 -54 113 -54 61z"/>
</g>
</svg>
