<?xml version="1.0" standalone="no"?>
<!DOCTYPE svg PUBLIC "-//W3C//DTD SVG 20010904//EN"
 "http://www.w3.org/TR/2001/REC-SVG-20010904/DTD/svg10.dtd">
<svg version="1.0" xmlns="http://www.w3.org/2000/svg"
 width="540.000000pt" height="348.000000pt" viewBox="0 0 540.000000 348.000000"
 preserveAspectRatio="xMidYMid meet">
<metadata>
Created by potrace 1.15, written by Peter Selinger 2001-2017
</metadata>
<g transform="translate(0.000000,348.000000) scale(0.100000,-0.100000)"
fill="#000000" stroke="none">
<path d="M3663 2885 c-73 -16 -147 -51 -204 -97 -81 -65 -287 -349 -308 -424
-14 -48 -14 -151 -1 -159 11 -7 175 14 209 27 14 5 72 13 130 19 58 5 126 16
151 24 58 19 474 66 478 54 2 -5 8 -9 13 -9 6 0 7 5 4 10 -3 6 0 10 7 10 7 0
118 9 246 20 253 22 262 24 346 94 33 27 48 35 43 22 -6 -16 -5 -17 7 -7 12
10 0 26 -77 98 -113 104 -223 194 -280 227 -56 33 -197 72 -328 91 -129 18
-351 18 -436 0z m-104 -405 c71 -12 135 -41 150 -68 5 -9 11 -28 12 -42 3 -20
-1 -26 -21 -28 -20 -2 -22 -1 -10 8 13 9 13 11 0 20 -8 5 -24 9 -35 9 -17 -1
-17 -2 -2 -6 35 -9 16 -23 -32 -23 -29 0 -51 -5 -53 -12 -5 -13 -92 -26 -185
-27 l-63 -1 0 70 c0 95 15 110 108 110 37 0 96 -5 131 -10z"/>
<path d="M3408 2876 c-14 -10 -113 -14 -440 -19 -233 -4 -439 -11 -458 -16
-25 -6 -29 -9 -12 -10 12 -1 22 -7 22 -16 0 -9 -6 -12 -17 -8 -10 4 -14 2 -9
-5 7 -12 -60 -29 -71 -18 -4 3 3 6 14 6 11 0 26 7 33 15 15 18 10 19 -27 4
-15 -6 -69 -21 -120 -34 -51 -13 -107 -30 -125 -38 -18 -8 -62 -24 -98 -36
-36 -12 -74 -27 -86 -32 -11 -6 -37 -11 -57 -12 -20 -2 -42 -9 -49 -16 -11
-11 -10 -13 2 -6 10 5 12 5 5 -3 -5 -5 -59 -33 -120 -61 -136 -62 -284 -140
-267 -141 7 0 73 29 147 65 141 69 156 74 131 50 -8 -8 -19 -15 -24 -15 -6 0
-25 -14 -43 -32 l-34 -32 35 21 c229 137 403 216 556 253 49 12 93 25 98 30 7
7 64 3 74 -5 2 -2 -18 -36 -44 -77 -27 -40 -49 -75 -50 -76 -2 -2 -12 -1 -24
3 -20 6 -21 7 -3 20 20 15 -125 -30 -306 -95 -63 -22 -121 -38 -128 -36 -8 3
-16 -1 -20 -10 -3 -8 -12 -13 -19 -10 -8 3 -14 1 -14 -5 0 -6 -4 -7 -10 -4 -5
3 -10 1 -10 -4 0 -6 -21 -12 -47 -12 -42 -1 -44 -2 -18 -9 l30 -7 -28 -11
c-16 -7 -31 -12 -35 -12 -4 0 -29 -12 -57 -25 -27 -14 -64 -25 -82 -25 -17 0
-44 -5 -60 -11 -37 -15 -178 -29 -214 -22 -34 6 -29 23 7 23 15 0 40 16 67 44
24 24 73 62 110 86 37 23 67 44 67 46 0 7 -83 -42 -154 -89 -36 -25 -57 -34
-53 -24 4 11 -11 5 -46 -17 -29 -18 -77 -42 -107 -53 l-54 -21 49 -6 c83 -12
1259 -16 1425 -5 229 14 337 46 406 121 17 18 78 92 134 163 57 72 137 165
179 208 73 75 84 90 49 63z"/>
<path d="M2460 2064 c-220 -66 -546 -125 -1225 -225 -159 -23 -296 -47 -304
-53 -7 -6 -25 -29 -39 -51 -25 -41 -59 -74 -76 -75 -6 0 -1 7 10 15 10 8 15
15 10 15 -5 0 -3 7 4 15 7 8 16 13 20 10 4 -3 11 2 14 11 3 8 2 12 -4 9 -6 -3
-10 3 -10 14 0 24 0 25 -37 9 -15 -6 -34 -10 -41 -9 -11 2 -11 -2 -2 -19 6
-12 9 -24 6 -27 -9 -9 -26 8 -26 27 0 10 -12 28 -28 40 l-27 22 -3 -37 c-3
-28 2 -43 19 -61 12 -13 19 -24 14 -24 -5 0 -4 -5 2 -11 19 -19 89 -12 139 15
41 21 77 29 227 45 139 15 183 23 200 38 21 18 21 18 7 -1 -14 -17 -13 -18 5
-13 11 4 63 7 115 8 73 2 103 -2 128 -15 19 -10 36 -15 40 -12 3 3 -1 6 -9 7
-8 0 36 11 96 24 101 22 220 38 288 39 15 1 27 5 27 9 0 5 4 6 9 3 4 -3 37 -1
72 5 71 13 108 39 140 101 28 55 26 62 -23 54 -114 -18 -268 -50 -263 -54 3
-3 -1 -12 -8 -20 -10 -13 -9 -15 11 -10 12 4 22 2 22 -3 0 -5 -1 -9 -2 -9 -2
-1 -59 -8 -128 -16 -224 -27 -304 -34 -317 -29 -7 2 -13 -1 -13 -7 0 -7 -14
-9 -41 -5 -48 6 -56 12 -40 30 13 16 127 21 136 6 4 -5 -2 -9 -11 -9 -10 0
-15 -3 -11 -6 9 -9 139 15 156 29 12 10 13 9 7 -1 -5 -8 24 3 63 23 49 25 92
40 139 45 65 9 191 32 352 65 107 23 293 75 305 86 13 13 0 11 -95 -17z"/>
<path d="M2239 2036 c-6 -7 -287 -54 -474 -81 -303 -43 -757 -85 -912 -85 -87
0 -258 32 -323 61 -25 11 -58 32 -74 47 -22 21 -26 23 -18 7 6 -12 22 -27 36
-35 14 -7 26 -17 26 -21 0 -4 11 -10 25 -13 14 -4 25 -11 25 -17 0 -17 22 -35
85 -68 45 -24 61 -28 72 -20 11 10 12 8 7 -7 -6 -17 -4 -17 17 3 21 19 38 23
134 26 61 3 207 16 325 30 118 14 222 25 230 25 53 2 563 83 710 113 162 33
176 37 139 38 -14 1 -28 -1 -30 -3z"/>
<path d="M2390 2015 c-36 -13 -73 -24 -82 -24 -10 -1 -18 -7 -18 -15 0 -25
-25 -63 -70 -105 -45 -42 -45 -52 0 -26 30 17 40 18 40 5 0 -5 -4 -10 -10 -10
-5 0 -19 -9 -29 -19 -23 -23 -88 -38 -256 -56 -267 -30 -283 -32 -235 -34 25
0 100 6 168 14 67 8 168 17 224 21 88 6 109 11 153 37 93 54 226 150 236 168
5 11 15 19 22 19 15 0 48 36 40 43 -2 3 -12 -1 -21 -8 -10 -8 -35 -28 -57 -45
-22 -18 -40 -37 -40 -43 0 -5 -6 -12 -14 -15 -9 -3 -11 0 -6 8 5 9 4 11 -4 6
-6 -4 -9 -11 -6 -15 6 -10 -68 -61 -88 -61 -7 0 -18 -5 -25 -12 -6 -6 -15 -9
-19 -5 -3 4 18 29 48 57 30 27 54 55 54 61 0 6 18 26 40 45 46 39 43 40 -45 9z"/>
<path d="M5015 1907 c-39 -18 -98 -84 -129 -144 -28 -56 -62 -167 -106 -343
-28 -110 -50 -169 -50 -132 0 7 -7 12 -15 12 -8 0 -15 4 -15 9 0 5 -12 4 -27
-4 -16 -7 -95 -21 -178 -30 -82 -9 -222 -25 -310 -36 -88 -10 -302 -35 -475
-54 -311 -35 -315 -36 -345 -64 -17 -17 -47 -31 -70 -35 -22 -4 -48 -9 -57
-12 -15 -4 -16 3 -10 73 12 136 6 312 -13 383 -65 247 -222 348 -396 254 -167
-91 -270 -337 -297 -709 l-7 -100 -85 -8 c-98 -9 -761 14 -807 29 -14 4 -15 4
-3 -4 22 -13 165 -36 189 -29 12 3 19 1 15 -4 -3 -5 -27 -9 -53 -9 -53 0 -500
-36 -569 -46 l-43 -6 42 56 43 57 167 -7 c109 -4 168 -3 172 3 4 6 -2 22 -13
36 -11 14 -20 27 -20 29 0 1 53 4 118 6 64 1 213 7 329 14 170 9 216 8 228 -2
8 -7 15 -16 15 -20 0 -16 -89 -42 -162 -47 -43 -3 -75 -9 -73 -14 3 -4 22 -6
43 -4 124 12 167 17 177 23 5 4 21 7 35 7 69 0 59 125 -29 350 -38 98 -79 151
-129 164 -49 13 -275 31 -371 30 -67 -1 -60 -3 66 -15 247 -23 231 -17 279
-104 23 -41 39 -77 36 -80 -2 -3 -7 0 -9 6 -3 9 -22 8 -71 -1 -37 -6 -89 -13
-117 -14 -27 -1 -120 -6 -205 -11 -178 -11 -393 -13 -501 -4 l-74 6 0 116 c0
69 -4 117 -10 119 -7 2 -9 -24 -7 -72 2 -42 1 -96 -3 -120 l-6 -45 -77 0 c-51
1 -86 6 -102 16 -23 14 -18 15 73 10 l97 -5 0 98 0 99 -132 6 c-73 3 -221 7
-328 8 l-195 3 0 -90 0 -90 70 -6 c39 -3 78 -9 88 -13 33 -15 17 -25 -36 -20
-28 2 -99 6 -157 8 -121 4 -188 21 -202 50 -5 13 -6 56 0 109 7 77 6 87 -7 85
-13 -3 -15 -18 -12 -93 2 -50 5 -101 6 -115 2 -14 4 -42 4 -62 1 -27 7 -40 23
-49 18 -10 20 -9 15 5 -8 19 2 20 25 3 11 -9 14 -18 7 -28 -5 -8 -9 -9 -9 -4
0 6 -11 10 -25 10 -21 0 -25 -5 -25 -27 0 -16 5 -28 11 -28 6 0 3 -7 -5 -16
-23 -22 -20 -41 9 -60 26 -17 24 -34 -11 -68 -14 -15 -12 -16 28 -15 24 0 37
3 31 6 -7 2 -13 13 -13 23 0 27 42 33 146 20 98 -11 475 -41 569 -44 33 -2
146 -6 250 -10 227 -8 247 -11 261 -34 10 -16 0 -17 -190 -10 -303 10 -844 45
-976 63 -27 4 -30 3 -14 -4 11 -5 51 -12 87 -16 41 -5 67 -12 66 -19 -5 -45 1
-53 45 -58 37 -5 53 -14 99 -59 123 -121 130 -126 185 -138 64 -13 139 -14
146 -2 4 5 25 12 48 16 22 4 73 19 112 33 l71 26 515 4 514 4 73 29 c115 46
158 37 207 -39 18 -29 38 -42 87 -61 35 -13 78 -32 94 -42 86 -49 205 -59 290
-23 19 8 45 14 58 14 13 0 37 15 56 34 19 19 55 44 80 55 36 15 51 29 64 58
10 23 37 53 69 76 50 35 56 37 130 37 110 0 261 18 311 37 33 13 99 18 297 23
163 4 265 10 283 18 17 7 76 12 146 12 111 0 120 -1 145 -25 14 -13 26 -32 26
-42 1 -27 62 -53 123 -53 121 1 332 41 362 70 56 52 102 215 124 435 19 192
16 224 -26 306 -54 103 -110 136 -178 106z m-2067 -341 c15 -8 40 -29 57 -48
l30 -33 -36 33 c-42 39 -53 32 -64 -38 -4 -25 -16 -75 -27 -112 -11 -37 -17
-71 -14 -77 9 -13 -3 -38 -21 -45 -12 -5 -14 -1 -10 16 5 19 -12 129 -38 246
-8 32 -29 27 -65 -15 -18 -21 -27 -29 -22 -18 12 23 68 78 97 93 28 16 81 15
113 -2z m1557 -390 c19 -19 38 -26 77 -28 33 -2 53 -8 56 -17 5 -14 6 -14
-438 6 l-155 7 95 13 c85 12 295 39 328 42 7 0 24 -10 37 -23z m-1636 -52 c-9
-11 -22 -131 -23 -224 -1 -45 -1 -45 39 -51 l40 -6 -39 -2 c-58 -2 -119 38
-156 102 -32 57 -38 76 -16 58 11 -9 26 6 77 78 55 77 66 87 76 74 9 -11 9
-20 2 -29z"/>
<path d="M278 1841 c-15 -18 -15 -21 5 -39 12 -10 33 -26 46 -35 23 -15 26
-15 43 0 21 19 38 16 201 -31 112 -32 130 -32 109 1 -4 7 -55 29 -112 49 -58
20 -117 42 -132 50 -33 17 -49 18 -27 1 8 -7 18 -20 22 -31 6 -14 4 -17 -9
-12 -8 3 -22 6 -29 6 -7 0 -28 12 -46 28 l-34 27 24 -33 c13 -18 28 -29 34
-26 9 5 9 3 0 -6 -10 -11 -17 -9 -40 6 -15 10 -34 17 -40 16 -16 -4 -17 10 -1
26 6 6 9 14 7 17 -3 2 -12 -4 -21 -14z"/>
</g>
</svg>
