<?xml version="1.0" standalone="no"?>
<!DOCTYPE svg PUBLIC "-//W3C//DTD SVG 20010904//EN"
 "http://www.w3.org/TR/2001/REC-SVG-20010904/DTD/svg10.dtd">
<svg version="1.0" xmlns="http://www.w3.org/2000/svg"
 width="600.000000pt" height="300.000000pt" viewBox="0 0 600.000000 300.000000"
 preserveAspectRatio="xMidYMid meet">

<g transform="translate(0.000000,300.000000) scale(0.100000,-0.100000)"
fill="#000000" stroke="none">
<path d="M0 1500 l0 -1500 3000 0 3000 0 0 1500 0 1500 -3000 0 -3000 0 0
-1500z m4640 1373 c208 -43 394 -156 600 -362 58 -59 137 -146 175 -196 64
-83 161 -184 177 -185 3 0 21 -21 40 -47 26 -37 32 -55 28 -77 -6 -34 -30 -48
-30 -17 0 20 -6 21 -92 22 -121 2 -166 0 -203 -11 -16 -5 -97 -17 -180 -26
-179 -21 -798 -28 -729 -8 31 8 40 16 42 36 2 14 -4 32 -12 41 -17 17 -21 64
-7 86 7 10 48 14 183 16 138 2 181 6 206 19 38 20 278 44 444 46 l57 0 -20 71
c-38 137 -86 205 -212 301 -175 134 -313 194 -468 205 -99 7 -144 -4 -181 -45
-39 -41 -39 -40 -105 -444 -8 -54 -19 -98 -23 -98 -4 0 -6 10 -4 23 2 12 17
117 34 232 36 248 43 275 76 314 48 57 201 62 348 11 68 -23 87 -21 25 4 -111
45 -283 59 -345 30 -70 -34 -85 -78 -129 -382 -31 -217 -35 -225 -110 -216
-37 4 -46 3 -35 -5 8 -6 30 -11 48 -11 33 0 33 -1 27 -32 -4 -18 -11 -38 -16
-44 -5 -6 -7 -18 -3 -27 4 -11 -1 -16 -18 -19 -13 -2 -22 -6 -21 -11 1 -4 4
-33 8 -65 10 -86 4 -82 86 -66 127 24 86 8 -87 -35 -92 -22 -172 -45 -177 -50
-12 -12 85 -68 132 -77 19 -4 75 -2 125 5 50 6 183 22 296 36 113 13 231 27
263 31 43 5 57 10 53 20 -3 9 2 14 15 14 11 0 31 8 46 17 26 17 26 17 14 -5
-11 -21 -10 -22 22 -22 18 0 96 9 173 20 206 29 217 31 205 43 -11 11 14 36
37 37 10 0 10 -5 1 -21 -11 -21 -10 -21 27 -14 69 13 158 25 189 25 28 0 34
-6 64 -67 28 -58 30 -68 17 -75 -9 -5 -19 -27 -22 -48 -7 -46 -13 -48 -40 -19
-16 18 -26 20 -72 15 -41 -5 -62 -2 -98 15 -130 59 -369 65 -453 12 -15 -10
-56 -16 -115 -18 -91 -4 -205 -26 -319 -64 -100 -33 -253 -61 -336 -61 -42 0
-81 -4 -87 -9 -24 -24 -53 -15 -101 31 -87 80 -171 83 -256 7 -45 -39 -127
-155 -127 -178 0 -10 -11 -12 -42 -7 -55 8 -148 37 -148 45 0 4 23 29 50 56
28 27 50 55 50 62 0 22 -60 81 -104 102 -29 15 -63 21 -112 22 -38 0 -78 4
-89 9 -12 5 -14 9 -6 9 8 1 12 3 9 6 -3 3 -21 -2 -41 -10 -50 -21 -54 -19 -26
11 l24 27 -30 -15 c-18 -10 -75 -18 -145 -22 -107 -6 -310 -22 -390 -31 -19
-2 -93 -8 -165 -14 -71 -6 -168 -14 -215 -18 -47 -4 -114 -7 -150 -6 -36 0
-144 1 -240 1 -162 1 -338 -10 -385 -24 -11 -4 -17 -3 -13 1 4 5 25 12 45 16
28 6 -151 5 -216 -1 -2 0 7 -9 20 -21 l24 -20 -25 15 c-48 28 -152 40 -365 40
-195 1 -213 -1 -249 -20 l-39 -21 -116 47 c-110 45 -147 53 -109 26 9 -7 61
-30 115 -52 54 -21 99 -42 101 -46 2 -3 24 3 49 14 43 19 60 20 267 15 122 -3
237 -9 256 -14 l35 -9 -36 -6 c-21 -4 -113 -2 -205 3 -239 13 -340 0 -358 -47
-4 -9 -9 -14 -12 -11 -4 3 -13 -1 -21 -9 -11 -10 -19 -12 -28 -4 -9 7 -16 6
-24 -4 -10 -11 -5 -15 25 -23 21 -4 39 -14 42 -21 2 -7 -2 -10 -11 -6 -16 6
-47 -20 -47 -40 0 -33 -82 -40 -105 -9 -6 8 -15 9 -24 4 -19 -12 -5 -31 24
-31 13 0 27 -4 30 -10 7 -11 -26 -6 -139 21 -44 10 -81 17 -84 15 -7 -8 43
-29 113 -47 89 -24 104 -23 129 0 18 16 30 18 75 13 39 -5 57 -13 65 -27 6
-11 20 -33 31 -50 14 -22 15 -27 3 -17 -20 16 -30 3 -24 -30 13 -69 34 -82
102 -63 27 7 40 14 30 14 -11 1 -17 3 -14 6 3 3 27 1 54 -5 27 -5 87 -14 134
-19 74 -7 81 -9 51 -16 -31 -7 -33 -9 -16 -21 10 -8 16 -16 14 -19 -7 -7 -216
14 -259 25 -38 11 -162 2 -155 -10 6 -9 -35 -1 -50 10 -5 4 -45 22 -89 39 -43
17 -90 39 -105 49 -14 10 -43 27 -64 37 -21 11 -52 31 -69 45 l-30 26 27 39
c15 22 31 39 36 38 5 -2 9 1 9 7 0 5 14 26 32 46 27 31 32 45 36 102 4 60 8
70 45 114 45 53 129 101 274 159 43 17 123 54 179 84 108 58 138 66 404 109
179 29 245 38 280 37 62 -2 94 17 220 134 255 238 585 453 765 499 73 18 250
39 325 37 30 0 116 6 190 15 94 10 284 17 630 20 272 3 517 9 544 12 80 11
295 3 376 -15z m206 -483 c69 -15 93 -32 75 -54 -7 -9 -25 -16 -38 -16 -22 0
-24 2 -13 15 7 9 10 19 6 23 -13 12 -333 15 -367 3 -18 -6 -34 -9 -36 -7 -8 7
45 38 80 47 41 11 226 4 293 -11z m-3032 -36 c17 -17 20 -25 9 -22 -15 4 -88
-14 -100 -24 -7 -6 -13 -15 -13 -20 0 -6 6 -6 14 1 12 10 13 8 9 -9 -6 -21 -9
-22 -87 -15 -45 4 -83 9 -84 10 -2 2 -1 13 3 25 15 48 212 91 249 54z m2789
-51 c-7 -2 -19 -2 -25 0 -7 3 -2 5 12 5 14 0 19 -2 13 -5z m1127 -592 c-24
-47 -45 -65 -30 -26 6 15 15 36 22 48 6 12 11 36 11 52 l-2 30 10 -32 c8 -26
5 -41 -11 -72z m-2256 20 c14 -5 -3 -11 -58 -20 -43 -7 -80 -10 -83 -7 -4 3 3
6 15 6 24 0 30 15 10 23 -7 3 12 5 42 6 30 0 64 -4 74 -8z m-161 -38 c-7 -2
-21 -2 -30 0 -10 3 -4 5 12 5 17 0 24 -2 18 -5z m-1460 -10 c-18 -2 -48 -2
-65 0 -18 2 -4 4 32 4 36 0 50 -2 33 -4z m197 -18 c8 -2 -85 -3 -208 -2 -123
2 -215 0 -205 -4 11 -5 1 -8 -30 -8 -72 -1 -112 -22 -138 -73 -12 -24 -24 -38
-26 -31 -7 19 25 70 59 94 19 14 47 23 70 24 21 0 38 3 38 6 0 6 415 0 440 -6z
m1113 8 c-7 -2 -21 -2 -30 0 -10 3 -4 5 12 5 17 0 24 -2 18 -5z m-75 -10 c-10
-2 -26 -2 -35 0 -10 3 -2 5 17 5 19 0 27 -2 18 -5z m-920 -10 c-10 -2 -26 -2
-35 0 -10 3 -2 5 17 5 19 0 27 -2 18 -5z m815 0 c-7 -2 -21 -2 -30 0 -10 3 -4
5 12 5 17 0 24 -2 18 -5z m262 -27 c18 -33 18 -38 3 -93 -12 -42 -14 -60 -5
-65 23 -14 -46 -28 -142 -28 l-97 0 -39 41 c-32 33 -36 40 -18 35 12 -4 31 -2
42 3 15 8 20 7 25 -6 4 -9 4 -18 1 -21 -3 -3 -5 0 -5 6 0 7 -7 12 -15 12 -12
0 -13 -4 -6 -19 12 -22 74 -32 154 -24 65 7 79 22 91 99 5 33 2 47 -15 68 -15
19 -17 26 -6 26 7 0 22 -15 32 -34z m-352 17 c-7 -2 -21 -2 -30 0 -10 3 -4 5
12 5 17 0 24 -2 18 -5z m-580 -45 c20 6 38 8 41 5 11 -11 -6 -23 -30 -23 -14
0 -34 -5 -45 -10 -15 -9 -19 -7 -19 7 0 9 -10 28 -22 42 -20 23 -19 23 8 -2
29 -26 35 -28 67 -19z m507 33 c0 -9 -80 -5 -89 5 -2 2 17 4 42 4 26 0 47 -4
47 -9z m-1445 -32 c9 -17 15 -34 13 -39 -2 -5 -11 9 -20 30 -20 47 -15 53 7 9z
m1308 24 c-13 -2 -33 -2 -45 0 -13 2 -3 4 22 4 25 0 35 -2 23 -4z m420 -13
c16 -19 16 -20 -3 -20 -13 0 -20 7 -20 20 0 11 1 20 3 20 1 0 10 -9 20 -20z
m427 16 c0 -2 -24 -24 -52 -47 -29 -24 -45 -34 -35 -23 9 11 17 30 17 42 0 11
8 23 18 25 23 6 52 8 52 3z m2225 -90 c0 -52 -3 -97 -6 -101 -11 -10 -17 169
-6 183 5 6 10 12 11 12 0 0 1 -42 1 -94z m-3287 77 c-10 -2 -28 -2 -40 0 -13
2 -5 4 17 4 22 1 32 -1 23 -4z m100 0 c-16 -2 -40 -2 -55 0 -16 2 -3 4 27 4
30 0 43 -2 28 -4z m322 -8 c19 -23 19 -68 -1 -107 -11 -21 -18 -43 -17 -50 2
-10 -22 -14 -96 -16 l-98 -3 -53 41 c-49 38 -55 40 -123 40 -41 0 -72 4 -72
10 0 6 32 10 77 10 68 0 80 -3 102 -24 45 -43 75 -53 158 -52 l78 1 18 35 c17
35 17 35 -5 42 l-23 6 23 7 c22 7 30 39 12 50 -12 8 -13 25 -1 25 5 0 14 -7
21 -15z m-94 -8 c4 -4 16 -7 26 -7 26 0 22 -26 -4 -34 -58 -15 -89 1 -74 39 5
15 39 16 52 2z m791 -104 c40 -10 73 -21 73 -26 0 -4 -12 -12 -26 -17 -15 -6
-37 -19 -50 -29 -13 -10 -41 -22 -61 -26 -42 -8 -127 -51 -168 -85 -10 -8 -20
-14 -22 -12 -2 1 -20 -5 -41 -14 -20 -9 -58 -18 -83 -19 -25 -1 -52 -6 -59
-10 -9 -5 -11 -4 -6 3 5 8 -8 10 -44 6 -27 -2 -50 -1 -50 4 0 19 33 52 53 52
12 0 63 9 114 19 73 15 106 28 160 64 38 24 80 58 94 75 13 17 28 31 33 31 6
1 43 -7 83 -16z m2172 -151 c0 -15 -4 -36 -9 -47 -6 -15 -9 -6 -9 33 -1 33 3
51 9 47 6 -3 10 -18 9 -33z m-745 -42 c-29 -29 -194 -68 -364 -85 -70 -8 -173
-29 -217 -46 -16 -6 -24 -6 -18 -1 22 22 158 61 280 81 72 12 155 26 185 32
30 6 68 12 83 13 16 2 36 11 45 19 9 9 18 14 21 11 3 -2 -4 -13 -15 -24z m205
-5 c12 -12 11 -16 -13 -26 -22 -10 -29 -10 -35 0 -6 9 -27 12 -70 9 -69 -3
-87 17 -23 27 20 4 44 8 52 10 26 6 74 -5 89 -20z m-2179 1 c0 -22 -21 -32
-91 -44 -92 -17 -94 -16 -77 11 15 21 29 25 161 46 4 0 7 -5 7 -13z m-1555
-30 c17 -1 -26 -3 -95 -3 -69 0 -109 2 -90 6 32 6 116 4 185 -3z m1367 -11
c-4 -24 -22 -36 -22 -15 0 18 -238 -18 -288 -44 -15 -7 -43 -14 -62 -14 -19 1
-43 -3 -53 -7 -10 -4 -51 -5 -92 -2 -51 3 -73 2 -68 -6 3 -5 1 -7 -5 -4 -5 4
-8 16 -5 28 3 11 9 17 12 12 5 -7 54 -9 74 -3 4 1 28 3 55 4 26 1 52 4 57 7
10 7 40 14 105 25 53 9 273 42 286 43 7 1 9 -9 6 -24z m-2458 -33 c6 -5 61
-24 121 -42 61 -19 117 -39 125 -46 8 -6 54 -29 103 -49 48 -21 90 -42 93 -47
11 -18 -20 -28 -87 -28 -61 0 -67 2 -99 34 -27 29 -59 43 -191 87 -182 59
-200 69 -179 94 11 13 24 16 59 11 24 -3 49 -10 55 -14z m1566 -3 c0 -13 -11
-16 -70 -22 -50 -6 -52 -5 -22 5 18 6 31 16 29 22 -3 8 7 10 29 8 19 -2 34 -8
34 -13z m224 -11 c-3 -4 12 -5 31 -4 28 3 35 1 33 -12 -2 -8 -9 -17 -17 -20
-8 -3 -11 0 -8 5 3 5 -6 8 -21 8 -15 -1 -33 4 -41 9 -11 9 -13 8 -7 -2 7 -11
4 -12 -13 -3 -12 7 -27 9 -34 5 -8 -5 -7 -2 2 9 13 16 85 21 75 5z m1117 -31
c23 -15 36 -34 42 -60 5 -21 7 -40 5 -42 -2 -3 -21 4 -41 14 -21 11 -32 21
-25 23 7 3 9 12 5 22 -6 16 -15 17 -60 12 -28 -3 -92 -6 -140 -6 -68 0 -87 -3
-81 -12 5 -9 4 -10 -5 -3 -7 7 -38 8 -88 3 -43 -4 -109 -10 -148 -14 -38 -3
-74 -9 -79 -12 -5 -3 -6 0 -2 6 4 7 22 12 39 12 18 0 52 5 77 11 25 6 54 12
64 15 36 7 131 15 236 19 81 3 107 7 115 19 14 22 46 20 86 -7z m1059 -17 c13
-8 13 -10 -2 -10 -9 0 -20 5 -23 10 -8 13 5 13 25 0z m-3895 -80 c76 -22 146
-47 154 -55 21 -21 -2 -20 -37 1 -15 8 -81 27 -146 42 -66 15 -121 33 -124 40
-5 17 -4 17 153 -28z m2204 26 c-2 -2 -44 -7 -94 -10 -185 -12 -285 -28 -314
-50 -12 -9 -13 -8 -6 4 8 13 6 13 -8 1 -9 -7 -15 -16 -13 -20 3 -4 -7 -7 -21
-6 -16 0 -31 -9 -42 -25 -9 -13 -11 -21 -4 -17 6 4 14 1 17 -5 3 -7 3 -3 1 9
-3 12 -1 24 4 28 7 4 8 -1 4 -11 -4 -12 -3 -15 5 -10 8 5 10 1 5 -11 -6 -16
-5 -16 10 -4 9 7 17 10 17 5 0 -4 5 -3 12 4 7 7 16 12 22 12 5 0 -9 -12 -30
-28 l-39 -27 -232 9 -233 9 0 23 c0 25 14 32 25 14 4 -6 11 -7 17 -4 7 4 8 2
4 -5 -4 -6 -11 -9 -16 -6 -5 3 -11 1 -15 -5 -9 -14 28 -12 44 3 11 9 12 9 7 0
-6 -10 10 -12 66 -8 40 2 82 4 94 5 11 0 38 9 59 20 22 11 47 20 56 20 9 0 45
9 80 21 117 38 174 52 234 59 67 8 291 12 284 6z m2558 -62 c-3 -3 -12 -4 -19
-1 -8 3 -5 6 6 6 11 1 17 -2 13 -5z m-40 -10 c-3 -3 -12 -4 -19 -1 -8 3 -5 6
6 6 11 1 17 -2 13 -5z m-70 -20 c-3 -3 -12 -4 -19 -1 -8 3 -5 6 6 6 11 1 17
-2 13 -5z m-1977 -19 c-17 -10 -54 -14 -115 -13 l-90 1 70 8 c39 5 75 11 80
13 6 3 26 5 45 5 l35 0 -25 -14z m-787 -52 c-7 -2 -21 -2 -30 0 -10 3 -4 5 12
5 17 0 24 -2 18 -5z m-2023 -98 c14 0 24 -5 23 -11 -4 -19 116 -74 162 -74 29
0 47 -6 59 -19 10 -11 32 -21 50 -23 24 -3 14 -7 -39 -17 -98 -19 -206 -1
-247 39 -15 16 -28 36 -28 45 0 9 -7 23 -15 31 -8 9 -15 30 -15 47 l0 32 13
-25 c8 -16 21 -25 37 -25z m367 -121 c-3 -3 -12 -4 -19 -1 -8 3 -5 6 6 6 11 1
17 -2 13 -5z m-375 -11 c-10 -4 -10 -8 0 -21 12 -13 10 -14 -9 -3 -13 6 -23
16 -23 21 0 6 10 10 23 9 12 0 16 -3 9 -6z m2983 -23 c4 -7 13 -7 26 0 14 8
19 7 19 -3 0 -16 -29 -42 -90 -83 l-45 -29 -180 -3 c-173 -3 -224 2 -120 12
28 2 50 5 50 6 0 3 45 9 105 14 30 3 55 6 55 7 0 0 11 2 25 4 36 3 116 38 101
43 -9 3 -8 9 5 23 19 21 39 25 49 9z m-2945 -10 c0 -5 -2 -10 -4 -10 -3 0 -8
5 -11 10 -3 6 -1 10 4 10 6 0 11 -4 11 -10z"/>
<path d="M3230 2810 c-255 -14 -448 -30 -570 -47 -63 -8 -136 -17 -163 -18
-85 -4 -291 -142 -611 -408 -91 -76 -166 -142 -166 -147 0 -5 -12 -16 -27 -24
l-28 -15 28 -1 c15 0 27 4 27 8 0 14 75 42 111 42 19 0 111 4 204 9 297 17
1931 14 2076 -4 l37 -5 26 138 c29 154 68 394 70 432 1 24 -1 25 -84 31 -155
12 -773 18 -930 9z"/>
<path d="M5345 2251 c5 -34 12 -48 19 -40 2 2 -3 20 -10 39 l-14 35 5 -34z"/>
<path d="M1805 2180 c-19 -8 -19 -9 3 -9 12 -1 22 4 22 9 0 6 -1 10 -2 9 -2 0
-12 -4 -23 -9z"/>
<path d="M1853 2173 c9 -2 25 -2 35 0 9 3 1 5 -18 5 -19 0 -27 -2 -17 -5z"/>
<path d="M2038 2163 c6 -2 18 -2 25 0 6 3 1 5 -13 5 -14 0 -19 -2 -12 -5z"/>
<path d="M4468 2113 c7 -3 16 -2 19 1 4 3 -2 6 -13 5 -11 0 -14 -3 -6 -6z"/>
<path d="M5350 2049 c0 -15 4 -19 16 -15 9 3 23 6 31 6 13 0 13 3 3 15 -19 23
-50 19 -50 -6z"/>
<path d="M4896 2008 c-21 -30 -20 -51 2 -45 9 3 34 8 55 12 42 7 46 17 15 39
-31 22 -54 20 -72 -6z"/>
<path d="M1500 1850 c-11 -7 -6 -8 16 -4 24 5 33 2 38 -11 5 -15 2 -16 -30
-10 -31 5 -36 4 -31 -9 8 -19 -11 -32 -25 -18 -8 8 -7 16 3 29 13 17 13 17
-10 2 -43 -27 -49 -46 -23 -71 20 -21 25 -21 69 -10 27 7 59 24 72 37 22 21
23 27 13 50 -9 19 -19 25 -44 25 -18 0 -40 -5 -48 -10z"/>
<path d="M4002 1804 c4 -21 22 -23 26 -1 2 10 -3 17 -13 17 -10 0 -15 -6 -13
-16z"/>
<path d="M541 1621 c-10 -6 -11 -21 -4 -62 8 -53 9 -54 43 -57 30 -2 38 2 53
27 21 36 21 41 0 41 -10 0 -28 12 -40 27 -13 14 -23 22 -23 17 0 -5 -4 -4 -8
3 -4 7 -13 9 -21 4z m26 -78 c-3 -10 -5 -2 -5 17 0 19 2 27 5 18 2 -10 2 -26
0 -35z"/>
<path d="M458 1613 c-33 -4 -38 -8 -39 -31 0 -21 -2 -23 -8 -9 -6 17 -8 17
-25 -2 -17 -19 -17 -21 -2 -36 9 -9 16 -21 16 -26 0 -5 5 -9 10 -9 6 0 10 10
10 21 0 18 3 19 14 10 8 -7 30 -11 48 -9 26 2 34 8 36 27 4 28 -6 72 -16 69
-4 -1 -24 -3 -44 -5z"/>
<path d="M453 1493 c9 -2 23 -2 30 0 6 3 -1 5 -18 5 -16 0 -22 -2 -12 -5z"/>
</g>
</svg>
