<?xml version="1.0" encoding="utf-8"?>
<!-- Generator: Adobe Illustrator 21.1.0, SVG Export Plug-In . SVG Version: 6.00 Build 0)  -->
<svg version="1.1" id="Layer_1" xmlns="http://www.w3.org/2000/svg" xmlns:xlink="http://www.w3.org/1999/xlink" x="0px" y="0px"
	 viewBox="0 0 190 80" style="enable-background:new 0 0 190 80;" xml:space="preserve">
<style type="text/css">
	.car-st0{fill-rule:evenodd;clip-rule:evenodd;fill:#CCCCCC;}
</style>
<path class="car-st0" d="M181.9,57.9c0.9-2.8,0.9-8.3,0.9-11.6c0-1.4-0.3-2.4-1.7-2.7c-0.9-0.2-1.7-0.4-1.7-0.7c-0.3-4.4-0.6-7.6-1-12.1
	c-0.3-2.8-5.2-5.3-8.1-7.9c-2.6-2.4-8-6.4-10.3-8.2c-1.9-1.6,0.9-3.3-0.8-4.1c-2.9-1.3-8.2-1.8-14-2C130.9,8,111.7,7.9,97.9,8.9
	c-4.9,0.4-9.8,1-13.6,2.2C73.8,14.4,64.9,22.6,55,27.3c-12,1.3-24,2.4-36.1,5.4c-3.9,1-4.8,2.5-6,4.8c-1.3,2.5-0.8,4.9-1.4,6.4
	c-1,0.1-1-0.2-1.3,0.4c-0.3,0.6-0.1,1.4-0.2,2.3c-0.3,4.4-1.3,11,2.4,13.8c0.2,0.1,0.4,0.2,0.6,0.3h5.6c2.8,0,2.6-0.5,2.9-3.4
	C22.3,48.6,29.5,42,38.3,42c8.5,0,15.5,6.5,16.8,14.5c0.6,3.6-0.3,4.3,3.4,4.3h72.6c2.6,0,2.4-0.3,2.6-2.9
	c0.6-8.9,7.9-15.9,16.9-15.9c8.9,0,16.1,6.9,16.9,15.6c0.3,3.1,0,3.1,2.9,3.1h7C179.6,60.7,181.1,60.2,181.9,57.9L181.9,57.9z
	 M150.6,45.9c7.2,0,13,5.8,13,13c0,7.2-5.8,13-13,13c-7.2,0-13-5.8-13-13C137.5,51.8,143.4,45.9,150.6,45.9L150.6,45.9z M38.3,45.9
	c7.2,0,13,5.8,13,13c0,7.2-5.8,13-13,13c-7.2,0-13-5.8-13-13C25.2,51.8,31.1,45.9,38.3,45.9L38.3,45.9z M73.3,30.1
	c0.1-0.3,0.5-1.6,0.6-2.9c0.1-2.3-4-2.4-6.6-2.3c5-3.7,11.8-8.2,18.4-10.5c2.3-0.8,9.2-1.2,13.6-1.3c1.9,0,3.7-0.1,5.6-0.1
	c1,0,1.1,0.5,0.9,1.3c-1,2.7-1.4,8.5-2,12.4c-0.3,1.9-0.7,2.3-2.7,2.3C93.6,29,73.2,30.4,73.3,30.1L73.3,30.1z M134,27.8
	c-0.1-4.2-0.9-8.3-2.2-12.3c-7.1-3.1-12.4-2.5-19.9-2.6c-0.6,0-1.3,0.3-1.4,0.7c-0.8,2.1-1,4.9-2,13.5c-0.3,2.3-0.1,1.7,2.5,1.7
	C117.4,28.7,126.8,28.2,134,27.8L134,27.8z M135.2,16.3c1.2,3.7,1.9,7.5,2.4,11.4c2.6-0.1,1.8-0.3,4.1-0.3c3.3-0.1,3.2-1.4,1.1-4.3
	C142.1,22,139,18,135.2,16.3L135.2,16.3z M151.8,14.7c1.4,0.1,2.9,0.2,4.3,0.3c4.3,3.5,8.6,6.6,12.8,10c2.3,1.8,0.1,1.6-1.7,1.3
	C160.6,25.1,156,19.9,151.8,14.7L151.8,14.7z"/>
</svg>
