<?xml version="1.0" standalone="no"?>
<!DOCTYPE svg PUBLIC "-//W3C//DTD SVG 20010904//EN"
 "http://www.w3.org/TR/2001/REC-SVG-20010904/DTD/svg10.dtd">
<svg version="1.0" xmlns="http://www.w3.org/2000/svg"
 width="540.000000pt" height="348.000000pt" viewBox="0 0 540.000000 348.000000"
 preserveAspectRatio="xMidYMid meet">
<metadata>
Created by potrace 1.15, written by Peter Selinger 2001-2017
</metadata>
<g transform="translate(0.000000,348.000000) scale(0.100000,-0.100000)"
fill="#000000" stroke="none">
<path d="M3698 2866 c-21 -11 -101 -16 -355 -20 -352 -7 -387 -10 -533 -50
-127 -36 -462 -147 -457 -152 2 -3 27 1 55 7 103 21 84 3 -43 -45 -71 -27
-158 -61 -192 -77 -176 -80 -172 -70 12 31 72 40 123 70 115 67 -24 -9 -220
-92 -280 -120 -31 -13 -125 -59 -210 -101 -118 -58 -164 -76 -196 -76 -24 0
-44 5 -46 12 -3 8 -23 1 -59 -20 -64 -37 -77 -36 201 -17 293 19 585 33 1105
50 493 17 535 20 587 46 42 21 56 41 148 209 77 141 131 222 166 249 31 24 22
27 -18 7z"/>
<path d="M3823 2789 c-42 -27 -86 -95 -170 -264 -85 -172 -117 -250 -109 -270
7 -19 40 -32 117 -44 63 -11 106 -7 459 39 85 11 202 23 260 26 58 2 129 7
159 10 l53 6 -6 50 c-7 53 -59 133 -79 121 -6 -3 -7 -1 -3 6 5 7 -32 51 -96
115 -90 90 -115 109 -198 149 -96 46 -157 66 -146 48 4 -5 23 -15 44 -22 56
-18 131 -57 186 -97 47 -34 85 -96 111 -180 7 -24 7 -24 -20 -6 -18 12 -29 14
-33 7 -5 -8 -30 -6 -84 5 -75 16 -78 17 -90 52 -6 19 -13 29 -15 22 -4 -9 -12
-7 -32 8 l-28 19 4 -27 c3 -17 -4 -9 -18 23 -12 28 -39 88 -60 135 l-38 85
-68 3 c-55 2 -74 -2 -100 -19z m198 -99 c21 -52 39 -98 39 -102 0 -3 -18 2
-40 13 -21 10 -44 19 -49 19 -6 0 -26 10 -45 23 -19 12 -57 36 -85 52 -28 17
-51 33 -51 36 0 10 34 37 60 48 14 6 49 9 79 8 l54 -2 38 -95z m-69 -191 c57
-12 118 -40 135 -61 6 -7 13 -30 16 -50 l6 -38 -47 0 c-26 0 -116 -8 -200 -17
-173 -19 -172 -19 -172 52 1 96 114 145 262 114z"/>
<path d="M2835 1979 c-104 -15 -305 -39 -445 -54 -140 -14 -340 -34 -445 -45
-436 -45 -1033 -48 -1155 -6 l-45 16 25 -20 c14 -10 37 -22 52 -25 15 -4 32
-13 39 -21 29 -35 67 -44 179 -44 86 0 110 -3 104 -12 -4 -8 -3 -10 2 -5 5 5
9 14 9 20 0 6 14 14 30 19 37 11 195 0 213 -14 9 -8 73 -9 207 -4 159 5 209
11 277 30 110 31 155 39 468 81 146 20 278 38 294 41 19 4 26 3 22 -5 -9 -14
-7 -14 44 4 24 8 75 17 114 19 56 4 63 3 31 -4 -40 -8 -40 -8 13 -7 28 1 52 1
52 0 0 -2 -16 -9 -35 -17 -19 -8 -35 -19 -35 -25 0 -5 -3 -18 -7 -28 -6 -16
-5 -16 11 -4 9 8 14 21 11 30 -3 8 -3 13 0 9 6 -5 40 7 140 52 36 15 88 30 92
26 3 -2 -16 -13 -41 -24 -59 -27 -119 -75 -151 -123 -56 -85 -17 -62 143 87
105 97 97 99 -213 53z"/>
<path d="M2400 1885 c-41 -7 -156 -25 -255 -40 -99 -14 -226 -37 -282 -51 -56
-13 -122 -24 -146 -24 -37 0 -43 -3 -42 -19 0 -10 9 -26 18 -35 9 -10 17 -24
17 -31 0 -7 10 -16 23 -18 12 -2 -58 -5 -155 -6 l-178 -1 0 34 c0 82 -29 90
-32 9 l-1 -58 -7 45 -7 45 -3 -40 c-3 -38 -4 -37 -9 14 -8 72 -26 77 -34 9
-10 -77 -8 -138 2 -138 6 0 17 10 25 22 13 18 16 19 16 6 0 -28 -40 -48 -95
-48 -59 0 -98 18 -103 45 -3 18 -2 18 13 -2 9 -13 19 -23 23 -23 4 0 3 43 -2
96 -8 84 -11 94 -23 78 -7 -10 -13 -29 -13 -42 0 -50 -19 -56 -168 -48 -75 4
-140 10 -144 14 -15 15 38 64 78 72 l39 8 -40 1 c-35 2 -70 11 -127 36 -16 6
-16 3 2 -49 l19 -55 -53 -31 c-64 -36 -89 -37 -133 -7 -26 17 -33 29 -33 55 0
21 -5 32 -14 32 -22 0 -28 -29 -11 -53 15 -21 122 -97 136 -97 4 0 30 -31 58
-70 28 -38 60 -74 71 -80 51 -27 880 -43 937 -18 15 7 60 33 98 59 125 83 128
84 491 144 434 72 458 78 504 140 9 13 3 10 -15 -6 -54 -48 -38 -44 -529 -124
-49 -8 -103 -15 -120 -14 -33 1 17 11 259 54 202 35 261 48 244 53 -8 3 -17
10 -21 16 -5 8 -13 7 -28 -2 -16 -9 -20 -10 -20 0 0 7 -7 2 -16 -10 -9 -13
-26 -22 -41 -22 -21 0 -24 2 -13 15 7 8 9 15 5 15 -4 0 -13 -8 -20 -17 -8 -10
-27 -17 -51 -18 -22 0 -45 -4 -52 -9 -7 -4 -16 -6 -19 -3 -8 9 7 28 17 22 5
-3 11 -1 15 5 13 21 -24 9 -42 -13 -11 -14 -35 -27 -56 -31 -36 -7 -38 -6 -28
13 14 26 14 27 -9 27 -21 0 -27 -12 -10 -18 16 -5 -3 -26 -30 -33 -23 -6 -25
-3 -25 32 0 21 4 44 9 51 4 7 6 16 3 19 -3 2 -10 -5 -17 -16 -6 -12 -16 -19
-22 -15 -6 4 -9 1 -6 -7 3 -8 1 -22 -4 -32 -6 -12 -5 -16 3 -15 6 2 13 -2 16
-9 6 -16 -25 -21 -71 -11 -27 6 -43 5 -50 -3 -8 -9 -5 -10 12 -6 12 3 22 1 22
-4 0 -5 -14 -9 -31 -9 -17 0 -28 -4 -24 -10 3 -5 -35 5 -85 22 -49 17 -90 37
-90 43 0 6 16 26 35 45 25 24 35 29 35 18 0 -31 34 -79 53 -74 9 2 17 1 17 -4
0 -4 7 -11 16 -14 22 -9 39 17 54 81 6 29 16 53 22 53 5 0 8 -7 5 -15 -4 -8
-2 -17 4 -20 5 -4 12 1 15 9 3 9 10 13 15 10 5 -3 9 4 9 16 0 16 -5 20 -25 16
-13 -3 -27 0 -30 5 -4 5 12 9 36 9 35 0 41 -3 37 -18 -6 -20 26 -47 42 -37 4
3 16 -3 26 -12 16 -16 16 -16 10 5 -7 21 -5 22 18 16 14 -3 26 -5 26 -3 0 2
-4 18 -9 36 -8 29 -7 32 16 38 17 4 29 1 35 -7 6 -11 10 -11 17 0 4 8 12 14
17 14 9 0 35 10 79 28 l20 9 -20 -1 c-11 0 -54 -6 -95 -13z m-1603 -325 c23
-32 53 -66 66 -75 39 -25 226 -38 573 -39 l321 -1 114 77 c65 45 129 80 149
84 32 5 31 4 -17 -19 -28 -14 -87 -49 -130 -78 -43 -29 -94 -59 -113 -66 -73
-26 -863 -8 -919 22 -24 12 -121 133 -121 150 0 3 8 5 18 5 9 0 36 -27 59 -60z"/>
<path d="M4738 1783 c-54 -62 -84 -192 -105 -448 -3 -39 -12 -77 -20 -87 -8
-9 -55 -26 -104 -38 -60 -15 -89 -27 -89 -36 0 -8 6 -17 14 -20 15 -6 52 -92
43 -101 -17 -17 -341 -71 -552 -93 -263 -26 -295 -27 -295 -9 0 10 12 21 28
27 21 8 31 21 45 64 16 51 16 58 1 99 -10 28 -19 102 -24 204 -9 175 -17 211
-63 298 -121 230 -321 101 -426 -274 -42 -151 -57 -286 -42 -365 12 -56 11
-65 -7 -101 l-20 -39 -119 -17 c-65 -9 -152 -19 -193 -22 -108 -8 -676 12
-994 35 -592 43 -1046 68 -1046 58 0 -3 5 -19 11 -37 9 -26 16 -31 43 -31 27
0 37 -7 57 -37 13 -21 45 -53 72 -73 l47 -35 -30 -6 c-35 -7 -60 -26 -60 -44
0 -39 268 -83 650 -106 308 -19 1781 -19 1835 0 56 20 99 55 135 111 23 36 38
49 63 54 18 3 91 24 162 46 197 61 258 80 280 85 11 2 70 15 130 29 61 14 207
42 325 61 225 38 283 56 286 90 1 11 9 40 18 65 25 67 36 213 32 440 -2 146
-6 212 -16 230 -23 43 -47 51 -72 23z m-3048 -988 c381 -32 564 -50 540 -53
-19 -2 -177 -36 -220 -47 -3 -1 -25 -5 -50 -9 -63 -10 -570 23 -570 38 0 1 17
21 38 44 44 48 33 47 262 27z"/>
<path d="M460 1376 c0 -35 43 -193 57 -208 22 -25 70 -39 81 -25 16 22 32 95
25 113 -17 49 -64 102 -103 118 -50 20 -60 20 -60 2z"/>
<path d="M877 1383 c-4 -3 -7 -43 -7 -88 l0 -82 -70 5 c-57 4 -74 1 -89 -12
-25 -23 -55 -92 -48 -110 4 -9 33 -33 66 -55 70 -45 43 -41 541 -71 446 -28
523 -27 652 5 156 38 178 45 178 56 0 16 -168 120 -218 135 -25 8 -84 14 -132
14 -48 0 -121 3 -163 6 l-77 7 0 69 c0 90 -10 108 -58 107 -20 -1 -138 3 -262
9 -270 13 -305 14 -313 5z"/>
<path d="M2675 1333 c-320 -22 -351 -25 -382 -44 -28 -18 -73 -75 -73 -93 0
-14 95 -108 125 -124 36 -18 179 -19 378 0 l129 11 -6 31 c-22 114 -40 179
-55 195 -18 21 -55 28 -116 24z"/>
</g>
</svg>
