<?xml version="1.0" standalone="no"?>
<!DOCTYPE svg PUBLIC "-//W3C//DTD SVG 20010904//EN"
 "http://www.w3.org/TR/2001/REC-SVG-20010904/DTD/svg10.dtd">
<svg version="1.0" xmlns="http://www.w3.org/2000/svg"
 width="1280.000000pt" height="825.000000pt" viewBox="0 0 1280.000000 825.000000"
 preserveAspectRatio="xMidYMid meet">

<g transform="translate(0.000000,825.000000) scale(0.100000,-0.100000)"
fill="#000000" stroke="none">
<path d="M9125 7570 c-27 -4 -43 -8 -35 -9 8 -1 -8 -10 -36 -20 -62 -21 -139
-66 -173 -99 -36 -36 -14 -38 63 -8 85 34 219 66 279 66 27 0 46 4 43 8 -2 4
-24 7 -48 5 -28 -1 -38 1 -28 7 8 5 18 6 22 4 4 -3 8 0 8 5 0 6 -10 11 -22 12
-22 0 -22 1 2 12 15 6 86 11 175 11 96 1 132 3 100 8 -63 8 -284 7 -350 -2z"/>
<path d="M9543 7553 c9 -2 23 -2 30 0 6 3 -1 5 -18 5 -16 0 -22 -2 -12 -5z"/>
<path d="M9608 7543 c7 -3 16 -2 19 1 4 3 -2 6 -13 5 -11 0 -14 -3 -6 -6z"/>
<path d="M9493 7523 c9 -2 25 -2 35 0 9 3 1 5 -18 5 -19 0 -27 -2 -17 -5z"/>
<path d="M9603 7513 c9 -2 23 -2 30 0 6 3 -1 5 -18 5 -16 0 -22 -2 -12 -5z"/>
<path d="M9288 7503 c6 -2 18 -2 25 0 6 3 1 5 -13 5 -14 0 -19 -2 -12 -5z"/>
<path d="M9138 7436 c-37 -18 -84 -47 -105 -62 l-38 -29 -290 8 c-542 15
-1588 -6 -2205 -44 -517 -31 -1040 -77 -1040 -91 0 -4 10 -6 23 -4 57 13 528
48 535 41 3 -3 -3 -5 -14 -5 -10 0 -39 -7 -64 -15 l-45 -15 50 1 c28 0 68 0
90 -1 39 -2 39 -2 10 -10 -16 -5 -77 -28 -135 -53 -58 -25 -145 -62 -195 -82
-49 -21 -115 -50 -147 -65 -31 -16 -65 -31 -76 -35 -12 -3 -58 -27 -104 -54
-46 -26 -132 -74 -193 -106 -60 -32 -117 -62 -125 -66 -8 -5 -67 -33 -130 -63
-63 -30 -146 -72 -185 -94 -38 -21 -90 -50 -115 -64 -103 -57 -494 -257 -610
-311 -228 -107 -271 -127 -276 -127 -3 0 -22 -11 -42 -25 -32 -22 -47 -25
-124 -25 -52 0 -88 -4 -88 -10 0 -5 -6 -10 -13 -10 -7 0 -43 -16 -80 -36 -37
-19 -71 -33 -75 -30 -8 5 -58 -43 -50 -48 5 -4 1128 28 1443 41 94 4 785 6
1538 5 l1367 -2 128 25 c70 13 170 31 222 40 67 10 107 23 139 43 63 38 180
195 503 675 149 221 299 438 333 482 80 102 177 197 235 229 66 38 26 31 -52
-8z"/>
<path d="M5970 7420 c-221 -23 -517 -104 -559 -153 -34 -42 24 -39 164 8 44
15 94 28 112 28 18 1 33 5 33 9 0 5 12 5 26 2 17 -4 25 -3 21 3 -4 6 5 10 21
10 15 0 122 16 237 36 116 21 241 40 278 44 115 10 53 23 -108 21 -82 0 -184
-4 -225 -8z"/>
<path d="M6413 7413 c9 -2 23 -2 30 0 6 3 -1 5 -18 5 -16 0 -22 -2 -12 -5z"/>
<path d="M9465 7341 c-250 -73 -417 -284 -750 -951 -220 -440 -282 -599 -251
-648 5 -8 44 -9 139 -4 196 10 340 9 344 -4 5 -15 -425 -40 -440 -25 -20 20
-30 11 -12 -9 22 -24 61 -25 300 -6 l169 14 46 -30 c25 -17 63 -47 85 -67 21
-20 33 -27 25 -16 -18 24 -50 51 -104 87 -31 21 -36 28 -21 28 11 0 117 7 235
15 655 45 1211 45 2005 0 143 -8 268 -15 277 -15 24 0 36 46 49 195 13 149 6
399 -16 520 -8 44 -27 104 -42 135 -25 48 -43 66 -140 135 -439 314 -1022 569
-1497 654 -96 18 -330 13 -401 -8z m364 -133 c11 -29 23 -77 15 -60 -3 6 -10
10 -15 7 -5 -4 -6 1 -3 9 6 17 -12 56 -26 56 -6 0 -10 -5 -10 -11 0 -5 4 -7
10 -4 6 3 7 -1 4 -10 -5 -12 -10 -13 -20 -4 -8 6 -12 15 -9 19 2 4 -35 8 -82
9 -127 3 -115 11 16 11 106 0 112 -1 120 -22z m-256 5 c-7 -2 -19 -2 -25 0 -7
3 -2 5 12 5 14 0 19 -2 13 -5z m727 -102 c218 -73 340 -120 340 -131 0 -4 -18
1 -41 12 -22 10 -47 17 -55 14 -8 -3 -13 -2 -9 3 3 5 -18 17 -47 27 -37 12
-53 14 -56 5 -2 -7 -11 -3 -21 10 -9 12 -30 23 -47 24 -27 3 -28 3 -10 -11 19
-13 18 -14 -11 -14 -18 0 -35 5 -38 11 -4 6 -13 8 -21 5 -7 -3 -29 1 -48 9
-20 8 -49 15 -66 15 -17 0 -30 5 -31 13 0 6 -4 3 -9 -8 l-9 -20 0 20 c-1 17
-3 17 -11 5 -8 -13 -10 -13 -10 1 0 9 -7 19 -15 23 -13 4 -14 2 -5 -14 6 -11
8 -20 6 -20 -7 0 -31 47 -40 77 -6 20 -5 21 36 12 24 -6 122 -36 218 -68z
m-416 -61 c3 -14 -3 -7 -13 15 -11 22 -19 47 -19 55 0 17 22 -32 32 -70z
m-142 -605 c269 -42 408 -81 408 -116 0 -29 -34 -32 -107 -9 -108 34 -198 48
-354 55 -214 11 -208 -14 11 -45 126 -18 258 -52 235 -60 -11 -4 -102 -10
-201 -14 -100 -4 -212 -14 -250 -22 -38 -8 -69 -14 -69 -14 -4 0 13 128 17
136 4 6 -4 16 -20 24 -15 7 -35 17 -46 22 -14 7 -16 6 -10 -4 5 -8 -2 -6 -19
5 -25 16 -26 16 -21 0 5 -15 4 -15 -4 -3 -14 18 2 38 43 56 48 21 213 17 387
-11z m490 -177 c15 -22 17 -32 8 -48 -6 -11 -16 -18 -22 -14 -7 4 -6 9 3 15
11 6 5 17 -25 48 -22 23 -35 44 -31 51 8 13 35 -8 67 -52z m-197 -68 c-11 -5
-15 -9 -10 -10 6 -1 1 -5 -11 -10 -12 -4 -81 -10 -155 -13 -74 -2 -115 -2 -91
0 23 2 42 8 42 14 0 5 -57 10 -132 11 l-133 2 120 6 c193 10 392 10 370 0z
m-507 -17 c-10 -2 -26 -2 -35 0 -10 3 -2 5 17 5 19 0 27 -2 18 -5z m-61 -9
c-3 -3 -12 -4 -19 -1 -8 3 -5 6 6 6 11 1 17 -2 13 -5z m803 -62 c0 -5 -7 -16
-17 -23 -15 -13 -16 -11 -9 14 4 16 2 27 -4 27 -5 0 -10 8 -10 17 0 14 3 14
20 -5 11 -12 20 -25 20 -30z m-910 28 c-8 -5 -19 -10 -25 -10 -5 0 -3 5 5 10
8 5 20 10 25 10 6 0 3 -5 -5 -10z m653 -35 c7 -40 -30 -53 -159 -57 -101 -3
-110 -1 -101 13 24 39 80 55 238 68 10 0 19 -9 22 -24z m212 -35 c3 -5 1 -10
-4 -10 -6 0 -11 5 -11 10 0 6 2 10 4 10 3 0 8 -4 11 -10z m750 -227 l6 -48
-98 6 c-230 15 -463 21 -463 11 0 -6 72 -12 183 -16 100 -4 236 -11 302 -16
66 -5 186 -12 268 -16 82 -3 150 -11 154 -17 4 -7 -38 -8 -128 -4 -74 3 -269
10 -434 17 -332 13 -385 17 -385 31 0 5 7 9 15 9 8 0 15 4 15 10 0 5 -7 6 -17
3 -11 -4 -14 -3 -9 6 5 7 15 10 23 7 13 -5 14 3 8 61 -3 38 -9 77 -11 88 -5
20 0 20 251 20 163 0 255 4 255 10 0 6 5 3 10 -5 8 -12 10 -10 11 10 1 29 34
-95 44 -167z m147 168 c2 6 20 -42 39 -107 20 -66 35 -120 33 -122 -1 -2 -39
0 -85 4 l-84 6 -4 72 c-8 144 -8 141 16 138 13 -2 31 1 40 7 12 6 22 6 29 0 8
-7 13 -6 16 2z m226 -47 c9 5 64 -12 100 -32 13 -8 22 -22 22 -37 0 -26 24
-35 34 -12 7 13 -2 -58 -10 -86 -6 -19 -27 -18 -174 2 l-45 6 -17 65 c-18 71
-22 112 -10 93 4 -6 20 -17 36 -23 27 -10 28 -9 22 15 -6 24 -5 25 14 15 11
-6 24 -9 28 -6z m-1164 -95 c3 -17 3 -35 0 -40 -3 -5 -42 -9 -87 -9 l-82 0 59
25 c33 13 66 31 75 40 22 22 28 19 35 -16z m137 -14 c4 -39 3 -39 -34 -43 -36
-3 -37 -3 -36 30 1 25 3 28 7 13 4 -11 17 -21 30 -23 19 -3 22 1 22 34 0 48 7
41 11 -11z m916 -27 c-3 -8 -6 -5 -6 6 -1 11 2 17 5 13 3 -3 4 -12 1 -19z m16
-38 c3 -11 1 -18 -4 -14 -5 3 -9 12 -9 20 0 20 7 17 13 -6z m-889 2 c6 -11
-195 -22 -384 -22 -204 0 -885 -33 -972 -47 -33 -5 -38 -3 -38 14 0 19 12 21
208 32 457 28 1174 41 1186 23z m1131 -52 c21 -5 4 -8 -57 -9 -53 -1 -88 3
-88 9 0 11 100 11 145 0z"/>
<path d="M10300 7096 c0 -2 7 -7 16 -10 8 -3 12 -2 9 4 -6 10 -25 14 -25 6z"/>
<path d="M9188 5753 c7 -3 16 -2 19 1 4 3 -2 6 -13 5 -11 0 -14 -3 -6 -6z"/>
<path d="M9028 5743 c12 -2 30 -2 40 0 9 3 -1 5 -23 4 -22 0 -30 -2 -17 -4z"/>
<path d="M5300 7204 c-47 -7 -105 -16 -130 -19 -25 -3 -49 -11 -55 -16 -7 -7
1 -9 25 -4 19 3 98 17 175 30 77 13 124 23 105 23 -19 0 -73 -6 -120 -14z"/>
<path d="M5015 7129 c-101 -34 -340 -153 -575 -286 -139 -79 -501 -311 -622
-400 -27 -19 -48 -31 -48 -26 0 4 -5 0 -11 -10 -6 -9 -15 -15 -20 -11 -5 3 -8
0 -7 -7 2 -6 -3 -14 -11 -17 -9 -3 -11 0 -6 9 5 8 4 11 -1 6 -5 -5 -9 -13 -9
-19 0 -6 -9 -16 -19 -22 -11 -6 -33 -22 -49 -36 -16 -14 -35 -24 -41 -22 -6 2
-8 0 -4 -4 14 -13 -26 -32 -58 -27 -34 6 -90 -29 -320 -198 -117 -86 -151
-103 -248 -123 -43 -9 -81 -16 -85 -16 -3 -1 9 -7 28 -15 36 -16 141 -19 276
-9 l80 7 35 44 c40 52 277 267 417 380 213 171 467 341 768 515 209 121 329
181 585 296 41 18 9 13 -55 -9z"/>
<path d="M8454 6260 c19 -22 52 -64 72 -95 20 -30 39 -53 42 -50 10 10 -123
185 -141 185 -5 0 7 -18 27 -40z"/>
<path d="M7897 5775 c3 -88 7 -162 9 -164 8 -9 2 275 -6 299 -5 14 -6 -47 -3
-135z"/>
<path d="M8848 5733 c12 -2 32 -2 45 0 12 2 2 4 -23 4 -25 0 -35 -2 -22 -4z"/>
<path d="M8673 5723 c9 -2 25 -2 35 0 9 3 1 5 -18 5 -19 0 -27 -2 -17 -5z"/>
<path d="M11959 5603 c13 -26 58 -195 81 -308 12 -57 20 -137 20 -194 0 -66 3
-91 10 -81 5 8 10 67 10 131 0 72 4 119 11 126 9 9 8 16 -3 27 -17 16 -34 160
-22 189 4 11 0 19 -10 23 -9 4 -26 24 -36 45 -18 33 -45 59 -65 59 -3 0 -2 -8
4 -17z"/>
<path d="M9131 5564 c-1 -6 3 -34 9 -63 16 -86 49 -396 60 -571 12 -191 -4
-1853 -19 -1935 -6 -35 -7 -12 -3 81 3 93 2 133 -7 138 -7 5 -11 -2 -11 -21
-1 -47 -36 64 -38 120 -2 32 -9 55 -22 69 -11 12 -19 31 -19 42 1 12 1 40 1
64 -2 34 -6 42 -21 42 -11 0 -22 -6 -24 -12 -4 -10 -6 -10 -6 0 -1 8 8 16 19
19 23 6 29 63 7 63 -9 0 -12 11 -9 35 3 26 1 35 -9 33 -7 -2 -18 11 -24 28 -6
18 -15 29 -23 26 -9 -3 -11 6 -6 37 5 33 3 42 -11 47 -10 4 -21 1 -26 -7 -7
-11 -9 -9 -9 7 0 34 -60 122 -131 193 -92 92 -154 116 -280 109 -81 -5 -100
-10 -172 -46 -90 -45 -195 -134 -266 -226 -24 -31 -47 -53 -52 -50 -5 3 -6 -1
-3 -9 3 -8 -2 -20 -11 -27 -9 -7 -15 -9 -14 -4 4 15 -106 237 -156 316 -26 40
-78 116 -115 168 -100 139 -202 309 -194 323 4 7 4 9 -1 5 -5 -5 -28 27 -52
70 -25 42 -48 78 -53 80 -5 2 26 50 69 106 87 114 189 264 269 397 54 89 81
183 62 218 -10 19 -47 51 -52 45 -7 -6 -537 -101 -608 -109 -136 -14 -347 -47
-695 -109 -198 -36 -466 -79 -595 -96 -735 -99 -1105 -150 -1119 -155 -11 -3
-22 6 -34 28 -10 18 -31 41 -46 50 -52 30 -374 49 -1171 68 -565 13 -1777 7
-1890 -10 -67 -10 -78 -15 -116 -52 l-42 -41 -39 35 c-81 74 -105 170 -55 228
l27 33 -30 -22 c-23 -17 -46 -23 -98 -24 l-67 -3 0 -33 c0 -27 10 -44 50 -84
28 -28 50 -56 50 -63 0 -25 -32 -25 -63 1 -16 14 -33 21 -36 16 -3 -5 -19 -16
-36 -24 -16 -8 -29 -20 -27 -28 2 -7 -6 -22 -17 -34 -17 -19 -18 -25 -8 -58 7
-21 16 -38 20 -38 5 0 5 -5 2 -10 -4 -6 -1 -17 5 -25 9 -11 9 -15 1 -15 -15 0
-14 -19 3 -52 16 -30 7 -38 -14 -13 -7 8 -19 15 -27 15 -8 0 -11 5 -8 10 3 6
1 10 -4 10 -6 0 -11 -5 -11 -11 0 -5 -5 -7 -10 -4 -6 4 -7 11 -4 17 4 6 1 9
-7 6 -7 -2 -15 -19 -17 -38 -2 -18 -10 -39 -18 -47 -8 -8 -14 -20 -15 -26 -1
-15 -6 -45 -13 -73 -4 -15 -1 -26 10 -32 20 -11 10 -34 -11 -25 -20 7 -19 -6
2 -30 17 -18 17 -19 -7 -16 -37 6 -47 53 -31 153 7 44 13 88 13 96 0 8 5 31
11 50 6 19 10 40 9 47 -2 7 6 17 17 22 10 6 24 23 30 38 15 36 55 99 110 168
31 40 42 61 38 77 -3 11 0 37 8 57 17 43 19 45 -86 -98 -83 -112 -120 -188
-148 -296 -23 -90 -46 -253 -37 -262 3 -3 0 -15 -6 -27 -6 -11 -8 -18 -4 -15
4 4 19 -5 34 -20 15 -15 41 -37 57 -49 l30 -22 -29 12 c-23 10 -30 10 -34 0
-2 -7 -8 -10 -13 -6 -20 12 -7 -14 19 -38 51 -48 81 -58 126 -42 51 18 59 10
12 -12 -26 -13 -40 -29 -52 -61 -9 -24 -14 -46 -10 -50 3 -3 6 -1 6 5 0 7 7 9
18 5 15 -6 15 -5 3 10 -8 10 -12 20 -9 22 3 3 11 -6 18 -19 11 -22 9 -43 -18
-158 -39 -168 -70 -345 -74 -424 -3 -52 -9 -69 -42 -117 l-38 -56 10 -63 c12
-76 14 -345 1 -283 -4 22 -8 75 -8 119 -1 88 -19 165 -34 144 -6 -9 -7 -6 -4
10 3 12 1 37 -3 55 -5 17 -14 58 -20 90 -7 32 -14 57 -16 55 -2 -3 -8 -28 -14
-57 -11 -57 2 -141 26 -176 8 -11 14 -31 13 -45 0 -25 0 -25 -15 -4 -14 21
-16 20 -77 -45 -34 -36 -75 -82 -92 -101 -25 -30 -23 -28 15 7 41 39 51 43 95
43 32 0 55 -6 69 -18 20 -17 20 -17 3 10 -23 36 -22 45 3 23 20 -18 20 -17 20
9 0 16 4 25 10 21 6 -3 10 -34 10 -67 0 -176 111 -388 202 -388 19 0 61 18
107 44 42 25 93 48 114 52 47 8 482 -15 517 -28 16 -6 20 -12 12 -17 -7 -4
-17 -45 -22 -92 -6 -46 -15 -115 -21 -152 -8 -52 -8 -71 1 -82 15 -18 34 -20
24 -3 -4 6 -3 9 2 6 62 -33 93 -38 389 -57 171 -12 371 -26 445 -32 274 -21
513 -29 550 -19 51 14 61 41 73 197 9 118 12 132 31 141 14 6 101 3 256 -9
453 -35 473 -39 636 -134 l99 -57 80 5 c148 8 527 155 621 240 22 20 51 59 64
87 15 32 31 52 44 55 12 2 116 11 232 19 116 9 218 18 228 22 9 3 16 2 16 -4
0 -14 -118 -32 -333 -52 -122 -11 -140 -18 -163 -62 -39 -76 -118 -141 -269
-223 -38 -21 -83 -47 -100 -56 -16 -10 -45 -26 -62 -35 -18 -9 -33 -22 -33
-30 0 -22 144 -6 198 22 15 8 35 14 45 14 9 0 25 4 35 10 9 5 81 30 159 55
140 45 282 110 346 159 56 43 147 88 164 82 9 -4 20 -1 24 6 7 10 11 10 21 0
7 -7 40 -12 83 -12 94 0 868 56 1025 75 261 30 283 48 386 310 39 99 82 212
95 252 13 40 25 70 27 68 6 -6 -84 -273 -130 -385 -57 -138 -56 -129 -11 -125
147 12 536 63 651 86 47 9 51 12 36 26 -8 9 -13 22 -10 29 3 8 1 14 -5 14 -6
0 -7 5 -4 10 3 6 15 10 26 10 10 0 19 4 19 10 0 5 -6 7 -13 4 -9 -3 -18 9 -26
36 -7 23 -19 44 -27 47 -8 3 -14 19 -14 42 -1 20 -9 52 -20 71 l-18 35 -33
-72 c-33 -73 -49 -91 -49 -53 0 14 -6 20 -16 18 -12 -2 -17 7 -20 42 -5 51
-27 104 -57 138 -11 12 -17 22 -12 22 5 0 -1 10 -12 23 -11 12 -25 41 -32 64
-6 23 -21 49 -34 58 -17 12 -18 15 -5 15 11 0 15 5 12 14 -3 7 8 25 25 38 34
29 26 48 -21 48 -32 0 -35 7 -10 26 13 10 14 15 5 25 -9 9 -8 17 4 35 8 13 13
30 10 38 -3 8 -1 16 5 18 13 5 0 158 -14 158 -6 0 -5 7 3 16 10 13 10 17 -1
24 -11 7 -11 11 -1 24 11 14 11 16 -5 16 -11 0 -25 10 -33 22 -12 19 -11 24 9
40 12 10 30 18 39 18 14 1 14 2 -1 11 -39 22 -5 77 46 75 19 -1 33 -12 47 -35
11 -18 18 -35 15 -38 -2 -3 -10 5 -16 17 -10 18 -14 20 -21 9 -5 -8 -9 -18 -9
-24 0 -5 4 -4 9 3 6 10 10 10 21 -2 7 -9 16 -14 20 -11 4 2 24 -21 45 -53 21
-31 75 -109 120 -172 115 -163 147 -219 205 -354 45 -105 50 -123 39 -143 -7
-12 -16 -20 -20 -17 -5 3 -6 -1 -3 -9 3 -8 0 -18 -7 -23 -8 -5 -10 -3 -4 6 5
9 4 11 -4 6 -6 -4 -9 -11 -6 -16 3 -4 -8 -38 -24 -75 -16 -37 -31 -64 -33 -59
-3 5 -3 3 -2 -3 2 -7 -12 -54 -31 -104 -19 -51 -31 -97 -27 -103 13 -21 12
-48 -3 -92 -14 -43 -27 -97 -28 -122 0 -9 -5 -8 -17 3 -9 8 -20 12 -25 8 -4
-5 -5 0 -2 9 4 12 2 15 -7 12 -8 -3 -17 -1 -21 5 -3 6 0 11 7 11 7 0 -9 12
-37 26 -27 14 -51 29 -53 33 -1 4 -30 4 -63 0 -52 -6 -120 -38 -149 -69 -7 -8
-109 -70 -115 -70 -3 0 -52 -29 -109 -64 -241 -149 -307 -169 -1191 -365 -901
-199 -1353 -279 -1724 -302 -233 -15 -817 0 -1386 37 -419 27 -990 83 -1260
124 -401 62 -563 94 -675 136 -36 14 -73 23 -82 21 -9 -3 -18 -2 -20 2 -2 3
-23 19 -48 36 -25 16 -54 38 -65 49 -18 19 -20 19 -23 3 -2 -9 -8 -17 -14 -17
-7 0 -8 12 -4 32 6 30 5 31 -9 17 -20 -20 -23 -78 -4 -90 10 -6 10 -9 2 -9
-20 0 -15 -21 10 -49 l22 -26 -25 20 c-13 11 -33 30 -43 43 -26 32 -39 18 -78
-81 -36 -95 -37 -173 -3 -207 22 -23 230 -80 295 -81 24 -1 58 -7 74 -14 23
-10 51 -11 120 -4 50 5 95 11 102 13 6 3 23 -4 36 -15 14 -10 35 -19 46 -19
17 0 21 -6 21 -35 0 -40 -4 -39 150 -55 58 -7 107 -14 109 -16 2 -2 16 -32 31
-67 43 -102 116 -206 209 -297 99 -97 193 -155 329 -203 l91 -33 -116 -23
c-232 -47 -489 -138 -581 -205 -51 -38 -58 -47 -56 -74 3 -40 43 -100 86 -127
8 -5 41 -27 72 -48 51 -34 87 -50 166 -76 14 -5 39 -16 55 -25 17 -9 38 -16
47 -16 9 0 19 -4 23 -9 3 -5 31 -15 62 -21 31 -7 75 -20 97 -30 54 -23 346
-97 416 -105 30 -3 62 -8 70 -10 27 -7 260 -34 430 -50 91 -9 183 -17 205 -20
22 -2 130 -9 240 -15 110 -6 344 -20 520 -31 305 -18 469 -25 1270 -49 484
-15 1314 -12 1430 5 82 12 170 28 375 70 143 29 310 56 550 90 102 14 210 34
240 45 39 13 97 21 195 25 318 14 578 46 700 87 74 24 98 44 89 72 -10 31 -64
97 -75 91 -5 -4 -6 1 -3 9 4 11 0 14 -15 11 -32 -6 -33 9 -3 38 29 28 39 30
217 51 66 8 165 29 220 46 107 33 269 51 578 65 150 7 154 8 148 47 0 3 16 18
35 33 38 29 57 64 43 80 -4 6 -4 17 1 24 4 8 6 20 4 26 -3 7 14 21 38 32 72
34 507 169 733 228 473 124 783 226 1093 362 88 38 135 81 130 117 -4 29 -65
57 -128 59 -27 1 -50 4 -50 7 0 3 7 34 16 70 36 152 67 376 77 570 l2 45 45 7
c71 12 116 37 148 82 62 87 68 109 87 317 10 108 15 203 12 210 -3 8 -6 -2 -6
-21 -1 -23 -4 -30 -10 -22 -6 10 -12 4 -24 -20 -9 -18 -17 -29 -17 -24 0 5 -6
3 -14 -3 -19 -16 -30 1 -28 45 1 27 -2 32 -18 31 -18 -1 -20 -9 -21 -92 -1
-49 -5 -121 -9 -160 -5 -52 -7 -27 -6 95 0 91 -3 174 -8 184 -8 17 -6 18 18
12 19 -5 28 -2 33 9 3 9 30 30 59 47 30 16 51 34 48 39 -5 8 -35 -3 -86 -31
-20 -11 -26 4 -6 16 8 5 7 10 -4 18 -11 8 -18 48 -26 150 -7 77 -14 142 -17
145 -4 3 -4 -60 -1 -139 2 -80 2 -131 -1 -115 -5 26 -6 27 -13 10 -4 -13 -9 4
-14 50 -10 103 -52 260 -87 326 -57 106 -138 137 -215 80 -60 -44 -82 -72
-131 -168 -24 -48 -42 -77 -38 -63 4 14 14 38 22 54 8 15 10 26 5 22 -5 -3
-15 -19 -22 -36 -7 -16 -16 -30 -21 -30 -5 0 -15 -12 -23 -27 -31 -57 -16 12
34 156 28 80 50 149 49 155 0 6 -9 -14 -20 -44 -41 -120 -52 -142 -59 -130
-21 34 -111 -324 -170 -680 -5 -30 -12 -66 -14 -80 -2 -14 -5 -38 -6 -55 l-1
-30 -18 22 c-17 21 -20 21 -26 5 -6 -15 -8 -15 -17 4 -6 12 -22 28 -37 35 -14
8 -32 22 -39 31 -11 15 -16 16 -33 5 -17 -10 -22 -9 -35 7 -13 18 -14 18 -14
2 0 -12 -5 -16 -14 -13 -8 3 -30 2 -47 -3 -24 -7 -35 -6 -40 2 -6 9 -10 8 -15
-5 -4 -11 -17 -17 -35 -17 -16 0 -29 -4 -29 -10 0 -5 -18 -13 -40 -16 -22 -4
-40 -10 -40 -15 0 -5 -7 -9 -15 -9 -27 0 -71 -28 -112 -70 -24 -24 -49 -40
-63 -40 -12 0 -29 -8 -36 -17 -13 -17 -13 -17 -14 2 l-1 20 -8 -20 c-5 -11 -7
45 -5 125 5 170 -2 175 -11 8 -5 -82 -11 -118 -20 -122 -10 -4 -11 2 -4 27 5
18 9 39 8 47 -1 8 -4 4 -8 -10 -6 -21 -13 -25 -56 -28 -28 -2 -54 -9 -60 -16
-5 -6 -25 -18 -42 -25 -18 -7 -33 -17 -33 -22 0 -12 -78 -31 -100 -24 -13 4
-28 -2 -44 -18 -16 -16 -29 -21 -37 -16 -8 5 -20 3 -29 -5 -8 -7 -35 -18 -59
-25 -24 -7 -50 -19 -57 -26 -7 -7 -47 -20 -88 -30 -42 -9 -78 -21 -82 -26 -3
-5 -14 -7 -25 -4 -11 4 -19 2 -19 -5 0 -6 -6 -10 -12 -7 -7 2 -24 -2 -38 -9
-31 -16 -175 -64 -194 -64 -8 0 -16 -5 -18 -12 -5 -14 -74 -21 -188 -18 -89 1
-96 5 -107 53 -6 31 -19 36 -26 10 -2 -10 -2 -7 0 7 3 14 9 425 14 915 9 960
6 1098 -36 1440 -22 174 -41 284 -44 249z m-1356 -193 c8 -14 -4 -18 -60 -25
l-50 -5 55 13 c39 9 49 14 35 18 -16 4 -16 6 -3 7 9 0 19 -3 23 -8z m-258 -37
c-3 -3 -12 -4 -19 -1 -8 3 -5 6 6 6 11 1 17 -2 13 -5z m136 -1 c-7 -2 -19 -2
-25 0 -7 3 -2 5 12 5 14 0 19 -2 13 -5z m-646 -9 c-3 -3 -12 -4 -19 -1 -8 3
-5 6 6 6 11 1 17 -2 13 -5z m596 -1 c-7 -2 -19 -2 -25 0 -7 3 -2 5 12 5 14 0
19 -2 13 -5z m-650 -10 c-7 -2 -21 -2 -30 0 -10 3 -4 5 12 5 17 0 24 -2 18 -5z
m590 0 c-7 -2 -19 -2 -25 0 -7 3 -2 5 12 5 14 0 19 -2 13 -5z m-723 -23 c-77
-16 -216 -35 -180 -24 31 9 216 42 240 42 14 0 -13 -8 -60 -18z m673 13 c-7
-2 -19 -2 -25 0 -7 3 -2 5 12 5 14 0 19 -2 13 -5z m-56 -9 c-3 -3 -12 -4 -19
-1 -8 3 -5 6 6 6 11 1 17 -2 13 -5z m277 -91 c-59 -92 -94 -137 -53 -68 69
117 94 155 101 155 4 0 -18 -39 -48 -87z m-572 70 c-12 -2 -19 -9 -16 -15 4
-6 -1 -8 -14 -4 -11 4 -23 2 -27 -4 -3 -5 -18 -11 -33 -11 l-27 -1 30 -9 c25
-7 23 -7 -12 -4 -24 3 -62 2 -85 -2 -39 -6 -41 -7 -18 -14 15 -5 2 -6 -35 -4
-47 3 -54 2 -30 -5 24 -7 19 -8 -25 -5 -41 3 -50 2 -35 -6 16 -7 11 -8 -19 -5
-21 3 -59 2 -85 -1 -36 -5 -41 -8 -26 -15 16 -7 15 -8 -7 -5 -16 3 -28 0 -28
-6 0 -6 -18 -7 -46 -3 -29 4 -43 2 -39 -4 4 -7 -8 -8 -36 -4 -29 5 -40 4 -35
-4 4 -7 -5 -9 -31 -6 -29 4 -35 3 -23 -5 11 -9 5 -10 -27 -5 -24 4 -43 3 -43
-2 0 -5 -25 -10 -56 -11 -31 -2 -62 -7 -68 -11 -6 -5 -49 -15 -96 -22 -98 -14
-124 -20 -116 -27 3 -3 1 -14 -4 -23 -7 -13 -5 -22 6 -31 14 -12 14 -14 -2
-26 -16 -11 -16 -13 -2 -13 9 0 19 -4 22 -9 3 -4 -13 -5 -36 -1 -47 9 -68 4
-68 -15 0 -7 -6 -15 -12 -18 -7 -2 4 -5 25 -5 20 0 47 -6 60 -14 31 -20 59
-30 52 -18 -3 6 -2 10 4 10 5 0 12 -4 16 -10 3 -5 12 -7 20 -4 20 8 33 -45 14
-57 -18 -11 -1 -10 26 1 11 5 15 9 10 9 -6 1 -12 13 -13 29 -1 15 -15 48 -32
74 -28 46 -28 47 -5 32 13 -9 26 -15 29 -15 53 8 63 1 81 -55 9 -30 14 -58 11
-61 -3 -4 -6 1 -6 10 0 28 -18 19 -22 -10 -2 -22 -8 -28 -25 -26 -19 2 -23 -2
-23 -27 0 -16 -4 -31 -10 -35 -5 -3 -7 -12 -4 -20 4 -9 -1 -17 -12 -21 -11 -3
-26 -8 -34 -11 -8 -3 -35 -7 -59 -8 -47 -4 -83 -25 -42 -25 16 0 21 -4 17 -15
-7 -19 44 -21 62 -3 19 19 42 18 42 -3 0 -17 8 -19 63 -20 l62 -1 -45 -11 -45
-11 35 -5 c56 -10 -83 -27 -407 -52 -242 -18 -347 -20 -332 -4 3 2 108 11 234
20 127 9 232 18 234 21 2 2 -22 4 -55 5 -54 1 -56 2 -24 9 19 5 65 12 102 16
39 4 65 11 62 16 -4 5 -14 8 -23 5 -10 -2 -26 2 -37 10 -19 14 -18 15 5 34 13
10 31 20 40 20 9 1 21 2 26 4 6 1 18 3 28 3 16 2 17 4 3 17 -8 8 -23 15 -33
15 -14 0 -15 -2 -5 -9 10 -6 5 -11 -18 -20 -35 -12 -57 -4 -97 33 -26 24 -29
36 -9 36 9 0 16 12 18 28 2 22 8 27 30 27 15 1 30 4 34 8 4 4 0 7 -9 7 -10 0
-17 3 -17 8 0 10 -55 37 -100 49 l-35 10 38 8 c20 4 37 11 37 16 0 5 11 9 24
9 47 0 65 46 39 93 -7 12 -184 0 -337 -23 -416 -62 -817 -98 -791 -73 6 6 98
22 205 36 107 15 366 49 575 77 209 28 450 62 535 75 85 13 297 45 470 70 173
26 362 55 420 65 91 15 193 26 122 13z m-535 -19 c-3 -3 -12 -4 -19 -1 -8 3
-5 6 6 6 11 1 17 -2 13 -5z m300 0 c-3 -3 -12 -4 -19 -1 -8 3 -5 6 6 6 11 1
17 -2 13 -5z m226 -21 c-7 -2 -21 -2 -30 0 -10 3 -4 5 12 5 17 0 24 -2 18 -5z
m-120 -20 c-7 -2 -21 -2 -30 0 -10 3 -4 5 12 5 17 0 24 -2 18 -5z m243 -69
c-3 -9 -6 -20 -6 -25 0 -6 -8 -5 -20 1 -25 13 -26 27 -2 33 31 8 34 7 28 -9z
m-460 -66 c38 -33 84 -117 84 -152 0 -11 -3 -16 -6 -13 -4 3 -16 0 -26 -8 -11
-7 -26 -11 -33 -9 -7 3 -15 -6 -18 -23 -3 -15 -9 -36 -12 -45 -4 -11 -3 -18 4
-18 6 0 14 15 19 33 7 28 12 32 43 32 33 0 34 -1 31 -39 -6 -67 -17 -84 -64
-97 -24 -7 -51 -19 -60 -27 -24 -20 -23 -10 2 18 11 13 20 30 20 38 0 8 -10 0
-23 -19 -27 -40 -123 -92 -167 -91 -37 1 -119 41 -134 65 -6 9 -15 17 -21 17
-57 0 -17 214 50 270 14 11 85 32 85 24 0 -11 -64 -73 -71 -68 -5 3 -6 -3 -2
-12 6 -15 9 -14 29 9 26 31 36 35 27 11 -5 -14 -3 -15 15 -5 28 15 90 16 125
2 17 -7 26 -7 22 -1 -3 6 1 10 10 10 14 0 14 3 -2 31 -20 34 -60 59 -94 59
-33 0 -20 8 42 24 77 21 84 20 125 -16z m524 16 c-15 -17 -30 -18 -30 -1 0 7
9 13 21 14 17 2 18 -1 9 -13z m-6005 -13 c3 -6 14 -8 25 -6 12 2 28 -8 46 -32
15 -20 23 -34 18 -32 -18 8 -114 71 -114 75 0 8 19 4 25 -5z m1679 -31 c13 -5
55 -12 93 -15 37 -3 88 -13 113 -20 25 -8 88 -19 140 -24 97 -10 1211 -5 1259
5 17 4 9 -4 -24 -24 l-50 -29 -607 -6 -606 -7 -76 25 c-42 14 -87 25 -100 25
-13 0 -35 9 -48 20 -14 10 -27 17 -30 15 -3 -3 -25 4 -49 14 -25 11 -74 25
-109 30 l-65 10 68 -5 c37 -2 78 -9 91 -14z m11 -35 c65 -32 100 -74 111 -131
5 -29 2 -38 -20 -57 -14 -13 -26 -28 -26 -34 0 -7 -4 -15 -10 -18 -7 -4 -7 3
0 20 13 33 13 125 1 125 -6 0 -13 -5 -17 -11 -11 -18 -125 -67 -164 -71 -25
-2 -42 -12 -58 -33 l-22 -29 5 29 c6 30 6 30 -44 32 -42 1 -51 -1 -51 -15 0
-9 -8 -26 -16 -37 -15 -19 -16 -18 -10 18 6 31 4 37 -11 37 -10 0 -36 11 -58
23 -29 16 -41 31 -45 52 l-5 29 -19 -29 c-10 -16 -20 -48 -22 -72 -2 -24 -5
-63 -7 -88 -5 -62 20 -100 86 -130 56 -27 125 -33 146 -12 10 10 11 8 5 -7 -5
-13 -4 -17 4 -12 6 3 14 1 18 -5 10 -17 -113 -5 -163 16 -71 30 -123 96 -123
155 0 18 -4 29 -10 25 -15 -9 -12 8 10 69 30 79 101 140 209 182 24 9 71 13
141 11 94 -2 111 -5 165 -32z m3610 25 c-3 -5 -11 -10 -16 -10 -6 0 -7 5 -4
10 3 6 11 10 16 10 6 0 7 -4 4 -10z m-5369 -37 c-23 -35 -50 -146 -28 -114 7
9 11 10 17 2 10 -17 31 3 39 35 4 14 16 35 27 47 17 18 21 19 29 7 5 -8 6 -18
4 -22 -3 -4 0 -8 6 -8 6 0 13 7 16 15 4 8 11 15 17 15 7 0 7 -4 -1 -12 -17
-17 -15 -35 3 -35 8 0 15 7 15 14 0 14 23 43 34 43 14 0 4 -31 -19 -58 -14
-17 -25 -39 -25 -50 0 -12 -4 -23 -10 -27 -5 -3 -7 -12 -4 -20 4 -10 -1 -12
-18 -9 -19 5 -20 4 -6 -5 10 -7 14 -19 10 -33 -3 -14 -1 -19 6 -14 8 4 10 2 6
-8 -3 -8 -12 -12 -19 -10 -7 3 -16 1 -19 -5 -4 -6 -12 -9 -19 -7 -7 1 -9 1 -4
-1 4 -3 7 -9 7 -14 0 -6 -4 -7 -10 -4 -5 3 -10 1 -10 -5 0 -7 -6 -10 -12 -7
-7 2 -21 -12 -30 -32 l-17 -36 5 34 c4 31 3 32 -12 17 -9 -9 -13 -23 -10 -31
3 -8 1 -15 -5 -15 -6 0 -10 15 -9 33 4 62 0 77 -17 78 -14 1 -14 2 -3 5 12 4
14 17 11 56 -6 87 36 218 69 218 6 0 -1 -17 -14 -37z m4022 20 c-10 -2 -26 -2
-35 0 -10 3 -2 5 17 5 19 0 27 -2 18 -5z m-213 -29 c-152 -22 -283 -32 -165
-13 108 18 256 37 290 37 19 0 -37 -11 -125 -24z m-1970 -4 c10 -11 16 -20 13
-20 -3 0 -13 9 -23 20 -10 11 -16 20 -13 20 3 0 13 -9 23 -20z m4139 -69 c-20
-33 -43 -66 -52 -73 -16 -12 -16 -11 -1 7 24 29 69 121 69 142 1 17 1 17 10 1
8 -12 1 -31 -26 -77z m-4728 48 c12 -13 14 -21 5 -37 -12 -23 -45 -37 -62 -26
-7 4 -53 9 -103 10 -170 7 -618 36 -664 44 l-47 8 50 2 c249 13 402 17 587 16
187 -1 220 -3 234 -17z m2197 -31 c-45 -8 -98 -10 -91 -3 2 3 16 6 31 7 14 1
24 4 22 7 -3 2 0 10 6 17 9 11 16 11 41 -4 l29 -17 -38 -7z m-2818 -19 c448
-25 446 -25 466 -69 10 -19 15 -38 12 -42 -2 -5 4 -8 14 -8 12 0 14 -3 6 -8
-16 -10 -552 25 -761 49 -91 11 -92 12 -108 45 -19 39 -33 51 -43 36 -4 -6
-12 -8 -19 -3 -9 5 -8 12 3 28 15 21 17 21 53 6 27 -11 126 -20 377 -34z
m2952 45 c-3 -3 -12 -4 -19 -1 -8 3 -5 6 6 6 11 1 17 -2 13 -5z m643 -14 c6
-12 8 -30 5 -40 -6 -19 -8 -19 -36 -5 -16 9 -29 20 -29 25 0 5 -15 6 -34 3
-39 -6 -57 12 -20 21 13 4 29 4 34 1 4 -3 19 -1 32 4 33 14 36 13 48 -9z
m1844 -9 c10 -15 -42 -70 -62 -66 -9 2 -20 4 -24 4 -13 2 -9 17 13 45 20 26
62 35 73 17z m-2741 -18 c-7 -2 -21 -2 -30 0 -10 3 -4 5 12 5 17 0 24 -2 18
-5z m181 -19 c10 -26 7 -34 -12 -34 -10 0 -80 -13 -155 -30 -103 -22 -164 -30
-239 -30 -56 0 -99 -3 -95 -6 3 -3 57 -6 119 -6 l113 0 -80 -9 c-117 -12
-1105 -20 -1105 -9 0 22 64 80 98 89 21 5 280 12 577 16 361 4 570 11 630 19
125 19 142 19 149 0z m1007 -16 c16 0 29 -4 29 -9 0 -5 -6 -8 -12 -6 -23 4
-14 -27 12 -41 l25 -13 -27 4 c-26 4 -27 3 -25 -39 1 -24 4 -44 7 -44 11 0 26
16 37 40 11 23 12 20 12 -27 1 -29 -4 -55 -11 -59 -7 -5 -8 -3 -3 6 6 10 4 11
-11 5 -10 -4 -29 -7 -41 -7 -16 1 -20 -3 -16 -18 3 -11 9 -20 14 -20 5 0 5 8
2 18 -6 15 -5 15 10 4 9 -8 20 -11 26 -8 14 9 20 -16 9 -37 -5 -11 -16 -16
-24 -13 -12 5 -12 2 -3 -15 9 -17 8 -20 -3 -17 -7 3 -13 17 -13 31 1 25 -6 32
-27 28 -5 0 -8 10 -8 22 0 14 -6 24 -14 24 -11 0 -13 -8 -9 -31 4 -25 3 -29
-7 -19 -7 6 -12 23 -12 37 0 15 -5 23 -11 19 -6 -4 -8 0 -4 9 3 9 1 20 -5 26
-6 6 -7 16 -2 23 4 7 9 27 11 43 2 17 12 40 23 51 11 12 20 27 20 34 0 7 5 9
11 5 7 -4 25 -7 40 -6z m1717 -20 c-36 -52 -110 -141 -131 -160 -24 -21 -45
-24 -28 -5 6 8 9 17 6 20 -3 4 -2 5 1 3 3 -2 42 36 87 84 45 49 83 89 85 90 2
0 -7 -15 -20 -32z m-2048 12 c8 -5 11 -10 7 -10 -5 0 -5 -6 0 -12 4 -7 8 -17
9 -23 1 -5 5 -18 9 -27 6 -16 1 -18 -45 -18 -44 0 -53 3 -57 21 -3 12 -9 16
-12 10 -4 -6 -7 5 -7 24 0 32 2 34 28 31 15 -2 28 1 28 5 0 12 21 11 40 -1z
m-166 -36 c3 -8 10 -12 16 -9 6 3 13 -2 17 -11 4 -10 2 -19 -5 -22 -7 -2 -19
-11 -28 -19 -20 -20 -26 -12 -29 37 -2 41 16 57 29 24z m-190 -9 c8 -8 21 -12
29 -9 29 11 29 -17 0 -42 -33 -28 -51 -31 -49 -6 1 13 -5 16 -26 14 -16 -2
-28 1 -28 7 0 6 13 11 29 11 36 0 48 15 24 29 -10 6 -13 11 -6 11 6 0 18 -7
27 -15z m122 6 c-3 -5 1 -11 9 -15 21 -8 19 -23 -5 -29 -16 -4 -20 0 -20 17 0
13 3 26 7 29 9 10 15 9 9 -2z m2017 -33 c-2 -5 -18 -8 -34 -8 -17 0 -40 -5
-52 -11 -22 -10 -22 -10 0 8 22 17 96 26 86 11z m-2291 -34 c4 -16 16 -60 27
-98 12 -39 17 -66 12 -60 -5 5 -21 48 -35 97 -28 90 -39 111 -31 55 l5 -33
-10 29 c-5 16 -7 33 -4 38 10 16 28 2 36 -28z m-3811 9 c13 -16 12 -17 -3 -4
-10 7 -18 15 -18 17 0 8 8 3 21 -13z m5137 -33 c2 -20 -2 -47 -8 -60 -10 -23
-10 -23 -6 -2 2 12 0 20 -5 16 -5 -3 -9 -12 -9 -19 0 -16 -56 -49 -69 -40 -9
5 -6 34 7 65 7 19 9 29 11 58 1 21 5 23 39 20 35 -3 37 -5 40 -38z m-753 16
c0 -1 12 -24 26 -52 l26 -52 -36 -6 c-70 -11 -152 -7 -168 9 -14 14 -17 14
-32 0 -23 -20 -51 -19 -51 3 -1 16 -1 16 -14 0 -12 -16 -14 -16 -24 6 -16 35
5 70 46 74 24 2 32 -1 32 -12 0 -22 20 -20 20 2 1 15 2 15 17 -3 13 -16 15
-17 10 -2 -9 25 8 21 21 -5 11 -21 11 -20 6 10 -6 36 5 42 26 12 17 -24 32
-26 23 -4 -8 21 16 35 47 27 14 -3 25 -6 25 -7z m-4338 -2 c-3 -3 -12 -4 -19
-1 -8 3 -5 6 6 6 11 1 17 -2 13 -5z m1320 -46 c-3 -7 -5 -2 -5 12 0 14 2 19 5
13 2 -7 2 -19 0 -25z m547 -3 c-9 -14 -18 -25 -21 -25 -5 0 5 18 20 38 17 22
18 13 1 -13z m2091 5 c3 -5 15 -10 25 -10 33 0 35 -22 4 -47 -35 -27 -52 -29
-50 -6 1 14 -6 17 -33 15 -24 -3 -32 0 -29 10 3 7 17 13 31 13 14 1 29 4 33 8
4 4 2 7 -5 7 -7 0 -9 5 -6 10 3 6 10 10 15 10 5 0 12 -4 15 -10z m-3974 -53
c-8 -8 -14 -8 -23 1 -9 9 -9 12 0 12 7 0 12 8 12 18 1 16 1 16 11 -1 8 -14 8
-22 0 -30z m139 18 c0 -8 5 -15 10 -15 6 0 10 -7 10 -15 0 -12 -4 -11 -20 5
-22 22 -26 40 -10 40 6 0 10 -7 10 -15z m6160 6 c0 -5 -20 -22 -45 -38 -24
-15 -44 -32 -45 -36 0 -5 5 -5 12 -1 7 4 8 3 4 -5 -6 -9 -11 -9 -21 -1 -9 7
-25 5 -56 -10 -24 -11 -53 -20 -64 -20 -14 0 -16 -3 -7 -8 10 -7 8 -15 -8 -35
-12 -15 -18 -27 -14 -27 5 0 3 -5 -4 -12 -14 -14 -16 -42 -2 -33 16 10 12 -46
-4 -64 -8 -9 -17 -36 -19 -61 -3 -25 -10 -57 -16 -71 -5 -15 -7 -29 -5 -32 3
-3 -2 -22 -10 -42 -9 -21 -16 -48 -16 -61 0 -12 -4 -26 -10 -29 -5 -3 -10 -14
-10 -24 0 -21 -26 -82 -52 -121 -23 -35 -34 -110 -16 -110 7 -1 -7 -8 -32 -16
-25 -8 -58 -21 -75 -29 -27 -11 -136 -41 -190 -51 -11 -2 -83 -18 -160 -35
-77 -16 -230 -48 -340 -69 -241 -47 -398 -80 -565 -120 -175 -42 -170 -41
-223 -49 -26 -4 -53 -13 -59 -19 -7 -7 -34 -12 -60 -12 -37 0 -48 -4 -48 -16
0 -8 -4 -12 -10 -9 -5 3 -20 -4 -32 -15 -13 -12 -39 -30 -59 -40 l-37 -19 -6
51 c-4 31 -2 70 5 100 10 39 10 63 1 121 -11 63 -163 661 -178 701 -4 10 2 17
18 20 12 3 277 28 588 56 1212 109 1519 146 1682 201 63 21 158 75 158 90 0 5
7 9 15 9 8 0 15 -4 15 -9z m-4466 -22 c-20 -22 -93 -63 -100 -56 -2 2 14 12
36 22 21 10 47 26 56 36 10 11 19 19 22 19 3 0 -3 -9 -14 -21z m1954 -15 c-3
-14 -5 -12 -10 9 -3 19 -2 25 4 19 6 -6 8 -18 6 -28z m999 30 c-3 -3 -12 -4
-19 -1 -8 3 -5 6 6 6 11 1 17 -2 13 -5z m833 2 c0 -11 -19 -15 -25 -6 -3 5 1
10 9 10 9 0 16 -2 16 -4z m735 -92 c25 -47 44 -89 41 -92 -3 -3 -6 1 -6 9 0
12 -2 11 -11 -1 -9 -13 -10 -13 -6 2 3 9 -1 24 -10 35 -14 17 -14 17 -9 0 7
-22 -11 -60 -25 -51 -7 4 -6 10 1 19 11 13 4 45 -11 45 -5 0 -9 7 -9 15 0 10
-6 12 -17 8 -17 -7 -17 -6 0 11 23 24 22 36 -5 37 -22 0 -22 1 -3 8 12 5 23 4
28 -3 6 -7 7 -6 4 4 -2 8 -12 14 -21 14 -13 -2 -14 1 -5 12 6 8 13 14 14 14 2
0 24 -39 50 -86z m-2308 61 c0 -8 -6 -15 -13 -15 -8 0 -11 6 -8 15 4 8 9 15
13 15 4 0 8 -7 8 -15z m-2728 -25 c11 -24 11 -24 -3 -6 -9 11 -16 24 -16 30 0
12 5 7 19 -24z m4211 10 c-19 -11 -42 -19 -50 -20 -8 0 1 9 20 19 19 11 42 20
50 20 8 0 -1 -8 -20 -19z m428 5 c-25 -7 -77 -15 -115 -18 -66 -6 -65 -5 27
12 111 22 155 25 88 6z m-4478 -56 c92 -29 217 -21 293 17 15 8 27 12 27 9 0
-4 -21 -15 -47 -27 -66 -29 -192 -36 -267 -14 -68 20 -85 14 -30 -10 77 -33
209 -29 329 10 11 3 0 -3 -24 -15 -24 -11 -71 -27 -105 -34 l-61 -13 40 -5
c22 -2 -3 -3 -55 -2 -81 2 -88 1 -50 -7 61 -13 410 -3 545 16 85 12 212 15
545 16 425 0 554 -5 545 -20 -3 -4 -24 -10 -47 -14 -173 -23 -1673 -30 -2018
-8 -340 21 -704 52 -713 61 -4 4 46 6 110 5 340 -8 593 -15 717 -21 101 -4
137 -3 132 5 -4 6 19 2 50 -8 32 -11 64 -20 73 -19 9 1 5 5 -9 9 -18 7 -11 8
25 5 l50 -5 -49 17 c-26 10 -65 33 -85 53 -21 19 -28 27 -16 18 33 -27 41 -21
14 9 -20 23 -20 25 -2 10 12 -10 49 -27 83 -38z m2958 44 c-21 -2 -55 -2 -75
0 -21 2 -4 4 37 4 41 0 58 -2 38 -4z m1605 0 c-7 -2 -21 -2 -30 0 -10 3 -4 5
12 5 17 0 24 -2 18 -5z m-1810 -10 c-7 -2 -21 -2 -30 0 -10 3 -4 5 12 5 17 0
24 -2 18 -5z m528 -11 c-7 -2 -18 1 -23 6 -8 8 -4 9 13 5 13 -4 18 -8 10 -11z
m1222 11 c-7 -2 -21 -2 -30 0 -10 3 -4 5 12 5 17 0 24 -2 18 -5z m-56 -9 c-3
-3 -12 -4 -19 -1 -8 3 -5 6 6 6 11 1 17 -2 13 -5z m-639 -11 c-10 -2 -28 -2
-40 0 -13 2 -5 4 17 4 22 1 32 -1 23 -4z m579 1 c-3 -3 -12 -4 -19 -1 -8 3 -5
6 6 6 11 1 17 -2 13 -5z m-4184 -11 c-7 -2 -19 -2 -25 0 -7 3 -2 5 12 5 14 0
19 -2 13 -5z m3480 0 c-13 -2 -33 -2 -45 0 -13 2 -3 4 22 4 25 0 35 -2 23 -4z
m644 1 c-3 -3 -12 -4 -19 -1 -8 3 -5 6 6 6 11 1 17 -2 13 -5z m-60 -10 c-3 -3
-12 -4 -19 -1 -8 3 -5 6 6 6 11 1 17 -2 13 -5z m-5690 -40 c-6 -20 -13 -32
-14 -27 -4 11 14 63 21 63 2 0 -1 -16 -7 -36z m1329 10 c18 -14 18 -14 -6 -3
-31 14 -36 19 -24 19 6 0 19 -7 30 -16z m3857 9 c-7 -2 -21 -2 -30 0 -10 3 -4
5 12 5 17 0 24 -2 18 -5z m-110 -10 c-13 -2 -33 -2 -45 0 -13 2 -3 4 22 4 25
0 35 -2 23 -4z m-5042 -26 c-10 -9 -11 -8 -5 6 3 10 9 15 12 12 3 -3 0 -11 -7
-18z m4927 16 c-16 -2 -40 -2 -55 0 -16 2 -3 4 27 4 30 0 43 -2 28 -4z m215 0
c-13 -2 -35 -2 -50 0 -16 2 -5 4 22 4 28 0 40 -2 28 -4z m1085 -18 c-3 -3 -9
2 -12 12 -6 14 -5 15 5 6 7 -7 10 -15 7 -18z m-1425 8 c-18 -2 -48 -2 -65 0
-18 2 -4 4 32 4 36 0 50 -2 33 -4z m230 0 c-13 -2 -35 -2 -50 0 -16 2 -5 4 22
4 28 0 40 -2 28 -4z m-888 -14 c14 -6 -2 -8 -50 -4 -41 3 -64 1 -56 -4 8 -5
-40 -11 -125 -15 -77 -4 -154 -8 -171 -11 -25 -3 -33 0 -33 12 0 13 9 15 50
11 28 -3 50 -1 50 3 0 8 78 13 250 16 36 1 74 -3 85 -8z m523 4 c-15 -2 -42
-2 -60 0 -18 2 -6 4 27 4 33 0 48 -2 33 -4z m255 0 c-13 -2 -33 -2 -45 0 -13
2 -3 4 22 4 25 0 35 -2 23 -4z m-4518 -28 c117 -10 128 -13 68 -14 -96 -1
-192 -42 -154 -65 18 -12 513 -49 811 -61 255 -10 325 -16 307 -27 -19 -10
-348 3 -667 28 -107 8 -256 19 -330 24 -74 6 -154 12 -177 15 l-42 6 -3 52
c-3 45 -6 52 -28 58 -14 5 -3 5 25 3 28 -3 113 -11 190 -19z m4122 18 c-20 -2
-52 -2 -70 0 -17 2 0 4 38 4 39 0 53 -2 32 -4z m268 0 c-135 -13 -1044 -93
-1054 -93 -6 0 -11 6 -11 13 0 10 44 16 188 26 380 24 629 42 712 50 47 5 112
8 145 8 40 0 46 -2 20 -4z m-428 -10 c-20 -2 -52 -2 -70 0 -17 2 0 4 38 4 39
0 53 -2 32 -4z m1863 -25 c0 -5 -4 -8 -10 -8 -5 0 -10 10 -10 23 0 18 2 19 10
7 5 -8 10 -18 10 -22z m-2155 7 c-104 -7 -228 -15 -274 -19 -46 -3 -81 -2 -77
1 8 8 341 30 456 30 50 0 7 -5 -105 -12z m-3428 -12 c-20 -2 -52 -2 -70 0 -17
2 0 4 38 4 39 0 53 -2 32 -4z m368 -18 c387 -26 1071 -36 1725 -26 333 6 612
12 620 15 8 2 79 7 156 11 l141 6 5 -24 c5 -24 4 -24 -116 -36 -67 -6 -144
-14 -173 -17 -28 -3 -53 -2 -56 3 -3 4 -62 5 -132 1 -123 -6 -136 -9 -147 -40
-3 -8 -150 16 -190 31 -14 5 -28 15 -30 22 -3 9 -180 12 -728 13 -460 2 -791
7 -905 15 -329 23 -501 38 -445 39 30 1 154 -5 275 -13z m5215 -35 c0 -5 -4
-10 -10 -10 -5 0 -10 5 -10 10 0 6 5 10 10 10 6 0 10 -4 10 -10z m-2912 -77
c-10 -2 -26 -2 -35 0 -10 3 -2 5 17 5 19 0 27 -2 18 -5z m-180 -21 c-128 -16
-1651 -13 -1667 3 -7 7 287 10 880 10 769 0 876 -2 787 -13z m-3046 -89 c84
-30 109 -52 31 -27 -27 9 -69 18 -94 21 -45 5 -46 5 -52 -26 -4 -17 -7 -33 -8
-36 -26 -103 -26 -99 -5 -119 21 -18 21 -18 -4 -3 -14 8 -25 21 -25 28 1 26
16 114 26 152 12 46 25 47 131 10z m205 -49 c-3 -3 -12 -4 -19 -1 -8 3 -5 6 6
6 11 1 17 -2 13 -5z m90 -10 c-3 -3 -12 -4 -19 -1 -8 3 -5 6 6 6 11 1 17 -2
13 -5z m360 -30 c-3 -3 -12 -4 -19 -1 -8 3 -5 6 6 6 11 1 17 -2 13 -5z m156
-11 c-7 -2 -21 -2 -30 0 -10 3 -4 5 12 5 17 0 24 -2 18 -5z m180 -10 c-7 -2
-21 -2 -30 0 -10 3 -4 5 12 5 17 0 24 -2 18 -5z m184 -9 c-3 -3 -12 -4 -19 -1
-8 3 -5 6 6 6 11 1 17 -2 13 -5z m56 -1 c-7 -2 -21 -2 -30 0 -10 3 -4 5 12 5
17 0 24 -2 18 -5z m2127 -23 c-145 -19 -322 -33 -304 -25 16 8 340 43 394 43
25 -1 -16 -9 -90 -18z m-1523 4 c-3 -3 -12 -4 -19 -1 -8 3 -5 6 6 6 11 1 17
-2 13 -5z m706 -11 c-67 -2 -179 -2 -250 0 -70 1 -15 3 122 3 138 0 195 -2
128 -3z m-2594 -79 c14 -12 -19 -1 -35 12 -18 14 -18 14 6 3 14 -6 27 -13 29
-15z m51 -19 c14 -8 21 -14 15 -14 -5 0 -21 6 -35 14 -14 8 -20 14 -15 14 6 0
21 -6 35 -14z m-80 -95 c41 -16 70 -29 63 -29 -7 -1 -36 8 -65 19 -29 10 -65
18 -80 16 -27 -3 -35 4 -21 17 10 11 23 8 103 -23z m10217 -42 c-3 -8 -6 -5
-6 6 -1 11 2 17 5 13 3 -3 4 -12 1 -19z m-4177 -57 c0 -5 -9 -7 -20 -4 -11 3
-20 7 -20 9 0 2 9 4 20 4 11 0 20 -4 20 -9z m-5742 -18 c-10 -2 -26 -2 -35 0
-10 3 -2 5 17 5 19 0 27 -2 18 -5z m5748 -44 c-18 -41 -21 -29 -4 18 7 19 14
30 16 25 1 -4 -4 -24 -12 -43z m-5643 34 c-13 -2 -33 -2 -45 0 -13 2 -3 4 22
4 25 0 35 -2 23 -4z m-423 -28 c36 -13 59 -24 53 -24 -7 -1 -35 7 -62 18 -27
10 -61 17 -75 16 -14 -2 -24 1 -20 6 8 14 34 10 104 -16z m533 18 c-13 -2 -35
-2 -50 0 -16 2 -5 4 22 4 28 0 40 -2 28 -4z m115 -10 c-16 -2 -40 -2 -55 0
-16 2 -3 4 27 4 30 0 43 -2 28 -4z m130 -10 c-15 -2 -42 -2 -60 0 -18 2 -6 4
27 4 33 0 48 -2 33 -4z m125 -10 c-13 -2 -35 -2 -50 0 -16 2 -5 4 22 4 28 0
40 -2 28 -4z m145 -10 c-16 -2 -40 -2 -55 0 -16 2 -3 4 27 4 30 0 43 -2 28 -4z
m4762 -4 c0 -6 -7 -9 -15 -5 -8 3 -15 1 -15 -5 0 -5 -11 -7 -26 -3 -18 5 -25
3 -20 -4 4 -6 -2 -8 -16 -4 -20 5 -18 8 17 18 51 16 75 17 75 3z m4989 -37 c1
-10 -3 -10 -14 2 -9 8 -12 22 -8 32 6 16 7 16 14 -2 4 -10 8 -25 8 -32z
m-9591 31 c-16 -2 -40 -2 -55 0 -16 2 -3 4 27 4 30 0 43 -2 28 -4z m165 -10
c-13 -2 -33 -2 -45 0 -13 2 -3 4 22 4 25 0 35 -2 23 -4z m4562 -26 c-2 -12 -2
-16 1 -9 7 15 24 6 24 -12 0 -9 -9 -12 -25 -8 -20 3 -25 0 -25 -16 0 -12 5
-24 10 -27 6 -3 10 -12 10 -19 0 -16 -52 -18 -62 -3 -7 11 -112 19 -141 11
-11 -4 -16 -12 -13 -20 3 -8 2 -13 -3 -9 -5 3 -12 -1 -14 -7 -3 -7 -6 -3 -6
10 -1 21 -31 33 -31 12 0 -7 -6 -7 -19 0 -11 5 -45 8 -78 5 l-58 -5 25 20 25
19 -25 -6 c-14 -3 -23 -3 -20 0 6 7 221 60 305 76 120 22 129 21 120 -12z
m-4337 16 c-21 -2 -55 -2 -75 0 -21 2 -4 4 37 4 41 0 58 -2 38 -4z m240 -10
c-27 -2 -69 -2 -95 0 -27 2 -5 3 47 3 52 0 74 -1 48 -3z m5947 -3 c3 -5 1 -10
-4 -10 -6 0 -11 5 -11 10 0 6 2 10 4 10 3 0 8 -4 11 -10z m-5593 -7 c-40 -2
-103 -2 -140 0 -37 2 -4 3 73 3 77 0 107 -2 67 -3z m5612 -22 c3 -5 -1 -14 -8
-20 -12 -10 -13 -8 -9 8 6 23 9 25 17 12z m2652 -39 c17 -27 17 -27 -15 2 -35
33 -37 38 -17 30 8 -3 22 -18 32 -32z m-10183 21 c-7 -2 -21 -2 -30 0 -10 3
-4 5 12 5 17 0 24 -2 18 -5z m10087 3 c0 -2 -8 -10 -17 -17 -16 -13 -17 -12
-4 4 13 16 21 21 21 13z m-10002 -13 c-10 -2 -28 -2 -40 0 -13 2 -5 4 17 4 22
1 32 -1 23 -4z m105 -10 c-13 -2 -33 -2 -45 0 -13 2 -3 4 22 4 25 0 35 -2 23
-4z m110 -10 c-13 -2 -35 -2 -50 0 -16 2 -5 4 22 4 28 0 40 -2 28 -4z m4924 1
c-3 -3 -12 -4 -19 -1 -8 3 -5 6 6 6 11 1 17 -2 13 -5z m-5517 -14 c8 -5 11
-10 5 -10 -5 0 -17 5 -25 10 -8 5 -10 10 -5 10 6 0 17 -5 25 -10z m708 3 c-15
-2 -42 -2 -60 0 -18 2 -6 4 27 4 33 0 48 -2 33 -4z m4757 -2 c-11 -9 -103 -26
-94 -17 3 3 23 10 45 15 53 12 60 13 49 2z m-4647 -8 c-16 -2 -40 -2 -55 0
-16 2 -3 4 27 4 30 0 43 -2 28 -4z m120 -10 c-15 -2 -42 -2 -60 0 -18 2 -6 4
27 4 33 0 48 -2 33 -4z m4832 -14 c0 -6 -4 -7 -10 -4 -5 3 -10 11 -10 16 0 6
5 7 10 4 6 -3 10 -11 10 -16z m-4702 4 c-15 -2 -42 -2 -60 0 -18 2 -6 4 27 4
33 0 48 -2 33 -4z m145 -10 c-18 -2 -48 -2 -65 0 -18 2 -4 4 32 4 36 0 50 -2
33 -4z m9139 -45 c1 -45 2 -47 6 -18 5 31 7 27 18 -35 l12 -70 1 52 c0 28 5
54 9 57 14 9 2 -236 -15 -292 -22 -73 -31 -73 -28 1 1 34 1 47 -2 29 -2 -18
-8 -30 -14 -27 -5 3 -6 -1 -3 -9 4 -11 0 -13 -14 -9 -16 4 -20 12 -17 36 2 18
7 91 10 162 2 72 8 140 11 153 11 39 24 24 26 -30z m56 26 c0 -17 -3 -22 -8
-13 -5 6 -6 18 -3 26 8 19 11 16 11 -13z m-9035 9 c-18 -2 -48 -2 -65 0 -18 2
-4 4 32 4 36 0 50 -2 33 -4z m165 -10 c-21 -2 -55 -2 -75 0 -21 2 -4 4 37 4
41 0 58 -2 38 -4z m4187 -3 c-3 -5 1 -10 9 -10 11 0 15 -8 14 -25 -1 -14 -4
-25 -6 -25 -12 0 -42 23 -42 32 0 9 3 9 12 0 19 -19 33 -14 15 6 -10 10 -14
22 -10 25 10 10 15 8 8 -3z m198 -10 c-3 -12 -8 -19 -11 -16 -5 6 5 36 12 36
2 0 2 -9 -1 -20z m-4195 3 c-21 -2 -57 -2 -80 0 -24 2 -7 4 37 4 44 0 63 -2
43 -4z m3443 -13 c72 -22 117 -58 148 -118 22 -42 30 -81 11 -52 -6 10 -10 11
-10 3 0 -25 -16 -12 -29 23 -33 90 -114 143 -236 154 l-80 7 66 2 c42 0 91 -6
130 -19z m-3173 3 c-32 -2 -86 -2 -120 0 -35 2 -9 3 57 3 66 0 94 -1 63 -3z
m2932 -9 c-56 -17 -64 -17 -25 1 17 8 39 14 50 14 11 0 0 -7 -25 -15z m897 -6
c-3 -8 -6 -5 -6 6 -1 11 2 17 5 13 3 -3 4 -12 1 -19z m-3444 5 c-35 -2 -91 -2
-125 0 -35 2 -7 3 62 3 69 0 97 -1 63 -3z m2997 -62 c1 -14 7 -39 15 -56 15
-30 15 -30 12 23 -3 65 8 68 17 5 15 -108 29 -173 36 -168 5 3 6 -4 3 -15 -3
-11 -1 -20 4 -20 5 0 10 -13 11 -30 2 -28 1 -29 -30 -23 -42 8 -48 13 -15 13
28 0 44 15 27 25 -5 3 -10 1 -10 -4 0 -6 -9 -11 -20 -11 -16 0 -19 4 -12 18 9
17 9 34 3 117 -3 34 -4 36 -10 15 -4 -14 -10 -20 -13 -14 -6 9 -33 110 -44
164 -5 24 -5 24 10 6 9 -11 16 -31 16 -45z m140 55 c0 -11 -19 -15 -25 -6 -3
5 1 10 9 10 9 0 16 -2 16 -4z m150 -9 c-14 -6 -28 -16 -32 -22 -5 -6 -8 -6 -8
0 0 6 -7 -1 -15 -15 -13 -22 -21 -16 -16 13 2 11 -17 9 -24 -3 -3 -5 -15 -10
-26 -10 -10 0 -28 -6 -39 -12 -17 -11 -22 -10 -30 2 -13 22 -5 27 52 33 29 4
71 10 93 15 56 13 75 13 45 -1z m4496 -232 c-20 -115 -36 -212 -36 -218 0 -5
-7 -7 -15 -3 -8 3 -28 1 -43 -5 -15 -6 -34 -12 -42 -14 -108 -27 -375 -99
-410 -110 -25 -8 -130 -38 -235 -66 -218 -58 -239 -65 -665 -207 -347 -115
-446 -156 -477 -195 -17 -22 -40 -114 -30 -123 2 -2 43 8 92 22 50 13 142 38
205 55 63 16 218 57 343 90 126 34 231 59 233 56 2 -2 -56 -20 -128 -40 -224
-60 -664 -177 -840 -222 l-167 -42 1 146 c1 80 3 136 5 125 4 -21 5 -22 56 -8
29 8 113 28 187 44 74 16 167 39 205 50 39 10 116 32 173 47 56 14 99 30 94
35 -7 7 -348 -57 -536 -101 -49 -12 -97 -19 -107 -16 -21 7 -49 54 -49 82 1
10 7 3 16 -17 17 -39 31 -51 51 -43 8 3 22 6 31 7 55 5 160 30 156 37 -3 5 1
7 8 4 12 -5 159 27 738 160 455 104 1015 247 1047 266 55 34 92 138 123 344 7
40 18 76 28 86 16 15 17 15 20 -1 2 -10 -13 -111 -32 -225z m-9878 218 c-10
-2 -26 -2 -35 0 -10 3 -2 5 17 5 19 0 27 -2 18 -5z m90 -10 c-10 -2 -28 -2
-40 0 -13 2 -5 4 17 4 22 1 32 -1 23 -4z m95 -10 c-13 -2 -35 -2 -50 0 -16 2
-5 4 22 4 28 0 40 -2 28 -4z m177 -13 c62 -7 62 -7 15 -7 -27 -1 -77 3 -110 7
-54 6 -56 7 -15 7 25 1 74 -3 110 -7z m5250 -25 c0 -8 -4 -15 -10 -15 -5 0
-10 7 -10 15 0 8 5 15 10 15 6 0 10 -7 10 -15z m-626 -42 c29 -58 32 -164 4
-147 -8 5 -9 1 -4 -12 4 -12 4 -15 -2 -9 -5 6 -6 38 -3 73 4 34 4 66 0 70 -10
10 -21 52 -15 52 3 0 12 -12 20 -27z m-4029 -4 c612 -27 805 -38 824 -48 42
-23 43 -38 36 -360 -8 -329 -13 -363 -59 -381 -17 -6 -135 -1 -368 15 -189 14
-475 34 -636 45 -173 12 -300 25 -312 32 -44 28 -48 78 -29 428 12 235 12 237
36 268 20 25 -27 25 508 1z m3801 -34 c11 -61 6 -79 -19 -69 -13 5 -17 0 -17
-20 0 -14 5 -26 10 -26 6 0 10 -11 10 -24 0 -13 6 -27 13 -29 8 -4 7 -6 -3 -6
-9 -1 -21 13 -27 29 -7 19 -18 30 -30 29 -10 0 -13 -3 -5 -6 6 -2 12 -15 12
-27 0 -13 9 -36 21 -52 l21 -29 -25 27 c-14 15 -27 32 -29 38 -6 20 -40 -1
-35 -21 3 -11 1 -17 -4 -13 -5 3 -9 18 -9 34 0 21 -4 28 -14 24 -15 -6 -46 31
-46 54 0 9 7 11 20 7 14 -5 20 -2 20 10 0 9 5 25 11 36 10 20 11 20 30 3 10
-9 19 -25 19 -35 0 -10 5 -21 12 -25 7 -5 8 -3 4 5 -5 7 -5 29 -1 49 l7 37 14
-25 c14 -26 15 -25 20 28 2 25 -1 32 -11 28 -9 -3 -12 0 -8 10 11 30 29 12 39
-41z m31 23 c-3 -7 -5 -2 -5 12 0 14 2 19 5 13 2 -7 2 -19 0 -25z m5452 -32
c-29 -72 -36 -66 -8 8 11 32 23 55 26 52 3 -3 -5 -30 -18 -60z m-10538 27 c13
-16 12 -17 -3 -4 -10 7 -18 15 -18 17 0 8 8 3 21 -13z m7656 -157 c47 -64 138
-224 131 -231 -2 -3 -22 30 -43 71 -22 42 -45 79 -52 81 -7 3 -13 11 -13 18 0
8 -7 20 -15 29 -9 8 -16 19 -15 23 0 4 -6 8 -12 8 -7 0 -13 5 -13 10 0 18 -46
74 -75 92 -16 9 -27 20 -24 24 2 4 0 10 -6 14 -5 3 -10 12 -10 18 1 15 91 -81
147 -157z m-5289 137 c-27 -2 -69 -2 -95 0 -27 2 -5 3 47 3 52 0 74 -1 48 -3z
m8552 -2 c0 -6 -5 -13 -10 -16 -6 -4 -8 -11 -5 -16 10 -16 -47 -131 -62 -125
-10 4 -13 -7 -14 -42 -1 -44 -2 -41 -20 38 -21 101 -22 103 -10 95 5 -3 13 0
16 5 9 15 86 70 97 70 4 0 8 -4 8 -9z m-4317 -14 c3 -9 -5 -13 -27 -14 -20 0
-23 1 -8 4 12 2 22 9 22 14 0 13 7 11 13 -4z m-6440 -33 c54 -14 73 -22 47
-19 -54 7 -141 34 -155 48 -7 7 -6 8 3 3 6 -4 54 -18 105 -32z m4991 0 c10
-26 7 -29 -29 -31 -31 -3 -35 0 -35 22 0 21 5 25 29 25 17 0 31 -6 35 -16z
m57 1 c0 -6 -10 -11 -21 -11 -16 -1 -18 1 -9 13 13 15 31 14 30 -2z m1854 -10
c306 -64 547 -375 605 -780 5 -38 9 -126 8 -195 l-1 -125 -8 160 c-9 216 -53
389 -125 503 -19 29 -34 56 -34 60 0 4 -10 20 -23 36 l-23 28 -87 -116 c-48
-65 -87 -120 -87 -123 0 -3 19 -3 42 0 27 4 37 2 27 -4 -7 -5 -21 -9 -30 -9
-8 0 -42 -30 -74 -67 -82 -95 -95 -113 -57 -78 19 17 41 29 51 27 11 -2 42 21
78 58 33 33 64 60 68 60 5 0 -85 -110 -115 -140 -14 -14 -32 -40 -27 -40 3 0
68 67 145 148 138 147 140 149 145 118 3 -17 12 -53 20 -81 8 -27 16 -56 18
-63 3 -8 -27 -26 -76 -48 -44 -20 -98 -44 -120 -54 -118 -53 -159 -70 -163
-65 -3 2 -20 -5 -39 -16 -18 -12 -33 -17 -32 -13 4 23 -3 25 -23 8 l-23 -19
20 25 c49 60 45 61 -16 5 -60 -56 -61 -57 -18 -10 51 56 189 238 189 249 0 4
-35 -32 -77 -81 -99 -110 -150 -164 -132 -138 7 11 32 40 54 65 41 45 159 202
268 354 42 60 54 83 47 96 -14 25 -120 122 -175 158 -55 37 -142 71 -187 75
-30 2 -32 -1 -40 -38 -4 -22 -27 -143 -52 -270 -24 -126 -49 -231 -55 -233 -6
-2 -11 -11 -11 -19 0 -9 -2 -14 -5 -11 -3 3 2 38 10 79 31 143 85 481 80 490
-11 16 -91 10 -114 -8 -23 -19 -25 -60 -30 -447 0 -55 -4 -96 -8 -93 -3 4 -36
116 -73 249 l-66 243 -32 0 c-50 0 -43 31 14 56 105 47 246 60 369 34z m-2295
-38 c31 -16 37 -44 13 -62 -17 -13 -17 -15 7 -42 18 -20 14 -18 -14 7 -24 22
-35 28 -28 15 24 -48 100 -93 159 -97 41 -2 -141 -16 -217 -16 -36 0 -60 2
-53 5 14 5 49 75 58 116 3 15 10 25 16 22 6 -4 7 3 3 21 -5 19 -4 25 5 20 7
-5 11 4 12 26 0 24 2 28 8 15 3 -10 18 -23 31 -30z m805 15 c-3 -3 -11 0 -18
7 -9 10 -8 11 6 5 10 -3 15 -9 12 -12z m230 -1 c-3 -6 -11 -11 -17 -11 -6 0
-6 6 2 15 14 17 26 13 15 -4z m-5502 2 c-7 -2 -21 -2 -30 0 -10 3 -4 5 12 5
17 0 24 -2 18 -5z m10203 -8 c-3 -9 0 -15 9 -15 18 0 18 1 -1 -45 -8 -20 -13
-39 -11 -41 2 -3 16 24 31 58 31 72 47 66 44 -17 l-1 -50 -6 55 -6 54 -39 -83
c-37 -78 -40 -82 -51 -61 -12 22 -13 22 -23 4 -6 -10 -12 -14 -12 -7 0 6 4 14
9 18 11 6 46 102 50 135 0 6 4 10 7 10 3 0 4 -7 0 -15z m-10143 -2 c-7 -2 -19
-2 -25 0 -7 3 -2 5 12 5 14 0 19 -2 13 -5z m9704 -15 c-3 -8 -6 -5 -6 6 -1 11
2 17 5 13 3 -3 4 -12 1 -19z m-9629 5 c-10 -2 -26 -2 -35 0 -10 3 -2 5 17 5
19 0 27 -2 18 -5z m4402 -24 c0 -25 -26 -25 -33 0 -6 24 0 31 19 24 8 -3 14
-14 14 -24z m4385 21 c3 -5 1 -10 -4 -10 -6 0 -11 5 -11 10 0 6 2 10 4 10 3 0
8 -4 11 -10z m-8712 -7 c-7 -2 -21 -2 -30 0 -10 3 -4 5 12 5 17 0 24 -2 18 -5z
m70 -10 c-7 -2 -19 -2 -25 0 -7 3 -2 5 12 5 14 0 19 -2 13 -5z m5382 -3 c4 -6
-6 -10 -22 -10 -22 0 -25 2 -13 10 19 12 27 12 35 0z m-5312 -7 c-7 -2 -19 -2
-25 0 -7 3 -2 5 12 5 14 0 19 -2 13 -5z m4501 -18 c11 -8 15 -15 9 -15 -7 0
-14 -8 -16 -17 -3 -12 -5 -8 -6 9 0 14 -7 29 -13 31 -7 3 -8 6 -3 6 6 0 19 -6
29 -14z m60 -6 c24 3 28 0 16 -14 -10 -12 -16 -13 -28 -3 -9 7 -13 8 -10 3 4
-6 3 -17 -3 -25 -6 -11 -9 -7 -9 16 0 34 10 50 20 33 4 -6 10 -10 14 -10z
m-120 -14 c-4 -8 -8 -15 -10 -15 -2 0 -4 7 -4 15 0 8 4 15 10 15 5 0 7 -7 4
-15z m-4861 -2 c-7 -2 -19 -2 -25 0 -7 3 -2 5 12 5 14 0 19 -2 13 -5z m10181
-43 c-6 -6 -10 2 -11 23 -2 30 -1 31 9 9 7 -14 8 -26 2 -32z m-9930 20 c104
-11 192 -22 194 -25 3 -3 -3 -5 -14 -5 -28 0 -377 40 -389 44 -21 9 25 5 209
-14z m5270 10 c-5 -5 -25 -12 -44 -15 -35 -5 -35 -5 5 9 51 18 51 18 39 6z
m4270 0 c-6 -6 -28 -13 -50 -15 l-39 -5 45 14 c25 7 47 14 50 15 2 0 -1 -4 -6
-9z m-4969 -10 c3 -5 1 -10 -4 -10 -6 0 -11 5 -11 10 0 6 2 10 4 10 3 0 8 -4
11 -10z m390 0 c8 -13 -5 -13 -25 0 -13 8 -13 10 2 10 9 0 20 -4 23 -10z m48
-15 c4 -8 2 -17 -3 -20 -6 -4 -10 3 -10 14 0 25 6 27 13 6z m177 -1 c0 -2 -21
-4 -47 -3 -32 0 -42 3 -29 8 18 7 76 3 76 -5z m4257 0 c-3 -3 -12 -4 -19 -1
-8 3 -5 6 6 6 11 1 17 -2 13 -5z m-4822 -14 c18 -8 17 -9 -7 -9 -15 -1 -30 4
-33 9 -7 12 12 12 40 0z m5447 -35 c-4 -32 -6 -34 -34 -28 -24 5 -30 3 -26 -8
3 -8 18 -17 34 -20 21 -5 23 -7 8 -8 -12 0 -42 -4 -68 -7 -48 -7 -66 9 -23 20
13 3 38 24 56 46 40 50 58 52 53 5z m-7792 -2 c2 -2 -98 -3 -223 -2 -125 0
-225 5 -222 10 5 8 435 1 445 -8z m3875 -70 c14 -38 35 -75 45 -83 10 -8 27
-44 38 -80 11 -36 32 -95 46 -133 30 -79 33 -99 5 -42 -10 22 -17 31 -14 20
16 -75 15 -77 -10 -25 -62 127 -137 326 -136 360 1 24 -2 31 -8 21 -6 -9 -11
-10 -15 -2 -4 6 -2 11 4 11 7 0 9 7 6 16 -3 8 -2 13 3 10 5 -3 21 -36 36 -73z
m-48 -15 c-3 -7 -5 -2 -5 12 0 14 2 19 5 13 2 -7 2 -19 0 -25z m-4127 12 c105
-6 97 -7 -83 -7 -109 0 -200 4 -203 9 -6 9 119 9 286 -2z m1362 -17 c-6 -10
-21 -27 -33 -38 -19 -16 -18 -14 4 13 15 19 27 38 27 44 0 6 3 9 6 6 3 -4 1
-15 -4 -25z m6317 -55 c7 -46 15 -95 18 -110 5 -26 3 -27 -93 -57 -59 -18
-119 -30 -149 -29 -30 0 -119 -18 -225 -46 -457 -121 -638 -165 -560 -137 14
5 155 44 315 86 159 42 301 82 314 88 26 13 48 67 56 140 4 31 1 38 -10 34
-22 -9 -90 -20 -85 -14 7 8 372 124 396 126 6 1 16 -36 23 -81z m234 68 c3 -8
-1 -20 -9 -27 -12 -10 -14 -8 -10 12 6 30 5 29 10 29 2 0 6 -6 9 -14z m-128
-14 c-3 -3 -11 0 -18 7 -9 10 -8 11 6 5 10 -3 15 -9 12 -12z m42 2 c-3 -3 -12
-4 -19 -1 -8 3 -5 6 6 6 11 1 17 -2 13 -5z m-3390 -71 c-3 -10 -5 -2 -5 17 0
19 2 27 5 18 2 -10 2 -26 0 -35z m470 33 c0 -8 -5 -14 -10 -13 -5 1 -12 -4
-15 -12 -3 -10 0 -11 9 -5 12 6 12 5 0 -9 -8 -10 -16 -15 -19 -12 -9 8 -32
-17 -25 -28 3 -5 2 -7 -4 -4 -6 4 -51 -39 -102 -94 -50 -55 -91 -97 -91 -93 0
3 32 41 71 83 40 42 95 104 123 138 53 65 63 73 63 49z m3179 -9 c-3 -12 -5
-33 -5 -46 -1 -40 -18 -9 -20 38 -1 10 -11 12 -42 8 -40 -5 -44 8 -4 15 61 11
75 8 71 -15z m-2736 -22 c0 -5 -5 -3 -10 5 -5 8 -10 20 -10 25 0 6 5 3 10 -5
5 -8 10 -19 10 -25z m80 -30 c0 -5 -5 -3 -10 5 -5 8 -10 20 -10 25 0 6 5 3 10
-5 5 -8 10 -19 10 -25z m2407 -16 c2 -43 -19 -52 -25 -10 -3 17 12 51 22 51 1
0 2 -18 3 -41z m48 1 c4 -6 10 -8 14 -5 5 2 25 -22 45 -55 28 -44 39 -75 42
-113 2 -38 1 -45 -5 -27 -8 22 -9 22 -11 5 -1 -11 -12 17 -24 63 -13 46 -29
88 -36 95 -10 9 -11 9 -6 0 4 -7 3 -13 -2 -13 -5 0 -15 11 -22 25 -7 13 -18
22 -23 18 -6 -3 -7 -1 -3 5 9 15 23 15 31 2z m71 -9 c0 -16 -3 -17 -14 -9 -12
10 -7 19 13 28 1 0 1 -9 1 -19z m-2519 -13 c-3 -8 -6 -5 -6 6 -1 11 2 17 5 13
3 -3 4 -12 1 -19z m-1010 -40 c-2 -13 -4 -5 -4 17 -1 22 1 32 4 23 2 -10 2
-28 0 -40z m3442 15 c0 -5 -4 -17 -9 -28 -8 -18 -9 -17 -9 8 -1 15 4 27 9 27
6 0 10 -3 9 -7z m-2329 -33 c0 -5 -6 -10 -14 -10 -7 0 -29 -3 -47 -6 -23 -5
-31 -3 -24 4 18 19 85 28 85 12z m517 4 c-3 -3 -12 -4 -19 -1 -8 3 -5 6 6 6
11 1 17 -2 13 -5z m-50 -10 c-3 -3 -12 -4 -19 -1 -8 3 -5 6 6 6 11 1 17 -2 13
-5z m-44 -11 c-7 -2 -19 -2 -25 0 -7 3 -2 5 12 5 14 0 19 -2 13 -5z m-46 -9
c-3 -3 -12 -4 -19 -1 -8 3 -5 6 6 6 11 1 17 -2 13 -5z m-450 -26 c-3 -8 -6 -5
-6 6 -1 11 2 17 5 13 3 -3 4 -12 1 -19z m400 16 c-3 -3 -12 -4 -19 -1 -8 3 -5
6 6 6 11 1 17 -2 13 -5z m2097 -233 c4 -61 2 -87 -3 -71 -5 14 -9 19 -10 11
-2 -32 -13 3 -35 113 -22 109 -22 118 -7 150 l16 33 17 -70 c9 -39 19 -114 22
-166z m-2141 222 c-7 -2 -19 -2 -25 0 -7 3 -2 5 12 5 14 0 19 -2 13 -5z
m-1406 -85 c-2 -18 -4 -6 -4 27 0 33 2 48 4 33 2 -15 2 -42 0 -60z m1360 76
c-3 -3 -12 -4 -19 -1 -8 3 -5 6 6 6 11 1 17 -2 13 -5z m-50 -10 c-3 -3 -12 -4
-19 -1 -8 3 -5 6 6 6 11 1 17 -2 13 -5z m376 -1 c-7 -2 -19 -2 -25 0 -7 3 -2
5 12 5 14 0 19 -2 13 -5z m-426 -9 c-3 -3 -12 -4 -19 -1 -8 3 -5 6 6 6 11 1
17 -2 13 -5z m376 -1 c-7 -2 -19 -2 -25 0 -7 3 -2 5 12 5 14 0 19 -2 13 -5z
m-426 -9 c-3 -3 -12 -4 -19 -1 -8 3 -5 6 6 6 11 1 17 -2 13 -5z m353 -12 c-19
-11 -55 -22 -80 -26 -93 -14 -244 -53 -230 -59 8 -4 6 -5 -5 -2 -11 3 -35 1
-52 -4 -23 -7 -30 -6 -27 2 2 7 39 20 82 30 355 85 365 87 312 59z m-407 1
c-7 -2 -19 -2 -25 0 -7 3 -2 5 12 5 14 0 19 -2 13 -5z m-1043 -88 c36 -11 50
-34 50 -83 l0 -47 -19 42 c-21 45 -52 68 -83 60 -17 -5 -19 -2 -13 16 4 12 7
37 8 56 l0 34 18 -36 c11 -20 28 -38 39 -42z m957 23 c-3 -8 -6 -5 -6 6 -1 11
2 17 5 13 3 -3 4 -12 1 -19z m2394 -68 c-6 -44 -9 -53 -10 -29 -1 37 9 102 15
96 2 -1 -1 -32 -5 -67z m-762 -52 c10 -80 27 -162 47 -230 4 -13 0 -16 -18
-12 -13 2 -43 6 -68 8 -25 2 -85 7 -135 10 -202 16 -503 48 -540 58 -22 5 -46
15 -54 21 -12 9 -13 9 -7 0 5 -10 -1 -11 -26 -6 -18 3 -34 7 -35 7 -4 4 791
233 813 235 7 1 16 -35 23 -91z m-1622 45 c-3 -10 -5 -4 -5 12 0 17 2 24 5 18
2 -7 2 -21 0 -30z m-1222 -13 c3 -6 -4 -14 -17 -19 -52 -20 -77 -77 -58 -135
14 -43 32 -50 64 -25 24 19 25 19 19 2 -6 -16 -5 -17 12 -3 15 12 14 8 -4 -16
-25 -34 -38 -106 -27 -149 11 -42 53 -75 97 -75 21 0 41 5 44 10 8 13 25 13
25 0 0 -6 -13 -13 -29 -16 -38 -8 -55 -42 -49 -99 7 -61 41 -99 83 -91 28 4
28 4 7 -6 -15 -8 -29 -8 -45 -1 -18 9 -23 8 -24 -6 -1 -9 -4 -25 -6 -36 -3
-11 -6 -29 -6 -41 -1 -11 -7 -28 -13 -37 -11 -14 -12 3 -10 94 2 70 -1 116 -7
122 -8 8 -11 -11 -12 -64 -1 -40 -4 -65 -7 -54 l-5 20 -8 -20 c-4 -11 -5 18
-3 65 l5 85 -34 -70 c-19 -38 -67 -115 -107 -170 -40 -55 -77 -110 -83 -122
-6 -13 -14 -23 -19 -23 -9 0 43 80 120 185 47 64 82 126 82 147 0 6 -13 -9
-29 -34 -33 -52 -253 -335 -301 -388 -24 -26 -22 -23 6 15 199 256 292 394
278 416 -3 5 -14 9 -25 9 -11 0 -18 4 -14 10 3 5 13 7 23 4 12 -4 11 -2 -3 7
-21 13 -44 39 -45 51 0 4 11 -4 25 -17 33 -34 72 -33 86 3 14 37 -1 128 -26
160 -1 1 -44 -11 -94 -28 -51 -16 -99 -30 -107 -30 -30 0 -12 17 34 32 l47 16
-49 1 c-27 1 -47 3 -44 6 3 3 46 12 95 20 50 8 98 18 107 21 12 5 15 2 9 -12
-4 -12 -3 -15 5 -10 7 4 12 17 12 29 0 12 6 34 14 49 13 25 13 26 -3 16 -10
-6 -27 -8 -37 -4 -11 4 -21 7 -22 6 -2 -1 -16 9 -30 22 -15 14 -51 39 -79 57
-53 33 -63 53 -47 94 5 13 13 12 57 -9 29 -13 57 -31 64 -40 10 -14 13 -13 24
8 33 62 69 92 84 68z m662 -96 c-6 -6 -270 -74 -285 -74 -20 1 94 50 184 80
35 12 64 26 64 31 0 6 5 7 10 4 6 -3 10 0 11 7 0 7 5 0 10 -16 4 -17 7 -31 6
-32z m-102 38 c-16 -14 -101 -45 -89 -32 6 6 29 18 50 25 47 17 51 18 39 7z
m341 -11 c-4 -5 -25 -13 -49 -17 -35 -6 -39 -8 -22 -15 15 -7 12 -8 -11 -4
-18 4 -100 -10 -205 -35 -176 -41 -214 -47 -169 -28 26 10 424 106 448 107 7
1 11 -3 8 -8z m-736 -71 c8 -5 11 -10 5 -10 -5 0 -17 5 -25 10 -8 5 -10 10 -5
10 6 0 17 -5 25 -10z m-220 -105 c13 -16 10 -16 -45 -8 -33 4 -81 7 -107 6
-44 -1 -48 0 -48 21 0 34 7 36 50 15 21 -11 47 -19 57 -19 23 1 -55 50 -79 50
-11 0 -18 8 -18 20 0 17 9 15 88 -25 49 -24 95 -51 102 -60z m467 59 c-3 -3
-12 -4 -19 -1 -8 3 -5 6 6 6 11 1 17 -2 13 -5z m-259 -30 c12 -8 22 -21 22
-27 0 -7 -6 -4 -14 5 -7 10 -24 22 -37 27 -13 5 -17 10 -9 10 9 1 26 -6 38
-15z m-48 -9 c11 -13 10 -14 -4 -9 -9 3 -16 10 -16 15 0 13 6 11 20 -6z m-45
-53 c-7 -8 -35 7 -35 18 0 6 7 6 20 -2 10 -7 17 -14 15 -16z m152 6 c-3 -8 -6
-5 -6 6 -1 11 2 17 5 13 3 -3 4 -12 1 -19z m191 -14 c-3 -14 -5 -12 -10 9 -3
19 -2 25 4 19 6 -6 8 -18 6 -28z m-213 -71 c-9 -15 -13 -19 -10 -8 4 11 10 29
13 40 3 11 7 14 9 8 3 -7 -3 -24 -12 -40z m210 9 c0 -23 15 -37 100 -95 132
-90 260 -167 276 -167 15 0 74 -68 66 -76 -4 -4 -97 42 -364 181 -45 24 -83
41 -86 39 -2 -3 -26 5 -53 17 -29 13 -43 24 -35 27 9 3 5 9 -14 16 -27 11 -26
12 23 10 29 -1 50 1 48 4 -3 2 1 14 9 26 8 11 15 29 15 40 0 11 3 16 7 12 4
-4 7 -19 8 -34z m-675 -12 c0 8 2 11 5 8 11 -11 46 -241 38 -249 -4 -4 -30
-11 -58 -14 -58 -8 -230 -14 -201 -7 12 3 15 6 7 11 -8 6 -7 20 6 54 13 36 33
59 82 100 89 71 103 86 94 100 -4 7 0 7 10 -2 13 -11 17 -11 17 -1z m593 -109
c15 -13 25 -27 22 -29 -7 -7 36 -52 49 -52 6 0 -2 11 -19 25 -16 13 -25 24
-19 25 16 0 47 -38 51 -61 2 -12 -1 -19 -6 -17 -4 1 -49 42 -100 89 -81 78
-86 84 -48 65 23 -11 54 -31 70 -45z m-90 12 c18 -20 39 -45 47 -57 13 -19 13
-20 -3 -7 -21 17 -21 9 -1 -30 8 -17 17 -41 20 -52 2 -12 8 -23 14 -25 11 -4
60 -95 60 -109 -1 -4 -12 14 -26 40 -14 26 -34 57 -45 68 -12 12 -32 46 -46
78 -13 31 -33 73 -44 94 -26 47 -17 47 24 0z m-3838 -123 c149 -10 342 -22
430 -26 115 -6 147 -10 115 -14 -25 -4 -88 -14 -140 -23 -52 -9 -201 -33 -330
-52 -129 -19 -334 -51 -455 -70 -120 -19 -237 -37 -260 -39 -53 -7 -67 -10
-83 -20 -7 -4 24 30 70 77 46 46 101 110 123 142 l40 56 110 -6 c61 -3 232
-14 380 -25z m3836 7 c-10 -9 -11 -8 -5 6 3 10 9 15 12 12 3 -3 0 -11 -7 -18z
m302 -76 c48 -39 76 -69 73 -77 -3 -7 0 -16 6 -20 7 -5 8 -2 3 6 -5 9 -4 11 4
6 6 -4 9 -11 6 -16 -3 -5 20 -29 51 -54 31 -25 52 -46 47 -46 -10 0 -243 198
-243 206 0 4 26 -15 58 -41 l57 -47 -55 50 c-30 28 -58 48 -63 45 -13 -8 -66
47 -60 64 5 12 8 12 22 0 9 -7 51 -42 94 -76z m-775 7 c-21 -32 -59 -48 -125
-53 l-58 -5 33 20 c19 12 57 26 85 32 29 6 56 15 62 20 16 15 18 9 3 -14z
m247 -77 c-22 -44 -27 -38 -7 9 9 21 18 35 20 30 2 -5 -4 -22 -13 -39z m32 17
c-3 -8 -6 -5 -6 6 -1 11 2 17 5 13 3 -3 4 -12 1 -19z m-67 -78 c-6 -11 -13
-20 -16 -20 -2 0 0 9 6 20 6 11 13 20 16 20 2 0 0 -9 -6 -20z m97 -42 c-2 -13
-4 -5 -4 17 -1 22 1 32 4 23 2 -10 2 -28 0 -40z m333 17 c0 -5 -5 -3 -10 5 -5
8 -10 20 -10 25 0 6 5 3 10 -5 5 -8 10 -19 10 -25z m-460 -25 c-6 -11 -13 -20
-16 -20 -2 0 0 9 6 20 6 11 13 20 16 20 2 0 0 -9 -6 -20z m-351 -180 c0 -23
-1 -23 -9 -5 -5 11 -9 29 -9 40 -1 17 1 17 9 5 5 -8 9 -26 9 -40z m942 -102
c11 -21 11 -22 -4 -9 -10 7 -17 17 -17 22 0 15 9 10 21 -13z m-181 -106 c0 -4
-5 -13 -12 -20 -15 -15 -3 -15 24 -1 13 7 18 7 14 1 -17 -29 -241 -80 -250
-58 -3 7 -8 6 -14 -3 -7 -9 -19 -11 -37 -7 -22 6 -26 11 -23 38 l3 32 60 -2
c33 -1 89 4 125 12 78 16 110 19 110 8z m-380 -47 c0 -2 -5 -7 -12 -11 -7 -5
-8 -3 -3 6 6 10 4 12 -9 7 -10 -4 -15 -3 -11 3 3 6 2 10 -2 10 -5 0 -18 7 -29
15 -11 10 -2 8 24 -5 23 -11 42 -22 42 -25z"/>
<path d="M6160 4861 c0 -6 5 -13 10 -16 6 -3 10 1 10 9 0 9 -4 16 -10 16 -5 0
-10 -4 -10 -9z"/>
<path d="M5993 4848 c18 -6 36 -6 55 0 24 9 20 10 -28 10 -48 0 -52 -1 -27
-10z"/>
<path d="M5984 4821 c10 -16 46 -20 46 -5 0 8 -10 14 -26 14 -14 0 -23 -4 -20
-9z"/>
<path d="M5974 4796 c-9 -24 3 -46 25 -46 23 0 35 25 18 38 -28 21 -37 23 -43
8z"/>
<path d="M2757 5019 c-21 -5 -50 -15 -65 -23 -16 -8 -37 -14 -47 -13 -20 2
-47 -37 -39 -57 6 -15 53 -36 79 -36 13 0 28 12 39 33 10 17 35 49 54 70 38
39 38 40 -21 26z"/>
<path d="M2864 4955 l-2 -76 32 6 c76 16 104 26 121 46 15 15 17 24 9 37 -14
23 -70 50 -119 57 l-40 7 -1 -77z"/>
<path d="M2815 4980 c3 -9 -3 -20 -16 -28 -12 -8 -18 -9 -14 -3 3 6 4 11 0 11
-6 0 -45 -62 -45 -72 0 -12 78 -10 85 2 11 17 8 81 -4 93 -10 9 -11 9 -6 -3z"/>
<path d="M2502 4810 c0 -14 2 -19 5 -12 2 6 2 18 0 25 -3 6 -5 1 -5 -13z"/>
<path d="M1206 4862 c-7 -11 1 -89 11 -107 14 -24 34 -1 40 44 5 33 3 41 -10
41 -10 0 -14 6 -11 15 6 16 -21 22 -30 7z"/>
<path d="M1840 4851 l-85 -6 100 -7 c55 -4 168 -10 250 -13 l150 -4 -135 14
c-74 8 -148 16 -165 18 -16 2 -68 1 -115 -2z"/>
<path d="M2288 4813 c12 -2 30 -2 40 0 9 3 -1 5 -23 4 -22 0 -30 -2 -17 -4z"/>
<path d="M3355 4812 c-11 -2 -24 -8 -29 -13 -12 -11 222 -12 584 -2 235 7 253
9 160 15 -113 7 -682 8 -715 0z"/>
<path d="M5713 4863 c-7 -2 -13 -12 -12 -21 0 -11 2 -12 6 -4 2 6 8 10 13 7 4
-3 10 2 14 10 6 15 1 17 -21 8z"/>
<path d="M5368 4853 c6 -2 18 -2 25 0 6 3 1 5 -13 5 -14 0 -19 -2 -12 -5z"/>
<path d="M5370 4830 c0 -5 7 -10 15 -10 8 0 15 5 15 10 0 6 -7 10 -15 10 -8 0
-15 -4 -15 -10z"/>
<path d="M5388 4803 c7 -3 16 -2 19 1 4 3 -2 6 -13 5 -11 0 -14 -3 -6 -6z"/>
<path d="M5236 4724 c-3 -8 -2 -12 3 -9 5 3 12 1 16 -5 4 -6 11 -8 16 -4 6 4
6 11 -2 20 -15 18 -25 18 -33 -2z"/>
<path d="M7176 4425 c-3 -8 -1 -15 4 -15 6 0 10 7 10 15 0 8 -2 15 -4 15 -2 0
-6 -7 -10 -15z"/>
<path d="M7457 4616 c-7 -17 11 -56 25 -56 12 0 9 22 -6 49 -11 20 -14 21 -19
7z m17 -22 c3 -8 2 -12 -4 -9 -6 3 -10 10 -10 16 0 14 7 11 14 -7z"/>
<path d="M4843 4443 c9 -2 23 -2 30 0 6 3 -1 5 -18 5 -16 0 -22 -2 -12 -5z"/>
<path d="M4590 4430 l-45 -7 40 0 c22 -1 67 3 100 7 l60 7 -55 0 c-30 0 -75
-3 -100 -7z"/>
<path d="M7013 3624 c-3 -8 -1 -20 5 -26 8 -8 9 -5 5 11 -4 17 -2 20 12 14 13
-4 16 -3 11 5 -10 17 -26 15 -33 -4z"/>
<path d="M6865 3618 c3 -7 16 -14 30 -14 21 -2 22 0 10 12 -17 17 -46 18 -40
2z"/>
<path d="M6795 3610 c-3 -5 -1 -10 4 -10 6 0 11 5 11 10 0 6 -2 10 -4 10 -3 0
-8 -4 -11 -10z"/>
<path d="M6836 3605 c-3 -8 -1 -15 4 -15 6 0 10 7 10 15 0 8 -2 15 -4 15 -2 0
-6 -7 -10 -15z"/>
<path d="M9888 2673 c7 -3 16 -2 19 1 4 3 -2 6 -13 5 -11 0 -14 -3 -6 -6z"/>
<path d="M1951 3324 c-18 -23 -21 -41 -22 -123 0 -53 -4 -179 -8 -281 -8 -193
-5 -222 26 -235 10 -4 205 -20 433 -35 228 -16 492 -34 585 -40 255 -18 274
-18 289 3 9 12 15 79 20 220 13 407 12 415 -9 437 -19 18 -54 21 -570 44 -303
14 -589 28 -636 31 -85 6 -87 6 -108 -21z m529 -193 c0 -43 -11 -91 -21 -91
-5 0 -9 27 -9 60 0 47 3 60 15 60 10 0 15 -10 15 -29z m69 -8 l30 -38 1 33 c0
22 5 32 15 32 11 0 15 -13 15 -54 0 -75 -13 -81 -57 -24 l-21 28 -6 -30 c-10
-52 -26 -33 -26 30 0 33 4 60 9 60 5 0 23 -17 40 -37z m131 -11 l25 -37 3 38
c5 59 27 40 30 -26 3 -50 1 -57 -15 -57 -10 0 -27 14 -36 30 -19 31 -35 39
-34 18 1 -31 -4 -48 -13 -48 -6 0 -10 27 -10 60 0 71 13 77 50 22z m178 19 c9
-5 12 -25 10 -57 -3 -46 -5 -49 -32 -52 -15 -2 -39 -1 -52 2 -21 6 -24 12 -24
55 0 26 3 51 7 54 9 10 75 8 91 -2z m70 -37 c-5 -43 6 -43 34 1 15 23 31 35
46 35 22 0 20 -4 -22 -59 -39 -50 -49 -58 -71 -53 -18 3 -24 9 -21 19 3 8 6
34 6 59 0 36 3 42 16 37 11 -4 15 -15 12 -39z m174 -9 c4 -22 10 -50 13 -62 6
-26 -19 -33 -32 -9 -11 20 -47 24 -66 8 -9 -8 -23 -12 -32 -10 -13 2 -7 15 27
60 52 70 78 74 90 13z m-903 -101 c2 -2 -19 -4 -48 -4 -37 0 -53 -4 -57 -15
-4 -9 -19 -15 -35 -15 -32 0 -34 3 -20 29 8 15 21 17 83 14 40 -2 74 -6 77 -9z
m93 -29 c-3 -19 -9 -22 -30 -19 -33 6 -31 5 -22 30 12 32 59 22 52 -11z m125
12 c11 -18 -21 -37 -61 -37 -37 1 -39 2 -22 15 10 7 15 19 11 25 -4 7 5 10 30
8 20 -1 39 -6 42 -11z m90 -9 c7 -5 18 -6 25 -2 13 9 68 12 68 5 0 -3 -9 -14
-19 -25 -30 -32 -102 -24 -124 13 l-16 28 27 -5 c15 -2 32 -9 39 -14z m441
-14 c40 -3 85 -7 100 -8 15 -2 37 -4 48 -5 15 -1 23 -9 27 -27 4 -22 1 -25
-21 -22 -18 2 -28 11 -32 26 l-5 24 -19 -21 c-23 -25 -77 -31 -56 -6 16 19 14
20 -27 28 -28 6 -34 3 -38 -16 -5 -19 -12 -22 -39 -19 -26 3 -33 8 -29 21 4
15 -4 19 -49 24 -75 9 -128 9 -128 -2 0 -5 25 -12 55 -16 30 -3 58 -11 61 -17
5 -8 -5 -9 -32 -5 -21 4 -63 7 -91 7 -45 0 -53 3 -53 18 0 10 3 22 8 27 6 7
115 3 320 -11z m-758 -85 c0 -9 -150 -1 -162 10 -4 3 31 5 77 3 47 -2 85 -8
85 -13z m77 5 c-3 -3 -12 -4 -19 -1 -8 3 -5 6 6 6 11 1 17 -2 13 -5z m138 -17
c28 -4 28 -4 -6 -6 -26 -1 -39 4 -43 15 -5 13 -3 14 6 6 7 -5 27 -12 43 -15z
m125 -2 c0 -11 -10 -15 -32 -14 -31 2 -31 2 -5 6 15 2 27 9 27 14 0 5 2 9 5 9
3 0 5 -7 5 -15z m138 -12 c-16 -2 -40 -2 -55 0 -16 2 -3 4 27 4 30 0 43 -2 28
-4z m90 -10 c-10 -2 -28 -2 -40 0 -13 2 -5 4 17 4 22 1 32 -1 23 -4z m132 -9
c0 -2 -14 -4 -31 -4 -16 0 -28 4 -25 9 5 8 56 3 56 -5z m106 4 c4 4 4 2 1 -4
-7 -13 -57 -6 -57 7 0 5 11 4 24 -1 13 -5 27 -6 32 -2z m150 -21 c4 -4 -5 -7
-19 -7 -15 0 -27 4 -27 8 0 10 36 9 46 -1z"/>
<path d="M2790 3080 c0 -36 3 -40 25 -40 23 0 25 4 25 40 0 36 -2 40 -25 40
-22 0 -25 -4 -25 -40z"/>
<path d="M3051 3071 c-10 -17 -9 -21 3 -21 20 0 27 13 16 29 -6 11 -10 9 -19
-8z"/>
<path d="M8365 1930 c10 -11 20 -20 23 -20 3 0 -3 9 -13 20 -10 11 -20 20 -23
20 -3 0 3 -9 13 -20z"/>
<path d="M7869 5523 c-13 -16 -12 -17 4 -4 9 7 17 15 17 17 0 8 -8 3 -21 -13z"/>
<path d="M11333 5503 c-10 -15 -28 -37 -40 -50 -16 -15 -23 -34 -23 -62 0 -56
6 -67 57 -101 44 -30 45 -30 71 -11 15 10 36 21 48 25 11 3 34 21 52 39 27 28
30 36 23 62 -5 17 -10 25 -10 19 -1 -12 -137 -38 -152 -29 -5 4 -7 11 -3 16 3
5 2 9 -3 8 -4 -1 -21 -1 -37 0 -25 1 -27 3 -15 17 10 12 23 14 54 9 45 -7 145
-12 145 -7 0 5 -74 36 -89 37 -8 0 -15 9 -17 19 -3 18 -20 36 -36 36 -4 0 -16
-12 -25 -27z m174 -119 c-3 -3 -12 -4 -19 -1 -8 3 -5 6 6 6 11 1 17 -2 13 -5z
m-127 -9 c0 -7 -30 -13 -34 -7 -3 4 4 9 15 9 10 1 19 0 19 -2z m70 -5 c-20
-13 -47 -13 -55 0 -4 6 9 10 32 10 28 0 34 -3 23 -10z"/>
<path d="M10353 5497 c-13 -5 -25 -18 -28 -28 -4 -11 -16 -24 -28 -30 -48 -25
-67 -51 -67 -93 0 -56 30 -101 77 -116 21 -7 49 -21 62 -32 19 -15 27 -16 39
-6 13 10 14 10 8 1 -10 -18 18 -17 33 1 6 7 9 21 5 30 -3 9 -1 16 6 16 6 0 9
-4 5 -9 -13 -22 54 22 69 44 24 37 34 31 39 -22 2 -27 3 1 1 61 -2 60 -6 112
-9 114 -3 3 -5 -7 -5 -22 0 -29 2 -29 -53 19 -15 14 -34 25 -41 25 -7 0 -23
11 -35 24 -28 30 -49 36 -78 23z m-2 -41 c-6 -7 -9 -21 -5 -30 5 -12 2 -15
-10 -10 -20 8 -20 13 1 36 19 21 31 25 14 4z m136 -32 c-3 -3 -12 -4 -19 -1
-8 3 -5 6 6 6 11 1 17 -2 13 -5z m-65 -36 c20 -2 34 1 31 6 -10 15 79 -1 96
-18 14 -15 12 -16 -19 -16 -19 0 -63 -2 -98 -4 -56 -4 -61 -2 -50 12 11 13 10
15 -12 9 -14 -4 -45 -10 -70 -14 -25 -3 -48 -11 -52 -17 -5 -7 -8 -6 -8 3 0 8
8 23 17 34 15 16 27 18 73 13 30 -3 71 -7 92 -8z m-57 -58 c4 -6 -6 -10 -22
-9 -25 0 -26 1 -8 9 11 5 21 9 22 9 1 1 5 -3 8 -9z m163 3 c-16 -2 -40 -2 -55
0 -16 2 -3 4 27 4 30 0 43 -2 28 -4z"/>
<path d="M1203 5175 c0 -8 9 -15 20 -15 16 0 17 3 7 15 -7 8 -16 15 -20 15 -3
0 -7 -7 -7 -15z"/>
<path d="M10583 5100 c0 -47 2 -66 4 -42 2 23 2 61 0 85 -2 23 -4 4 -4 -43z"/>
<path d="M12040 5139 c0 -5 -4 -8 -9 -4 -5 3 -13 0 -17 -6 -4 -8 -3 -9 4 -5 7
4 15 -6 21 -26 l9 -33 1 43 c1 23 -1 42 -4 42 -3 0 -5 -5 -5 -11z"/>
<path d="M10583 4785 c0 -22 2 -30 4 -17 2 12 2 30 0 40 -3 9 -5 -1 -4 -23z"/>
<path d="M7440 4360 c0 -5 7 -10 16 -10 8 0 12 5 9 10 -3 6 -10 10 -16 10 -5
0 -9 -4 -9 -10z"/>
<path d="M11551 4344 c0 -11 3 -14 6 -6 3 7 2 16 -1 19 -3 4 -6 -2 -5 -13z"/>
<path d="M9010 3994 c0 -46 20 -115 32 -108 4 3 12 -5 17 -18 8 -20 10 -21 16
-6 3 9 2 26 -4 37 -6 11 -10 24 -9 28 5 20 -30 103 -44 103 -4 0 -8 -16 -8
-36z"/>
<path d="M8908 3924 c-4 -5 2 -23 13 -40 10 -16 19 -24 19 -18 0 5 -4 14 -9
20 -5 5 -11 18 -13 29 -2 11 -6 15 -10 9z"/>
<path d="M8930 3925 c0 -5 5 -17 10 -25 5 -8 10 -10 10 -5 0 6 -5 17 -10 25
-5 8 -10 11 -10 5z"/>
<path d="M8947 3857 c-3 -8 -2 -20 3 -26 5 -9 8 -4 8 13 0 29 -3 32 -11 13z"/>
<path d="M770 3790 c-41 -34 -37 -37 17 -12 22 9 38 23 35 30 -6 18 -14 15
-52 -18z"/>
<path d="M793 3770 c-13 -5 -23 -13 -23 -17 -1 -4 -3 -47 -6 -95 -5 -76 -4
-89 11 -94 12 -5 13 -9 4 -14 -8 -6 -2 -17 22 -38 19 -17 36 -29 37 -27 2 2
-1 27 -7 57 -10 47 -10 180 0 217 5 18 -10 22 -38 11z m17 -200 c0 -5 -2 -10
-4 -10 -3 0 -8 5 -11 10 -3 6 -1 10 4 10 6 0 11 -4 11 -10z"/>
<path d="M9031 3694 c0 -11 3 -14 6 -6 3 7 2 16 -1 19 -3 4 -6 -2 -5 -13z"/>
<path d="M743 3625 c0 -33 2 -45 4 -27 2 18 2 45 0 60 -2 15 -4 0 -4 -33z"/>
<path d="M7840 3410 c0 -5 5 -10 10 -10 6 0 10 5 10 10 0 6 -4 10 -10 10 -5 0
-10 -4 -10 -10z"/>
<path d="M7786 3105 c4 -8 8 -15 10 -15 2 0 4 7 4 15 0 8 -4 15 -10 15 -5 0
-7 -7 -4 -15z"/>
<path d="M591 3014 c0 -11 3 -14 6 -6 3 7 2 16 -1 19 -3 4 -6 -2 -5 -13z"/>
<path d="M592 2945 c0 -16 2 -22 5 -12 2 9 2 23 0 30 -3 6 -5 -1 -5 -18z"/>
<path d="M603 2825 c0 -27 2 -38 4 -22 2 15 2 37 0 50 -2 12 -4 0 -4 -28z"/>
</g>
</svg>
