<?xml version="1.0" standalone="no"?>
<!DOCTYPE svg PUBLIC "-//W3C//DTD SVG 20010904//EN"
 "http://www.w3.org/TR/2001/REC-SVG-20010904/DTD/svg10.dtd">
<svg version="1.0" xmlns="http://www.w3.org/2000/svg"
 width="540.000000pt" height="348.000000pt" viewBox="0 0 540.000000 348.000000"
 preserveAspectRatio="xMidYMid meet">
<metadata>
Created by potrace 1.15, written by Peter Selinger 2001-2017
</metadata>
<g transform="translate(0.000000,348.000000) scale(0.100000,-0.100000)"
fill="#000000" stroke="none">
<path d="M3851 3071 c-21 -16 -41 -18 -215 -13 -262 6 -865 -13 -880 -28 -6
-6 -7 -11 -1 -10 21 5 129 -3 110 -7 -11 -2 -49 -14 -85 -26 -36 -11 -69 -22
-75 -23 -22 -5 -183 -66 -220 -84 -22 -10 -123 -57 -223 -104 -101 -47 -196
-94 -210 -104 -15 -10 -95 -50 -178 -91 -124 -60 -162 -74 -215 -78 -35 -3
-80 -14 -99 -25 l-35 -19 261 6 c144 3 533 5 865 6 552 0 612 1 699 19 90 17
97 21 135 62 22 25 101 134 175 244 74 109 154 220 178 247 48 50 51 57 13 28z"/>
<path d="M4004 3049 c-96 -28 -234 -233 -370 -552 -52 -122 -53 -120 66 -115
65 2 100 0 100 -7 0 -5 4 -5 8 2 5 8 52 14 132 18 265 12 312 16 339 33 14 9
30 23 34 30 5 7 18 17 29 21 21 7 21 8 -3 30 -14 12 -30 19 -39 15 -8 -3 -49
-9 -90 -11 -67 -5 -73 -4 -60 10 10 10 42 17 95 21 44 2 87 7 96 11 13 5 18
-2 23 -32 3 -21 10 -56 15 -78 l9 -40 1 52 c1 29 6 55 14 60 6 4 60 13 120 18
l107 10 10 -35 c6 -19 13 -52 16 -72 4 -21 11 -38 16 -38 5 0 7 12 4 28 -17
91 -17 112 -2 128 15 14 18 12 35 -28 11 -23 25 -64 31 -89 11 -44 13 -46 48
-47 20 -1 48 -4 62 -7 49 -10 54 3 54 142 0 182 -7 201 -102 267 -264 187
-631 304 -798 255z m368 -90 c133 -45 144 -51 162 -105 11 -31 12 -43 3 -36
-6 5 -37 15 -67 22 -140 31 -160 41 -186 92 -13 26 -24 50 -24 53 0 9 18 5
112 -26z m395 -162 c51 -33 95 -67 98 -75 4 -12 1 -12 -20 2 -24 16 -25 16
-15 -10 16 -40 12 -49 -12 -27 -13 12 -48 35 -78 53 -61 35 -96 69 -128 124
l-21 36 42 -21 c23 -12 83 -49 134 -82z m-586 -123 c98 -18 163 -49 167 -82 2
-12 -2 -22 -8 -22 -6 0 -9 4 -6 9 3 5 -2 15 -11 22 -9 8 -14 9 -10 2 5 -8 -27
-11 -120 -12 -71 0 -146 -3 -169 -7 -32 -5 -42 -2 -47 10 -4 9 -13 16 -22 16
-22 0 -19 36 5 60 25 25 99 27 221 4z"/>
<path d="M3278 2255 c-3 -3 -63 -15 -132 -25 -70 -11 -153 -26 -184 -34 -31
-8 -82 -17 -112 -21 -30 -3 -102 -12 -160 -20 -58 -8 -228 -31 -378 -51 l-273
-36 -19 20 c-29 31 -147 37 -771 37 -521 0 -558 -1 -577 -18 -19 -17 -21 -17
-58 4 l-39 22 23 -22 c33 -33 27 -46 -12 -22 -18 12 -39 21 -45 21 -18 0 -35
-45 -24 -65 8 -14 12 -13 23 14 14 35 22 38 43 16 8 -8 17 -11 21 -8 3 4 6 1
6 -6 0 -7 4 -10 8 -7 5 3 9 -8 9 -24 0 -17 -4 -30 -7 -30 -4 0 -10 -14 -14
-31 -3 -17 -10 -28 -15 -24 -5 3 -12 1 -16 -5 -3 -5 -1 -10 5 -10 6 0 9 -4 5
-10 -3 -5 -12 -7 -19 -4 -8 3 -18 -7 -26 -25 -14 -34 -30 -32 -30 4 0 13 -5
25 -12 27 -6 2 -8 10 -4 16 10 17 24 15 29 -5 3 -10 5 -2 6 18 1 25 -4 39 -15
43 -23 9 -27 8 -20 -10 3 -8 2 -12 -3 -9 -5 3 -12 1 -16 -5 -3 -5 -1 -10 6
-10 8 0 6 -6 -4 -18 -13 -15 -14 -21 -4 -32 7 -8 8 -11 1 -7 -7 4 -14 0 -17
-8 -4 -9 7 -22 29 -36 23 -14 33 -27 30 -38 -31 -103 -49 -199 -50 -258 -1
-39 -4 -67 -7 -61 -4 6 -13 1 -22 -12 -16 -23 -9 -76 17 -129 10 -21 10 -30 0
-51 -20 -37 -17 -56 15 -92 l30 -33 45 24 c43 22 54 23 166 19 l120 -5 0 66
c0 93 4 96 97 93 213 -6 479 -25 491 -35 9 -7 13 -34 11 -90 l-2 -79 69 -5
c184 -10 256 -23 309 -53 63 -36 91 -37 181 -6 119 40 171 72 194 116 18 35
19 53 15 167 -3 106 -10 150 -39 257 -20 72 -34 132 -31 134 2 3 143 18 312
33 418 39 572 57 631 74 62 19 110 65 187 181 65 97 87 146 79 168 -6 15 -44
22 -56 11z m42 -35 c0 -18 -130 -220 -172 -266 -38 -42 -146 -60 -626 -104
-391 -35 -398 -35 -406 -14 -4 9 -5 19 -2 21 4 5 212 22 266 23 19 0 42 4 50
9 12 8 12 12 -3 29 -28 30 -16 102 17 102 8 0 31 7 52 16 33 14 36 17 20 26
-11 6 -44 7 -84 3 -70 -7 -115 -36 -103 -66 9 -21 44 -73 56 -81 5 -4 -44 -6
-110 -5 -103 2 -120 4 -123 19 -4 22 34 34 55 16 13 -10 17 -10 20 0 3 6 18
12 34 12 28 0 37 9 22 23 -3 4 -11 3 -17 -2 -14 -12 -108 -17 -124 -7 -7 4
-10 12 -7 17 9 13 52 11 61 -2 5 -8 10 -6 16 6 7 12 17 15 34 11 14 -4 24 -2
24 4 0 5 10 10 23 10 l22 1 -23 12 c-15 9 -40 11 -80 6 -98 -12 -152 -11 -152
5 0 14 20 18 195 36 207 21 300 33 480 61 105 17 231 35 280 41 67 8 250 42
303 57 1 1 2 -8 2 -19z m-1880 -139 c41 -6 183 -10 316 -11 l241 0 23 -25 c13
-14 21 -27 18 -31 -3 -3 -32 -12 -65 -20 -71 -19 -553 -33 -553 -16 0 32 34
37 274 43 l241 5 -288 0 -288 1 -25 -49 c-13 -26 -36 -55 -49 -64 -14 -9 -23
-19 -20 -22 2 -3 0 -11 -5 -17 -8 -10 46 -12 252 -9 145 3 293 6 330 8 47 2
68 0 72 -9 3 -8 36 -16 90 -20 62 -5 86 -11 91 -23 3 -8 3 -17 0 -20 -2 -3
-62 -5 -132 -6 -71 0 -110 -3 -88 -6 163 -24 -613 -23 -950 0 -269 18 -287 21
-292 40 -3 10 -14 23 -26 29 -18 9 -9 10 43 7 36 -3 54 -2 40 0 -44 9 -54 14
-44 24 7 7 82 6 213 0 112 -6 205 -9 208 -6 3 2 -4 24 -15 49 l-20 44 -150 8
c-166 8 -217 16 -240 39 -14 14 -13 16 10 25 14 5 29 15 33 21 5 8 74 11 234
10 135 -1 238 3 256 9 33 11 146 8 265 -8z"/>
<path d="M3210 2199 c-109 -23 -268 -51 -439 -78 -101 -17 -188 -34 -194 -40
-10 -10 29 -31 58 -31 18 0 30 -41 29 -102 0 -45 1 -48 25 -49 22 -1 20 -3 -9
-9 l-35 -7 35 -1 c19 0 60 3 90 8 l55 7 -45 3 c-45 3 -45 3 -10 9 l35 6 -43
19 c-38 17 -42 22 -42 55 0 20 6 46 14 57 15 21 84 59 124 67 36 8 71 -29 78
-85 6 -44 4 -50 -26 -78 -18 -16 -28 -31 -24 -31 5 -1 -4 -5 -21 -9 l-30 -8
35 -1 c62 -2 219 35 243 57 79 73 105 103 127 147 14 28 36 62 49 78 l25 27
-30 -1 c-16 -1 -49 -5 -74 -10z"/>
<path d="M4939 1739 c-31 -31 -66 -113 -90 -214 -11 -50 -25 -95 -30 -101 -4
-6 -14 -35 -20 -65 -16 -74 -23 -84 -59 -87 -18 -1 -143 -29 -278 -61 -245
-59 -443 -104 -514 -117 -23 -3 -38 -12 -38 -20 0 -8 2 -14 5 -14 13 0 433 95
592 134 98 24 197 47 221 51 52 8 67 28 81 110 14 76 36 102 25 30 -4 -27 -12
-75 -18 -105 -6 -30 -8 -75 -5 -100 4 -25 5 -48 3 -52 -3 -4 -30 -12 -62 -18
-163 -32 -670 -175 -659 -186 2 -2 106 25 232 61 125 36 231 65 235 65 4 0 11
-23 14 -52 9 -66 42 -144 70 -163 11 -8 35 -15 52 -15 17 0 37 -7 44 -15 24
-29 108 -12 188 38 36 23 41 33 61 105 12 44 25 123 31 177 5 54 12 101 17
104 4 3 8 24 9 46 1 69 17 160 28 167 6 5 7 8 1 8 -6 0 -11 45 -11 113 -2 112
-8 141 -42 180 -20 23 -57 22 -83 -4z m15 -261 c9 -12 16 -27 16 -33 0 -5 -5
-3 -11 5 -8 12 -9 10 -7 -10 2 -14 9 -24 15 -23 12 3 21 -42 25 -137 l3 -54
-52 -12 c-44 -10 -53 -10 -53 2 0 8 -8 14 -17 14 -14 0 -15 -2 -5 -9 7 -4 12
-12 11 -17 -3 -18 1 -37 8 -31 3 4 12 2 20 -4 10 -9 13 -7 13 10 0 11 6 21 13
21 6 0 22 3 35 6 20 6 22 3 21 -32 0 -41 -16 -130 -18 -103 0 8 -7 24 -15 35
-13 17 -14 10 -14 -67 2 -93 -3 -109 -33 -109 -22 0 -24 8 -6 24 9 7 11 21 7
41 l-7 30 -8 -32 c-5 -22 -12 -30 -22 -26 -8 3 -13 14 -10 24 3 11 2 19 -3 19
-13 0 -22 51 -11 63 5 7 11 28 13 47 2 26 -1 34 -11 32 -11 -2 -13 11 -7 77 3
44 9 88 13 98 6 15 7 15 14 -3 5 -11 8 10 8 53 1 58 5 74 19 82 9 6 13 11 8
11 -11 0 13 30 25 30 4 0 15 -10 23 -22z"/>
<path d="M3553 1669 c-88 -43 -196 -204 -211 -313 -5 -36 -3 -39 14 -31 10 4
49 10 85 13 52 3 76 0 117 -18 57 -25 129 -95 161 -158 114 -224 30 -537 -175
-658 -43 -25 -59 -29 -129 -29 -90 0 -113 10 -188 75 -49 44 -105 126 -92 138
3 4 10 0 15 -9 5 -9 18 -26 28 -39 l19 -24 39 63 c22 35 49 79 61 97 12 19 18
34 13 34 -6 0 -10 9 -10 19 0 10 -7 22 -16 25 -14 5 -15 0 -10 -38 6 -37 3
-48 -19 -74 -25 -30 -36 -34 -124 -48 -42 -6 -44 -5 -28 11 9 9 17 27 17 39 0
27 -88 147 -127 173 -14 10 -40 32 -57 49 -55 54 -125 69 -243 53 -32 -5 -80
-11 -108 -14 -164 -18 -227 -27 -300 -47 -57 -15 -154 -31 -165 -28 -3 1 -18
-4 -35 -10 -16 -7 -43 -14 -60 -17 -16 -2 -61 -13 -99 -25 -38 -11 -76 -21
-85 -23 -227 -42 -896 -10 -1045 51 -32 13 -68 31 -78 41 -10 9 -18 13 -18 8
0 -4 -6 -2 -14 4 -12 10 -110 48 -146 56 -8 2 -27 8 -41 13 -34 13 -49 3 -52
-36 l-2 -31 -25 23 c-64 57 -123 99 -117 83 8 -21 -12 -69 -25 -61 -5 4 -8 -7
-6 -22 3 -25 10 -31 58 -48 31 -10 89 -19 134 -21 65 -1 83 -6 101 -23 17 -16
35 -22 68 -22 44 0 45 0 73 -57 34 -70 103 -141 166 -172 105 -50 306 -73 446
-51 117 19 170 46 256 131 l78 77 202 -14 c110 -7 258 -17 329 -20 70 -4 127
-11 127 -16 0 -5 46 -6 104 -2 l105 7 3 -34 3 -34 126 -9 126 -8 22 -52 c29
-70 103 -161 159 -197 111 -70 331 -112 479 -90 143 20 228 67 307 169 61 79
100 168 126 287 19 85 22 115 15 200 -4 55 -8 112 -8 128 -1 15 -5 27 -9 27
-14 0 -28 76 -28 153 0 283 -130 454 -287 376z"/>
<path d="M3000 1564 c-30 -8 -143 -32 -250 -54 -107 -23 -220 -48 -250 -57
l-55 -16 33 -14 c20 -8 30 -18 26 -25 -5 -8 -1 -9 11 -4 15 5 16 4 5 -9 -7 -8
-17 -12 -23 -8 -5 3 -7 2 -4 -4 4 -6 -14 -37 -38 -69 -24 -33 -45 -65 -45 -73
0 -12 24 -13 148 -7 187 9 335 23 390 37 51 14 67 39 118 192 28 84 30 97 16
97 -9 -1 -28 -7 -42 -15 -25 -14 -25 -14 -2 -15 12 0 22 -5 22 -10 0 -24 -34
-130 -42 -130 -13 0 -9 40 5 40 8 1 7 5 -4 13 -9 7 -18 18 -20 25 -3 10 -9 9
-24 -3 -20 -15 -20 -16 0 -13 12 2 21 -4 23 -17 4 -17 2 -18 -12 -6 -14 11
-20 9 -46 -19 -16 -18 -30 -27 -30 -21 0 6 -14 10 -33 8 -30 -2 -32 -5 -29
-30 2 -15 9 -27 16 -26 33 4 39 -1 23 -19 -23 -25 -21 -32 8 -32 16 0 25 6 25
16 0 8 5 12 10 9 6 -4 7 -11 4 -17 -4 -6 2 -8 17 -4 17 5 20 4 9 -2 -8 -6 -46
-13 -85 -17 l-70 -6 0 65 c-1 51 -6 72 -23 95 -26 36 -27 41 -7 41 9 0 12 -6
8 -17 -3 -10 -2 -15 2 -10 5 4 19 0 32 -8 28 -19 29 -15 2 16 -18 21 -19 24
-5 27 9 2 14 7 12 11 -3 4 18 13 47 21 62 15 217 67 225 75 9 9 -40 3 -98 -11z
m-277 -125 c36 -19 67 -51 67 -71 0 -10 -4 -18 -10 -18 -5 0 -10 -9 -10 -19 0
-29 -49 -63 -80 -56 -19 4 -21 3 -10 -5 12 -7 8 -10 -16 -10 -16 0 -39 6 -49
14 -21 15 -58 10 -52 -8 2 -6 35 -13 73 -16 64 -5 59 -6 -60 -13 -71 -4 -130
-6 -132 -4 -2 1 15 20 36 42 24 25 39 50 40 66 1 66 137 132 203 98z"/>
<path d="M854 1359 c-13 -20 -18 -249 -6 -261 14 -14 534 -48 550 -36 8 7 12
49 12 144 l0 133 -32 5 c-18 3 -107 8 -198 11 -91 3 -199 8 -241 11 -59 5 -78
3 -85 -7z"/>
<path d="M3490 1243 c-7 -32 -14 -80 -16 -107 -2 -26 -5 -51 -8 -54 -7 -6 13
-32 24 -32 13 0 150 162 144 171 -8 14 -87 66 -111 73 -19 6 -22 2 -33 -51z"/>
<path d="M4500 1134 c-326 -98 -476 -147 -490 -160 -8 -8 -10 -14 -4 -14 13 0
359 92 494 132 111 32 130 42 130 64 0 18 6 19 -130 -22z"/>
<path d="M3695 969 c-56 -13 -143 -52 -149 -66 -3 -7 -3 -20 1 -28 6 -17 85
-75 101 -75 5 0 25 -11 45 -24 l36 -25 12 37 c15 44 18 184 4 187 -5 2 -28 -1
-50 -6z"/>
<path d="M3416 723 c-8 -37 -24 -173 -23 -197 0 -16 6 -17 45 -12 25 3 59 13
75 21 17 8 39 13 49 9 10 -3 18 -3 18 -1 0 13 -33 66 -39 63 -3 -2 -24 29 -45
70 -41 81 -69 97 -80 47z"/>
</g>
</svg>
