<?xml version="1.0" standalone="no"?>
<!DOCTYPE svg PUBLIC "-//W3C//DTD SVG 20010904//EN"
 "http://www.w3.org/TR/2001/REC-SVG-20010904/DTD/svg10.dtd">
<svg version="1.0" xmlns="http://www.w3.org/2000/svg"
 width="540.000000pt" height="348.000000pt" viewBox="0 0 540.000000 348.000000"
 preserveAspectRatio="xMidYMid meet">
<metadata>
Created by potrace 1.15, written by Peter Selinger 2001-2017
</metadata>
<g transform="translate(0.000000,348.000000) scale(0.100000,-0.100000)"
fill="#000000" stroke="none">
<path d="M2673 2663 c33 -5 36 -28 5 -38 -16 -5 12 -12 87 -21 124 -16 215
-39 215 -55 0 -6 -19 -33 -41 -61 l-42 -49 -19 43 c-10 23 -26 51 -35 60 -19
21 -75 25 -71 6 1 -7 -1 -22 -5 -33 -4 -11 -9 -34 -11 -50 -5 -37 -16 -65 -25
-65 -4 0 -13 -16 -21 -35 -9 -24 -16 -31 -22 -23 -5 9 -8 8 -8 -5 0 -10 -8
-32 -17 -50 -9 -18 -17 -39 -17 -47 -1 -8 -7 -14 -15 -12 -7 2 -21 -4 -30 -12
-14 -13 -26 -14 -79 -4 l-61 11 5 46 c9 84 26 186 35 209 7 18 16 22 49 22 39
0 40 1 40 35 0 19 -5 35 -11 35 -6 0 -8 -7 -5 -17 4 -10 4 -14 0 -10 -4 4 -16
-1 -27 -10 -11 -10 -17 -12 -13 -5 4 6 3 12 -3 12 -5 0 -11 -5 -13 -10 -2 -6
-17 -13 -33 -15 -44 -5 -85 -23 -85 -36 0 -8 -4 -9 -13 0 -11 8 -17 5 -27 -14
-9 -17 -16 -21 -21 -14 -8 13 -52 -69 -84 -153 -10 -27 -20 -48 -23 -48 -3 0
-34 7 -70 16 -80 20 -133 10 -270 -52 -54 -25 -252 -64 -320 -64 -19 0 -33 -2
-31 -5 3 -2 104 -7 225 -10 120 -3 358 -12 528 -20 296 -14 310 -14 350 4 50
22 97 72 251 266 65 83 142 177 171 211 l53 61 -76 7 c-81 6 -416 6 -370 -1z"/>
<path d="M3485 2659 c-44 -5 -100 -15 -125 -24 -26 -8 -32 -13 -15 -10 17 3
69 8 117 12 106 7 129 -4 164 -81 36 -79 85 -328 54 -274 -6 9 -18 14 -28 12
-9 -3 -28 -1 -42 4 -16 6 -44 5 -83 -4 -41 -10 -97 -12 -195 -8 -270 11 -270
11 -276 -11 -11 -41 -7 -45 30 -23 29 17 53 21 127 22 114 1 143 -6 162 -44
18 -36 20 -104 2 -118 -7 -6 -84 -16 -172 -23 -154 -11 -159 -11 -175 8 -9 11
-26 24 -38 27 -30 10 -28 30 1 22 20 -5 25 0 37 32 7 20 12 63 11 95 -1 36 3
65 11 75 12 15 11 16 -4 4 -19 -15 -130 -210 -144 -252 -8 -27 -6 -61 4 -72 4
-4 117 6 252 21 135 16 234 29 220 30 -15 1 -21 4 -14 11 5 5 78 16 163 25
182 18 184 18 176 5 -3 -5 -27 -11 -53 -11 -26 -1 -36 -4 -22 -6 46 -6 255 23
252 35 -1 7 1 12 5 12 5 1 112 11 238 24 197 20 233 21 251 9 22 -14 130 -8
140 8 10 17 -46 107 -119 190 -89 102 -163 168 -227 203 -66 36 -198 66 -315
71 -96 4 -97 3 -35 -6 253 -39 335 -67 414 -142 45 -43 87 -130 101 -213 l7
-39 -18 25 c-9 14 -18 26 -19 28 -3 4 -65 -29 -70 -39 -10 -15 -25 -10 -25 7
0 12 -6 15 -22 11 -13 -3 -87 -7 -164 -9 -107 -2 -145 1 -158 11 -8 7 -26 41
-38 75 -20 52 -23 57 -26 34 -4 -36 -18 -36 -27 -1 -10 43 -67 185 -71 180 -2
-2 7 -36 21 -77 15 -43 22 -82 19 -97 -9 -33 -17 -21 -44 62 -36 112 -94 207
-123 204 -7 -1 -48 -5 -92 -10z"/>
<path d="M1520 1700 c-52 -39 -106 -79 -120 -89 l-25 -19 60 -29 c57 -27 66
-28 190 -26 170 2 397 21 410 35 7 7 2 9 -17 6 -24 -5 -28 -2 -28 18 0 29 -10
30 -37 5 -11 -11 -37 -23 -58 -27 -36 -6 -36 -6 -23 15 7 12 19 19 27 16 13
-5 30 10 31 28 0 11 -40 -14 -78 -48 -30 -27 -35 -28 -72 -19 -27 8 -42 8 -49
1 -13 -13 -19 -7 -25 24 -2 13 -5 29 -6 34 -1 6 -5 -3 -9 -20 -4 -18 -14 -31
-24 -33 -16 -3 -17 -1 -7 17 7 14 7 21 0 21 -6 0 -16 -11 -22 -25 -12 -27 -23
-32 -32 -12 -3 6 -4 3 -3 -8 1 -14 -5 -21 -20 -23 -26 -4 -173 38 -173 49 0 8
61 59 153 128 50 38 64 51 55 51 -2 0 -46 -32 -98 -70z"/>
<path d="M1340 1690 c-85 -16 -203 -34 -261 -41 -99 -12 -106 -14 -95 -31 14
-23 68 -24 192 -4 49 8 121 19 160 25 54 8 85 19 124 46 29 19 48 34 44 34 -5
-1 -79 -14 -164 -29z"/>
<path d="M4685 1700 c-49 -11 -91 -37 -125 -77 -72 -87 -136 -274 -139 -407
-2 -97 -10 -114 -61 -122 -22 -4 -40 -9 -40 -13 0 -14 74 -129 103 -159 56
-58 156 -64 247 -15 25 13 37 22 27 19 -23 -7 -66 10 -95 37 -30 28 -65 94
-57 108 4 5 1 17 -6 26 -7 8 -14 29 -15 47 -1 17 -5 43 -9 59 -5 17 -3 27 4
27 6 0 11 -7 11 -15 0 -21 19 -19 60 6 l34 21 -23 19 c-13 11 -34 19 -47 19
-20 0 -24 5 -24 31 0 31 7 32 42 2 9 -8 29 -13 45 -11 l28 3 -33 34 c-21 21
-39 31 -51 28 -17 -4 -17 -1 -7 31 16 53 76 112 114 112 41 0 89 -42 114 -99
28 -63 36 -226 14 -296 -11 -37 -12 -51 -4 -56 15 -9 -1 -46 -44 -103 l-30
-41 39 41 c43 44 77 128 89 222 4 28 10 52 15 52 31 0 51 136 38 246 -10 74
-34 140 -68 178 -33 38 -97 58 -146 46z"/>
<path d="M630 1590 c41 -34 121 -68 187 -81 70 -13 254 -8 318 9 22 6 65 16
95 22 30 6 64 18 75 27 19 14 17 15 -25 10 -25 -3 -108 -13 -185 -22 -77 -9
-157 -22 -178 -28 -31 -9 -44 -8 -70 5 -18 9 -48 19 -68 22 -20 4 -64 18 -98
31 -73 30 -84 31 -51 5z"/>
<path d="M2529 1577 c-173 -65 -303 -287 -325 -559 -8 -86 -29 -128 -66 -128
-17 0 -20 -5 -15 -28 20 -101 93 -219 157 -254 30 -17 52 -19 165 -16 106 3
138 7 175 24 84 39 144 117 181 234 15 51 19 55 47 55 55 0 57 8 57 218 0 177
-2 196 -23 249 -58 143 -133 208 -249 214 -42 3 -82 -1 -104 -9z m109 -251
c61 -32 105 -107 123 -211 24 -140 -11 -268 -97 -352 -49 -48 -58 -53 -99 -53
-75 0 -130 41 -174 129 -60 117 -36 319 51 431 48 62 136 87 196 56z"/>
<path d="M606 1336 l7 -96 -50 0 c-49 0 -50 -1 -68 -40 -19 -42 -19 -40 15
-110 12 -27 104 -49 287 -70 365 -41 686 -46 746 -12 15 9 27 19 27 22 0 19
-154 127 -213 149 -16 6 -50 11 -76 11 -27 0 -68 3 -92 6 l-44 6 3 99 3 99
-78 0 c-81 0 -328 15 -421 26 l-52 5 6 -95z m285 -8 c4 -6 14 -5 27 3 17 10
24 10 45 -4 16 -10 28 -13 32 -7 3 6 22 10 42 10 27 0 34 -3 30 -15 -4 -8 -2
-17 4 -21 19 -11 -13 -34 -47 -34 -40 0 -46 20 -6 21 l27 1 -25 7 c-16 5 -31
3 -41 -6 -19 -16 -65 -17 -75 -2 -4 8 -9 8 -17 0 -18 -18 -27 -13 -27 14 0 16
-6 25 -15 25 -8 0 -15 -9 -15 -20 0 -12 -7 -20 -16 -20 -11 0 -15 6 -11 20 3
13 -1 21 -15 26 -11 3 -23 2 -27 -4 -3 -5 -17 -12 -31 -15 -21 -4 -20 -4 8 -6
17 0 32 -6 32 -12 0 -6 -17 -9 -42 -7 -37 3 -44 7 -46 27 -2 13 2 28 10 32 17
11 191 -1 199 -13z"/>
<path d="M630 935 c0 -18 43 -85 72 -112 62 -60 119 -78 243 -78 127 0 165 14
230 86 l38 42 318 1 c176 1 319 -2 319 -6 0 -10 -38 -20 -50 -13 -5 3 -10 1
-10 -4 0 -6 21 -11 48 -11 26 0 64 -3 85 -6 21 -4 37 -3 36 2 -5 29 3 34 61
34 33 0 60 4 60 9 0 14 -129 18 -377 11 -443 -12 -645 -4 -968 40 -82 11 -105
12 -105 5z"/>
</g>
</svg>
