<?xml version="1.0" standalone="no"?>
<!DOCTYPE svg PUBLIC "-//W3C//DTD SVG 20010904//EN"
 "http://www.w3.org/TR/2001/REC-SVG-20010904/DTD/svg10.dtd">
<svg version="1.0" xmlns="http://www.w3.org/2000/svg"
 width="540.000000pt" height="348.000000pt" viewBox="0 0 540.000000 348.000000"
 preserveAspectRatio="xMidYMid meet">
<metadata>
Created by potrace 1.15, written by Peter Selinger 2001-2017
</metadata>
<g transform="translate(0.000000,348.000000) scale(0.100000,-0.100000)"
fill="#000000" stroke="none">
<path d="M3992 3171 c-42 -42 -69 -144 -138 -516 -42 -230 -39 -239 91 -232
50 3 169 12 265 21 96 9 279 22 405 29 l230 12 3 33 c6 57 -150 353 -216 410
-140 123 -450 272 -565 272 -37 0 -51 -6 -75 -29z m198 -104 c9 -26 19 -50 23
-54 4 -3 7 -14 7 -23 0 -9 11 -45 26 -79 14 -35 23 -66 20 -69 -11 -10 17 -32
40 -32 21 0 24 5 24 40 0 22 -4 40 -9 40 -10 0 -41 79 -41 105 0 11 4 16 8 10
4 -5 18 -10 32 -10 15 0 24 -5 22 -13 -1 -7 5 -20 13 -29 14 -14 14 -18 0 -39
-8 -13 -15 -32 -15 -44 0 -17 6 -20 50 -20 57 0 63 9 20 28 -36 16 -44 58 -9
47 19 -6 20 -4 14 24 -7 33 -1 39 20 18 18 -18 47 -106 47 -139 0 -16 4 -28
10 -28 6 0 8 -13 6 -30 -3 -23 -1 -30 9 -26 8 3 13 -2 13 -15 0 -11 6 -30 14
-42 15 -23 46 -136 46 -165 0 -14 -12 -17 -79 -17 -44 0 -83 3 -86 7 -4 4 6
19 23 32 16 14 32 35 35 46 4 16 0 20 -21 20 -20 0 -23 -3 -13 -9 16 -10 -229
-27 -254 -17 -8 3 -15 1 -15 -4 0 -6 -17 -10 -38 -10 -36 0 -40 3 -52 40 -16
47 -8 141 14 175 8 13 29 26 46 30 30 7 38 19 20 30 -5 3 -10 17 -10 31 0 27
20 34 20 7 1 -16 2 -16 13 -2 7 9 18 14 25 12 16 -6 15 22 -3 72 -8 22 -15 50
-15 62 0 12 -4 25 -10 28 -5 3 -10 15 -10 26 0 10 -4 19 -10 19 -5 0 -10 5
-10 11 0 26 26 -2 40 -44z m410 -198 c0 -5 11 -14 24 -20 13 -6 27 -20 30 -32
3 -12 10 -17 19 -14 20 7 39 -15 76 -88 41 -81 71 -168 62 -178 -5 -5 -26 -7
-47 -5 -35 3 -42 8 -66 53 -15 28 -28 58 -28 67 0 9 -25 64 -55 122 -61 116
-66 133 -35 116 11 -6 20 -15 20 -21z"/>
<path d="M3779 3156 c-2 -3 -40 -7 -84 -10 -153 -11 -199 -18 -215 -35 -8 -9
-22 -17 -30 -19 -14 -3 -89 -32 -135 -52 -87 -39 -120 -52 -138 -56 -11 -2
-23 -7 -26 -11 -6 -8 -14 -11 -53 -18 -9 -2 -30 -11 -47 -19 -17 -9 -33 -16
-36 -16 -3 0 -22 -7 -42 -15 -20 -8 -38 -13 -41 -10 -3 3 -14 -13 -24 -35 -13
-27 -25 -40 -38 -40 -11 0 -20 5 -20 11 0 8 -4 8 -13 0 -8 -6 -42 -16 -77 -23
-59 -12 -64 -15 -76 -48 -7 -19 -13 -63 -13 -97 l-1 -63 -55 0 c-54 0 -54 0
-50 28 13 85 13 138 1 155 -10 13 -15 14 -19 5 -2 -7 -22 -19 -43 -26 -89 -31
-94 -35 -125 -99 l-30 -63 -82 0 c-45 -1 -102 -5 -127 -10 -137 -30 -167 -34
-400 -59 -83 -9 -138 -27 -124 -40 5 -5 63 -5 129 0 66 5 280 11 475 14 195 3
374 8 398 11 34 5 42 3 42 -10 0 -9 7 -16 15 -16 8 0 15 7 15 15 0 13 27 15
175 16 96 1 196 2 223 4 415 17 480 24 558 60 83 38 83 38 166 355 11 41 24
91 30 111 6 20 8 43 6 50 -5 14 -20 -31 -64 -191 -23 -85 -71 -228 -80 -239
-10 -11 -16 10 -7 21 12 15 42 117 83 286 37 151 39 176 20 180 -9 1 -18 1
-21 -2z m-714 -303 c40 -19 43 -28 18 -56 -14 -15 -18 -37 -18 -109 l1 -89
-36 3 c-33 3 -35 5 -36 43 -1 22 -6 52 -12 66 -14 34 13 159 33 159 8 0 30 -8
50 -17z m579 -151 c1 -103 -3 -106 -109 -97 -47 4 -87 10 -90 14 -2 5 1 22 7
39 11 28 16 31 75 37 l63 7 0 34 c0 27 5 37 23 43 12 5 24 7 26 5 3 -3 5 -39
5 -82z"/>
<path d="M1511 1982 c-18 -2 -51 -14 -72 -28 l-38 -24 -293 9 c-170 5 -297 5
-302 0 -6 -5 0 -9 15 -9 13 0 29 -4 35 -8 13 -9 24 -79 29 -187 7 -173 12
-189 100 -326 l42 -65 129 -13 c71 -7 170 -17 221 -22 51 -5 214 -9 363 -9
242 0 302 -5 258 -23 -7 -3 0 -6 15 -6 23 -1 52 24 166 137 109 108 149 156
190 226 29 48 50 90 48 93 -4 4 -64 -83 -115 -168 -29 -47 -146 -159 -167
-159 -12 0 1 19 39 61 50 54 116 151 116 172 0 13 -19 7 -38 -13 -17 -18 -39
-21 -248 -30 -320 -14 -337 -13 -330 5 5 13 -15 15 -142 15 -81 0 -185 4 -232
10 -47 5 -123 12 -170 16 -203 14 -225 18 -228 37 -4 20 -12 20 208 -3 341
-36 404 -36 1105 -5 l89 4 29 57 c15 31 27 57 25 59 -2 2 -23 -1 -48 -5 -25
-5 -90 -9 -145 -10 -55 0 -165 -5 -245 -10 -284 -19 -322 -20 -309 -4 7 9 31
14 63 14 34 0 46 3 37 9 -8 5 -20 7 -27 4 -15 -6 -29 16 -18 27 5 5 126 14
269 20 143 7 306 14 362 17 l101 5 18 34 c16 29 24 34 59 35 22 1 49 3 60 4
11 1 28 2 38 3 10 1 15 7 12 12 -4 6 -21 8 -38 6 -18 -3 -220 -8 -449 -12
l-417 -6 -33 25 c-34 25 -77 34 -137 29z m99 -37 c66 -34 68 -92 5 -152 -41
-39 -50 -43 -95 -43 -45 0 -86 13 -100 32 -8 10 -321 27 -344 18 -24 -8 -68
-1 -60 11 3 5 -22 9 -56 9 -53 0 -61 2 -58 17 3 15 14 17 83 15 44 -2 116 -7
160 -13 44 -5 118 -10 164 -12 l84 -2 13 46 c9 30 22 49 37 56 22 10 23 9 19
-13 -5 -30 22 -33 38 -5 14 27 13 31 -7 32 -26 1 25 17 60 18 15 1 41 -6 57
-14z m-495 -445 c66 -6 147 -16 180 -21 64 -9 761 -4 833 7 53 8 56 -9 5 -28
-62 -23 -775 -17 -1000 8 -95 11 -175 23 -179 26 -11 11 7 29 24 24 10 -2 71
-10 137 -16z"/>
<path d="M3332 1962 c-18 -14 -20 -20 -10 -30 6 -6 18 -12 25 -12 7 0 13 -4
13 -8 0 -10 -56 -52 -70 -52 -5 0 -10 -4 -10 -8 0 -16 13 -21 31 -12 24 13 31
-1 17 -36 -10 -27 -46 -54 -72 -54 -6 0 -16 -12 -23 -26 -12 -26 -12 -26 25
-21 45 6 112 25 95 26 -20 2 -15 21 5 21 19 0 47 25 66 59 6 11 21 36 34 57
l23 36 -30 -4 c-31 -5 -41 9 -41 60 0 17 -6 22 -27 22 -16 0 -38 -8 -51 -18z"/>
<path d="M4882 1853 c-27 -11 -54 -89 -77 -231 -14 -81 -28 -153 -30 -161 -3
-8 -8 -62 -11 -120 -3 -58 -10 -114 -15 -123 -5 -9 -26 -22 -46 -28 -69 -21
-198 -74 -201 -82 -2 -4 -12 -8 -22 -8 -10 0 -20 -3 -22 -7 -1 -5 -59 -36
-128 -70 -120 -60 -179 -92 -190 -103 -6 -6 -110 -70 -114 -70 -4 0 1 163 10
372 12 251 -36 436 -121 468 -59 22 -159 -55 -206 -159 -57 -126 -117 -430
-126 -641 -7 -167 -26 -221 -77 -219 -29 2 -29 2 -4 6 14 2 29 11 32 19 3 8 3
14 1 14 -14 0 -120 -25 -171 -40 -48 -15 -99 -19 -240 -20 -99 -1 -186 -1
-196 -1 -9 1 -33 25 -54 54 -77 106 -234 273 -289 307 -71 44 -205 56 -680 65
l-120 2 -1 31 c0 18 -4 36 -10 41 -11 11 -588 36 -604 26 -5 -3 -10 -21 -10
-39 0 -40 -6 -47 -33 -36 -12 5 -115 14 -229 21 -157 9 -214 9 -233 1 -35 -16
-74 -82 -125 -209 -23 -59 -43 -109 -44 -110 -1 -1 -23 4 -49 12 -61 18 -61 2
1 -21 26 -10 52 -25 58 -33 8 -10 22 -12 47 -8 24 4 37 1 40 -7 5 -12 35 -10
135 10 32 6 37 1 33 -35 -3 -20 68 -160 87 -170 10 -5 13 -13 8 -18 -5 -4 -11
-2 -13 5 -4 10 -8 10 -20 1 -11 -10 -16 -10 -23 0 -5 9 -12 4 -24 -19 -12 -26
-13 -36 -4 -47 9 -11 9 -16 -1 -23 -8 -5 -9 -10 -3 -14 6 -3 12 0 15 6 3 10 7
10 19 0 13 -10 17 -10 22 0 5 11 7 11 12 0 5 -10 9 -10 21 -1 11 10 16 10 22
1 3 -6 29 -13 56 -16 47 -4 131 -39 147 -60 4 -6 13 -4 22 3 11 9 16 10 16 2
0 -6 11 -11 24 -11 14 0 28 -4 31 -10 3 -5 21 -10 40 -10 19 0 37 -5 41 -11 4
-8 9 -7 15 2 6 11 11 11 21 1 6 -6 24 -12 39 -12 15 0 31 -5 34 -10 5 -8 11
-8 20 0 9 8 15 8 20 0 3 -5 28 -10 55 -10 27 0 52 -5 55 -10 5 -8 11 -8 20 0
9 8 15 8 20 0 3 -5 37 -10 75 -10 40 0 72 -5 76 -11 4 -8 9 -7 14 2 7 10 12
10 22 1 9 -7 90 -13 218 -18 113 -3 210 -10 216 -15 6 -5 15 -4 21 2 8 8 13 8
17 0 5 -7 49 -11 120 -11 76 0 116 -4 124 -12 10 -10 15 -10 21 1 6 10 10 10
16 2 5 -9 10 -9 20 -1 9 8 15 8 20 0 4 -6 57 -10 140 -10 83 0 136 -4 140 -10
5 -8 11 -8 20 0 10 8 15 8 20 0 5 -8 11 -8 21 1 10 8 14 8 14 0 0 -6 11 -11
24 -11 14 0 28 -5 31 -10 5 -8 11 -8 20 0 10 8 15 8 20 0 5 -8 11 -8 21 1 11
9 14 7 14 -10 0 -23 15 -29 23 -8 4 9 8 8 16 -3 10 -13 12 -13 21 0 6 9 13 11
18 5 14 -20 51 -35 57 -24 5 7 11 6 21 -2 10 -8 14 -8 14 0 0 6 5 11 10 11 6
0 10 -7 10 -15 0 -8 5 -15 10 -15 6 0 10 7 10 15 0 8 5 15 10 15 6 0 10 -10
10 -21 0 -18 2 -20 16 -8 13 10 17 10 24 0 5 -10 9 -10 15 -2 5 9 10 9 21 0
10 -8 14 -8 14 0 0 6 5 11 10 11 6 0 10 -9 10 -20 0 -11 5 -20 10 -20 6 0 10
9 10 20 0 26 15 25 34 -2 l15 -21 20 24 20 24 1 -22 c0 -13 5 -23 10 -23 6 0
10 9 10 20 0 22 15 27 26 9 4 -8 9 -7 16 2 8 11 11 11 15 1 4 -10 8 -10 20 -1
11 10 16 10 23 0 5 -10 9 -10 15 -2 5 9 10 9 20 1 10 -8 17 -6 29 11 12 18 18
20 30 10 11 -9 15 -9 20 1 5 11 7 10 12 0 5 -10 12 -8 29 8 14 14 25 18 29 11
7 -11 42 3 59 24 6 6 10 6 14 -2 8 -20 23 -15 23 7 0 22 15 27 24 8 5 -11 7
-11 12 0 3 6 16 12 29 12 12 0 28 7 35 15 7 9 21 13 31 10 28 -9 23 7 -11 34
-17 13 -30 30 -30 38 0 13 -3 13 -15 3 -8 -7 -16 -10 -16 -6 -1 3 -2 9 -3 14
-1 4 -5 13 -9 20 -11 16 -2 28 33 45 21 11 30 12 33 3 3 -6 16 0 34 17 16 15
32 27 36 27 14 0 6 -23 -15 -41 -11 -11 -18 -22 -14 -27 4 -4 17 4 28 17 16
21 21 22 28 10 8 -12 12 -11 27 5 17 17 17 18 -4 11 -20 -5 -23 -3 -23 20 0
22 3 25 20 20 15 -5 18 -3 14 9 -7 17 11 22 21 6 4 -6 12 -4 22 5 8 9 12 19 9
23 -4 3 -11 0 -16 -8 -5 -8 -12 -11 -16 -8 -3 4 1 15 10 24 16 15 18 15 36 -7
11 -12 23 -19 27 -15 4 4 1 11 -7 16 -8 5 -11 12 -7 17 4 4 17 2 28 -5 17 -11
23 -9 46 18 19 23 28 28 34 18 11 -18 59 28 59 58 0 24 26 51 38 39 4 -4 1
-10 -5 -12 -7 -3 -13 -9 -13 -15 0 -6 9 -3 20 7 11 10 17 21 15 25 -2 4 4 15
15 25 12 10 20 13 20 7 0 -7 -5 -12 -11 -12 -5 0 -7 -5 -3 -11 4 -8 9 -7 15 2
8 12 11 12 18 -1 6 -8 14 -11 18 -6 4 5 2 11 -4 13 -15 5 -17 43 -3 43 6 0 10
-4 10 -10 0 -5 5 -10 10 -10 6 0 10 11 10 25 0 28 12 32 30 10 18 -22 29 -19
36 10 7 27 24 34 24 10 0 -8 5 -15 10 -15 6 0 10 7 10 16 0 11 5 14 16 10 10
-4 25 1 36 11 15 14 21 15 27 4 6 -10 10 -10 16 -2 5 9 10 9 20 1 10 -8 15 -8
20 0 5 8 11 8 21 -1 10 -8 14 -8 14 0 0 6 6 11 14 11 7 0 19 7 26 15 16 19 68
45 92 45 27 0 26 66 -2 73 -23 6 -27 49 -10 107 14 48 23 156 22 269 0 56 5
108 13 130 16 44 28 246 19 325 -7 54 -37 116 -59 122 -5 1 -16 0 -23 -3z
m-20 -387 c26 -53 44 -285 29 -376 -12 -75 -25 -110 -41 -110 -19 0 -30 40
-39 141 -10 99 -9 105 10 120 19 14 19 17 5 28 -9 8 -16 25 -16 38 0 22 2 24
15 13 23 -19 30 -4 11 24 -17 26 -20 72 -10 125 8 39 15 39 36 -3z m-1059
-242 l-6 -36 32 7 32 7 -5 -77 c-4 -72 -3 -76 19 -85 22 -8 23 -15 30 -135 6
-109 4 -142 -14 -236 -21 -110 -46 -170 -83 -201 -27 -24 -32 -23 -68 12 -19
19 -30 39 -30 57 0 20 3 24 9 14 6 -9 10 1 12 33 5 52 -8 62 -18 15 -6 -30 -7
-31 -20 -14 -18 25 -16 51 6 109 11 31 28 54 44 63 17 8 24 19 21 28 -8 21
-14 19 -56 -15 l-36 -30 -4 41 c-3 31 0 43 13 50 10 5 19 19 21 31 2 19 8 22
31 20 23 -3 27 0 27 20 0 16 -9 27 -30 36 -41 18 -60 39 -53 58 4 11 9 12 18
4 17 -14 28 3 27 42 0 15 4 26 9 23 5 -4 9 -15 9 -25 0 -10 5 -22 11 -26 8 -4
9 3 3 27 -12 52 -5 171 12 196 24 37 44 30 37 -13z m-2384 -221 c10 -17 12
-17 26 1 14 18 15 18 15 2 0 -16 2 -16 22 -2 25 18 64 21 72 7 3 -5 15 -7 25
-4 14 4 20 -1 23 -17 l3 -22 27 21 c43 34 45 24 3 -19 -45 -46 -51 -48 -58
-18 -6 21 -6 21 -28 -6 -26 -34 -68 -33 -85 3 -11 21 -13 22 -22 5 -10 -17
-12 -17 -30 6 l-21 25 -10 -25 c-13 -33 -15 -1 -1 34 11 30 25 33 39 9z m-545
-98 c88 -8 188 -16 221 -17 l60 -3 0 -40 -1 -40 -104 3 c-58 1 -171 5 -251 8
-101 4 -153 2 -168 -5 -19 -11 -21 -9 -21 14 0 31 24 81 42 88 21 9 54 8 222
-8z m1351 -86 c160 -6 305 -15 322 -21 41 -12 202 -181 178 -186 -9 -2 -35 14
-59 36 -39 36 -47 39 -107 41 -35 1 -102 6 -149 11 -47 5 -112 11 -145 14
-156 11 -397 27 -565 37 -102 6 -201 12 -220 14 -19 2 -59 4 -88 4 -29 1 -51
4 -49 9 4 6 84 4 370 -10 74 -3 88 5 79 49 l-5 25 74 -6 c41 -3 205 -11 364
-17z"/>
<path d="M3056 1839 c-10 -6 -33 -9 -50 -6 -18 3 -39 1 -47 -3 -8 -5 -19 -4
-26 2 -8 6 -16 8 -19 5 -10 -10 6 -27 26 -27 27 0 34 -18 19 -46 -8 -16 -18
-22 -30 -19 -21 7 -89 -20 -89 -34 0 -6 -9 -11 -20 -11 -11 0 -20 -5 -20 -10
0 -7 18 -9 50 -5 48 5 50 5 47 -17 -3 -18 -11 -24 -40 -26 -19 -2 -41 -10 -49
-19 -11 -14 -9 -15 17 -10 17 3 60 9 98 12 62 6 84 17 55 28 -10 4 -10 7 0 18
11 11 14 10 18 -9 6 -19 13 -22 55 -22 40 0 50 4 60 23 6 12 21 32 32 44 23
25 17 40 -10 28 -32 -15 -108 -33 -115 -29 -12 8 3 34 19 34 12 0 13 3 3 14
-14 18 -41 10 -33 -10 4 -10 -3 -14 -21 -14 -14 0 -26 2 -26 5 0 11 70 75 81
75 17 0 38 -31 39 -57 0 -13 4 -23 10 -23 11 0 34 40 23 40 -4 0 0 5 10 11 13
8 22 7 33 -2 17 -14 20 -12 29 23 5 20 2 29 -12 35 -27 14 -95 15 -117 2z"/>
<path d="M389 1223 c-9 -11 -14 -43 -14 -97 l0 -81 35 -16 c19 -9 47 -20 61
-23 25 -6 29 -2 54 62 14 37 33 78 42 91 8 13 11 27 6 31 -8 8 -142 50 -160
50 -6 0 -17 -7 -24 -17z"/>
<path d="M3137 1164 c-3 -4 7 -17 22 -30 15 -12 38 -45 51 -71 13 -26 27 -56
32 -65 11 -25 10 -28 -10 -28 -21 0 -47 25 -56 55 -9 32 -48 69 -90 89 -33 16
-54 18 -130 12 -280 -19 -288 -20 -297 -5 -7 11 -9 11 -9 1 0 -8 60 -76 133
-153 l132 -140 85 6 c242 17 310 53 280 147 -16 50 -45 105 -69 132 -24 27
-67 56 -74 50z"/>
</g>
</svg>
