<?xml version="1.0" standalone="no"?>
<!DOCTYPE svg PUBLIC "-//W3C//DTD SVG 20010904//EN"
 "http://www.w3.org/TR/2001/REC-SVG-20010904/DTD/svg10.dtd">
<svg version="1.0" xmlns="http://www.w3.org/2000/svg"
 width="287.000000pt" height="176.000000pt" viewBox="0 0 287.000000 176.000000"
 preserveAspectRatio="xMidYMid meet">

<g transform="translate(0.000000,176.000000) scale(0.100000,-0.100000)"
fill="#000000" stroke="none">
<path d="M0 880 l0 -880 1435 0 1435 0 0 880 0 880 -1435 0 -1435 0 0 -880z
m2222 792 c86 -33 200 -98 244 -138 40 -38 84 -99 84 -118 0 -8 6 -21 13 -28
6 -7 13 -22 15 -33 1 -11 -7 -2 -19 20 -48 91 -85 139 -138 178 -74 55 -195
107 -248 107 -64 0 -75 -23 -118 -259 -29 -152 -26 -161 47 -161 39 0 57 -5
75 -22 l23 -21 0 21 c0 14 -6 22 -17 22 -9 0 -14 3 -10 6 3 3 95 11 204 18
l198 11 5 30 c5 25 7 27 13 11 5 -13 1 -26 -15 -43 -15 -17 -21 -34 -20 -58 2
-29 -2 -37 -22 -47 -26 -11 -27 -31 -1 -21 8 3 15 0 15 -6 0 -6 -7 -11 -16
-11 -13 0 -14 -3 -5 -13 6 -8 8 -17 4 -20 -3 -4 0 -7 7 -7 15 0 5 -13 -13 -16
-7 -2 -73 -12 -147 -24 -100 -16 -162 -32 -239 -63 -124 -49 -148 -67 -185
-141 -30 -60 -53 -71 -87 -40 -18 17 -64 11 -53 -7 7 -11 -29 -201 -42 -217
-1 -2 -16 6 -32 18 -16 12 -38 20 -48 17 -17 -4 -17 -5 2 -6 11 0 33 -14 48
-30 26 -27 28 -33 22 -88 -7 -69 -7 -98 -4 -138 3 -27 0 -30 -30 -33 -45 -5
-53 21 -16 59 16 17 22 29 14 29 -10 0 -9 5 3 18 22 25 21 60 -3 99 -40 66
-44 67 -313 59 -316 -9 -515 -9 -671 0 l-126 7 0 -27 c0 -15 -4 -25 -9 -22
-18 11 -244 25 -260 16 -9 -5 -28 -31 -41 -59 -24 -52 -52 -67 -64 -35 -3 9
-2 12 4 9 8 -5 70 112 70 131 0 9 -94 45 -105 40 -13 -5 -13 -7 9 121 16 93
22 108 39 95 16 -13 119 -43 126 -37 10 11 11 45 0 45 -5 0 -7 5 -4 10 3 6 -1
17 -9 26 -9 8 -16 21 -16 29 0 7 -12 32 -27 54 -20 32 -29 38 -40 30 -23 -20
-14 -1 12 26 14 14 30 25 36 25 5 0 25 15 44 33 27 27 225 134 325 176 14 6
36 19 50 28 l25 17 -19 -22 -19 -22 116 0 c70 0 118 -4 122 -10 5 -8 12 -7 22
1 10 9 78 14 226 16 298 6 649 20 670 28 40 16 13 -25 -63 -94 -44 -40 -89
-90 -100 -111 -18 -35 -24 -38 -106 -59 -48 -12 -99 -28 -115 -36 -36 -19
-144 -21 -133 -2 5 7 0 6 -11 -3 -14 -12 -62 -16 -243 -18 -199 -4 -229 -2
-264 14 -35 16 -44 16 -71 4 -42 -18 -147 -24 -285 -15 -112 7 -113 7 -128 37
-9 16 -18 28 -20 25 -3 -3 2 -19 10 -36 12 -21 26 -32 50 -36 39 -8 46 -27 46
-125 0 -56 14 -94 67 -177 11 -18 2 -12 -26 17 -38 40 -32 24 12 -31 16 -21
214 -39 420 -39 119 0 144 3 161 18 21 17 21 17 2 -5 -19 -22 -25 -23 -215
-25 -163 -1 -182 -2 -111 -9 47 -4 213 -6 370 -6 157 1 234 3 173 4 -113 4
-113 4 -113 29 0 16 8 28 25 36 14 6 25 16 25 23 0 13 38 50 60 58 8 3 -7 6
-33 6 -45 1 -52 -3 -105 -51 l-57 -53 55 61 c30 33 78 98 107 145 74 121 70
118 138 125 l60 7 -77 -82 c-75 -79 -89 -111 -49 -111 30 0 395 39 429 46 25
5 36 15 47 41 8 19 24 47 35 63 11 15 20 34 20 42 0 10 -3 9 -10 -2 -5 -8 -10
-11 -10 -7 0 4 -9 3 -20 -3 -11 -6 -20 -7 -20 -2 0 5 10 14 23 20 22 10 22 11
-5 11 -17 1 -32 9 -38 21 -14 26 -27 25 -36 -2 -6 -20 -9 -34 -13 -70 -1 -4
-7 -5 -14 -2 -22 8 -40 -23 -33 -56 3 -18 1 -30 -5 -30 -6 0 -7 5 -4 10 4 6
-6 11 -22 11 -23 2 -24 2 -5 6 24 5 28 23 12 53 -10 19 -48 17 -62 -4 -5 -7
-8 -4 -8 7 0 9 5 17 10 17 7 0 7 7 0 21 -9 16 -14 18 -26 8 -8 -7 -13 -18 -10
-25 3 -8 0 -11 -10 -7 -9 3 -14 -1 -14 -11 0 -14 -6 -16 -35 -10 -29 5 -39 2
-55 -16 -11 -13 -20 -19 -20 -14 0 5 -5 2 -10 -6 -5 -8 -7 -23 -5 -32 3 -10 8
-27 11 -38 3 -11 1 -20 -5 -20 -6 0 -11 9 -11 20 0 12 -7 20 -17 20 -25 0 -47
-16 -39 -28 9 -14 -13 -27 -25 -15 -10 10 126 164 162 183 26 14 332 91 337
85 3 -3 0 -5 -6 -5 -7 0 -12 -4 -12 -9 0 -5 8 -7 19 -4 19 5 36 -21 25 -38 -3
-5 0 -9 5 -9 12 0 14 32 5 68 -8 26 -21 27 -90 5 -30 -9 -57 -14 -60 -10 -13
12 43 82 109 137 36 30 69 64 73 74 3 11 21 34 38 50 28 27 37 50 65 161 18
72 39 142 46 158 14 29 5 36 -17 14 -10 -10 -66 -16 -203 -21 -209 -8 -499
-29 -613 -46 -61 -8 -86 -18 -145 -56 -81 -53 -195 -144 -246 -198 -19 -19
-38 -33 -43 -30 -5 3 -4 12 3 20 9 11 8 14 -3 14 -8 0 -19 -5 -26 -12 -6 -6
-14 -9 -18 -5 -13 13 45 57 76 57 23 0 49 15 98 54 96 77 215 152 270 170 65
22 261 54 374 62 51 4 95 8 96 10 2 1 109 3 238 4 l233 1 73 -29z m-731 -64
c-40 -11 -83 -42 -73 -52 3 -4 0 -4 -9 -1 -25 9 -97 -68 -130 -140 -28 -63
-30 -65 -67 -65 -20 -1 -66 -7 -102 -15 -36 -8 -77 -14 -92 -15 -25 0 -26 2
-17 32 5 18 9 34 9 36 0 2 -10 -4 -22 -12 -12 -9 -35 -16 -51 -16 -16 0 -40
-9 -54 -20 -15 -11 -28 -18 -30 -16 -17 17 117 137 249 223 57 37 79 45 145
53 104 13 146 16 218 17 55 1 57 0 26 -9z m-33 -77 c9 -6 29 -12 44 -16 25 -5
27 -7 16 -30 -9 -19 -19 -25 -44 -25 -40 0 -54 -21 -54 -79 0 -37 -2 -41 -25
-41 -14 0 -25 3 -25 8 0 4 5 37 10 73 16 113 32 135 78 110z m85 -51 c-3 -12
-8 -19 -11 -16 -5 6 5 36 12 36 2 0 2 -9 -1 -20z m82 -8 c15 -10 6 -122 -10
-122 -15 0 -26 61 -18 101 6 30 11 34 28 21z m710 -22 c14 0 45 -37 45 -52 0
-5 -10 -8 -22 -9 -22 0 -22 -1 2 -10 41 -17 6 -27 -95 -30 -89 -2 -90 -2 -93
23 -2 13 2 36 7 51 10 25 15 27 71 27 41 0 60 4 61 13 0 10 2 10 6 0 2 -7 11
-13 18 -13z m-401 -44 c-5 -22 -11 -26 -38 -25 l-31 2 28 4 c22 4 28 9 24 23
-3 11 0 21 7 23 16 6 18 2 10 -27z m637 -329 c-8 -8 -11 -3 -11 19 1 25 2 27
11 11 8 -14 8 -22 0 -30z m-1691 -122 c0 -13 -4 -26 -9 -29 -4 -3 -6 7 -3 22
4 22 2 25 -9 15 -19 -19 -74 -16 -90 5 -11 14 -11 15 1 5 22 -20 53 -17 46 5
-5 15 -4 15 8 -2 8 -10 20 -15 26 -11 8 5 7 11 -2 23 -12 14 -10 14 10 3 13
-7 22 -21 22 -36z m-595 -1 c2 -16 9 -45 14 -64 6 -19 11 -36 11 -38 0 -1 -9
2 -20 8 -11 6 -20 19 -20 30 0 10 -4 20 -10 22 -6 2 -6 17 2 40 13 43 17 43
23 2z m49 17 c3 -5 -1 -11 -9 -15 -15 -6 -29 7 -18 18 9 9 21 8 27 -3z m1010
-3 c-4 -7 -37 -56 -73 -108 -70 -103 -109 -150 -125 -150 -5 0 4 15 21 33 29
30 109 175 101 183 -2 2 -87 -1 -188 -6 -102 -5 -186 -7 -188 -5 -4 4 106 13
263 20 104 5 122 9 134 26 15 21 67 28 55 7z m1236 -4 c0 -8 -4 -13 -10 -9 -5
3 -55 -6 -112 -21 -183 -46 -238 -65 -253 -87 -12 -17 -15 -18 -15 -5 0 28 28
40 198 89 189 54 192 55 192 33z m-1935 -34 c54 -6 56 -7 15 -7 -25 -1 -74 3
-110 7 -62 7 -62 7 -15 7 28 1 77 -3 110 -7z m159 -6 c3 -8 2 -12 -4 -9 -6 3
-10 10 -10 16 0 14 7 11 14 -7z m-450 -19 c3 -8 1 -15 -3 -15 -5 0 -11 7 -15
15 -3 8 -1 15 3 15 5 0 11 -7 15 -15z m1186 7 c0 -12 -58 -34 -70 -27 -18 11
10 35 41 35 16 0 29 -3 29 -8z m90 -12 c0 -5 -7 -7 -15 -4 -8 4 -15 8 -15 10
0 2 7 4 15 4 8 0 15 -4 15 -10z m193 -7 c-7 -18 -22 -33 -35 -33 -5 0 2 11 14
25 26 30 30 31 21 8z m-1456 -49 c-2 -2 -12 -1 -22 3 -18 6 -18 7 1 13 17 7
33 -5 21 -16z m1318 7 c-3 -6 -11 -11 -17 -11 -6 0 -6 6 2 15 14 17 26 13 15
-4z m52 3 c-3 -3 -12 -4 -19 -1 -8 3 -5 6 6 6 11 1 17 -2 13 -5z m-1184 -11
c-13 -2 -33 -2 -45 0 -13 2 -3 4 22 4 25 0 35 -2 23 -4z m110 -10 c-13 -2 -35
-2 -50 0 -16 2 -5 4 22 4 28 0 40 -2 28 -4z m510 0 c-23 -2 -64 -2 -90 0 -26
2 -7 3 42 3 50 0 71 -1 48 -3z m-230 -10 c-40 -2 -107 -2 -150 0 -43 1 -10 3
72 3 83 0 118 -2 78 -3z m1030 -48 c-3 -9 -8 -14 -10 -11 -3 3 -2 9 2 15 9 16
15 13 8 -4z m-1410 -22 c-7 -2 -21 -2 -30 0 -10 3 -4 5 12 5 17 0 24 -2 18 -5z
m95 -10 c-10 -2 -28 -2 -40 0 -13 2 -5 4 17 4 22 1 32 -1 23 -4z m170 -10
c-21 -2 -55 -2 -75 0 -21 2 -4 4 37 4 41 0 58 -2 38 -4z m220 0 c-32 -2 -86
-2 -120 0 -35 2 -9 3 57 3 66 0 94 -1 63 -3z m1544 -33 c3 -19 1 -29 -6 -27
-12 4 -17 57 -6 57 4 0 10 -14 12 -30z m-228 9 c-6 -10 -68 -40 -124 -60 -24
-8 -24 -8 3 14 26 20 100 55 120 56 5 1 5 -4 1 -10z m162 -57 c-12 -11 -18 7
-10 30 l8 23 4 -23 c2 -13 1 -26 -2 -30z m-1939 12 c-3 -3 -12 -4 -19 -1 -8 3
-5 6 6 6 11 1 17 -2 13 -5z m91 -11 c-10 -2 -26 -2 -35 0 -10 3 -2 5 17 5 19
0 27 -2 18 -5z m-413 -33 c25 -11 -1 -11 -35 0 -20 6 -21 8 -5 8 11 0 29 -3
40 -8z m0 -68 c-11 -11 -25 15 -19 33 7 17 8 16 16 -5 5 -13 6 -25 3 -28z
m1765 29 c15 23 23 2 15 -37 -5 -28 -9 -34 -16 -23 -7 11 -9 8 -10 -11 l-1
-25 -7 25 c-5 14 -6 41 -3 60 4 23 7 28 10 16 3 -15 6 -16 12 -5z m-1833 -13
c-3 -8 -6 -5 -6 6 -1 11 2 17 5 13 3 -3 4 -12 1 -19z m1473 -3 c17 -9 30 -22
30 -31 0 -11 -6 -10 -30 7 -27 21 -37 22 -141 16 -126 -6 -140 2 -22 13 121
11 132 11 163 -5z m910 8 c0 -5 -5 -15 -10 -23 -8 -12 -10 -11 -10 8 0 12 5
22 10 22 6 0 10 -3 10 -7z m17 -40 c-3 -10 -5 -4 -5 12 0 17 2 24 5 18 2 -7 2
-21 0 -30z m-1132 -43 c21 -22 37 -40 34 -40 -3 0 -23 18 -44 40 -21 22 -37
40 -34 40 3 0 23 -18 44 -40z m170 30 c-3 -5 -12 -10 -18 -10 -7 0 -6 4 3 10
19 12 23 12 15 0z m424 -41 c-13 -26 -20 -21 -12 9 3 12 9 19 14 16 5 -3 4
-14 -2 -25z m-1343 -6 c-7 -7 -26 7 -26 19 0 6 6 6 15 -2 9 -7 13 -15 11 -17z
m54 -5 c0 -5 -7 -3 -15 6 -8 8 -15 18 -15 22 0 3 7 1 15 -6 8 -7 15 -17 15
-22z m30 17 c-6 -8 -8 -20 -4 -27 5 -10 4 -10 -6 -1 -11 10 -11 15 0 28 7 8
15 15 17 15 3 0 0 -7 -7 -15z m1200 -6 c0 -6 -4 -7 -10 -4 -5 3 -10 11 -10 16
0 6 5 7 10 4 6 -3 10 -11 10 -16z m617 -11 c-3 -8 -6 -5 -6 6 -1 11 2 17 5 13
3 -3 4 -12 1 -19z m-1796 -11 c-10 -9 -11 -8 -5 6 3 10 9 15 12 12 3 -3 0 -11
-7 -18z m-308 -23 c59 -4 107 -10 107 -13 0 -3 -55 -3 -122 1 -68 5 -131 6
-140 4 -10 -2 -18 0 -18 4 0 12 22 19 45 15 11 -2 68 -7 128 -11z m1477 -34
c-6 -11 -13 -20 -15 -20 -2 0 -3 9 -2 20 1 11 7 20 14 20 11 0 11 -5 3 -20z
m84 -6 c10 -37 4 -38 -16 -3 -13 23 -14 29 -4 29 8 0 17 -12 20 -26z m-1006
-1 c-21 -2 -55 -2 -75 0 -21 2 -4 4 37 4 41 0 58 -2 38 -4z m339 -58 c36 -36
21 -33 -17 5 -30 30 -51 35 -164 41 l-121 7 127 -2 128 -1 47 -50z m593 3 c0
-7 -9 -24 -20 -38 l-21 -25 7 30 c4 17 9 33 11 38 7 12 23 8 23 -5z m61 -55
c-6 -21 -16 -47 -24 -56 -12 -17 -13 -17 -14 3 -1 11 2 18 7 15 12 -8 21 23
14 52 -4 16 -2 28 7 34 19 12 22 -2 10 -48z m-57 -7 c-3 -15 -8 -25 -11 -23
-2 3 -1 17 3 31 3 15 8 25 11 23 2 -3 1 -17 -3 -31z m-4 -46 c0 -5 -2 -10 -4
-10 -3 0 -8 5 -11 10 -3 6 -1 10 4 10 6 0 11 -4 11 -10z"/>
<path d="M2515 1190 c3 -5 8 -10 11 -10 2 0 4 5 4 10 0 6 -5 10 -11 10 -5 0
-7 -4 -4 -10z"/>
<path d="M2346 1181 c-4 -7 -5 -15 -2 -18 9 -9 19 4 14 18 -4 11 -6 11 -12 0z"/>
<path d="M2345 1140 c-8 -13 20 -24 36 -15 8 6 7 10 -2 16 -18 11 -26 11 -34
-1z"/>
<path d="M1825 1041 c-10 -17 11 -21 31 -6 18 14 18 14 -3 15 -12 0 -24 -4
-28 -9z"/>
<path d="M1508 613 c18 -2 45 -2 60 0 15 2 0 4 -33 4 -33 0 -45 -2 -27 -4z"/>
</g>
</svg>
