<?xml version="1.0" standalone="no"?>
<!DOCTYPE svg PUBLIC "-//W3C//DTD SVG 20010904//EN"
 "http://www.w3.org/TR/2001/REC-SVG-20010904/DTD/svg10.dtd">
<svg version="1.0" xmlns="http://www.w3.org/2000/svg"
 width="540.000000pt" height="348.000000pt" viewBox="0 0 540.000000 348.000000"
 preserveAspectRatio="xMidYMid meet">
<metadata>
Created by potrace 1.15, written by Peter Selinger 2001-2017
</metadata>
<g transform="translate(0.000000,348.000000) scale(0.100000,-0.100000)"
fill="#000000" stroke="none">
<path d="M2825 3038 c-138 -8 -260 -24 -316 -43 l-44 -14 60 5 c33 3 94 10
135 16 104 16 556 15 720 -1 165 -17 502 -14 635 5 l60 9 -65 7 c-128 14
-1020 26 -1185 16z"/>
<path d="M4105 2964 c-86 -10 -165 -27 -165 -35 0 -6 -4 -7 -10 -4 -31 19
-121 -70 -155 -152 -34 -85 -159 -457 -180 -536 -14 -53 -24 -71 -44 -82 -45
-25 -12 -16 59 15 76 33 108 37 116 15 8 -21 67 -55 96 -55 13 0 35 11 47 24
l23 25 -31 19 c-17 10 -28 22 -24 25 3 4 66 7 138 7 157 0 164 4 147 78 -6 26
-8 50 -4 54 14 13 363 120 509 156 84 20 153 40 153 44 0 3 -22 40 -50 81 -63
94 -221 246 -292 281 -71 34 -222 52 -333 40z m216 -103 c28 -11 62 -28 77
-38 l27 -18 -45 -7 c-25 -3 -72 -7 -106 -7 -59 -1 -61 -1 -77 34 -9 20 -17 40
-17 45 0 17 87 11 141 -9z"/>
<path d="M2732 2954 c-12 -3 -19 -10 -16 -16 5 -8 -30 -9 -116 -6 -138 6 -227
0 -195 -13 11 -4 45 -8 75 -9 l55 -2 -63 -13 c-34 -8 -108 -37 -165 -65 -142
-71 -399 -244 -477 -322 -32 -31 -110 -67 -110 -51 0 3 -8 0 -17 -7 -10 -7 11
16 47 51 82 81 218 183 428 322 90 59 161 111 158 114 -14 14 -281 -150 -498
-308 -62 -45 -104 -72 -94 -61 17 20 18 22 2 22 -29 0 -56 -20 -56 -42 0 -18
2 -19 18 -7 15 13 16 12 4 -3 -8 -10 -36 -34 -63 -55 -27 -20 -49 -40 -49 -44
0 -4 26 -9 58 -12 31 -3 136 -14 232 -26 216 -25 483 -51 593 -56 45 -2 123
-8 172 -14 50 -5 239 -19 420 -30 182 -12 342 -23 357 -26 61 -10 134 107 237
382 69 187 84 218 119 256 28 29 26 30 -38 28 -28 -2 -32 0 -20 9 12 9 10 10
-10 4 -14 -4 -47 -7 -75 -7 -27 0 -239 3 -470 6 -231 3 -430 3 -443 1z m-189
-89 c20 -3 37 -8 37 -10 0 -2 -29 -48 -64 -102 -35 -54 -71 -117 -81 -140 -18
-42 -20 -43 -94 -59 -42 -9 -163 -36 -270 -60 -107 -24 -197 -41 -200 -39 -9
9 151 163 230 223 97 72 345 201 379 196 14 -1 42 -5 63 -9z m277 -73 c0 -22
47 -65 60 -57 6 4 10 1 10 -4 0 -6 -9 -11 -20 -11 -11 0 -20 -4 -20 -9 0 -21
13 -41 26 -41 8 0 14 -4 14 -8 0 -7 -201 -33 -208 -27 -3 3 42 126 58 154 15
28 80 30 80 3z"/>
<path d="M5035 2185 l-50 -44 -22 21 c-60 56 -144 -32 -214 -222 -32 -90 -59
-138 -59 -107 0 9 -7 17 -15 17 -22 0 -216 -91 -831 -390 -136 -66 -249 -120
-251 -120 -2 0 -3 19 -1 42 2 33 7 42 25 44 11 2 37 13 57 25 19 11 40 18 45
15 5 -4 13 -2 16 4 8 14 130 70 150 70 8 0 15 5 15 12 0 6 3 9 6 5 3 -3 40 12
82 34 58 30 78 37 85 27 6 -9 7 -8 4 4 -3 9 1 19 9 22 10 4 13 1 9 -7 -4 -6
-1 -5 7 4 12 15 51 34 55 27 1 -2 9 6 17 17 9 11 16 17 16 12 0 -4 23 9 51 29
30 21 59 34 69 31 12 -3 20 2 23 13 5 21 132 84 148 75 5 -4 8 -2 7 3 -2 6 0
9 3 8 3 0 12 4 20 10 8 6 22 10 32 9 9 -2 17 1 17 6 0 5 7 9 16 9 9 0 29 9 45
21 16 11 29 17 29 14 0 -21 64 80 68 108 1 4 8 20 17 36 13 26 13 30 0 41 -11
9 -15 10 -15 1 0 -7 -5 -9 -12 -5 -8 5 -9 1 -4 -12 6 -15 5 -17 -6 -6 -10 10
-15 8 -26 -10 -8 -15 -11 -16 -8 -5 4 13 2 16 -7 10 -6 -4 -16 -8 -22 -8 -5
-1 -9 -6 -8 -13 2 -6 -4 -9 -12 -6 -8 4 -12 11 -8 18 3 6 2 7 -3 3 -5 -5 -9
-13 -9 -18 0 -5 -3 -8 -7 -6 -4 1 -14 -7 -23 -18 -9 -11 -14 -15 -11 -9 3 6
-2 11 -10 11 -8 0 -13 -6 -10 -13 3 -8 0 -16 -6 -20 -7 -4 -8 -3 -4 4 10 16
-7 15 -23 0 -11 -10 -12 -10 -7 -1 5 9 2 11 -8 7 -9 -3 -13 -11 -9 -17 4 -6 1
-7 -6 -3 -7 5 -19 0 -27 -10 -9 -11 -13 -14 -10 -7 4 6 2 14 -3 17 -5 3 -11
-4 -14 -15 -3 -12 -10 -18 -16 -15 -5 4 -12 2 -16 -3 -3 -5 -14 -8 -25 -6 -11
2 -20 -1 -20 -6 0 -6 -5 -7 -10 -4 -6 3 -13 0 -16 -8 -3 -8 -13 -14 -22 -12
-20 3 -44 -14 -37 -25 3 -5 1 -11 -4 -14 -5 -4 -13 -1 -17 5 -5 8 -3 9 6 4 9
-5 11 -4 6 4 -7 11 -22 5 -46 -19 -3 -3 -12 -5 -20 -5 -8 0 -14 -6 -12 -13 1
-8 -2 -11 -7 -8 -5 4 -14 -2 -20 -11 -6 -10 -11 -14 -11 -9 0 5 -10 1 -22 -10
-12 -10 -18 -13 -14 -6 9 15 -10 16 -19 1 -4 -6 -14 -8 -22 -5 -10 4 -13 2
-10 -8 4 -10 1 -13 -7 -10 -7 3 -19 -2 -26 -10 -7 -9 -16 -13 -21 -10 -5 3 -9
1 -9 -4 0 -6 -7 -13 -16 -16 -8 -3 -12 -2 -9 4 3 6 -1 7 -9 4 -9 -3 -13 -11
-9 -17 4 -6 0 -8 -10 -4 -10 3 -17 2 -17 -4 0 -6 -4 -7 -10 -4 -5 3 -10 0 -10
-7 0 -9 -3 -9 -10 2 -9 14 -14 7 -11 -13 1 -5 -3 -6 -8 -3 -5 4 -12 2 -16 -4
-4 -6 -11 -8 -16 -5 -5 4 -9 1 -9 -5 0 -6 -4 -8 -10 -5 -5 3 -10 1 -10 -6 0
-7 -3 -9 -7 -6 -3 4 -12 -1 -20 -11 -9 -10 -11 -11 -7 -2 7 13 5 13 -8 2 -11
-9 -18 -10 -23 -2 -3 6 -11 8 -16 4 -5 -3 -7 -9 -4 -14 3 -5 1 -11 -5 -15 -5
-3 -10 -1 -10 6 0 7 -7 4 -15 -7 -8 -10 -15 -15 -15 -10 0 5 -8 2 -17 -5 -14
-12 -16 -12 -9 1 4 8 0 6 -8 -4 -15 -19 -16 -18 -17 20 -1 39 -1 38 -13 -14
-9 -45 -13 -51 -25 -40 -11 11 -12 9 -1 -12 10 -21 10 -23 -1 -12 -14 13 -41
17 -36 5 1 -5 -1 -8 -5 -8 -4 0 -14 -9 -23 -20 -9 -11 -14 -13 -10 -5 3 8 0 7
-7 -3 -7 -10 -23 -31 -35 -45 -13 -15 -23 -36 -24 -47 -1 -16 -2 -15 -8 5 -7
24 -8 24 -12 -7 -3 -18 -2 -30 1 -28 4 3 5 -7 2 -21 -7 -39 -23 -8 -20 42 1
25 -5 49 -16 65 -9 13 -30 45 -46 71 -39 63 -107 103 -175 102 -57 -1 -113
-26 -192 -85 -30 -22 -55 -35 -58 -29 -9 15 -25 2 -19 -15 4 -8 -16 -45 -44
-84 -28 -38 -64 -95 -80 -127 -38 -75 -108 -265 -122 -328 -12 -53 -15 -184
-5 -230 3 -16 7 -34 8 -40 1 -7 -52 -20 -141 -35 -136 -22 -144 -23 -178 -6
-38 18 -70 21 -482 50 -122 9 -234 20 -247 25 -14 5 -81 65 -148 134 -132 134
-148 143 -304 181 l-73 17 3 71 2 71 -132 23 c-72 12 -158 31 -191 42 -41 14
-68 18 -88 12 -28 -7 -29 -9 -25 -61 l3 -53 -33 7 c-91 20 -104 19 -136 -8
-17 -15 -44 -47 -60 -71 -15 -25 -33 -45 -40 -45 -6 0 -26 12 -45 27 l-33 27
30 -33 c34 -38 81 -61 122 -61 15 0 61 -12 101 -26 68 -25 71 -28 52 -41 -26
-19 -25 -58 2 -88 25 -26 298 -129 423 -159 39 -9 124 -29 190 -45 66 -15 176
-51 245 -78 129 -52 183 -68 260 -78 25 -4 56 -8 70 -10 189 -27 941 -22 1105
6 131 23 281 103 395 210 68 65 160 115 345 189 39 16 88 36 110 46 22 10 42
18 45 19 3 1 16 6 30 12 14 6 59 24 100 41 109 43 398 172 520 230 83 40 120
52 175 57 148 14 208 45 328 169 84 88 117 139 117 183 0 33 -25 73 -46 73
-23 0 -22 68 2 105 8 12 25 60 38 106 12 46 26 95 31 109 l7 25 -29 -27 c-39
-37 -53 -35 -53 7 0 35 18 85 30 85 9 0 43 50 38 55 -2 2 -25 -16 -53 -40z
m-366 -555 c9 -29 8 -31 -24 -44 -19 -8 -43 -12 -54 -9 -48 12 -195 -41 -574
-209 -352 -155 -459 -210 -500 -257 -18 -21 -58 -50 -90 -64 l-58 -26 3 32 c3
30 10 36 100 82 96 50 130 72 93 60 -18 -6 -18 -5 -2 5 9 6 22 8 27 5 6 -4 9
-1 8 5 -4 15 306 157 628 289 111 45 415 160 426 161 3 0 11 -14 17 -30z"/>
<path d="M481 1806 c-8 -9 -16 -40 -19 -69 -3 -29 -10 -55 -16 -59 -7 -4 -4
-9 7 -14 9 -3 17 -17 17 -30 0 -14 13 -53 29 -88 35 -77 69 -105 227 -182
l110 -55 145 -10 c166 -11 340 -4 418 17 41 12 66 28 105 67 52 52 106 147
106 187 0 41 -28 79 -68 90 -50 14 -841 150 -867 149 -11 -1 0 -6 23 -11 76
-17 39 -18 -49 -2 -149 27 -154 27 -168 10z m204 -95 c107 -27 122 -28 147
-15 49 25 86 18 130 -26 22 -21 47 -41 56 -44 9 -3 123 -19 252 -36 299 -39
310 -40 310 -49 0 -8 4 -9 -297 24 -250 28 -265 27 -277 -21 -9 -36 -32 -16
-40 36 -6 38 -58 112 -70 99 -3 -3 -9 -28 -12 -55 -4 -27 -13 -55 -22 -61 -14
-11 -14 -13 -1 -13 9 0 30 -21 49 -46 24 -34 35 -42 41 -32 7 11 9 11 9 0 0
-8 -15 -29 -34 -48 -60 -60 -126 -43 -169 43 -21 39 -31 48 -93 74 -38 16 -75
27 -82 24 -8 -3 -10 0 -6 7 5 8 2 9 -10 5 -11 -5 -15 -3 -10 5 5 8 2 9 -10 5
-9 -4 -15 -3 -12 2 3 5 -1 12 -10 15 -10 4 -13 2 -8 -6 4 -7 3 -8 -4 -4 -7 4
-12 14 -12 22 0 22 40 17 144 -20 87 -30 98 -31 107 -17 9 13 10 12 6 -7 -3
-12 1 -46 9 -75 23 -91 92 -124 151 -73 15 13 26 26 23 28 -3 2 -28 23 -56 46
-41 33 -53 39 -65 29 -7 -7 -6 -3 2 8 22 28 60 143 49 150 -14 8 -66 -21 -85
-47 -15 -21 -17 -22 -28 -6 -14 18 -92 42 -107 33 -11 -7 -61 5 -56 14 2 3 -6
7 -17 7 -35 2 -99 33 -92 44 11 17 75 11 200 -19z"/>
<path d="M2360 1760 c-52 -15 -135 -42 -185 -59 -131 -45 -351 -102 -417 -108
l-58 -6 0 41 c0 25 -7 49 -19 63 l-20 24 14 -40 c8 -22 14 -53 15 -69 l0 -28
60 4 c33 2 59 3 57 2 -102 -83 -173 -164 -163 -189 3 -8 11 -15 18 -15 11 0
11 2 0 8 -16 11 25 69 96 135 47 43 83 63 66 36 -3 -6 5 -3 20 6 32 21 34 30
4 15 -22 -11 -22 -11 -4 4 11 9 29 14 40 10 17 -4 18 -3 6 5 -17 12 2 15 85
12 30 -1 104 13 185 34 74 20 148 38 164 40 16 3 34 9 40 14 6 4 28 12 49 15
49 9 88 27 81 37 -2 4 8 15 23 23 l28 15 -45 0 c-25 0 -88 -13 -140 -29z"/>
<path d="M2633 1775 c21 -12 27 -23 25 -42 -2 -20 -13 -29 -50 -43 -72 -27
-106 -57 -138 -121 -17 -32 -32 -59 -34 -59 -2 0 4 24 15 52 10 29 19 54 19
55 0 7 -53 2 -102 -8 -46 -10 -50 -13 -30 -20 14 -6 31 -5 43 1 15 9 19 7 19
-5 0 -8 -11 -20 -24 -26 -13 -6 -28 -25 -33 -43 l-10 -31 -12 25 -11 25 3 -27
c3 -19 -1 -28 -14 -31 -22 -6 -29 1 -29 27 0 16 3 18 9 7 5 -8 11 -9 15 -3 10
17 -12 25 -84 30 l-67 4 -44 -47 c-24 -25 -45 -50 -47 -54 -1 -5 25 -11 58
-15 34 -4 58 -11 55 -17 -4 -5 0 -9 7 -10 7 -1 2 -5 -12 -9 -76 -24 120 4 233
33 109 29 199 102 251 205 23 45 51 140 44 147 -2 2 -21 6 -43 10 l-40 6 28
-16z"/>
<path d="M1935 1531 c-34 -3 -74 -14 -90 -25 -30 -19 -85 -74 -85 -85 0 -3 37
-17 81 -31 77 -24 79 -25 48 -31 -31 -6 -31 -6 11 -7 25 0 68 3 95 8 l50 7
-45 2 c-33 1 -41 4 -30 11 10 6 11 10 3 10 -7 0 -13 9 -13 20 0 17 -5 19 -27
15 l-28 -6 28 16 c15 9 33 13 39 9 6 -4 8 -3 5 3 -3 5 7 25 23 44 16 19 29 36
30 39 0 7 -21 7 -95 1z"/>
<path d="M1803 1065 c-145 -13 -268 -25 -275 -28 -11 -5 30 -8 125 -11 15 -1
38 -21 72 -65 65 -84 88 -99 160 -111 97 -15 364 -31 414 -25 76 10 130 34
137 60 12 48 -66 153 -136 183 -56 24 -211 23 -497 -3z"/>
</g>
</svg>
