<?xml version="1.0" standalone="no"?>
<!DOCTYPE svg PUBLIC "-//W3C//DTD SVG 20010904//EN"
 "http://www.w3.org/TR/2001/REC-SVG-20010904/DTD/svg10.dtd">
<svg version="1.0" xmlns="http://www.w3.org/2000/svg"
 width="500.000000pt" height="312.000000pt" viewBox="0 0 500.000000 312.000000"
 preserveAspectRatio="xMidYMid meet">

<g transform="translate(0.000000,312.000000) scale(0.100000,-0.100000)"
fill="#000000" stroke="none">
<path d="M0 1560 l0 -1560 2500 0 2500 0 0 1560 0 1560 -2500 0 -2500 0 0
-1560z m2625 1274 c-16 -2 -72 -9 -124 -15 -51 -6 -117 -17 -145 -24 -28 -7
-64 -15 -79 -19 -15 -4 -25 -10 -22 -15 2 -5 -7 -12 -21 -15 -15 -4 -24 -9
-21 -12 3 -3 22 2 43 11 90 39 478 63 739 46 285 -19 322 -31 80 -25 -231 5
-567 -8 -745 -30 -63 -7 -120 -11 -126 -9 -7 2 -15 0 -19 -6 -3 -6 -11 -11
-18 -11 -6 0 -2 7 9 16 18 14 18 15 -5 8 -42 -11 -264 -151 -412 -258 -8 -6 1
4 20 21 55 50 288 205 361 240 79 38 180 67 280 82 41 6 86 13 100 15 14 2 50
3 80 3 30 0 42 -2 25 -3z m1452 -65 c42 -10 85 -27 95 -36 11 -9 26 -18 35
-19 20 -3 42 -24 26 -24 -7 0 -15 5 -18 10 -4 6 -10 8 -15 5 -4 -3 -23 2 -43
10 -68 28 -225 48 -337 42 -138 -7 -202 -28 -260 -87 -40 -39 -52 -62 -90
-170 -24 -69 -49 -134 -56 -145 -6 -11 -38 -82 -69 -158 -41 -98 -67 -145 -88
-163 -21 -17 -32 -22 -37 -14 -5 8 -9 5 -12 -7 -3 -11 -47 -40 -109 -72 -130
-68 -387 -221 -455 -271 -27 -21 -73 -49 -102 -64 -43 -22 -55 -24 -79 -15
-42 16 -160 14 -233 -5 -36 -10 -103 -33 -150 -51 -132 -53 -417 -132 -481
-134 -12 -1 -19 11 -24 44 -9 65 -31 79 -148 104 -177 36 -328 62 -339 59 -6
-2 72 -19 173 -37 101 -19 206 -40 232 -48 53 -16 67 -37 67 -104 l0 -40 53 6
c51 6 51 6 22 -8 -19 -9 -46 -38 -69 -76 -21 -33 -40 -61 -42 -61 -2 0 -13 9
-25 21 -22 22 -23 29 -13 104 5 41 2 54 -15 76 -24 31 -40 35 -541 123 -487
86 -464 84 -484 55 -9 -13 -16 -33 -16 -44 0 -12 -6 -27 -13 -34 -9 -11 -9
-13 1 -7 21 12 13 -18 -9 -32 -16 -11 -18 -16 -9 -28 18 -21 -8 -19 -34 4 -16
13 -15 9 5 -18 14 -19 36 -39 47 -45 13 -6 28 -28 38 -57 11 -34 30 -61 67
-93 52 -45 231 -145 261 -145 9 0 16 -5 16 -11 0 -13 -44 -5 -113 21 -26 10
-49 14 -53 9 -3 -5 -9 -7 -14 -4 -17 10 -32 -26 -28 -70 3 -37 1 -44 -12 -39
-8 4 -37 9 -63 12 -43 4 -51 2 -78 -24 -17 -16 -40 -46 -52 -66 -11 -21 -25
-38 -31 -38 -6 0 -27 17 -48 37 -21 20 -38 32 -38 27 0 -6 9 -19 19 -28 10
-10 18 -25 16 -34 -1 -9 2 -25 7 -34 25 -49 -30 5 -58 56 -12 22 -13 34 -6 51
6 12 7 26 2 31 -5 5 3 36 17 68 28 67 25 124 -9 163 -8 10 -23 33 -34 50 -16
29 -17 37 -5 69 7 20 21 69 30 109 10 41 27 87 37 102 l19 28 3 -30 c2 -16 12
-41 23 -55 12 -14 18 -19 14 -12 -3 6 -1 12 5 12 6 0 8 5 5 10 -3 5 -2 10 3
10 12 0 21 69 10 76 -4 3 -8 14 -8 24 0 10 -5 20 -11 22 -7 2 -8 22 -3 57 10
79 49 117 187 185 62 30 157 71 212 91 220 81 417 149 540 189 141 46 218 84
210 104 -5 14 -3 14 19 6 13 -5 13 -8 -2 -23 -9 -10 -26 -23 -36 -28 -18 -10
-17 -11 10 -17 138 -29 893 -101 1413 -136 252 -16 287 -20 299 -37 9 -12 13
-13 10 -3 -3 8 14 36 36 61 45 51 95 160 171 379 58 166 65 179 118 231 l42
41 -45 -7 c-25 -4 -41 -3 -37 1 5 5 43 12 85 16 42 4 106 12 142 17 90 13 267
4 357 -20z m-607 1 c11 -7 -2 -10 -42 -10 -32 0 -58 4 -58 10 0 13 80 13 100
0z m-1301 -84 c-2 -2 -22 -11 -44 -20 l-40 -16 24 20 c13 11 32 20 44 20 11 0
18 -2 16 -4z m1546 -6 c-3 -5 -16 -10 -28 -9 -21 0 -21 1 -2 9 28 12 37 12 30
0z m-1335 -41 c0 -4 -18 -37 -41 -71 -22 -35 -56 -95 -75 -134 l-36 -71 -106
-23 c-59 -12 -168 -37 -242 -55 -74 -19 -137 -31 -139 -29 -8 8 160 172 229
225 36 27 120 77 187 112 110 56 126 62 172 59 28 -2 51 -8 51 -13z m1621 6
c24 -9 55 -24 69 -35 l25 -20 -30 0 c-16 0 -59 -3 -95 -6 l-65 -6 -18 36 c-9
20 -17 39 -17 41 0 11 90 4 131 -10z m-297 -37 l26 -43 -23 -6 c-46 -12 -157
-19 -157 -10 0 14 100 101 116 101 7 0 24 -19 38 -42z m-814 -69 l0 -58 -27
15 c-16 7 -34 14 -42 14 -11 0 -11 4 2 18 10 10 17 28 17 40 0 12 6 31 13 42
11 19 13 19 25 3 6 -9 12 -43 12 -74z m-280 38 c0 -23 30 -56 53 -58 6 0 2 -4
-11 -9 -19 -8 -21 -13 -13 -29 8 -13 7 -22 -2 -29 -17 -14 -147 -26 -147 -14
0 10 47 140 56 154 3 4 18 8 35 8 24 0 29 -4 29 -23z m789 16 c0 -5 -6 -24
-14 -43 l-13 -35 -10 26 c-13 32 -29 39 -88 39 -24 0 -44 5 -44 10 0 6 35 10
85 10 47 0 85 -3 84 -7z m-1674 -143 c-3 -5 -20 -19 -38 -30 -32 -22 -32 -22
3 9 37 32 45 37 35 21z m-153 -82 c-7 -7 -12 -22 -12 -34 0 -28 -19 -42 -31
-23 -17 27 8 69 41 69 11 0 11 -3 2 -12z m3014 -12 c3 -8 13 -17 22 -20 9 -3
28 -13 42 -23 l25 -18 -18 28 c-10 16 -17 33 -15 39 2 6 12 -5 21 -24 11 -24
14 -44 9 -58 -7 -20 -10 -18 -54 25 -25 25 -53 45 -63 45 -9 0 -13 5 -10 10 9
15 35 12 41 -4z m-231 -45 c-117 -30 -457 -137 -532 -168 -7 -2 -13 -1 -13 4
0 25 577 201 660 202 19 0 -32 -17 -115 -38z m36 -131 c-13 -11 -31 -20 -40
-20 -9 0 0 8 19 19 46 24 50 24 21 1z m-461 -200 c-8 -5 -19 -10 -25 -10 -5 0
-3 5 5 10 8 5 20 10 25 10 6 0 3 -5 -5 -10z m-582 -35 c2 -32 -36 -56 -50 -31
-8 14 -15 12 -61 -12 -28 -15 -55 -31 -58 -35 -3 -5 -10 -8 -15 -8 -24 2 -137
-44 -155 -62 -47 -50 -117 -179 -87 -161 6 4 5 -2 -1 -14 -6 -12 -9 -34 -7
-49 4 -26 -1 -30 -62 -60 -37 -18 -91 -53 -120 -79 -37 -32 -56 -43 -65 -36
-6 5 -27 10 -45 10 -40 1 -86 28 -78 47 3 9 -9 22 -29 35 -30 18 -34 26 -29
48 4 15 7 28 8 28 3 5 245 123 386 189 326 154 424 195 432 182 5 -8 8 -7 8 5
0 9 6 19 13 21 6 3 12 6 12 6 0 1 2 -10 3 -24z m-11 -87 c-3 -7 -5 -2 -5 12 0
14 2 19 5 13 2 -7 2 -19 0 -25z m-908 -298 c9 -26 7 -34 -9 -50 -24 -24 -36
-25 -44 -3 -6 13 -12 9 -32 -21 -14 -21 -37 -61 -50 -89 -14 -29 -22 -43 -19
-32 4 11 9 33 12 49 6 27 4 28 -18 23 -13 -3 -40 -8 -59 -11 -28 -5 -24 -2 18
15 65 26 63 33 -3 14 -150 -42 -243 -92 -296 -159 l-41 -51 46 -10 c66 -15 78
-31 28 -40 -55 -9 -130 3 -134 22 -2 8 14 33 35 56 20 22 37 46 37 53 0 6 7
14 15 18 8 3 15 11 15 18 0 6 -13 -1 -29 -16 -29 -27 -30 -28 -24 -6 5 20 3
22 -13 16 -10 -4 -32 -10 -49 -13 -24 -4 -27 -2 -15 7 13 10 12 11 -5 5 -11
-4 -34 -11 -52 -16 -30 -9 -123 -91 -123 -109 0 -4 23 -14 50 -21 28 -7 56
-19 62 -26 8 -10 -1 -13 -48 -12 -74 1 -133 16 -141 34 -3 8 11 36 30 62 42
57 91 106 82 81 -4 -9 -16 -23 -28 -31 -21 -14 -64 -77 -52 -77 3 0 35 29 71
64 72 71 108 92 175 102 24 3 88 17 141 30 53 13 108 24 122 24 14 0 28 5 31
10 3 6 22 10 41 10 21 0 37 6 40 15 4 8 10 12 15 9 6 -3 16 0 24 6 8 6 19 9
25 5 5 -3 20 1 32 9 12 9 33 16 46 16 14 0 21 4 17 10 -13 20 4 40 34 40 23 0
31 -6 40 -30z m-1820 -55 c103 -30 126 -34 139 -23 9 7 5 -1 -8 -19 -27 -34
-40 -41 -40 -20 0 16 -225 91 -241 81 -8 -4 -9 -3 -5 4 10 17 18 16 155 -23z
m269 -23 c15 -15 32 -35 37 -45 6 -10 31 -20 65 -26 42 -7 47 -9 21 -10 -18 0
-49 -10 -67 -22 -29 -17 -34 -18 -34 -5 0 9 -7 34 -17 57 -17 44 -66 75 -99
62 -12 -4 -15 -3 -10 5 14 23 76 14 104 -16z m1652 -20 c-6 -2 -19 3 -29 12
-10 9 -21 13 -26 9 -4 -5 -5 -2 -1 5 6 10 14 8 37 -5 16 -10 25 -19 19 -21z
m-1717 -41 c-4 -35 -9 -49 -16 -42 -7 7 -6 25 3 56 7 25 14 44 16 42 2 -2 1
-27 -3 -56z m-378 9 c3 -5 1 -10 -4 -10 -6 0 -11 5 -11 10 0 6 2 10 4 10 3 0
8 -4 11 -10z m155 -43 c104 -42 104 -42 117 -86 15 -54 37 -78 77 -90 23 -7
25 -9 10 -10 -31 -1 -74 36 -93 81 -14 35 -27 44 -126 92 -60 30 -105 55 -100
55 6 0 57 -19 115 -42z m508 6 c-10 -2 -28 -2 -40 0 -13 2 -5 4 17 4 22 1 32
-1 23 -4z m70 -10 c-10 -2 -26 -2 -35 0 -10 3 -2 5 17 5 19 0 27 -2 18 -5z
m984 -10 c20 -18 24 -33 8 -33 -5 0 -10 7 -10 15 0 8 -4 15 -10 15 -5 0 -7 -7
-4 -15 4 -10 0 -15 -15 -15 -14 0 -21 6 -21 18 0 35 23 42 52 15z m-904 0
c-10 -2 -26 -2 -35 0 -10 3 -2 5 17 5 19 0 27 -2 18 -5z m1182 3 c0 -2 -8 -10
-17 -17 -16 -13 -17 -12 -4 4 13 16 21 21 21 13z m-1097 -13 c-7 -2 -21 -2
-30 0 -10 3 -4 5 12 5 17 0 24 -2 18 -5z m-487 -58 l38 -50 -53 44 c-37 31
-49 46 -39 52 7 4 13 7 14 6 1 -1 19 -24 40 -52z m567 48 c-7 -2 -19 -2 -25 0
-7 3 -2 5 12 5 14 0 19 -2 13 -5z m972 -65 c-11 -49 -14 -53 -71 -84 -78 -42
-104 -71 -104 -111 0 -17 -4 -34 -9 -37 -4 -3 -11 -32 -15 -63 -9 -79 -15 -87
-64 -79 -22 3 -174 -5 -339 -19 -356 -30 -403 -35 -403 -45 0 -4 20 -18 44
-30 54 -29 80 -73 72 -124 -3 -20 -3 -36 2 -36 24 0 84 23 98 38 23 22 34 22
63 0 33 -25 78 -35 211 -47 230 -21 330 -12 377 35 33 33 42 22 18 -22 -25
-46 -89 -101 -132 -113 -46 -13 -605 25 -656 45 -8 3 -54 50 -101 104 -123
140 -173 173 -298 200 -43 10 -58 18 -62 34 -3 11 -1 25 4 30 28 28 -7 106
-47 106 -14 0 -55 5 -90 11 -65 11 -78 29 -18 27 19 -1 33 -4 31 -7 -2 -3 94
-6 214 -5 l219 1 63 31 c35 17 74 42 86 55 l22 24 53 -26 c46 -23 63 -26 147
-24 114 1 424 45 509 72 68 21 137 59 165 90 11 12 20 21 21 21 1 0 -3 -23
-10 -52z m-582 16 c11 -12 -13 -44 -33 -44 -20 0 -28 29 -13 43 8 9 38 9 46 1z
m-847 -19 c-18 -14 -14 -15 45 -16 74 -1 62 -6 -30 -12 l-64 -3 27 23 c15 13
30 23 34 23 4 0 -2 -7 -12 -15z m1211 -21 c-3 -3 -12 -4 -19 -1 -8 3 -5 6 6 6
11 1 17 -2 13 -5z m-999 -11 c-15 -2 -42 -2 -60 0 -18 2 -6 4 27 4 33 0 48 -2
33 -4z m135 -10 c-13 -2 -33 -2 -45 0 -13 2 -3 4 22 4 25 0 35 -2 23 -4z
m1230 -37 c9 -7 17 -17 17 -21 0 -4 -7 -2 -15 5 -8 6 -19 9 -24 6 -6 -4 -19
-1 -30 6 -15 9 -28 9 -57 0 -43 -13 -60 -8 -23 7 35 14 111 12 132 -3z m-1796
-208 c-3 -8 -6 -5 -6 6 -1 11 2 17 5 13 3 -3 4 -12 1 -19z m-36 -25 c-12 -20
-14 -14 -5 12 4 9 9 14 11 11 3 -2 0 -13 -6 -23z m78 -1 c-15 -6 -10 -22 6
-22 8 0 15 7 15 16 0 8 5 12 10 9 6 -3 10 -1 10 4 0 6 12 10 28 10 23 -2 24
-2 5 -6 -27 -5 -31 -23 -5 -24 14 0 14 -2 -3 -9 -19 -8 -19 -8 5 -18 14 -6 20
-11 13 -11 -23 -2 -43 11 -44 28 0 15 -1 15 -7 0 -11 -27 -52 -6 -52 26 0 22
2 24 14 13 8 -7 10 -14 5 -16z m-425 -102 c-22 -9 -29 -6 -20 9 4 6 14 7 23 4
15 -6 14 -7 -3 -13z m2086 -270 c-33 -23 -50 -30 -50 -22 0 5 10 14 23 20 28
14 47 15 27 2z m-59 -43 c-1 -12 -15 -9 -19 4 -3 6 1 10 8 8 6 -3 11 -8 11
-12z"/>
<path d="M421 1753 c-1 -23 29 -107 35 -101 2 2 -5 31 -16 63 -10 33 -19 50
-19 38z"/>
<path d="M1021 1723 c-7 -8 -24 -13 -37 -10 -13 2 -21 0 -18 -4 3 -5 15 -9 28
-9 26 0 63 24 50 32 -5 3 -15 -1 -23 -9z"/>
<path d="M608 1683 c6 -2 18 -2 25 0 6 3 1 5 -13 5 -14 0 -19 -2 -12 -5z"/>
<path d="M673 1673 c9 -2 23 -2 30 0 6 3 -1 5 -18 5 -16 0 -22 -2 -12 -5z"/>
<path d="M733 1663 c9 -2 25 -2 35 0 9 3 1 5 -18 5 -19 0 -27 -2 -17 -5z"/>
<path d="M803 1653 c9 -2 23 -2 30 0 6 3 -1 5 -18 5 -16 0 -22 -2 -12 -5z"/>
<path d="M868 1643 c6 -2 18 -2 25 0 6 3 1 5 -13 5 -14 0 -19 -2 -12 -5z"/>
<path d="M928 1633 c6 -2 18 -2 25 0 6 3 1 5 -13 5 -14 0 -19 -2 -12 -5z"/>
<path d="M995 1620 c17 -4 41 -8 55 -8 22 0 22 1 -5 8 -16 4 -41 8 -55 8 -22
0 -22 -1 5 -8z"/>
<path d="M392 1570 c0 -14 2 -19 5 -12 2 6 2 18 0 25 -3 6 -5 1 -5 -13z"/>
<path d="M290 1205 c7 -9 17 -39 21 -67 6 -38 17 -60 39 -83 26 -25 32 -28 40
-15 24 37 11 72 -45 127 -53 50 -82 71 -55 38z"/>
<path d="M2575 1445 c11 -9 29 -21 40 -26 l20 -10 -20 16 c-11 9 -29 21 -40
26 l-20 10 20 -16z"/>
<path d="M1905 1396 c-23 -7 -50 -18 -60 -25 -20 -12 -20 -12 0 -7 11 3 38 9
61 14 22 5 49 14 60 20 19 11 19 11 -1 11 -11 0 -38 -6 -60 -13z"/>
</g>
</svg>
