<?xml version="1.0" standalone="no"?>
<!DOCTYPE svg PUBLIC "-//W3C//DTD SVG 20010904//EN"
 "http://www.w3.org/TR/2001/REC-SVG-20010904/DTD/svg10.dtd">
<svg version="1.0" xmlns="http://www.w3.org/2000/svg"
 width="354.000000pt" height="236.000000pt" viewBox="0 0 354.000000 236.000000"
 preserveAspectRatio="xMidYMid meet">

<g transform="translate(0.000000,236.000000) scale(0.100000,-0.100000)"
fill="#000000" stroke="none">
<path d="M0 1180 l0 -1180 1770 0 1770 0 0 1180 0 1180 -1770 0 -1770 0 0
-1180z m2800 843 c121 -24 198 -74 351 -223 42 -41 95 -90 117 -108 23 -18 42
-37 42 -42 0 -6 14 -32 30 -58 38 -61 38 -91 2 -126 -26 -24 -30 -25 -42 -11
-18 22 -37 19 -62 -10 -16 -18 -24 -22 -29 -13 -6 10 -42 4 -151 -25 -79 -20
-258 -67 -398 -103 -140 -37 -268 -73 -283 -81 -27 -13 -30 -12 -63 16 -20 18
-46 31 -62 31 -21 0 -24 2 -12 10 13 9 10 15 -19 40 l-33 28 69 21 c77 23 96
26 73 11 -30 -20 11 -31 90 -26 64 5 622 101 703 121 56 15 39 26 -29 21 -38
-4 -100 -8 -139 -11 -87 -5 -265 -30 -368 -51 -90 -18 -119 -13 -62 10 22 9
49 22 60 28 53 31 165 86 165 81 0 -3 9 4 20 17 26 30 25 46 -1 53 -12 3 -18
10 -14 17 5 7 11 8 19 1 8 -7 29 -6 67 4 29 8 109 20 176 26 l122 12 -14 27
c-8 15 -32 50 -55 79 -22 28 -39 55 -36 60 3 5 -4 17 -16 27 -12 11 -18 13
-14 7 13 -23 -10 -14 -35 14 -13 14 -18 23 -10 18 10 -5 12 -4 7 4 -8 12 -100
61 -113 61 -4 -1 13 -12 40 -26 26 -13 47 -26 47 -28 0 -2 -27 7 -61 21 -123
50 -273 38 -318 -26 -11 -15 -32 -71 -47 -124 -15 -53 -29 -95 -32 -93 -7 7
50 193 68 224 31 50 79 65 192 60 54 -3 97 -4 95 -2 -2 3 -85 18 -187 34 -31
5 -36 8 -17 9 16 0 26 5 22 10 -6 11 36 7 145 -16z m-1208 -150 c-11 -16 -38
-65 -60 -110 -34 -67 -46 -82 -69 -87 -90 -17 -235 -37 -239 -33 -4 4 62 62
144 126 66 51 203 131 224 131 19 0 19 -1 0 -27z m175 -10 c-32 -18 -38 -16
-26 11 10 21 14 23 30 13 18 -11 18 -12 -4 -24z m561 27 c103 0 116 -10 49
-39 -23 -10 -48 -25 -54 -32 -9 -11 -26 -13 -63 -9 -47 5 -52 8 -77 49 l-26
44 39 -6 c21 -4 81 -7 132 -7z m262 -18 c0 -4 -9 -13 -19 -19 -20 -13 -24 -1
-8 25 8 12 27 8 27 -6z m360 -87 c10 -12 10 -15 -4 -15 -9 0 -16 7 -16 15 0 8
2 15 4 15 2 0 9 -7 16 -15z m-1014 -43 c-11 -10 -15 4 -8 28 l7 25 3 -23 c2
-13 1 -26 -2 -30z m-853 1 c-7 -2 -13 -22 -13 -43 0 -37 -1 -38 -38 -42 -32
-3 -38 0 -38 16 0 27 50 76 78 75 12 0 17 -3 11 -6z m619 -18 c4 -17 1 -25 -8
-25 -14 0 -19 31 -7 43 9 10 10 9 15 -18z m1015 -81 c-3 -3 -12 -4 -19 -1 -8
3 -5 6 6 6 11 1 17 -2 13 -5z m-77 -14 c-25 -4 -60 -11 -77 -15 -21 -5 -33 -4
-33 3 0 13 35 19 105 19 l50 0 -45 -7z m-1605 -10 c3 -5 17 -10 31 -10 14 0
23 -4 19 -9 -3 -6 9 -12 27 -15 18 -3 81 -12 140 -21 58 -9 115 -15 125 -12
16 4 16 5 -2 6 -11 0 -26 11 -34 22 l-13 22 127 -5 c104 -5 130 -9 147 -24 17
-16 48 -21 194 -29 190 -12 219 -21 174 -55 -14 -11 -47 -29 -75 -39 -27 -11
-79 -32 -114 -47 -63 -25 -65 -26 -100 -9 -55 26 -334 40 -663 33 -26 -1 -53
4 -60 9 -9 7 -48 6 -123 -3 -60 -7 -121 -10 -133 -7 -21 5 -23 10 -18 37 4 17
7 36 8 43 1 12 45 29 228 91 99 34 107 35 115 22z m1530 -70 c-27 -12 -43 -12
-25 0 8 5 22 9 30 9 10 0 8 -3 -5 -9z m-2016 -108 c-50 -32 -109 -95 -109
-117 0 -12 34 -15 203 -17 186 -3 202 -4 199 -20 -4 -23 36 -25 45 -2 7 19 36
17 348 -17 122 -13 184 -24 194 -34 23 -23 -1 -86 -44 -116 -19 -14 -57 -55
-84 -91 -72 -95 -89 -100 -331 -103 l-195 -3 175 8 c262 11 287 23 384 185 54
89 52 95 -41 95 -43 0 -130 4 -193 9 -63 6 -173 12 -245 16 -71 3 -195 10
-275 15 -108 6 -147 5 -153 -3 -14 -20 0 -155 20 -194 25 -51 59 -68 198 -97
66 -14 110 -25 97 -25 -31 -1 -209 38 -254 56 -47 19 -68 62 -75 159 -3 41
-10 74 -14 74 -5 0 -9 14 -9 31 0 17 4 28 10 24 12 -8 13 -3 0 29 -6 16 -6 26
0 26 14 0 42 58 31 64 -5 4 -17 3 -28 -1 -10 -3 -15 -3 -11 2 10 10 170 75
187 75 8 0 -5 -13 -30 -28z m1926 -21 c-11 -9 -96 -31 -117 -30 -7 0 5 9 27
19 41 19 107 27 90 11z m-2117 -88 c0 -27 -1 -42 -4 -35 -3 6 -11 9 -16 5 -8
-4 -9 2 -4 18 4 13 9 31 11 39 5 21 5 20 8 20 2 0 4 -21 5 -47z m-28 23 c0 -2
-8 -10 -17 -17 -16 -13 -17 -12 -4 4 13 16 21 21 21 13z m53 -59 c3 -8 1 -20
-4 -28 -6 -10 -9 -7 -9 14 0 29 5 35 13 14z m-96 -29 c-3 -7 -5 -2 -5 12 0 14
2 19 5 13 2 -7 2 -19 0 -25z m1683 -13 c0 -2 -14 -25 -32 -50 -23 -32 -34 -41
-40 -32 -9 16 1 59 12 52 4 -3 10 4 13 15 4 17 47 31 47 15z m-1666 -41 c3 -8
2 -12 -4 -9 -6 3 -10 10 -10 16 0 14 7 11 14 -7z m1386 -4 c-34 -11 -60 -11
-35 0 11 5 29 8 40 8 16 0 15 -2 -5 -8z m-1067 -17 c-7 -2 -19 -2 -25 0 -7 3
-2 5 12 5 14 0 19 -2 13 -5z m1468 -19 c14 -4 12 -12 -10 -57 -15 -28 -37 -76
-49 -106 -19 -45 -25 -53 -43 -48 -12 3 -29 2 -38 -3 -9 -5 -44 -19 -78 -32
-59 -22 -80 -38 -49 -38 23 0 55 -33 62 -65 l7 -30 -26 28 c-23 23 -34 27 -84
27 -32 0 -116 -9 -188 -20 -164 -25 -182 -25 -165 -5 11 13 2 15 -71 15 -45 0
-97 -5 -116 -12 -40 -15 -51 -6 -33 27 7 14 10 28 6 32 -4 5 -94 7 -199 7
l-192 -2 160 9 c88 4 183 13 211 19 67 14 117 57 189 164 37 55 62 83 71 79 8
-3 14 -8 14 -11 0 -3 -25 -38 -55 -78 -30 -40 -55 -76 -55 -79 0 -3 6 -5 14
-5 22 0 27 -16 14 -45 -8 -17 -8 -29 -1 -36 12 -12 383 80 450 112 55 27 124
94 143 139 12 30 15 31 54 25 23 -4 48 -8 57 -11z m-1851 -54 c-17 -32 -22
-18 -8 21 8 22 13 28 16 17 2 -9 -2 -27 -8 -38z m191 -124 c0 -25 -6 -29 -29
-22 -11 4 -25 21 -31 38 -15 43 -14 48 10 48 18 0 20 4 14 48 -5 42 -3 40 15
-23 12 -38 21 -78 21 -89z m2839 120 c0 -8 3 -22 6 -31 5 -11 -2 -9 -20 8 -31
29 -33 37 -6 37 11 0 20 -6 20 -14z m-2083 -13 c-20 -2 -52 -2 -70 0 -17 2 0
4 38 4 39 0 53 -2 32 -4z m560 1 c-3 -3 -12 -4 -19 -1 -8 3 -5 6 6 6 11 1 17
-2 13 -5z m1563 -34 c0 -22 -3 -40 -8 -40 -4 0 -6 18 -4 40 2 22 6 40 8 40 2
0 4 -18 4 -40z m-1823 12 c-10 -10 -17 -23 -17 -28 0 -12 -40 -37 -48 -30 -3
3 0 6 6 6 7 0 12 8 12 17 0 9 3 13 6 10 4 -3 15 5 26 18 11 14 22 25 25 25 3
0 -1 -8 -10 -18z m188 4 c-62 -20 -101 -28 -93 -21 8 8 97 33 118 33 8 0 -3
-6 -25 -12z m1575 -21 c7 -9 8 -15 2 -15 -5 0 -12 7 -16 15 -3 8 -4 15 -2 15
2 0 9 -7 16 -15z m-1705 -35 c-16 -16 -34 -30 -39 -30 -10 1 53 60 63 60 3 0
-8 -13 -24 -30z m100 10 c-3 -5 -11 -10 -16 -10 -6 0 -7 5 -4 10 3 6 11 10 16
10 6 0 7 -4 4 -10z m-838 -42 c-3 -8 -6 -5 -6 6 -1 11 2 17 5 13 3 -3 4 -12 1
-19z m2173 -33 c-104 -35 -380 -142 -545 -210 -35 -15 -38 -15 -25 -1 20 20
352 166 455 199 204 67 302 77 115 12z m-1853 29 c-3 -3 -12 -4 -19 -1 -8 3
-5 6 6 6 11 1 17 -2 13 -5z m-906 -41 c13 -16 12 -17 -3 -4 -10 7 -18 15 -18
17 0 8 8 3 21 -13z m223 -25 c19 -38 19 -38 2 -38 -23 0 -66 40 -59 55 9 26
41 17 57 -17z m2826 12 c0 -5 -5 -10 -11 -10 -5 0 -7 5 -4 10 3 6 8 10 11 10
2 0 4 -4 4 -10z m-2483 -36 c-3 -3 -12 -4 -19 -1 -8 3 -5 6 6 6 11 1 17 -2 13
-5z m1393 -54 c0 -5 -5 -10 -11 -10 -5 0 -7 5 -4 10 3 6 8 10 11 10 2 0 4 -4
4 -10z m-1936 -16 c3 -8 2 -12 -4 -9 -6 3 -10 10 -10 16 0 14 7 11 14 -7z
m1996 -43 c0 -10 7 -35 16 -56 8 -20 13 -39 11 -42 -3 -2 -10 11 -16 29 -6 18
-22 41 -34 50 -16 13 -18 18 -7 18 13 0 13 1 0 10 -12 8 -11 10 8 10 15 0 22
-6 22 -19z m-1970 -55 c5 -5 26 -12 47 -16 33 -7 29 -8 -29 -9 -37 0 -69 3
-72 8 -3 5 4 21 17 37 20 26 22 26 25 9 2 -11 8 -24 12 -29z m1205 38 c11 -3
28 -17 38 -30 19 -25 19 -25 -5 -32 -20 -5 -18 -8 27 -28 l50 -22 -45 -21
c-57 -26 -72 -26 -101 0 l-24 20 30 -18 c29 -17 28 -16 -10 30 -22 26 -50 55
-62 63 -41 26 -25 41 47 43 19 0 44 -2 55 -5z m746 -76 c11 -22 18 -43 15 -46
-3 -3 -6 0 -6 6 0 6 -11 23 -25 38 -14 15 -25 33 -25 41 0 23 19 5 41 -39z
m-341 33 c0 -15 -27 -19 -155 -25 l-120 -5 100 10 c55 6 114 14 130 19 41 11
45 11 45 1z m-1453 -27 c-3 -3 -12 -4 -19 -1 -8 3 -5 6 6 6 11 1 17 -2 13 -5z
m1483 -84 c0 -5 -19 -10 -42 -9 -37 1 -39 2 -18 9 36 12 60 12 60 0z m-523 -6
c-3 -3 -12 -4 -19 -1 -8 3 -5 6 6 6 11 1 17 -2 13 -5z m56 -11 c-7 -2 -19 -2
-25 0 -7 3 -2 5 12 5 14 0 19 -2 13 -5z m360 0 c-7 -2 -19 -2 -25 0 -7 3 -2 5
12 5 14 0 19 -2 13 -5z m397 -57 c0 -11 -19 -15 -25 -6 -3 5 1 10 9 10 9 0 16
-2 16 -4z"/>
<path d="M3194 1640 c18 -26 26 -51 29 -95 l3 -60 2 62 c2 58 -1 65 -29 95
l-31 33 26 -35z"/>
<path d="M2958 1647 c-38 -5 -68 -13 -68 -17 0 -11 31 -9 94 7 32 8 65 12 72
9 7 -3 16 -1 19 4 7 12 -25 11 -117 -3z"/>
<path d="M2823 1623 c-13 -2 -23 -8 -23 -12 0 -5 11 -6 24 -4 21 4 28 -2 51
-43 25 -48 25 -23 -1 27 -7 15 -10 29 -7 33 7 6 -7 6 -44 -1z"/>
<path d="M3133 1597 c4 -10 7 -21 7 -23 0 -2 11 -4 25 -4 16 0 25 6 25 16 0
11 -5 14 -16 10 -9 -4 -24 -1 -32 6 -13 11 -15 10 -9 -5z"/>
<path d="M2781 1556 c-25 -30 24 -74 62 -54 25 13 21 28 -8 28 -14 0 -25 5
-25 10 0 6 6 10 13 10 8 0 7 4 -3 10 -20 13 -26 12 -39 -4z"/>
<path d="M1418 1553 c12 -2 30 -2 40 0 9 3 -1 5 -23 4 -22 0 -30 -2 -17 -4z"/>
<path d="M1338 1233 c7 -3 16 -2 19 1 4 3 -2 6 -13 5 -11 0 -14 -3 -6 -6z"/>
<path d="M1400 1194 c0 -8 5 -12 10 -9 6 4 8 11 5 16 -9 14 -15 11 -15 -7z"/>
<path d="M1930 1239 c0 -5 5 -7 10 -4 6 3 10 8 10 11 0 2 -4 4 -10 4 -5 0 -10
-5 -10 -11z"/>
<path d="M1527 874 c-8 -8 1 -24 14 -24 5 0 9 7 9 15 0 15 -12 20 -23 9z"/>
</g>
</svg>
