<?xml version="1.0" standalone="no"?>
<!DOCTYPE svg PUBLIC "-//W3C//DTD SVG 20010904//EN"
 "http://www.w3.org/TR/2001/REC-SVG-20010904/DTD/svg10.dtd">
<svg version="1.0" xmlns="http://www.w3.org/2000/svg"
 width="540.000000pt" height="348.000000pt" viewBox="0 0 540.000000 348.000000"
 preserveAspectRatio="xMidYMid meet">
<metadata>
Created by potrace 1.15, written by Peter Selinger 2001-2017
</metadata>
<g transform="translate(0.000000,348.000000) scale(0.100000,-0.100000)"
fill="#000000" stroke="none">
<path d="M3229 2999 c-272 -3 -512 -9 -534 -12 -22 -4 -80 -12 -130 -18 -147
-19 -264 -67 -430 -177 -22 -15 -42 -29 -45 -32 -3 -3 -25 -19 -50 -35 -25
-17 -50 -34 -56 -40 -6 -5 -22 -17 -34 -25 -13 -8 -62 -47 -109 -86 -81 -66
-87 -69 -86 -45 0 41 -36 34 -58 -12 -25 -50 -18 -63 18 -36 17 12 8 1 -19
-26 -28 -28 -51 -43 -55 -37 -9 14 -61 27 -61 14 0 -16 28 -34 41 -26 7 4 9 3
6 -3 -7 -12 42 -33 74 -33 11 0 18 -6 17 -12 -2 -8 19 -15 62 -21 36 -4 99
-14 140 -22 42 -8 82 -15 90 -15 35 1 -18 18 -89 29 -146 23 -110 30 149 30
235 1 476 -10 870 -40 85 -6 247 -9 360 -7 195 4 207 6 247 29 23 13 47 33 52
44 16 31 55 162 105 349 27 103 52 177 64 188 10 10 44 29 75 42 l56 23 -88 9
c-50 5 -303 6 -582 3z m-784 -209 c3 -6 -17 -48 -45 -95 -28 -46 -65 -115 -82
-152 -17 -37 -35 -71 -41 -75 -5 -3 -46 -11 -91 -18 -45 -6 -132 -20 -195 -31
-62 -10 -115 -19 -117 -19 -32 0 164 169 303 262 103 69 227 138 249 138 7 0
16 -5 19 -10z m1173 -15 c3 -2 2 -14 -1 -27 -5 -17 -19 -27 -54 -38 -26 -7
-61 -27 -77 -42 -28 -28 -31 -29 -95 -22 -36 3 -71 11 -78 16 -12 10 -73 113
-73 124 0 6 372 -4 378 -11z"/>
<path d="M4013 2893 c-24 -2 -43 -6 -43 -9 0 -5 26 -67 50 -119 29 -62 101
-296 94 -306 -2 -5 1 -17 8 -29 10 -16 19 -19 48 -14 70 13 70 14 46 101 -12
43 -37 110 -55 148 -18 39 -42 90 -53 115 -11 25 -26 58 -34 73 -8 16 -12 33
-8 38 3 5 2 8 -3 7 -4 -1 -27 -3 -50 -5z"/>
<path d="M4130 2881 c0 -4 22 -11 49 -14 52 -6 152 -55 187 -90 23 -24 81
-155 110 -249 10 -32 24 -58 31 -58 7 0 13 4 13 10 0 14 -59 201 -71 225 -16
33 67 -62 105 -119 19 -29 38 -64 41 -79 7 -28 30 -43 41 -26 10 17 -98 168
-178 247 -74 74 -128 106 -237 143 -61 20 -91 24 -91 10z"/>
<path d="M3744 2576 c-3 -23 -10 -45 -14 -51 -4 -5 -15 -38 -25 -72 -11 -35
-23 -63 -28 -63 -5 0 -7 10 -4 23 24 95 37 164 34 177 -2 8 -7 -9 -11 -37 -4
-29 -11 -55 -16 -58 -6 -4 -19 -61 -24 -107 -1 -3 -4 -9 -8 -13 -11 -12 3 -99
18 -111 20 -16 17 -34 -5 -34 -13 0 -18 -7 -18 -24 0 -15 4 -23 12 -20 7 3 15
-5 19 -19 7 -28 36 -45 36 -22 0 10 10 15 29 15 20 0 36 9 50 26 26 33 26 42
0 70 -34 36 -17 44 94 44 139 0 202 9 227 32 23 21 27 53 6 45 -8 -3 -88 -9
-179 -13 l-166 -7 -7 29 c-5 18 -3 29 4 32 7 2 12 10 12 19 0 27 32 83 47 83
10 0 13 6 9 16 -3 8 -2 13 3 9 12 -7 18 14 13 42 -3 15 -12 23 -26 24 -11 1
-33 2 -48 3 -24 3 -27 -1 -34 -38z"/>
<path d="M4978 2129 c-9 -20 -21 -40 -27 -43 -6 -4 -11 -24 -12 -44 0 -20 -3
-30 -6 -22 -26 78 -53 110 -93 110 -32 0 -63 -34 -100 -110 -12 -25 -25 -52
-30 -61 -5 -9 -11 -37 -15 -63 -4 -25 -11 -49 -16 -52 -5 -3 -9 -16 -9 -29 0
-59 -18 -74 -186 -156 -88 -43 -166 -79 -173 -79 -6 0 -19 -4 -29 -10 -20 -11
-141 -59 -257 -100 -44 -16 -125 -45 -180 -66 -55 -20 -107 -38 -115 -39 -8
-1 -22 -5 -30 -8 -91 -33 -110 -34 -110 -3 0 37 26 88 62 124 39 37 48 34 48
-17 0 -27 3 -32 10 -21 5 8 10 32 10 53 0 23 5 37 13 37 24 1 57 37 50 57 -11
29 -27 34 -34 10 -4 -14 -9 5 -16 53 l-10 75 -8 -62 c-7 -57 -10 -63 -31 -64
-33 -2 -35 -3 -71 -22 -27 -14 -33 -24 -33 -50 -1 -51 -17 -12 -25 60 -9 81
-67 199 -114 230 -61 41 -135 28 -195 -36 -17 -17 -35 -31 -41 -31 -6 0 -16
-12 -22 -27 -6 -16 -23 -48 -37 -73 -49 -88 -78 -166 -105 -280 -11 -47 -27
-117 -37 -157 -16 -72 -26 -84 -60 -79 -18 3 -20 6 -47 66 -15 34 -15 33 -10
-49 5 -63 3 -82 -5 -77 -7 4 -12 18 -12 31 0 13 -4 27 -10 30 -5 3 -10 13 -10
22 0 30 -34 86 -64 104 -40 25 -70 24 -277 -6 -426 -62 -518 -68 -587 -39 -20
8 -70 18 -110 21 -57 5 -70 9 -62 19 8 9 7 15 -2 21 -7 4 -121 8 -253 9 -231
0 -245 2 -384 32 -79 18 -168 32 -197 32 -48 0 -52 -2 -47 -21 5 -18 3 -20
-16 -14 -12 3 -46 7 -75 8 -33 1 -52 5 -50 12 2 5 -10 16 -28 23 -55 22 -158
74 -159 81 -3 29 -11 45 -38 78 -17 21 -37 56 -45 78 l-15 40 -1 -40 c-1 -22
-7 -60 -13 -85 l-12 -44 43 -40 c48 -44 49 -60 3 -26 -35 24 -36 22 -17 -40
31 -99 64 -143 103 -137 12 2 20 0 17 -4 -7 -12 -51 -11 -59 1 -3 6 -11 10
-16 10 -10 0 -2 -40 10 -50 3 -3 12 -16 19 -30 17 -34 50 -46 152 -60 47 -7
119 -18 160 -26 41 -7 118 -18 170 -24 52 -6 118 -15 145 -20 98 -19 415 -39
716 -46 l306 -7 7 29 c8 31 -1 42 -98 121 -22 18 -37 35 -34 39 13 12 85 24
155 24 71 0 72 0 112 -43 23 -23 39 -48 36 -55 -4 -11 13 -13 92 -7 194 12
329 27 365 40 32 11 38 10 43 -3 3 -8 2 -19 -2 -22 -12 -11 -235 -30 -345 -30
-52 0 -98 -3 -102 -7 -4 -4 3 -15 15 -24 21 -16 21 -16 -30 -48 -31 -19 -49
-36 -45 -43 10 -15 270 -4 359 16 119 27 155 38 155 47 0 18 18 8 23 -12 3
-11 11 -19 19 -18 31 4 78 -2 78 -10 0 -23 -182 -42 -530 -57 -141 -5 -168 -4
-300 21 -126 23 -186 28 -455 36 -395 11 -569 27 -800 74 -110 23 -265 38
-327 31 -32 -3 -69 -1 -83 4 -39 15 -29 -4 16 -29 32 -18 55 -23 115 -23 58 1
74 -3 74 -14 0 -8 8 -14 18 -14 9 0 37 -14 62 -30 82 -54 81 -53 10 -73 -103
-30 -150 -49 -150 -61 0 -24 18 -34 110 -64 107 -35 159 -44 315 -57 44 -3 91
-8 105 -10 46 -6 154 -14 265 -20 61 -3 133 -8 160 -10 28 -2 106 -7 175 -10
69 -3 178 -8 243 -11 159 -8 791 -7 885 1 326 28 364 34 415 59 85 42 493 215
867 368 446 182 492 199 567 212 75 13 80 16 124 65 l46 51 17 133 c31 230 30
222 47 219 14 -2 18 11 24 80 3 46 11 98 16 116 16 51 5 59 -21 16 -23 -37
-25 -38 -28 -14 -1 14 1 50 6 80 9 55 9 55 22 28 7 -16 17 -28 22 -28 10 0 9
75 -1 110 -8 25 -8 24 -23 -11z m-344 -574 c8 -43 4 -52 -33 -60 -70 -15 -313
-99 -491 -169 -336 -133 -375 -149 -390 -156 -51 -25 -99 -42 -136 -49 l-42
-8 10 28 c5 16 8 34 6 41 -6 17 14 36 46 44 14 3 29 10 32 15 3 5 13 9 22 9 9
1 35 9 57 20 22 11 48 19 57 20 9 0 20 5 23 11 4 6 13 8 20 5 8 -3 15 -1 17 4
2 4 21 11 43 14 28 4 32 3 15 -2 -24 -8 -24 -9 -4 -15 19 -7 35 -2 149 48 30
12 231 86 332 120 32 12 49 23 46 31 -3 7 8 15 27 19 17 4 43 13 58 21 15 8
34 14 43 14 8 0 19 4 25 9 8 8 28 15 55 20 4 0 10 -15 13 -34z m-1184 -345
c21 -27 20 -34 -16 -208 -8 -38 -24 -21 -50 53 -22 66 -59 114 -95 127 -27 10
5 43 42 43 33 0 34 -2 35 -38 2 -59 21 -68 26 -12 2 33 -1 49 -11 55 -10 5 -3
7 18 6 22 -1 39 -10 51 -26z m-125 -137 c20 -43 42 -88 48 -100 6 -13 17 -23
24 -23 10 0 12 -7 7 -22 -13 -43 -10 -46 -57 55 -20 42 -40 77 -45 77 -9 0
-68 -186 -65 -209 0 -7 -3 -9 -7 -5 -5 5 2 50 15 99 25 91 32 160 17 169 -4 3
-13 -19 -19 -47 -6 -29 -19 -79 -28 -112 -15 -50 -19 -56 -26 -38 -4 12 -4 37
2 56 5 19 11 61 13 93 3 50 8 61 28 71 44 24 54 16 93 -64z"/>
<path d="M2775 1934 c-66 -8 -131 -18 -145 -23 -14 -6 -45 -13 -70 -16 -25 -3
-54 -10 -65 -15 -11 -5 -42 -14 -70 -19 -27 -5 -77 -17 -110 -27 -33 -9 -70
-17 -82 -18 -14 0 -23 -7 -23 -18 0 -17 18 -15 73 7 43 18 5 -56 -102 -197
-45 -59 -81 -112 -81 -117 0 -13 113 -24 190 -18 99 8 313 50 335 67 6 4 27
11 49 14 21 4 46 11 55 16 9 5 42 21 75 35 57 25 166 122 166 147 0 6 -16 -5
-37 -25 -40 -41 -60 -48 -43 -17 13 25 9 25 -33 1 -31 -17 -84 -35 -232 -78
-38 -11 -70 -28 -88 -46 -30 -32 -30 -44 0 -29 41 22 71 32 128 43 33 6 82 22
108 36 27 13 54 22 60 20 7 -2 -7 -14 -30 -26 -24 -12 -43 -19 -43 -15 0 4 -6
2 -12 -3 -30 -24 -353 -111 -365 -99 -2 2 8 15 21 29 43 46 -2 33 -51 -15 -30
-29 -46 -39 -53 -32 -8 8 3 22 34 47 24 21 49 37 54 37 6 0 12 4 14 9 3 9 130
48 178 56 34 5 135 32 192 51 42 14 50 21 73 69 14 30 25 62 25 72 0 18 25 29
113 49 45 10 34 27 -33 51 -19 7 -39 12 -45 12 -5 -1 -64 -8 -130 -15z m160
-43 c-3 -6 -16 -11 -28 -11 -53 0 -446 -111 -490 -139 -18 -11 -63 -60 -102
-109 -38 -50 -79 -95 -90 -100 -29 -15 -75 -24 -75 -14 0 5 39 49 88 98 48 49
87 95 88 102 1 6 2 24 3 38 1 23 5 25 35 23 19 -2 41 3 49 10 9 7 25 10 37 6
15 -5 20 -2 20 10 0 13 6 16 25 13 14 -3 25 -1 25 5 0 5 9 7 20 4 13 -3 20 0
20 9 0 16 16 19 25 3 5 -7 12 -6 23 4 10 7 30 14 46 15 17 1 33 7 37 14 6 9
11 9 23 -1 13 -11 19 -11 31 -1 8 7 21 10 29 7 8 -3 19 0 25 6 12 15 146 23
136 8z"/>
<path d="M4542 1914 c-23 -12 -44 -23 -45 -23 -9 1 -157 -75 -158 -80 0 -3 -2
-13 -4 -23 -4 -20 31 -18 86 6 20 8 39 12 43 9 3 -4 6 -1 6 5 0 7 7 12 15 12
29 0 102 41 113 63 29 56 10 67 -56 31z"/>
<path d="M672 1847 c-7 -18 -12 -59 -12 -90 0 -31 -4 -57 -10 -57 -5 0 -10 -9
-10 -20 0 -11 5 -20 10 -20 6 0 10 5 10 10 0 6 5 10 10 10 12 0 13 -50 1 -69
-10 -15 -55 -8 -79 11 -17 15 -50 92 -57 136 -10 60 -17 71 -25 37 -15 -61
-11 -100 15 -136 32 -42 98 -79 144 -79 l34 0 -9 73 c-5 39 -9 107 -9 150 0
42 0 77 0 77 -1 0 -6 -15 -13 -33z"/>
<path d="M751 1842 c-15 -29 -14 -100 5 -190 17 -84 32 -113 69 -138 53 -35
305 -89 512 -110 83 -8 424 14 490 32 29 8 69 28 88 45 65 57 175 230 175 275
0 25 -6 26 -370 49 -129 8 -263 17 -297 20 -55 5 -63 4 -72 -14 -6 -11 -11
-29 -11 -40 0 -19 6 -21 51 -21 113 0 547 -22 594 -30 58 -10 -174 -4 -385 11
-74 5 -165 9 -202 9 -65 0 -68 -1 -68 -24 0 -14 -4 -27 -9 -31 -6 -3 -10 12
-9 35 0 22 4 40 8 40 10 0 19 59 10 65 -4 2 -94 9 -201 14 -107 6 -233 13
-281 17 -80 6 -87 4 -97 -14z"/>
<path d="M2117 1653 c-20 -14 -63 -60 -94 -102 -74 -99 -107 -127 -166 -147
-59 -20 -283 -33 -492 -29 -85 2 -139 -1 -125 -5 37 -12 350 -12 497 0 178 15
228 39 316 153 59 76 113 157 105 157 -2 0 -20 -12 -41 -27z"/>
</g>
</svg>
