<?xml version="1.0" standalone="no"?>
<!DOCTYPE svg PUBLIC "-//W3C//DTD SVG 20010904//EN"
 "http://www.w3.org/TR/2001/REC-SVG-20010904/DTD/svg10.dtd">
<svg version="1.0" xmlns="http://www.w3.org/2000/svg"
 width="1200.000000pt" height="675.000000pt" viewBox="0 0 1200.000000 675.000000"
 preserveAspectRatio="xMidYMid meet">

<g transform="translate(0.000000,675.000000) scale(0.100000,-0.100000)"
fill="#000000" stroke="none">
<path d="M0 5070 l0 -1030 250 0 251 0 24 24 c14 14 21 28 15 31 -6 3 -10 1
-10 -4 0 -6 -4 -11 -10 -11 -5 0 -10 16 -10 35 0 33 2 35 35 35 l35 0 -2 973
-3 972 -287 3 -288 2 0 -1030z"/>
<path d="M4224 5860 c0 -135 2 -190 3 -122 2 67 2 177 0 245 -1 67 -3 12 -3
-123z"/>
<path d="M4440 5914 c0 -121 3 -183 10 -179 6 4 10 77 10 186 0 113 -4 179
-10 179 -6 0 -10 -69 -10 -186z"/>
<path d="M4547 6093 c-11 -11 -8 -313 3 -313 6 0 10 60 10 160 0 88 -1 160 -3
160 -2 0 -7 -3 -10 -7z"/>
<path d="M4634 5955 c0 -82 2 -115 3 -72 2 43 2 110 0 150 -1 40 -3 5 -3 -78z"/>
<path d="M4700 5963 c0 -93 3 -133 10 -123 13 20 13 247 0 255 -6 4 -10 -42
-10 -132z"/>
<path d="M4780 5980 c0 -73 4 -120 10 -120 6 0 10 47 10 120 0 73 -4 120 -10
120 -6 0 -10 -47 -10 -120z"/>
<path d="M4820 5990 c0 -91 3 -110 15 -110 12 0 15 19 15 110 0 91 -3 110 -15
110 -12 0 -15 -19 -15 -110z"/>
<path d="M4870 6000 c0 -77 3 -101 13 -97 8 2 12 31 12 97 0 66 -4 95 -12 98
-10 3 -13 -21 -13 -98z"/>
<path d="M4920 6008 c0 -89 0 -90 23 -84 12 3 30 6 40 6 15 0 17 11 17 84 l0
84 -40 0 -40 1 0 -91z"/>
<path d="M5020 6025 l0 -76 28 3 c27 3 27 4 27 73 0 69 0 70 -27 73 l-28 3 0
-76z"/>
<path d="M5090 6035 c0 -58 2 -65 20 -65 18 0 20 7 20 65 0 58 -2 65 -20 65
-18 0 -20 -7 -20 -65z"/>
<path d="M5140 6037 l0 -63 68 4 c79 5 77 -13 -3 -21 -61 -7 -161 -30 -171
-40 -4 -4 -16 -7 -27 -7 -20 0 -109 -26 -139 -41 -10 -5 -25 -9 -33 -9 -8 0
-23 -4 -33 -9 -39 -21 -91 -41 -105 -41 -9 0 -19 -4 -22 -10 -3 -5 -15 -10
-26 -10 -10 0 -19 -4 -19 -9 0 -5 -13 -11 -29 -14 -16 -4 -49 -15 -73 -26 -24
-10 -64 -27 -90 -37 -27 -11 -48 -22 -48 -26 0 -5 -6 -8 -13 -8 -7 0 -35 -11
-63 -23 -27 -13 -64 -30 -81 -38 -18 -8 -33 -16 -33 -19 0 -3 -22 -14 -50 -25
-27 -11 -50 -22 -50 -26 0 -3 -20 -14 -45 -25 -25 -10 -45 -21 -45 -24 0 -3
-22 -14 -50 -25 -27 -11 -50 -23 -50 -27 0 -4 -7 -8 -15 -8 -8 0 -15 -3 -15
-7 0 -5 -19 -17 -43 -28 -23 -11 -44 -22 -47 -25 -3 -3 -21 -14 -40 -23 -38
-19 -72 -39 -80 -47 -3 -3 -23 -14 -45 -25 -22 -11 -41 -23 -43 -27 -2 -5 -11
-8 -20 -9 -10 0 -12 -3 -5 -5 12 -5 83 23 93 37 3 3 23 14 45 25 22 10 42 21
45 24 4 5 38 22 75 39 5 2 2 -3 -7 -12 -9 -10 -21 -17 -27 -17 -6 0 -11 -3
-11 -8 0 -7 -4 -10 -77 -46 -21 -11 -40 -23 -43 -27 -3 -3 -15 -9 -27 -13 -13
-4 -23 -12 -23 -17 0 -5 -7 -9 -15 -9 -8 0 -15 -4 -15 -10 0 -5 -5 -10 -10
-10 -6 0 -46 -22 -90 -50 -44 -27 -82 -50 -85 -50 -6 0 -86 -51 -95 -60 -3 -3
-22 -14 -43 -25 -20 -11 -74 -46 -118 -77 -44 -32 -82 -58 -84 -58 -15 0 12
31 41 46 19 10 34 21 34 25 0 3 16 14 35 25 19 10 35 22 35 26 0 5 5 8 11 8 6
0 18 7 27 16 15 15 14 16 -8 9 -14 -4 -27 -11 -30 -15 -3 -3 -12 -10 -20 -13
-8 -4 -33 -18 -55 -32 -22 -14 -50 -31 -62 -37 -13 -6 -23 -15 -23 -20 0 -4
-7 -8 -15 -8 -8 0 -15 -4 -15 -9 0 -5 -10 -13 -22 -17 -12 -3 -29 -14 -39 -23
-17 -15 -109 -64 -154 -81 -11 -4 -40 -15 -65 -25 -25 -9 -55 -21 -68 -26 -13
-5 -32 -9 -42 -9 -11 0 -20 -7 -20 -15 0 -11 12 -15 50 -15 28 0 50 -4 50 -9
0 -15 136 -23 410 -23 1820 -5 2623 -2 2800 10 288 20 363 28 400 40 19 6 53
15 75 21 138 35 237 75 295 118 30 22 137 129 165 163 68 84 111 135 118 138
4 2 7 8 7 14 0 5 6 15 13 22 27 29 57 66 57 72 0 4 10 16 23 28 12 12 35 39
51 61 17 22 32 42 36 45 3 3 18 23 35 45 16 21 36 47 45 56 8 9 33 38 55 64
84 101 103 122 195 215 52 52 113 108 135 124 39 29 75 64 75 73 0 6 -113 -57
-120 -66 -3 -4 -54 -3 -115 1 -159 12 -1178 19 -1135 8 19 -6 193 -9 385 -9
193 1 377 0 410 -2 33 -2 -138 -7 -380 -10 -242 -4 -561 -12 -710 -17 -148 -6
-354 -14 -456 -18 -136 -5 -188 -4 -193 5 -9 14 -253 15 -323 2 -26 -5 -76
-12 -110 -14 -54 -4 -60 -3 -48 9 7 8 27 14 44 14 16 0 32 4 35 9 3 5 23 12
43 16 21 4 43 10 48 15 6 4 24 10 40 13 17 3 48 10 70 16 22 5 68 15 103 22
34 7 62 17 62 22 0 5 -7 7 -15 3 -12 -4 -15 6 -15 59 l0 63 -80 1 -80 0 0 -62z
m173 -204 c-29 -2 -77 -2 -105 0 -29 2 -6 3 52 3 58 0 81 -1 53 -3z m-606 -49
c-3 -3 -12 -4 -19 -1 -8 3 -5 6 6 6 11 1 17 -2 13 -5z m-42 -21 c-11 -3 -22
-8 -25 -12 -10 -12 -46 -28 -78 -35 -17 -4 -34 -12 -37 -17 -4 -5 -15 -9 -26
-9 -10 0 -19 -4 -19 -10 0 -5 -8 -10 -17 -10 -10 0 -27 -7 -37 -15 -11 -8 -28
-15 -38 -15 -10 0 -18 -3 -18 -8 0 -11 -80 -44 -94 -38 -6 2 -3 5 7 5 9 1 17
6 17 11 0 6 8 10 18 10 9 0 26 7 36 15 11 8 28 15 38 15 10 0 18 3 18 8 0 4
15 13 33 21 17 7 45 20 61 27 16 8 35 14 43 14 7 0 13 5 13 10 0 6 6 10 14 10
7 0 27 7 42 15 16 8 38 14 49 14 l20 -1 -20 -5z m895 -116 c0 -2 -12 -17 -26
-33 l-26 -29 18 33 c15 26 34 43 34 29z m-1307 -74 c-13 -2 -23 -9 -23 -14 0
-5 -7 -9 -15 -9 -8 0 -15 4 -15 9 0 11 25 19 55 18 16 0 16 -1 -2 -4z m1167
-13 c0 -15 -22 -52 -42 -71 -10 -9 -18 -21 -18 -28 0 -6 -4 -11 -10 -11 -5 0
-7 7 -4 15 4 8 1 15 -5 15 -6 0 -11 7 -11 15 0 10 -9 15 -27 14 l-28 -1 25 -7
c36 -10 8 -25 -50 -27 -25 -1 -33 1 -17 3 39 6 33 23 -8 23 -19 0 -35 -2 -35
-4 0 -2 -3 -11 -6 -19 -3 -9 0 -17 8 -20 7 -2 0 -2 -17 1 -16 2 -31 8 -33 13
-2 5 -18 9 -35 9 -24 0 -28 -3 -19 -12 19 -19 14 -30 -10 -26 -16 2 -22 9 -20
21 2 9 -2 17 -8 17 -5 0 -10 -11 -10 -25 0 -15 -6 -25 -14 -25 -8 0 -23 -3
-33 -7 -17 -7 -17 -6 0 11 9 9 17 20 17 23 0 5 -44 0 -105 -13 -11 -2 -35 -7
-52 -10 -33 -6 -46 -24 -18 -24 13 0 13 -3 3 -13 -10 -12 -15 -12 -26 0 -7 7
-21 12 -30 12 -15 -1 -15 -2 1 -6 25 -7 21 -16 -15 -32 -29 -13 -32 -13 -51
10 l-20 24 5 -26 c4 -25 3 -26 -41 -26 -30 0 -50 6 -58 16 -6 9 -15 13 -19 8
-4 -4 1 -14 12 -21 11 -8 15 -18 10 -23 -5 -4 -11 -2 -13 5 -5 12 -60 17 -87
6 -9 -3 -16 -12 -16 -19 0 -6 -12 -12 -27 -13 -16 0 -49 -13 -75 -27 -39 -22
-48 -24 -48 -11 0 9 7 16 15 16 8 0 15 5 15 10 0 6 6 10 14 10 17 0 80 32 84
43 2 4 12 7 23 7 10 0 19 4 19 9 0 5 19 11 42 15 23 4 48 11 54 17 7 6 29 11
48 12 20 1 36 5 36 10 0 4 16 7 35 7 19 0 35 4 35 9 0 5 24 12 52 15 29 4 57
11 63 15 17 12 90 31 123 31 17 0 33 4 36 8 3 5 24 9 46 10 23 1 69 8 103 15
34 8 94 15 132 16 39 1 74 7 80 12 12 12 25 12 25 -1z m-1233 -16 c-3 -3 -12
-4 -19 -1 -8 3 -5 6 6 6 11 1 17 -2 13 -5z m-40 -20 c-3 -3 -12 -4 -19 -1 -8
3 -5 6 6 6 11 1 17 -2 13 -5z m120 0 c-3 -3 -12 -4 -19 -1 -8 3 -5 6 6 6 11 1
17 -2 13 -5z m-167 -21 c-8 -3 -18 -11 -22 -17 -4 -6 -10 -7 -15 -3 -9 10 16
27 37 26 13 -1 13 -1 0 -6z m-83 -49 c-3 -3 -12 -4 -19 -1 -8 3 -5 6 6 6 11 1
17 -2 13 -5z m1133 -4 c8 -5 12 -12 9 -15 -8 -8 -39 5 -39 16 0 11 11 11 30
-1z m-233 -26 c-3 -3 -12 -4 -19 -1 -8 3 -5 6 6 6 11 1 17 -2 13 -5z m-1047
-48 c-14 -7 -29 -10 -34 -8 -11 6 20 20 44 21 8 0 4 -5 -10 -13z m-220 -466
c0 -5 -15 -10 -32 -10 -18 0 -42 -7 -52 -15 -14 -11 -45 -15 -104 -15 -76 0
-82 1 -68 16 12 12 45 17 129 21 61 3 114 7 116 9 7 7 11 4 11 -6z m-220 -145
c-14 -8 -35 -14 -47 -15 -13 0 -23 -4 -23 -10 0 -5 -7 -10 -15 -10 -47 0 31
47 80 48 l30 1 -25 -14z"/>
<path d="M4630 5379 c0 -5 5 -7 10 -4 6 3 10 8 10 11 0 2 -4 4 -10 4 -5 0 -10
-5 -10 -11z"/>
<path d="M3518 4893 c7 -3 16 -2 19 1 4 3 -2 6 -13 5 -11 0 -14 -3 -6 -6z"/>
<path d="M5330 6051 l0 -51 36 0 35 0 -3 48 c-3 45 -4 47 -35 50 l-33 3 0 -50z"/>
<path d="M5443 6060 c0 -25 2 -35 4 -22 2 12 2 32 0 45 -2 12 -4 2 -4 -23z"/>
<path d="M5986 6091 c-4 -7 -5 -15 -2 -18 9 -9 19 4 14 18 -4 11 -6 11 -12 0z"/>
<path d="M9637 6093 c-11 -11 -8 -163 3 -163 6 0 10 35 10 85 0 85 -1 91 -13
78z"/>
<path d="M10414 5810 c0 -162 2 -229 3 -147 2 81 2 213 0 295 -1 81 -3 14 -3
-148z"/>
<path d="M11003 6093 c-10 -4 -13 -114 -13 -504 l0 -500 25 -25 25 -25 0 524
c0 540 0 543 -37 530z"/>
<path d="M11060 5555 c0 -538 0 -545 20 -545 20 0 20 7 20 545 0 538 0 545
-20 545 -20 0 -20 -7 -20 -545z"/>
<path d="M11173 6093 l-33 -4 0 -561 c0 -551 0 -560 20 -565 11 -3 20 -9 20
-14 0 -5 7 -9 15 -9 13 0 15 71 15 580 0 319 -1 579 -2 578 -2 0 -18 -3 -35
-5z"/>
<path d="M11250 5511 c0 -387 3 -591 10 -591 7 0 10 201 10 584 0 379 -4 587
-10 591 -7 4 -10 -193 -10 -584z"/>
<path d="M11657 6092 c-16 -3 -17 -44 -15 -720 l3 -717 28 -3 c15 -2 27 -8 27
-13 0 -5 5 -9 11 -9 6 0 18 -8 27 -17 16 -16 17 31 20 727 1 409 1 744 0 745
-7 5 -85 11 -101 7z"/>
<path d="M4250 5863 c0 -151 4 -223 10 -213 13 20 13 440 0 440 -6 0 -10 -82
-10 -227z"/>
<path d="M4294 5880 c0 -118 2 -167 3 -107 2 59 2 155 0 215 -1 59 -3 10 -3
-108z"/>
<path d="M9120 6071 c0 -10 7 -21 15 -25 11 -4 15 1 15 19 0 16 -6 25 -15 25
-8 0 -15 -9 -15 -19z"/>
<path d="M9190 6065 c0 -16 6 -25 15 -25 9 0 15 9 15 25 0 16 -6 25 -15 25 -9
0 -15 -9 -15 -25z"/>
<path d="M9280 6055 c0 -24 5 -35 15 -35 10 0 15 11 15 35 0 24 -5 35 -15 35
-10 0 -15 -11 -15 -35z"/>
<path d="M9350 6045 c0 -25 5 -45 10 -45 6 0 10 20 10 45 0 25 -4 45 -10 45
-5 0 -10 -20 -10 -45z"/>
<path d="M9410 6035 c0 -30 5 -55 10 -55 6 0 10 25 10 55 0 30 -4 55 -10 55
-5 0 -10 -25 -10 -55z"/>
<path d="M9473 6030 c0 -36 2 -50 4 -32 2 17 2 47 0 65 -2 17 -4 3 -4 -33z"/>
<path d="M9530 6033 c0 -32 5 -65 10 -73 7 -10 10 7 10 58 0 41 -4 72 -10 72
-6 0 -10 -26 -10 -57z"/>
<path d="M9764 5985 c0 -60 1 -84 3 -52 2 32 2 81 0 110 -2 29 -3 3 -3 -58z"/>
<path d="M9844 5970 c0 -69 1 -97 3 -62 2 34 2 90 0 125 -2 34 -3 6 -3 -63z"/>
<path d="M9920 5966 c0 -68 -3 -131 -6 -140 -4 -11 -1 -16 10 -16 14 0 16 18
16 140 0 87 -4 140 -10 140 -6 0 -10 -48 -10 -124z"/>
<path d="M10200 5875 c0 -137 4 -215 10 -215 6 0 10 78 10 215 0 137 -4 215
-10 215 -6 0 -10 -78 -10 -215z"/>
<path d="M10250 5868 c0 -127 4 -229 10 -238 6 -10 10 65 10 223 0 151 -4 237
-10 237 -6 0 -10 -81 -10 -222z"/>
<path d="M10300 5853 c0 -137 4 -244 10 -253 6 -10 10 71 10 238 0 161 -4 252
-10 252 -6 0 -10 -86 -10 -237z"/>
<path d="M10344 5830 c0 -146 2 -205 3 -132 2 72 2 192 0 265 -1 72 -3 13 -3
-133z"/>
<path d="M10514 5770 c0 -179 2 -252 3 -162 2 89 2 235 0 325 -1 89 -3 16 -3
-163z"/>
<path d="M10560 5745 c0 -300 2 -345 15 -345 13 0 15 45 15 345 0 300 -2 345
-15 345 -13 0 -15 -45 -15 -345z"/>
<path d="M10635 5720 c0 -206 1 -291 2 -187 2 103 2 271 0 375 -1 103 -2 18
-2 -188z"/>
<path d="M10690 5707 c0 -370 1 -385 20 -407 l20 -23 0 406 c0 400 0 407 -20
407 -20 0 -20 -7 -20 -383z"/>
<path d="M10770 5674 c0 -356 2 -418 15 -430 13 -14 15 32 15 415 0 376 -2
431 -15 431 -13 0 -15 -53 -15 -416z"/>
<path d="M10845 5645 c0 -247 1 -347 2 -222 2 126 2 328 0 450 -1 122 -2 20
-2 -228z"/>
<path d="M11110 5544 c0 -361 3 -543 10 -539 6 4 10 197 10 546 0 353 -3 539
-10 539 -7 0 -10 -189 -10 -546z"/>
<path d="M11280 5495 c0 -522 2 -595 15 -595 13 0 15 73 15 595 0 522 -2 595
-15 595 -13 0 -15 -73 -15 -595z"/>
<path d="M11330 5490 c0 -393 3 -600 10 -600 7 0 10 207 10 600 0 393 -3 600
-10 600 -7 0 -10 -207 -10 -600z"/>
<path d="M11520 5430 c0 -433 3 -660 10 -660 7 0 10 227 10 660 0 433 -3 660
-10 660 -7 0 -10 -227 -10 -660z"/>
<path d="M8315 5950 c-129 -14 -186 -23 -191 -31 -3 -5 -15 -9 -27 -9 -12 0
-58 -13 -102 -29 -120 -44 -145 -55 -145 -63 0 -4 -4 -8 -10 -8 -15 0 -119
-69 -158 -104 -87 -80 -199 -198 -225 -239 -17 -26 -45 -61 -72 -91 -6 -6 -24
-29 -40 -51 -17 -22 -33 -42 -36 -45 -3 -3 -14 -20 -24 -37 -11 -18 -23 -33
-27 -33 -4 0 -8 -4 -8 -9 0 -7 -91 -148 -127 -197 -20 -26 -34 -50 -39 -66 -4
-10 -9 -18 -13 -18 -4 0 -19 -26 -35 -57 -16 -32 -32 -66 -37 -75 -5 -10 -9
-26 -9 -35 -1 -16 -3 -15 -19 5 -11 12 -24 22 -29 22 -6 0 -12 4 -14 8 -4 10
-83 55 -133 76 -48 20 -36 -4 13 -27 40 -18 74 -38 82 -48 3 -3 25 -18 49 -33
l43 -28 -6 -138 c-7 -144 0 -185 33 -194 9 -3 52 -1 96 4 44 6 125 14 180 19
55 4 109 12 120 18 20 10 106 28 175 37 19 2 85 11 145 20 61 9 144 19 185 22
41 4 84 11 95 17 10 5 65 9 122 9 57 -1 105 3 108 8 3 6 32 10 63 10 31 0 100
7 152 15 52 8 121 15 152 15 31 0 60 5 63 10 3 6 34 10 68 10 34 0 100 5 147
10 284 34 258 31 650 65 192 17 298 25 560 44 154 11 250 27 250 43 0 4 6 8
13 8 18 0 95 52 135 90 18 16 34 30 37 30 3 0 16 9 28 21 12 11 43 39 69 62
l47 40 -60 59 c-33 32 -62 58 -65 58 -2 0 -25 21 -52 48 -26 26 -83 79 -127
117 -43 39 -97 87 -119 109 -23 21 -52 46 -66 55 -13 9 -36 26 -50 38 -22 19
-76 64 -138 115 -11 9 -29 21 -40 27 -11 6 -27 17 -34 23 -20 19 -48 35 -90
55 -21 10 -38 21 -38 25 0 5 -7 8 -16 8 -9 0 -28 6 -42 14 -15 8 -67 26 -117
41 -49 14 -104 30 -121 35 -17 6 -40 10 -52 10 -12 0 -30 4 -40 9 -23 12 -181
41 -226 41 -19 0 -37 4 -40 9 -3 4 -41 11 -83 14 -43 4 -116 11 -163 16 -97
11 -470 11 -575 1z m-460 -930 c255 -32 362 -88 403 -213 16 -46 17 -59 6 -68
-9 -8 -15 -5 -23 10 -15 26 -14 48 2 54 27 10 -2 16 -34 7 -18 -6 -58 -10 -86
-10 -40 0 -53 -4 -53 -15 0 -10 10 -15 33 -15 17 0 38 -4 46 -9 20 -13 -21
-24 -58 -16 -16 3 -48 1 -70 -6 -42 -12 -67 -5 -41 11 8 6 11 10 5 10 -5 0
-27 -17 -50 -38 -30 -30 -53 -42 -95 -50 -51 -10 -342 -32 -417 -32 l-33 0 0
158 0 158 28 31 c15 17 45 35 67 41 43 12 248 8 370 -8z m2729 -36 c-26 -25
-68 -62 -93 -82 -25 -20 -47 -40 -49 -44 -2 -5 -10 -8 -18 -8 -8 0 -14 -4 -14
-10 0 -5 -8 -10 -19 -10 -10 0 -24 -6 -30 -13 -6 -8 -30 -19 -53 -26 -24 -7
-57 -17 -74 -22 -41 -12 -174 -12 -174 1 0 6 33 10 78 10 42 0 95 5 117 11 43
12 107 39 115 49 3 4 20 15 38 25 17 11 32 23 32 27 0 4 6 8 13 8 7 0 37 23
66 50 29 28 63 57 74 65 42 29 37 14 -9 -31z m-639 -236 c-55 -4 -149 -12
-210 -17 -60 -5 -155 -14 -210 -20 -240 -24 -328 -31 -333 -26 -3 3 6 5 19 5
14 0 29 4 35 9 5 5 50 12 99 14 169 9 466 35 472 41 4 3 56 5 117 4 l111 -2
-100 -8z m-822 -65 c-18 -2 -33 -8 -33 -13 0 -5 -35 -11 -77 -13 -78 -5 -308
-30 -438 -48 -38 -6 -110 -14 -160 -19 -49 -4 -135 -13 -189 -19 -55 -6 -104
-10 -110 -7 -6 2 -1 5 11 5 12 1 25 6 28 11 3 6 29 10 57 10 29 0 65 4 82 9
17 5 87 15 156 21 69 7 161 16 205 21 44 5 125 14 180 19 55 6 134 14 175 18
41 5 91 9 110 9 l35 0 -32 -4z"/>
<path d="M7995 4770 c3 -5 15 -10 26 -10 10 0 19 5 19 10 0 6 -12 10 -26 10
-14 0 -23 -4 -19 -10z"/>
<path d="M5727 5884 c-4 -4 -46 -6 -94 -6 -48 1 -115 -2 -148 -7 -50 -7 -32
-9 98 -10 97 0 157 3 157 9 0 6 82 11 213 13 l212 2 -216 3 c-119 1 -219 -1
-222 -4z"/>
<path d="M3488 5193 c-10 -2 -18 -9 -18 -14 0 -6 10 -5 23 2 37 20 36 23 -5
12z"/>
<path d="M10922 5007 c19 -18 66 -37 93 -37 13 0 25 -6 28 -12 2 -7 8 -10 12
-6 12 11 -86 68 -118 68 -23 0 -26 -2 -15 -13z"/>
<path d="M11110 4980 c0 -5 5 -10 10 -10 6 0 10 5 10 10 0 6 -4 10 -10 10 -5
0 -10 -4 -10 -10z"/>
<path d="M11536 4614 c-20 -20 -36 -42 -36 -49 0 -23 25 -60 75 -112 64 -65
76 -80 149 -182 63 -89 75 -103 87 -95 4 2 10 -10 14 -27 5 -22 10 -28 18 -20
6 6 39 11 73 11 56 0 62 2 66 23 9 52 2 57 -78 57 -59 0 -76 -3 -81 -16 -10
-27 -23 6 -22 56 1 25 -2 53 -6 63 -5 12 -2 17 9 17 12 0 16 -10 16 -40 l0
-40 79 0 79 0 4 49 c5 83 8 81 -92 81 -62 0 -90 -4 -93 -12 -3 -10 -8 -10 -21
1 -9 8 -14 17 -11 20 4 3 53 4 111 2 l104 -3 0 71 0 71 -90 0 -90 0 0 -60 c0
-48 -3 -60 -16 -60 -12 0 -14 5 -9 18 10 24 7 73 -7 89 -12 15 -143 18 -181 4
-14 -6 -27 -7 -30 -4 -12 11 23 33 52 33 32 0 42 14 16 24 -8 3 -15 16 -15 30
0 19 -16 36 -35 36 -2 0 -19 -16 -39 -36z"/>
<path d="M6282 4590 c0 -19 2 -27 5 -17 2 9 2 25 0 35 -3 9 -5 1 -5 -18z"/>
<path d="M11781 4554 c0 -11 3 -14 6 -6 3 7 2 16 -1 19 -3 4 -6 -2 -5 -13z"/>
<path d="M10645 4550 c-11 -5 -32 -9 -46 -9 -30 -1 -68 -19 -92 -43 -19 -18
-23 -58 -7 -58 6 0 10 -8 10 -18 0 -18 51 -72 68 -72 4 0 19 -11 34 -25 24
-22 35 -25 100 -24 63 1 69 3 46 12 -15 6 -28 19 -30 29 -2 13 -7 15 -18 8
-13 -9 -13 -11 0 -20 11 -7 6 -10 -21 -10 -19 0 -44 7 -55 15 -19 14 -18 14 4
15 12 0 22 3 22 8 0 4 16 12 35 18 31 10 39 8 59 -7 27 -21 43 -24 48 -8 2 5
18 11 35 11 37 1 51 23 23 38 -24 13 -150 13 -150 0 0 -28 -128 4 -185 46 -19
14 -19 15 10 38 20 16 35 21 45 16 8 -4 40 -11 70 -15 53 -6 56 -5 70 19 7 14
11 28 8 31 -10 10 -64 14 -83 5z"/>
<path d="M10742 4528 c-20 -20 -14 -38 13 -38 16 0 25 6 25 15 0 8 5 15 10 15
6 0 10 5 10 10 0 14 -43 13 -58 -2z"/>
<path d="M10850 4491 c0 -15 6 -21 21 -21 25 0 22 33 -4 38 -12 2 -17 -3 -17
-17z"/>
<path d="M5318 4463 c6 -2 18 -2 25 0 6 3 1 5 -13 5 -14 0 -19 -2 -12 -5z"/>
<path d="M6272 4432 c-6 -15 -21 -38 -33 -51 -32 -34 -15 -37 21 -4 24 22 31
37 28 57 l-3 27 -13 -29z"/>
<path d="M5258 4443 c6 -2 18 -2 25 0 6 3 1 5 -13 5 -14 0 -19 -2 -12 -5z"/>
<path d="M5208 4423 c6 -2 18 -2 25 0 6 3 1 5 -13 5 -14 0 -19 -2 -12 -5z"/>
<path d="M5140 4410 c0 -13 11 -13 30 0 12 8 11 10 -7 10 -13 0 -23 -4 -23
-10z"/>
<path d="M5088 4393 c6 -2 18 -2 25 0 6 3 1 5 -13 5 -14 0 -19 -2 -12 -5z"/>
<path d="M5033 4373 c9 -2 23 -2 30 0 6 3 -1 5 -18 5 -16 0 -22 -2 -12 -5z"/>
<path d="M9065 4360 c-11 -5 -36 -9 -55 -9 -49 -2 -68 -15 -51 -35 19 -23 147
-22 173 1 17 15 18 15 18 0 0 -22 48 -23 56 -2 4 8 17 15 30 15 28 0 30 6 10
26 -19 18 -31 18 -61 -2 -23 -15 -25 -15 -25 0 0 12 -9 16 -37 15 -21 0 -47
-4 -58 -9z"/>
<path d="M8905 4323 c-37 -10 -82 -82 -56 -91 6 -2 11 -8 11 -14 0 -15 60 -69
89 -80 18 -6 41 -4 83 9 32 10 58 21 58 26 0 10 78 9 82 -2 7 -18 46 -22 62
-5 10 10 27 14 42 11 22 -4 44 14 44 37 0 11 -188 8 -211 -4 -43 -24 -193 0
-207 33 -2 4 -10 7 -17 7 -7 0 -15 7 -19 15 -3 9 1 15 11 15 8 0 24 10 34 22
17 19 24 30 17 27 -2 -1 -12 -4 -23 -6z"/>
<path d="M9302 4308 c-17 -17 -15 -28 7 -28 19 0 35 23 24 34 -9 9 -18 7 -31
-6z"/>
<path d="M11206 4247 c12 -34 144 -85 144 -57 0 6 -7 10 -16 10 -15 0 -74 29
-84 41 -3 4 -15 9 -27 13 -18 6 -22 4 -17 -7z"/>
<path d="M5655 4203 c-11 -2 -29 -8 -40 -13 -11 -5 -31 -11 -45 -14 -14 -3
-52 -12 -85 -21 -33 -9 -71 -19 -85 -22 -14 -2 -34 -8 -45 -12 -32 -13 -158
-41 -182 -41 -12 0 -24 -4 -27 -9 -3 -4 -25 -11 -48 -14 -24 -4 -77 -14 -118
-22 -41 -9 -93 -19 -115 -21 -22 -3 -49 -9 -60 -14 -11 -4 -56 -13 -100 -20
-44 -6 -102 -16 -130 -21 -27 -6 -77 -14 -110 -18 -33 -5 -89 -14 -125 -20
-36 -6 -95 -16 -132 -21 -38 -6 -98 -14 -135 -20 -38 -5 -112 -16 -166 -25
-54 -8 -116 -15 -137 -15 -21 0 -42 -4 -45 -10 -3 -5 -30 -10 -59 -10 -29 0
-77 -4 -107 -10 -63 -11 -196 -28 -324 -40 -49 -4 -164 -16 -255 -25 -188 -18
-357 -34 -445 -41 -267 -21 -512 -34 -630 -34 -134 0 -358 23 -400 40 -11 5
-33 11 -50 14 -61 10 -130 27 -147 36 -10 6 -28 10 -41 10 -13 0 -27 4 -32 9
-6 4 -34 16 -63 27 -28 10 -52 22 -52 26 0 4 -9 8 -20 8 -11 0 -20 3 -20 8 0
4 -15 15 -33 25 -46 25 -83 100 -78 161 1 27 0 27 -54 -25 -31 -30 -61 -55
-66 -57 -22 -8 -8 -56 26 -88 19 -18 35 -38 35 -44 0 -23 75 -120 93 -120 5 0
22 -9 37 -20 26 -19 28 -23 19 -58 -17 -65 -15 -63 -46 -50 -15 7 -30 15 -33
18 -5 7 -97 50 -104 50 -3 0 -16 11 -30 24 -26 23 -34 60 -16 71 20 12 -3 175
-25 175 -17 0 -26 -50 -25 -137 0 -54 -4 -75 -16 -88 -13 -12 -14 -19 -5 -28
6 -6 11 -18 11 -27 0 -9 8 -25 19 -36 10 -11 22 -31 26 -45 6 -19 -1 -15 -34
21 l-43 45 6 68 c4 37 3 67 -1 67 -11 0 -73 -76 -73 -89 0 -5 -8 -12 -18 -15
-10 -3 -25 -19 -35 -35 -10 -16 -27 -31 -40 -33 l-22 -3 21 -20 c75 -73 166
-145 182 -145 6 0 12 -6 15 -12 3 -8 18 2 42 26 35 35 43 38 89 37 28 0 52 -5
54 -11 2 -5 11 -10 20 -10 15 0 77 -20 127 -40 11 -5 34 -11 50 -14 17 -2 55
-12 85 -22 30 -9 72 -19 93 -21 20 -3 37 -9 37 -14 0 -5 11 -9 25 -9 14 0 52
-8 83 -17 45 -13 63 -25 87 -56 26 -35 54 -54 127 -89 57 -27 213 20 286 85
28 26 55 30 427 67 66 6 134 16 151 21 17 5 51 9 77 9 26 0 77 4 114 10 178
25 249 33 388 42 215 14 211 15 328 -41 65 -31 71 -32 165 -27 118 6 256 18
462 41 359 40 479 51 680 61 134 6 201 20 220 45 3 3 15 9 28 13 12 4 22 12
22 17 0 5 9 9 20 9 11 0 20 3 20 8 0 7 30 25 63 38 9 3 17 10 17 15 0 5 5 9
10 9 12 0 94 52 98 63 2 4 8 7 14 7 11 0 81 51 86 63 2 4 10 7 18 7 8 0 14 3
14 8 0 4 16 16 35 26 19 11 35 23 35 27 0 4 8 10 18 13 9 3 33 21 52 39 19 17
53 45 75 62 22 16 45 34 51 40 7 6 26 23 43 38 29 24 31 30 25 67 -4 22 -9 40
-11 40 -8 0 -33 -28 -33 -37 0 -7 -18 -25 -102 -95 -12 -10 -24 -18 -28 -18
-3 0 -15 -8 -26 -18 -10 -9 -44 -35 -74 -57 -30 -22 -60 -44 -67 -50 -7 -5
-19 -16 -27 -22 -8 -7 -20 -13 -26 -13 -5 0 -10 -4 -10 -8 0 -5 -16 -17 -35
-28 -19 -10 -35 -22 -35 -26 0 -5 -5 -8 -10 -8 -10 0 -22 -8 -55 -37 -7 -7
-16 -13 -20 -13 -4 0 -13 -7 -21 -15 -9 -8 -22 -15 -30 -15 -13 0 13 32 92
114 6 6 41 38 79 71 38 33 93 83 123 110 30 28 59 52 66 54 6 2 18 11 26 20
19 20 43 35 106 67 62 31 99 67 90 89 -4 13 -14 14 -43 9 -21 -4 -42 -10 -48
-14 -5 -4 -23 -10 -40 -13 -16 -2 -55 -12 -85 -22 -30 -9 -68 -19 -85 -22 -16
-3 -34 -9 -40 -13 -5 -3 -46 -15 -90 -24 -44 -10 -88 -22 -97 -27 -10 -5 -31
-9 -48 -9 -17 0 -38 -4 -48 -9 -9 -5 -44 -15 -77 -21 -33 -7 -80 -16 -105 -22
-25 -5 -63 -12 -85 -14 -22 -3 -49 -9 -60 -14 -11 -5 -51 -14 -90 -20 -38 -6
-90 -15 -115 -20 -111 -22 -229 -42 -275 -47 -27 -3 -54 -8 -60 -12 -5 -4 -32
-9 -60 -10 -27 -2 -53 -5 -57 -7 -6 -4 -117 -23 -263 -44 -168 -25 -199 -30
-233 -40 -20 -5 -58 -10 -84 -10 -26 0 -50 -4 -53 -10 -3 -5 -30 -10 -59 -10
-29 0 -66 -4 -82 -9 -16 -5 -57 -12 -92 -15 -54 -5 -61 -4 -49 8 13 14 123 35
282 55 132 17 144 19 380 56 55 9 127 20 160 25 33 5 103 16 155 24 52 8 115
18 140 21 25 3 61 10 80 15 19 5 80 16 135 25 55 10 109 21 120 26 11 4 38 10
60 13 22 3 74 12 115 21 82 18 135 28 222 45 31 5 69 15 83 20 15 6 42 10 61
10 19 0 34 4 34 9 0 5 17 11 38 14 58 8 136 28 147 38 5 5 24 9 42 9 18 0 33
4 33 9 0 5 15 11 33 14 69 12 137 31 137 39 0 4 10 8 23 8 13 0 32 7 43 15 18
14 18 14 -6 14 -14 -1 -34 -3 -45 -6z m-4710 -224 c-16 -25 47 -111 107 -147
15 -9 28 -20 28 -24 0 -4 8 -8 18 -9 9 0 12 -3 5 -6 -7 -2 -15 -20 -19 -39 -3
-19 -9 -34 -12 -34 -5 0 -70 52 -107 86 -35 32 -55 72 -55 109 0 35 17 75 33
75 4 0 5 -5 2 -11z m4192 -15 c-3 -3 -12 -4 -19 -1 -8 3 -5 6 6 6 11 1 17 -2
13 -5z m-67 -14 c0 -5 -5 -10 -11 -10 -5 0 -7 5 -4 10 3 6 8 10 11 10 2 0 4
-4 4 -10z m335 -9 c-3 -6 -11 -11 -16 -11 -5 0 -4 6 3 14 14 16 24 13 13 -3z
m-317 -46 c2 -9 0 -20 -5 -24 -5 -3 -17 -26 -28 -51 -11 -25 -22 -47 -25 -50
-3 -3 -9 -13 -15 -23 -5 -10 -23 -26 -40 -35 -33 -19 -55 -38 -55 -46 0 -15
-55 -66 -72 -66 -10 0 -18 -4 -18 -10 0 -5 -8 -10 -17 -10 -14 0 -12 4 7 17
32 22 69 63 76 86 3 9 10 17 15 17 5 0 9 7 9 15 0 8 3 15 8 15 9 0 42 74 42
95 0 8 5 15 10 15 6 0 10 12 10 26 0 25 -1 26 -62 21 -35 -3 -103 -12 -153
-22 -49 -9 -108 -19 -130 -21 -22 -3 -49 -9 -60 -14 -11 -5 -38 -11 -60 -13
-76 -8 -200 -28 -231 -38 -17 -5 -53 -9 -82 -9 -28 0 -54 -4 -57 -10 -3 -5
-17 -10 -30 -10 -13 0 -27 -5 -31 -11 -5 -8 -8 -8 -14 0 -5 9 -11 7 -20 -4
-13 -15 -7 -16 61 -9 41 3 82 11 91 15 9 5 34 9 55 9 l38 -1 -30 -24 c-16 -14
-36 -25 -42 -25 -7 0 -13 -6 -13 -14 0 -8 17 -17 43 -22 35 -7 19 -9 -88 -14
-71 -3 -135 -8 -142 -13 -6 -4 -23 -2 -38 5 -19 9 -28 9 -37 0 -15 -15 -48
-16 -48 -2 0 17 -42 11 -59 -8 -9 -11 -34 -22 -56 -25 -22 -3 -32 -3 -22 -1 9
3 17 10 17 15 0 5 7 9 15 9 8 0 15 3 15 8 0 4 19 16 43 27 23 11 44 22 47 25
3 3 39 22 80 42 74 36 152 56 220 57 19 0 62 5 95 11 33 6 85 15 115 20 138
23 177 30 210 40 19 5 54 10 77 10 24 0 43 5 43 10 0 6 16 10 35 10 19 0 44 5
57 10 30 13 186 27 218 20 14 -4 27 -15 28 -25z m289 19 c-3 -3 -12 -4 -19 -1
-8 3 -5 6 6 6 11 1 17 -2 13 -5z m-39 -28 c-7 -8 -15 -12 -17 -11 -5 6 10 25
20 25 5 0 4 -6 -3 -14z m-112 -91 c-21 -19 -41 -35 -45 -35 -3 0 11 16 33 35
21 19 41 35 45 35 3 0 -11 -16 -33 -35z m-449 -17 c-3 -8 -6 -5 -6 6 -1 11 2
17 5 13 3 -3 4 -12 1 -19z m670 16 c-3 -3 -12 -4 -19 -1 -8 3 -5 6 6 6 11 1
17 -2 13 -5z m-37 -24 c-8 -5 -19 -10 -25 -10 -5 0 -3 5 5 10 8 5 20 10 25 10
6 0 3 -5 -5 -10z m-4247 -84 c18 -10 49 -28 70 -40 21 -11 34 -22 28 -24 -10
-3 -81 26 -91 38 -3 3 -22 14 -43 25 -32 17 -35 22 -22 31 8 6 16 17 16 25 1
8 4 3 6 -11 2 -15 17 -33 36 -44z m2765 57 c-10 -2 -28 -2 -40 0 -13 2 -5 4
17 4 22 1 32 -1 23 -4z m-87 -28 c-43 -19 -60 -19 -35 0 10 8 30 14 44 14 23
0 22 -1 -9 -14z m1493 0 c-4 -8 -10 -15 -14 -15 -5 0 -17 -3 -27 -6 -10 -3 -4
3 12 14 37 25 36 25 29 7z m-604 -15 c0 -16 -7 -20 -34 -20 -44 0 -54 15 -19
28 42 16 53 14 53 -8z m-100 0 c0 -5 -4 -10 -10 -10 -5 0 -10 5 -10 10 0 6 5
10 10 10 6 0 10 -4 10 -10z m-1480 -9 c0 -17 -47 -39 -95 -44 -45 -5 -183 -25
-325 -48 -30 -4 -73 -11 -95 -14 -194 -27 -264 -38 -291 -46 -17 -5 -53 -9
-82 -9 -28 0 -54 -4 -57 -10 -3 -5 -23 -10 -44 -10 -60 0 -102 -11 -109 -29
-3 -9 -18 -29 -34 -45 -15 -17 -28 -36 -28 -43 0 -7 -4 -13 -10 -13 -5 0 -10
-9 -10 -20 0 -11 -4 -20 -9 -20 -5 0 -12 -8 -14 -17 -4 -16 -5 -16 -6 -1 0 9
4 20 9 23 12 7 14 45 2 45 -4 0 -13 -5 -20 -12 -9 -9 -12 -2 -12 35 0 49 -15
62 -40 32 -7 -8 -20 -15 -29 -15 -9 0 -22 -5 -28 -11 -15 -15 -129 -13 -163 3
-33 14 -62 52 -54 72 7 18 24 22 24 6 0 -5 -5 -10 -12 -10 -6 0 2 -11 18 -25
36 -31 54 -32 62 -2 6 22 6 22 12 -3 4 -18 13 -25 30 -25 22 0 25 5 28 38 3
31 0 37 -17 37 -11 0 -22 -8 -24 -17 -4 -16 -5 -16 -6 -1 0 9 5 23 12 30 8 7
16 20 19 28 4 10 8 6 13 -12 4 -15 13 -29 21 -32 8 -3 14 -19 14 -36 0 -34 4
-35 43 -17 27 12 36 40 17 52 -5 3 -10 15 -10 25 0 12 -8 20 -22 22 -13 2 11
4 52 5 41 1 79 -2 85 -6 16 -13 112 -21 142 -12 16 5 82 16 148 26 66 9 136
20 155 25 19 5 76 14 125 20 50 7 122 16 160 22 39 5 102 13 140 18 141 18
278 40 283 45 9 8 32 6 32 -4z m1435 -31 c3 -5 -1 -10 -9 -10 -9 0 -16 5 -16
10 0 6 4 10 9 10 6 0 13 -4 16 -10z m47 -22 c-6 -6 -15 -8 -19 -4 -4 4 -1 11
7 16 19 12 27 3 12 -12z m-3924 -36 c7 -16 28 -46 47 -68 49 -54 47 -69 -3
-37 -48 31 -82 76 -82 110 0 39 19 36 38 -5z m2739 15 c-2 -7 -18 -13 -35 -15
-18 -2 -32 -7 -32 -13 0 -5 -35 -9 -77 -9 -43 0 -84 -4 -91 -8 -7 -5 -26 -7
-42 -4 l-29 4 20 27 c19 26 21 26 155 28 100 1 134 -1 131 -10z m-2150 -13
c-3 -3 -12 -4 -19 -1 -8 3 -5 6 6 6 11 1 17 -2 13 -5z m38 -14 c3 -5 2 -10 -4
-10 -5 0 -13 5 -16 10 -3 6 -2 10 4 10 5 0 13 -4 16 -10z m-686 -36 c3 -16 1
-17 -13 -5 -19 16 -21 34 -3 29 6 -3 14 -13 16 -24z m4251 22 c0 -2 -7 -6 -15
-10 -8 -3 -15 -1 -15 4 0 6 7 10 15 10 8 0 15 -2 15 -4z m-3707 -35 c19 -11
37 -17 40 -14 3 3 11 2 18 -3 9 -5 6 -10 -10 -16 -28 -10 -181 34 -181 52 0
15 98 1 133 -19z m224 13 c-3 -3 -12 -4 -19 -1 -8 3 -5 6 6 6 11 1 17 -2 13
-5z m2006 -1 c-7 -2 -21 -2 -30 0 -10 3 -4 5 12 5 17 0 24 -2 18 -5z m1297
-13 c12 -8 9 -10 -13 -10 -16 0 -26 4 -22 10 8 12 16 12 35 0z m-3263 -6 c-3
-3 -12 -4 -19 -1 -8 3 -5 6 6 6 11 1 17 -2 13 -5z m3399 -15 c-27 -11 -59 -18
-70 -16 -16 3 -14 5 7 6 15 0 27 5 27 10 0 9 29 16 70 19 8 0 -7 -8 -34 -19z
m-3366 1 c0 -5 7 -10 15 -10 9 0 18 -6 21 -14 3 -8 12 -12 20 -9 8 3 14 -1 14
-11 0 -9 -4 -16 -10 -16 -5 0 -10 -25 -10 -55 0 -30 5 -55 10 -55 6 0 10 -9
10 -20 0 -12 7 -32 16 -46 15 -22 15 -24 1 -18 -9 3 -19 16 -23 27 -3 12 -19
48 -36 81 -20 41 -27 67 -23 86 4 18 1 33 -9 43 -18 18 -20 27 -6 27 6 0 10
-4 10 -10z m1486 -8 c-3 -5 -29 -13 -58 -16 -29 -4 -82 -11 -118 -16 -36 -5
-110 -13 -165 -19 -55 -6 -112 -13 -127 -16 -15 -2 -36 -1 -45 3 -11 4 8 10
52 14 39 3 124 14 190 23 66 9 149 19 185 22 36 2 69 9 74 14 12 11 20 4 12
-9z m-1679 -8 c-3 -3 -12 -4 -19 -1 -8 3 -5 6 6 6 11 1 17 -2 13 -5z m3391
-21 c-10 -2 -26 -2 -35 0 -10 3 -2 5 17 5 19 0 27 -2 18 -5z m-63 -13 c-3 -5
-19 -10 -36 -10 -16 0 -29 5 -29 10 0 6 16 10 36 10 21 0 33 -4 29 -10z m-90
-9 c-6 -5 -39 -12 -75 -15 -36 -4 -105 -11 -155 -16 -104 -12 -233 -25 -395
-40 -63 -5 -139 -14 -169 -20 -52 -9 -168 -13 -126 -3 11 2 29 8 40 13 29 12
73 21 133 27 28 3 52 9 52 14 0 6 24 9 53 9 100 -3 399 10 410 18 7 4 53 10
102 13 50 3 101 6 115 7 15 1 20 -2 15 -7z m-3168 -7 c-3 -3 -12 -4 -19 -1 -8
3 -5 6 6 6 11 1 17 -2 13 -5z m1026 -21 c-35 -2 -63 -8 -63 -12 0 -5 -33 -11
-72 -15 -40 -3 -90 -8 -110 -12 -24 -4 -38 -2 -38 4 0 6 19 13 43 17 23 3 69
10 102 14 33 5 92 8 130 8 l70 -1 -62 -3z m-806 -65 c-3 -7 -5 -2 -5 12 0 14
2 19 5 13 2 -7 2 -19 0 -25z m143 -18 c0 -10 -7 -20 -15 -24 -12 -4 -15 3 -15
31 0 30 2 34 15 23 8 -7 15 -20 15 -30z m187 -12 c-3 -8 -6 -5 -6 6 -1 11 2
17 5 13 3 -3 4 -12 1 -19z m3 -58 c-6 -11 -15 -20 -20 -20 -6 0 -2 9 7 20 10
11 19 20 21 20 1 0 -2 -9 -8 -20z m-294 -45 c12 -9 14 -14 6 -15 -7 0 -20 7
-28 15 -20 19 -4 20 22 0z m51 -21 c-3 -3 -12 -4 -19 -1 -8 3 -5 6 6 6 11 1
17 -2 13 -5z"/>
<path d="M1065 3790 c3 -5 8 -10 11 -10 2 0 4 5 4 10 0 6 -5 10 -11 10 -5 0
-7 -4 -4 -10z"/>
<path d="M3990 3710 c0 -5 -7 -10 -15 -10 -8 0 -15 -4 -15 -10 0 -5 -8 -10
-17 -11 -12 0 -14 -2 -5 -6 16 -6 92 26 92 39 0 4 -9 8 -20 8 -11 0 -20 -4
-20 -10z"/>
<path d="M11413 4203 c-15 -5 -17 -23 -4 -23 5 0 11 7 15 15 3 8 4 15 3 14 -1
0 -8 -3 -14 -6z"/>
<path d="M520 4120 c0 -5 7 -10 15 -10 8 0 15 5 15 10 0 6 -7 10 -15 10 -8 0
-15 -4 -15 -10z"/>
<path d="M8997 4113 c-15 -14 58 -33 122 -32 42 0 59 3 46 8 -11 4 -39 6 -62
3 -30 -3 -46 0 -58 12 -17 17 -37 21 -48 9z"/>
<path d="M787 4000 c-9 -11 -13 -20 -8 -20 4 0 16 9 26 20 10 11 14 20 9 20
-5 0 -17 -9 -27 -20z"/>
<path d="M11918 3983 c12 -2 32 -2 45 0 12 2 2 4 -23 4 -25 0 -35 -2 -22 -4z"/>
<path d="M6984 3933 c11 -58 29 -93 48 -93 10 0 18 7 18 15 0 8 -4 15 -10 15
-5 0 -10 9 -10 20 0 11 6 20 13 20 7 0 8 3 2 8 -5 4 -15 16 -21 27 -6 11 -19
22 -29 23 -15 4 -17 -1 -11 -35z"/>
<path d="M7046 3955 c7 -17 24 -21 24 -5 0 5 8 6 17 3 11 -4 12 -8 5 -11 -7
-2 -12 -10 -12 -18 0 -8 -4 -14 -10 -14 -17 0 -12 -57 6 -64 24 -9 25 -9 23
32 -2 20 1 49 5 65 8 26 7 27 -28 27 -27 0 -34 -3 -30 -15z"/>
<path d="M728 3938 c-10 -12 -18 -29 -17 -38 0 -13 1 -13 6 0 4 8 12 21 20 28
11 12 18 32 11 32 -2 0 -11 -10 -20 -22z"/>
<path d="M9381 3770 c-2 -107 -7 -222 -11 -255 l-7 -60 -2 62 c-1 57 -3 62
-23 60 -13 0 -26 -5 -29 -10 -4 -5 -15 -5 -26 1 -15 9 -22 6 -32 -10 -9 -15
-16 -17 -24 -9 -16 16 -37 14 -37 -4 0 -9 -9 -15 -25 -15 -15 0 -25 -6 -25
-14 0 -11 -9 -13 -35 -9 -24 4 -35 2 -35 -6 0 -7 -7 -10 -17 -7 -10 3 -31 -3
-48 -14 -16 -11 -45 -20 -62 -20 -18 0 -33 -4 -33 -9 0 -5 -18 -12 -40 -16
-22 -4 -40 -10 -40 -15 0 -4 -7 -10 -14 -13 -10 -4 -13 -1 -9 9 5 14 3 14 -16
3 -11 -8 -21 -19 -21 -26 0 -9 -7 -10 -26 -3 -34 13 -34 13 -34 -10 0 -13 -7
-20 -20 -20 -11 0 -20 -4 -20 -10 0 -5 -11 -10 -24 -10 -14 0 -28 -4 -31 -10
-3 -5 -17 -10 -30 -10 -13 0 -26 -4 -29 -8 -3 -5 -18 -7 -35 -4 -23 3 -33 -1
-46 -22 -10 -14 -26 -26 -36 -26 -10 0 -21 -5 -25 -11 -4 -8 -9 -7 -15 2 -7
11 -10 9 -15 -8 -6 -22 -34 -33 -34 -14 0 5 -6 11 -13 14 -10 4 -13 -2 -9 -18
4 -22 -14 -36 -43 -34 -5 0 -12 -9 -17 -20 -4 -13 -16 -21 -30 -21 -13 0 -32
-7 -42 -15 -17 -13 -18 -15 -3 -15 23 0 22 -20 0 -20 -22 -1 -53 -23 -53 -39
0 -6 -7 -11 -16 -11 -10 0 -14 -6 -10 -15 3 -9 0 -15 -9 -15 -8 0 -15 7 -15
15 0 8 -7 15 -15 15 -8 0 -15 -7 -15 -15 0 -17 -31 -20 -47 -4 -8 8 -17 8 -30
1 -17 -10 -17 -11 4 -19 16 -6 20 -12 13 -22 -6 -11 -12 -12 -22 -3 -11 9 -17
9 -26 0 -9 -9 -12 -9 -12 0 0 7 -4 12 -10 12 -5 0 -10 -7 -10 -15 0 -18 -1
-18 -33 -6 -31 12 -43 2 -19 -15 16 -12 16 -13 -3 -14 -12 0 -26 5 -32 11 -8
8 -15 5 -26 -11 -9 -13 -17 -17 -21 -11 -7 11 -36 -1 -63 -26 -7 -6 -22 -9
-34 -6 -14 4 -26 0 -34 -10 -6 -8 -18 -15 -26 -15 -59 4 -77 -3 -84 -29 -6
-24 -8 -26 -16 -10 -12 21 -26 22 -44 3 -20 -19 -63 -9 -68 18 -2 11 -5 -22
-6 -75 -3 -203 -16 -202 -22 1 -7 214 -24 483 -38 600 -5 41 -12 100 -16 130
-9 79 -15 74 -15 -13 0 -41 4 -77 10 -79 6 -2 12 -145 16 -388 4 -212 4 -382
0 -379 -4 4 -9 42 -12 85 -3 43 -8 82 -10 86 -9 14 -24 9 -24 -8 0 -14 -2 -14
-15 0 -8 8 -15 19 -15 25 0 16 -16 14 -34 -4 -13 -14 -15 -12 -13 11 1 15 -4
29 -12 32 -11 4 -12 -5 -7 -49 23 -171 24 -249 5 -249 -5 0 -9 30 -9 68 0 37
-7 94 -15 127 -8 33 -14 72 -15 88 0 15 -4 27 -10 27 -5 0 -10 10 -10 23 -1
24 -29 114 -54 172 -9 19 -23 52 -33 73 -19 43 -64 115 -75 120 -5 2 -8 8 -8
13 0 24 -156 179 -180 179 -5 0 -10 3 -10 8 0 4 -21 15 -48 25 -26 11 -58 24
-71 30 -32 16 -248 14 -264 -2 -6 -6 -18 -11 -27 -11 -9 0 -40 -11 -68 -25
-29 -14 -56 -25 -62 -25 -5 0 -10 -4 -10 -8 0 -5 -10 -14 -23 -19 -52 -24
-207 -177 -254 -250 -9 -15 -20 -30 -23 -33 -4 -4 -23 -37 -54 -95 -6 -11 -14
-22 -17 -25 -3 -3 -14 -26 -25 -52 -10 -27 -22 -48 -26 -48 -5 0 -8 -9 -8 -19
0 -11 -4 -23 -10 -26 -5 -3 -10 -14 -10 -23 0 -9 -7 -30 -15 -46 -8 -15 -15
-37 -15 -47 0 -10 -4 -20 -9 -23 -5 -3 -11 -16 -14 -28 -2 -13 -12 -50 -22
-83 -17 -61 -22 -82 -50 -215 -35 -166 -74 -528 -75 -687 l0 -73 -112 0 c-62
0 -131 -5 -153 -10 -37 -8 -177 -17 -350 -21 -49 -1 -80 3 -100 14 -27 14 -28
16 -8 17 12 0 24 -4 28 -9 7 -12 145 -12 145 0 0 5 58 9 129 9 76 0 132 4 136
10 3 6 49 10 103 10 122 0 142 5 142 36 0 12 5 26 10 29 6 3 10 35 10 71 0 36
-4 64 -10 64 -5 0 -10 -11 -10 -25 0 -14 -4 -25 -9 -25 -5 0 -7 9 -4 20 4 16
0 20 -21 20 -16 0 -26 5 -26 15 0 8 7 15 15 15 8 0 15 7 15 15 0 8 -9 15 -19
15 -11 0 -23 5 -26 10 -3 6 1 10 10 10 13 0 16 6 11 25 -5 18 -2 25 9 25 8 0
15 7 15 15 0 8 -8 15 -18 15 -26 0 -34 11 -21 27 9 10 6 19 -15 38 -29 27 -28
54 1 83 8 8 12 17 9 20 -8 8 -46 -29 -46 -45 0 -7 -6 -13 -14 -13 -8 0 -16 -3
-19 -7 -2 -5 -2 -2 -1 4 5 21 -7 15 -38 -18 -23 -24 -33 -28 -42 -19 -8 10 -8
14 2 17 20 8 14 23 -11 23 -15 0 -28 -11 -41 -35 -11 -21 -27 -35 -38 -35 -10
0 -18 -7 -18 -15 0 -8 6 -15 14 -15 23 0 29 -31 6 -37 -13 -4 -21 -15 -22 -32
0 -14 -2 -32 -2 -40 -1 -8 -7 -16 -14 -19 -6 -2 -12 -19 -12 -37 0 -27 5 -34
23 -38 16 -3 13 -5 -10 -6 -25 -1 -33 -6 -33 -20 0 -10 -7 -21 -15 -25 -14 -5
-14 -2 0 24 8 16 15 44 14 62 0 31 -1 30 -17 -17 -15 -47 -34 -74 -75 -105
-21 -15 -186 -39 -267 -39 -50 1 -46 2 45 18 102 18 145 33 145 53 0 6 9 5 23
-4 36 -24 65 -3 99 70 28 60 29 69 23 143 -4 44 -11 79 -16 79 -5 0 -9 15 -9
33 0 17 -5 50 -10 72 -13 48 -40 142 -50 170 -4 11 -13 38 -20 60 -7 22 -18
54 -25 70 -7 17 -18 46 -25 65 -19 53 -91 211 -100 220 -3 3 -11 18 -19 33
-21 40 -89 106 -117 113 -13 3 -24 9 -24 13 0 9 -82 31 -160 43 -157 23 -660
47 -945 46 -266 -1 -248 -12 45 -28 232 -13 416 -27 500 -38 36 -5 117 -15
180 -22 132 -14 174 -26 166 -47 -4 -8 -6 -19 -6 -25 0 -5 -7 -2 -16 6 -8 9
-23 16 -32 15 -14 0 -13 -2 3 -8 19 -7 19 -8 0 -18 -10 -6 -36 -8 -57 -6 -24
4 -44 1 -55 -8 -13 -11 -17 -11 -20 -1 -9 26 -88 4 -96 -27 -4 -13 -5 -12 -6
3 -1 17 -7 18 -53 12 -29 -4 -56 -13 -60 -19 -6 -9 -8 -9 -8 -1 0 7 -7 15 -16
18 -13 5 -15 1 -10 -19 5 -18 2 -25 -8 -25 -8 0 -16 6 -19 13 -2 7 -8 8 -13 3
-5 -5 -4 -11 4 -13 6 -3 12 -12 12 -20 0 -13 2 -13 17 -2 15 13 15 12 5 -8
-18 -32 -15 -53 7 -53 11 0 21 4 23 9 5 13 48 24 48 12 0 -6 -4 -11 -10 -11
-5 0 -10 -9 -10 -21 0 -15 4 -19 15 -15 8 3 22 9 30 12 10 4 15 0 15 -10 0
-13 4 -15 19 -6 13 6 22 7 26 0 6 -10 11 -11 121 -10 66 1 72 0 77 -21 4 -13
5 -24 3 -26 -5 -5 -109 -25 -151 -29 -22 -2 -83 -8 -135 -14 -52 -6 -133 -12
-180 -14 -47 -2 -193 -9 -325 -15 -496 -24 -650 -29 -660 -21 -8 6 -299 22
-418 23 l-27 0 0 236 c-1 301 13 279 -175 292 -77 5 -311 14 -520 20 -209 5
-483 13 -610 18 -231 9 -255 7 -255 -25 0 -16 27 -19 32 -4 2 7 22 7 58 1 30
-5 177 -12 325 -15 720 -15 1050 -28 1065 -43 13 -12 14 -49 11 -246 -2 -159
-7 -234 -15 -240 -6 -4 -84 -7 -173 -6 -121 0 -166 4 -180 14 -10 8 -25 15
-34 15 -9 0 -22 6 -28 14 -13 15 -29 15 247 -4 74 -5 139 -7 146 -4 10 4 15
60 20 213 3 115 4 215 1 223 -7 17 -155 24 -790 39 -203 5 -438 11 -522 14
l-152 6 -6 -23 c-3 -13 -4 -108 -3 -213 l3 -190 165 -14 c91 -8 170 -19 175
-23 6 -5 19 -16 30 -24 19 -14 18 -15 -15 -8 -19 4 -101 9 -181 11 -143 4
-146 5 -159 28 -13 25 -35 33 -42 15 -2 -6 -18 -6 -43 0 -22 5 -83 10 -136 10
-82 0 -106 4 -155 26 -84 37 -96 50 -94 104 3 84 -2 285 -7 268 -2 -10 -9 -18
-14 -18 -5 0 -9 -40 -9 -89 0 -50 -5 -93 -10 -96 -6 -3 -10 -36 -10 -72 0 -55
4 -69 22 -84 l21 -19 -21 0 c-13 0 -22 6 -22 15 0 8 -4 15 -9 15 -16 0 -21 64
-11 160 6 52 13 134 17 183 l6 87 76 0 c102 1 71 20 -43 27 -92 6 -115 -5
-117 -55 0 -15 -3 -21 -6 -14 -3 9 -53 12 -199 12 l-194 0 0 -110 0 -110 195
0 195 0 0 46 c0 27 4 43 10 39 5 -3 10 -26 10 -51 l0 -44 -205 0 -205 0 0 -80
0 -81 210 3 210 3 -1 -30 c-1 -17 -3 -22 -6 -12 -4 15 -23 17 -209 17 l-204 0
0 -40 0 -40 205 0 c138 0 205 3 205 11 0 5 4 7 10 4 13 -8 13 -45 0 -45 -5 0
-10 5 -10 10 0 6 -75 10 -205 10 l-205 0 0 -70 0 -70 211 0 211 0 -7 51 c-5
37 -4 50 4 45 6 -4 11 -27 11 -52 0 -24 4 -44 9 -44 13 0 22 -73 11 -84 -7 -7
-10 -2 -10 13 0 48 -14 51 -234 51 l-206 0 0 -47 0 -48 87 2 c405 12 396 13
353 -52 -18 -28 -20 -28 -20 -7 0 22 -1 22 -160 22 -153 0 -160 -1 -160 -20 0
-16 7 -20 35 -20 19 0 35 -4 35 -10 0 -5 11 -10 25 -10 15 0 25 -6 25 -14 0
-12 22 -15 110 -18 83 -2 110 0 110 10 0 6 5 12 10 12 13 0 12 -10 -5 -40 -8
-14 -14 -33 -15 -42 0 -22 38 -58 62 -58 10 0 18 -4 18 -10 0 -5 8 -10 18 -10
16 -1 16 -1 0 -14 -10 -7 -18 -23 -18 -36 0 -32 -31 -80 -57 -86 -13 -4 -23
-12 -23 -19 0 -20 147 -27 187 -8 31 14 63 14 133 -1 14 -2 77 -10 140 -17
l115 -12 3 -60 c4 -86 10 -90 160 -104 56 -5 65 -9 84 -37 54 -77 153 -185
171 -186 11 0 41 -30 30 -30 -8 0 -53 28 -63 40 -14 16 -62 40 -70 35 -5 -3
-7 1 -4 9 5 12 -2 11 -35 -5 -23 -11 -55 -22 -71 -26 -17 -3 -30 -9 -30 -14 0
-5 -7 -9 -15 -9 -8 0 -15 -6 -15 -14 0 -8 -6 -17 -12 -19 -10 -4 -9 -8 2 -16
8 -6 11 -11 5 -12 -43 -6 -61 -5 -67 4 -5 8 -15 4 -31 -11 -13 -13 -42 -24
-70 -28 -34 -5 -47 -11 -45 -22 2 -8 -3 -17 -9 -19 -7 -3 -13 0 -13 6 0 19
-17 12 -23 -8 -3 -14 -17 -21 -49 -26 -31 -5 -47 -13 -53 -27 -7 -14 -22 -22
-45 -25 -19 -2 -39 -8 -44 -13 -6 -6 -17 -10 -25 -10 -9 0 -21 -12 -28 -26
-10 -22 -10 -24 7 -19 13 4 25 -3 41 -24 12 -17 28 -27 35 -24 8 3 14 0 14 -6
0 -6 10 -11 23 -11 12 0 28 -8 36 -18 8 -12 22 -17 40 -14 17 2 34 -3 44 -12
8 -9 33 -17 54 -18 21 -2 40 -6 43 -10 6 -8 133 -26 243 -35 37 -3 67 -8 67
-12 0 -3 19 -6 43 -7 81 -1 262 -13 277 -18 8 -3 49 -7 90 -10 41 -3 120 -9
175 -15 86 -8 234 -15 328 -14 15 0 27 -3 27 -7 0 -4 33 -8 73 -8 39 -1 124
-4 187 -8 63 -3 142 -6 175 -7 33 -1 65 -5 70 -8 6 -4 91 -7 191 -8 99 -1 197
-6 218 -11 20 -4 139 -10 264 -12 273 -4 1222 1 1342 7 242 12 456 25 495 31
17 2 80 7 140 10 61 4 115 10 120 14 6 5 71 11 145 15 74 4 151 9 170 11 19 3
83 7 142 9 88 3 110 1 123 -11 12 -12 19 -13 29 -5 14 12 72 19 189 25 32 2
60 6 64 10 11 11 41 7 46 -6 4 -10 7 -10 14 -1 6 9 46 13 126 14 64 0 117 4
117 9 0 12 46 18 63 8 9 -4 18 -4 21 0 3 5 26 8 51 7 27 0 50 4 57 12 13 16
48 17 48 2 0 -8 4 -8 13 0 7 6 27 10 43 10 27 0 52 2 194 17 30 3 64 9 75 14
17 7 81 15 192 23 12 1 25 5 29 10 4 4 29 7 55 7 29 0 49 5 52 13 4 9 7 9 18
0 7 -7 17 -13 22 -13 5 0 7 6 4 13 -3 8 8 12 37 13 89 2 168 9 172 16 3 5 23
8 44 8 21 0 41 4 45 10 3 6 16 5 32 -3 21 -9 27 -9 31 1 2 8 27 12 72 12 38 0
70 4 72 9 2 5 35 12 73 15 39 4 72 11 73 16 2 6 24 10 48 10 24 0 44 5 44 10
0 6 7 6 18 -1 14 -9 26 -8 53 4 19 9 47 14 63 12 16 -2 41 2 55 9 14 7 32 11
39 9 7 -3 18 0 25 5 8 7 18 7 27 2 8 -5 19 -6 24 -3 5 4 32 5 58 4 29 -1 48 2
48 8 0 6 11 11 24 11 13 0 26 6 29 13 3 9 9 9 24 1 15 -9 25 -9 43 1 13 7 29
11 35 8 7 -2 18 3 25 12 10 13 15 13 21 3 7 -10 11 -10 21 0 6 6 29 12 50 12
21 0 38 5 38 10 0 6 8 5 20 -2 15 -10 22 -10 28 -2 4 7 33 15 65 19 31 4 57
11 57 16 0 5 15 8 33 8 17 -1 52 4 77 11 25 6 54 11 65 11 10 0 24 4 30 8 5 5
33 12 60 16 28 4 54 9 59 12 4 3 31 7 60 9 28 3 53 9 54 14 2 6 19 10 38 10
19 0 50 6 69 14 20 9 37 11 40 5 4 -5 19 -2 36 6 16 9 33 13 38 11 5 -3 22 1
39 9 17 9 60 18 96 22 38 3 66 11 66 17 0 7 26 12 66 13 36 1 71 6 77 11 7 6
35 13 62 17 28 4 59 10 70 12 11 3 34 7 50 10 17 2 37 7 45 10 8 3 31 7 50 10
19 2 62 9 95 15 65 12 162 23 325 37 255 22 299 36 381 122 71 74 154 236 189
369 6 25 15 59 20 75 5 17 14 71 21 120 6 52 18 97 27 108 8 9 40 29 71 44 31
15 62 33 69 40 7 7 20 13 28 13 8 0 14 5 14 10 0 6 8 10 17 10 14 0 13 3 -6
21 -20 19 -24 20 -46 5 -31 -21 -35 -20 -35 4 0 11 -6 20 -13 20 -8 0 -13 -10
-13 -22 1 -16 -5 -23 -17 -23 -12 0 -26 -15 -38 -40 l-20 -40 6 35 c22 140 45
412 40 470 -1 19 -6 94 -10 165 -4 75 -13 142 -21 159 -8 16 -14 37 -14 48 0
10 -3 18 -7 18 -5 0 -17 20 -28 45 -11 25 -22 45 -26 45 -4 0 -10 10 -13 23
-12 46 -121 163 -161 173 -14 3 -25 10 -25 15 0 5 -38 9 -85 9 -47 0 -85 -4
-85 -8 0 -4 -17 -14 -37 -21 -42 -15 -203 -171 -203 -196 0 -8 -3 -15 -8 -15
-8 0 -12 -7 -60 -107 -18 -37 -37 -76 -43 -85 -5 -10 -9 -24 -9 -31 0 -7 -9
-33 -21 -56 -11 -24 -23 -59 -26 -77 -3 -19 -10 -37 -14 -40 -5 -3 -9 -16 -9
-30 0 -13 -4 -32 -9 -42 -15 -29 -41 -127 -41 -155 0 -15 -4 -27 -9 -27 -5 0
-11 -17 -14 -37 -8 -58 -27 -136 -37 -155 -6 -10 -10 -29 -10 -43 0 -14 -5
-25 -11 -25 -8 0 -9 13 -4 43 4 23 8 61 9 84 0 22 4 39 8 37 14 -9 17 14 6 50
-8 26 -9 40 -1 44 5 4 13 18 16 32 3 14 11 48 17 75 7 28 16 54 21 60 5 5 9
24 9 42 0 18 4 33 9 33 5 0 12 20 15 45 4 24 11 47 17 50 5 4 9 17 9 30 0 13
5 27 10 30 6 3 10 17 10 30 0 24 32 107 76 200 13 28 24 54 24 58 0 4 9 18 20
30 12 12 23 32 26 44 4 13 10 23 15 23 5 0 9 9 9 20 0 11 5 20 10 20 6 0 10 6
10 14 0 7 7 19 15 26 8 7 15 23 15 36 0 13 5 24 10 24 6 0 10 8 10 18 0 10 4
22 10 28 5 5 6 29 1 59 l-9 50 -1 -41 c-1 -41 -20 -94 -33 -94 -5 0 -8 -11 -8
-24 0 -14 -6 -31 -12 -38 -12 -12 -36 -54 -97 -173 -14 -27 -29 -51 -33 -53
-5 -2 -8 -15 -8 -28 0 -13 -4 -24 -10 -24 -5 0 -10 -8 -10 -17 0 -10 -7 -27
-15 -37 -8 -11 -15 -30 -15 -43 0 -13 -4 -23 -10 -23 -5 0 -10 -7 -10 -16 0
-19 -28 -112 -41 -136 -5 -10 -9 -29 -9 -43 0 -14 -4 -33 -9 -43 -16 -32 -41
-117 -41 -139 0 -13 -4 -23 -10 -23 -5 0 -10 -11 -10 -25 0 -14 -4 -25 -10
-25 -5 0 -10 -12 -10 -27 0 -19 -3 -24 -9 -15 -4 7 -6 24 -3 38 2 14 0 24 -7
24 -6 0 -11 -6 -11 -14 0 -17 -89 -106 -106 -106 -8 0 -14 -4 -14 -8 0 -8 -43
-19 -172 -43 -125 -24 -198 -38 -343 -69 -62 -13 -204 -40 -260 -50 -27 -5
-86 -16 -130 -25 -44 -10 -98 -19 -120 -22 l-40 -5 7 149 c3 81 9 157 11 168
3 11 6 29 7 40 1 17 3 15 13 -7 9 -20 16 -25 26 -19 8 5 20 7 28 4 8 -3 13 3
13 17 0 17 3 20 13 12 8 -7 18 -7 27 -2 8 6 25 10 38 10 12 0 22 5 22 10 0 6
16 10 35 10 24 0 35 5 35 15 0 9 9 15 25 15 14 0 23 -5 21 -12 -1 -7 -1 -10 1
-5 3 4 12 7 20 7 9 0 13 6 9 15 -4 12 3 15 29 15 19 0 35 4 35 9 0 4 11 6 25
3 14 -2 25 -1 24 4 -4 24 4 33 34 43 17 6 39 10 47 9 37 -3 60 3 60 16 0 15 6
16 147 43 53 10 95 23 98 30 3 10 0 11 -15 3 -25 -13 -30 -13 -30 5 0 8 16 22
35 31 19 9 35 23 35 30 0 8 5 14 10 14 6 0 10 -7 10 -15 0 -8 3 -15 6 -15 12
0 30 26 26 38 -2 7 5 12 16 12 27 0 45 23 30 38 -9 9 -6 12 15 12 23 0 27 4
27 30 0 18 6 33 15 36 10 4 15 21 15 54 0 48 17 69 42 54 7 -4 7 2 3 17 -4 13
-12 27 -18 31 -6 4 -4 12 6 22 18 18 12 46 -9 46 -14 0 -14 10 2 70 5 21 -11
46 -20 31 -4 -6 -14 -11 -23 -11 -11 0 -14 6 -9 25 6 22 3 25 -23 25 -20 0
-30 6 -34 20 -7 25 -27 26 -34 1 -6 -25 -33 -16 -33 10 0 18 -1 19 -25 3 -18
-12 -24 -22 -20 -35 4 -13 1 -19 -9 -19 -8 0 -16 8 -18 17 -3 16 -4 16 -20 0
-21 -21 -32 -22 -24 -2 3 9 0 15 -9 15 -8 0 -15 -7 -15 -15 0 -10 -11 -15 -35
-15 -24 0 -35 -5 -35 -15 0 -8 -6 -15 -14 -15 -7 0 -19 7 -26 15 -15 18 -46
20 -56 3 -5 -8 -11 -6 -20 6 -11 16 -13 16 -21 1 -6 -10 -28 -19 -54 -22 -24
-4 -57 -14 -74 -24 -27 -17 -31 -17 -47 -2 -17 15 -19 15 -36 0 -21 -19 -42
-22 -42 -7 0 6 -7 10 -15 10 -8 0 -15 -5 -15 -10 0 -6 7 -13 15 -16 8 -4 15
-10 15 -15 0 -5 -7 -9 -15 -9 -8 0 -15 4 -15 9 0 5 -20 9 -45 8 -41 0 -45 -3
-40 -21 3 -12 2 -15 -1 -8 -9 19 -24 14 -24 -8 0 -11 -5 -20 -11 -20 -6 0 -8
9 -4 20 4 11 2 20 -4 20 -6 0 -11 -9 -11 -19 0 -10 -7 -22 -16 -25 -22 -8 -22
-8 -26 12 -3 9 -8 -7 -12 -35 -8 -51 -19 -67 -28 -40 -3 6 -6 70 -7 142 -2 71
-7 132 -11 135 -5 3 -11 37 -13 75 -1 39 -4 -18 -6 -125z m951 -32 c-9 -9 -12
-7 -12 12 0 19 3 21 12 12 9 -9 9 -15 0 -24z m65 -44 c-3 -3 -12 -4 -19 -1 -8
3 -5 6 6 6 11 1 17 -2 13 -5z m-557 -19 c0 -8 -7 -15 -15 -15 -8 0 -15 7 -15
15 0 8 7 15 15 15 8 0 15 -7 15 -15z m-113 -17 c-3 -8 -6 -5 -6 6 -1 11 2 17
5 13 3 -3 4 -12 1 -19z m690 0 c-3 -8 -6 -5 -6 6 -1 11 2 17 5 13 3 -3 4 -12
1 -19z m-1127 -133 c0 -8 -7 -15 -15 -15 -16 0 -20 12 -8 23 11 12 23 8 23 -8z
m-50 -9 c0 -8 -10 -13 -25 -13 -15 0 -25 5 -25 13 0 8 10 14 25 14 15 0 25 -6
25 -14z m-70 -21 c0 -8 -2 -15 -4 -15 -2 0 -6 7 -10 15 -3 8 -1 15 4 15 6 0
10 -7 10 -15z m1899 -252 c1 -43 6 -96 11 -118 5 -22 9 -65 9 -95 -1 -50 -2
-47 -16 40 -12 82 -23 131 -39 189 -3 8 -13 12 -28 9 -17 -4 -23 -1 -19 9 3 7
11 13 18 13 7 0 18 7 25 15 27 33 37 17 39 -62z m169 64 c9 -10 6 -17 -8 -27
-15 -11 -20 -26 -20 -60 0 -25 -7 -79 -17 -120 -9 -41 -16 -85 -16 -97 1 -13
-3 -23 -8 -23 -5 0 -9 16 -9 35 0 19 5 35 10 35 6 0 10 26 10 58 0 33 3 93 6
135 6 64 10 77 24 77 10 0 22 -6 28 -13z m153 -251 c19 -21 7 -47 -45 -101
-30 -31 -58 -64 -61 -75 -4 -11 -10 -20 -14 -20 -4 0 -16 -16 -27 -35 -10 -19
-22 -35 -26 -35 -5 0 -8 -7 -8 -15 0 -8 -4 -15 -10 -15 -5 0 -10 -9 -10 -20 0
-18 7 -20 80 -20 47 0 80 4 80 10 0 6 8 10 18 10 9 0 26 7 36 15 33 25 41 17
44 -38 1 -31 -1 -47 -6 -39 -6 9 -39 15 -93 17 -46 3 -102 7 -124 9 -22 2 -46
4 -52 5 -14 1 -18 31 -5 31 5 0 17 16 28 35 10 19 22 35 26 35 5 0 8 7 8 15 0
8 3 15 8 15 10 0 42 58 42 76 0 8 4 14 8 14 13 0 82 125 83 151 1 20 2 21 6 4
3 -11 9 -24 14 -29z m-1610 8 c-34 -15 -48 -13 -36 5 3 6 21 11 38 10 l32 -1
-34 -14z m1109 -24 c0 -10 7 -25 15 -34 8 -8 15 -18 15 -23 0 -4 10 -19 23
-33 26 -28 57 -90 57 -113 0 -9 5 -19 10 -22 6 -3 10 -11 10 -16 0 -6 -7 -4
-15 5 -8 8 -15 22 -15 30 0 17 -106 129 -130 138 -12 4 -13 8 -2 19 6 7 12 28
12 47 0 19 4 31 10 27 6 -3 10 -15 10 -25z m-4502 -37 c-10 -2 -26 -2 -35 0
-10 3 -2 5 17 5 19 0 27 -2 18 -5z m140 -14 c2 -5 11 -9 20 -9 10 0 26 -7 36
-15 19 -15 19 -15 -1 -15 -40 0 -46 -17 -72 -193 -11 -72 -33 -147 -43 -147
-4 0 -9 -15 -9 -32 -1 -25 -3 -27 -6 -10 -3 13 1 38 8 55 13 34 29 185 32 302
2 66 1 69 -23 77 -17 5 -12 6 15 2 22 -3 42 -10 43 -15z m-198 2 c0 -5 -5 -11
-12 -13 -9 -3 -7 -41 5 -154 9 -83 16 -168 16 -190 l-1 -39 -10 40 c-14 60
-26 123 -37 189 -7 41 -17 67 -35 84 -24 24 -26 25 -50 8 -44 -28 -28 -10 23
28 27 20 56 36 65 36 9 0 16 5 16 10 0 6 5 10 10 10 6 0 10 -4 10 -9z m-4940
-21 c0 -5 -4 -10 -10 -10 -5 0 -10 -11 -10 -25 0 -16 -6 -25 -15 -25 -19 0
-19 5 2 41 17 29 33 38 33 19z m97 -8 c-26 -28 -22 -52 9 -52 37 0 61 27 46
51 -10 16 -9 19 3 19 19 0 20 -46 1 -66 -18 -17 -86 -19 -87 -1 -3 34 13 67
34 67 5 0 3 -8 -6 -18z m137 11 c-5 -5 -12 -12 -16 -18 -4 -6 -8 -2 -8 8 0 9
7 17 17 17 9 0 12 -3 7 -7z m43 -37 c-11 -9 -15 -20 -11 -32 6 -18 6 -18 -11
-2 -16 15 -17 18 -2 33 9 8 13 23 10 33 -5 15 -4 15 13 -1 18 -17 18 -19 1
-31z m117 38 c21 -8 21 -60 0 -68 -9 -4 -19 -4 -22 -1 -3 3 -1 5 5 5 14 0 24
26 17 45 -14 36 -81 2 -71 -36 4 -13 1 -19 -6 -16 -15 5 -11 43 5 62 14 15 46
19 72 9z m55 -45 c-12 -8 -12 -11 1 -19 13 -8 12 -10 -2 -10 -21 0 -23 13 -6
40 7 11 15 15 17 9 2 -6 -3 -15 -10 -20z m105 -7 c-7 -37 -24 -43 -24 -9 0 21
19 51 27 43 2 -1 0 -17 -3 -34z m141 -40 c-3 -3 -10 -1 -16 5 -8 8 -8 20 2 43
l14 31 3 -37 c2 -20 1 -39 -3 -42z m9072 56 c-3 -8 -6 -5 -6 6 -1 11 2 17 5
13 3 -3 4 -12 1 -19z m-9570 -25 c-3 -10 -5 -4 -5 12 0 17 2 24 5 18 2 -7 2
-21 0 -30z m453 14 c0 -12 -16 -23 -63 -45 -5 -2 4 10 20 27 30 33 43 38 43
18z m7320 -176 l0 -179 -47 -5 c-27 -3 -84 -13 -128 -22 -125 -25 -176 -35
-230 -44 -27 -5 -85 -16 -127 -25 -160 -33 -234 -47 -283 -52 -27 -3 -59 -9
-70 -14 -20 -8 -31 -11 -146 -30 -31 -5 -68 -14 -83 -20 -15 -5 -52 -10 -82
-10 -30 0 -54 -4 -54 -10 0 -5 -21 -10 -46 -10 -27 0 -43 4 -39 10 3 6 20 10
38 10 l31 0 -24 17 c-14 9 -27 18 -29 19 -7 6 58 64 71 64 7 0 21 -7 31 -14
21 -16 67 -9 67 10 0 16 2 16 24 8 24 -9 21 -54 -3 -54 -11 0 -21 6 -24 13 -2
6 -8 9 -12 5 -4 -4 -5 -14 -2 -23 8 -20 73 -20 93 0 14 13 13 15 -6 15 -17 0
-21 5 -18 28 2 22 8 27 31 28 16 1 32 6 35 11 4 6 17 13 30 17 12 4 22 14 22
22 0 18 15 18 34 -2 9 -8 20 -12 26 -9 16 10 12 33 -7 38 -13 3 -12 5 5 6 13
0 30 8 38 16 17 16 44 20 44 6 0 -5 -9 -11 -20 -14 -13 -3 -18 -10 -14 -21 8
-20 34 -21 34 -1 0 9 7 18 15 21 8 4 13 10 10 15 -7 11 28 29 57 29 13 0 29 5
36 12 9 9 15 9 24 0 15 -15 48 -16 48 -2 0 6 7 10 15 10 21 0 19 20 -2 21 -10
0 -4 5 12 10 17 5 37 6 45 3 8 -3 21 5 30 17 15 19 18 20 32 5 14 -14 16 -13
22 7 5 18 8 20 16 7 7 -12 11 -8 16 18 6 31 8 32 55 32 26 0 51 5 54 10 3 6
19 10 36 10 16 0 29 5 29 12 0 9 3 9 11 1 9 -9 15 -8 25 2 8 7 19 16 26 18 10
4 9 8 -2 16 -13 9 -12 11 5 12 27 3 38 5 55 12 8 4 31 9 50 11 26 3 34 8 32
20 -4 22 35 21 41 -1 3 -13 5 -12 6 5 1 29 18 62 31 62 6 0 10 -71 10 -179z
m-1680 127 c0 -19 -2 -20 -10 -8 -13 19 -13 30 0 30 6 0 10 -10 10 -22z
m-1520 -13 c-7 -9 -15 -13 -17 -11 -6 6 20 36 26 30 2 -2 -2 -10 -9 -19z m-33
-40 c-15 -16 -19 -13 -11 9 3 9 10 13 15 10 5 -3 3 -11 -4 -19z m-4637 8 c0
-4 -4 -20 -10 -37 -5 -17 -12 -48 -15 -68 -4 -28 -11 -38 -24 -38 -13 0 -18 8
-19 30 0 17 4 30 9 30 5 0 9 8 9 18 0 10 5 23 11 29 7 7 6 12 -4 16 -19 7 -83
-40 -79 -59 2 -8 -5 -14 -16 -14 -11 0 -25 -7 -32 -15 -7 -8 -22 -15 -34 -15
-18 0 -16 4 16 33 63 55 76 65 105 81 28 15 83 22 83 9z m9650 -40 c0 -7 -7
-13 -15 -13 -10 0 -15 10 -15 33 1 30 1 31 15 13 8 -11 15 -26 15 -33z m-9547
31 c3 -4 -3 -24 -13 -45 -34 -65 -29 -76 35 -76 31 0 59 -3 62 -7 4 -3 -33 -6
-80 -6 -48 0 -87 2 -87 5 0 3 4 13 9 23 22 40 41 86 41 99 0 13 22 18 33 7z
m276 -10 c2 -2 -10 -4 -28 -4 -40 0 -53 -13 -71 -70 -17 -55 -26 -68 -40 -54
-8 8 -5 27 10 63 11 28 20 54 20 56 0 3 -18 5 -40 5 -22 0 -40 5 -40 10 0 10
178 4 189 -6z m81 -6 c0 -7 -7 -22 -15 -32 -8 -11 -15 -30 -15 -43 0 -13 -4
-23 -10 -23 -5 0 -10 -9 -10 -20 0 -11 -6 -20 -13 -20 -23 0 -28 12 -14 34 7
12 21 42 31 69 16 42 46 66 46 35z m210 -9 c0 -7 -18 -10 -47 -9 -27 2 -58 2
-70 1 -28 -1 -31 -31 -4 -31 11 0 23 -4 26 -10 3 -5 20 -10 36 -10 33 0 59
-19 59 -44 0 -24 -64 -39 -136 -31 -72 7 -96 25 -35 25 22 0 43 -4 46 -10 3
-5 17 -10 31 -10 13 0 24 5 24 10 0 6 9 10 20 10 22 0 27 15 8 27 -7 4 -35 13
-62 18 -55 11 -77 34 -57 59 16 19 161 24 161 5z m8900 2 c0 -6 -5 -13 -10
-16 -6 -4 -8 -16 -4 -27 5 -18 4 -19 -8 -8 -11 11 -12 19 -4 37 11 23 26 31
26 14z m-4264 -114 c3 -18 11 -38 16 -44 7 -9 0 -20 -23 -40 -76 -63 -190
-183 -225 -239 -17 -27 -52 -64 -61 -64 -6 0 16 37 31 52 7 8 48 65 91 128 43
63 83 120 90 127 33 33 57 84 50 110 -5 23 -4 25 9 14 8 -7 18 -27 22 -44z
m4147 3 c48 1 109 17 118 32 5 7 9 10 9 6 0 -3 3 -13 6 -22 5 -12 -1 -16 -24
-16 -16 0 -49 -9 -73 -20 -24 -11 -60 -20 -80 -20 -37 0 -63 -15 -72 -40 -3
-8 -6 15 -6 52 l-1 67 46 -19 c25 -11 60 -20 77 -20z m-4883 -90 c6 0 10 -4
10 -9 0 -5 19 -29 43 -53 42 -42 107 -138 107 -158 0 -6 5 -10 10 -10 6 0 10
-6 10 -12 0 -7 21 -35 46 -61 55 -59 55 -81 -1 -85 -47 -3 -145 -33 -145 -44
0 -4 -29 -8 -65 -8 -76 0 -111 -14 -119 -46 -4 -13 -11 -24 -16 -24 -13 0 -13
157 0 165 6 3 10 2 10 -4 0 -40 329 -45 344 -5 3 8 -8 27 -23 43 -16 17 -37
44 -47 60 -10 17 -22 31 -26 31 -4 0 -8 6 -8 13 0 27 -172 163 -192 151 -10
-7 1 68 11 76 4 3 14 25 21 50 l15 45 3 -57 c2 -32 7 -58 12 -58z m5080 79 c0
-4 -7 -6 -15 -3 -8 4 -15 10 -15 15 0 4 7 6 15 3 8 -4 15 -10 15 -15z m-6667
-9 c16 0 17 -3 8 -14 -9 -11 -9 -15 1 -20 7 -3 2 -3 -12 0 -30 8 -26 4 -35 34
-6 20 -5 23 6 13 7 -7 22 -13 32 -13z m7287 -20 c0 -5 -7 -10 -16 -10 -8 0
-12 5 -9 10 3 6 10 10 16 10 5 0 9 -4 9 -10z m-593 -22 c-3 -8 -6 -5 -6 6 -1
11 2 17 5 13 3 -3 4 -12 1 -19z m-127 -4 c0 -8 -4 -12 -10 -9 -5 3 -10 10 -10
16 0 5 5 9 10 9 6 0 10 -7 10 -16z m-453 -66 c-2 -13 -4 -5 -4 17 -1 22 1 32
4 23 2 -10 2 -28 0 -40z m-9024 35 c-7 -2 -19 -2 -25 0 -7 3 -2 5 12 5 14 0
19 -2 13 -5z m9625 -45 c-5 -14 -38 19 -38 38 0 10 6 8 21 -7 11 -11 19 -25
17 -31z m-9388 32 c0 -5 -5 -10 -11 -10 -5 0 -7 5 -4 10 3 6 8 10 11 10 2 0 4
-4 4 -10z m100 0 c0 -5 -5 -10 -11 -10 -5 0 -7 5 -4 10 3 6 8 10 11 10 2 0 4
-4 4 -10z m4459 -32 c-1 -42 -1 -42 -10 -13 -5 17 -7 36 -4 43 9 24 15 11 14
-30z m4742 2 c5 0 9 -7 9 -15 0 -8 -4 -15 -10 -15 -5 0 -10 5 -10 10 0 6 -7
10 -15 10 -12 0 -13 4 -2 27 11 26 12 26 15 5 2 -12 8 -22 13 -22z m-3874 8
c-3 -8 -6 -5 -6 6 -1 11 2 17 5 13 3 -3 4 -12 1 -19z m-790 -55 c-3 -10 -5 -2
-5 17 0 19 2 27 5 18 2 -10 2 -26 0 -35z m790 -45 c-2 -18 -4 -6 -4 27 0 33 2
48 4 33 2 -15 2 -42 0 -60z m4103 -52 c0 -18 44 -64 56 -59 16 6 20 -32 4 -42
-5 -3 -10 -16 -11 -28 0 -18 -3 -15 -17 13 -9 19 -20 37 -24 38 -5 2 -8 10 -8
18 0 21 -42 83 -89 132 -67 69 -47 67 24 -2 36 -35 65 -67 65 -70z m-285 92
c-4 -18 -16 -45 -26 -60 -11 -14 -22 -40 -25 -57 -4 -17 -10 -31 -15 -31 -5 0
-9 -5 -9 -12 0 -19 -53 -128 -62 -128 -4 0 -8 8 -8 18 0 9 -3 27 -6 40 -4 14
-2 22 6 22 16 0 32 18 55 65 11 22 22 42 25 45 3 3 19 33 35 67 17 34 31 62
33 63 2 0 0 -15 -3 -32z m-478 -10 c-3 -7 -5 -2 -5 12 0 14 2 19 5 13 2 -7 2
-19 0 -25z m-4200 -60 c-2 -13 -4 -5 -4 17 -1 22 1 32 4 23 2 -10 2 -28 0 -40z
m54 -1 c-8 -8 -11 -4 -11 14 0 33 14 47 18 19 2 -12 -1 -27 -7 -33z m4008 21
c-35 -33 -54 -42 -102 -50 -55 -10 -58 -10 -262 -33 -71 -8 -150 -17 -175 -20
-25 -2 -83 -9 -130 -15 -98 -11 -321 -37 -430 -50 -41 -5 -119 -13 -173 -19
-54 -5 -133 -15 -175 -20 -125 -17 -162 -21 -264 -30 -53 -5 -109 -12 -125
-15 -15 -3 -73 -11 -128 -17 -55 -6 -134 -15 -175 -20 -41 -5 -123 -13 -182
-18 -60 -6 -133 -15 -165 -20 -31 -6 -85 -11 -119 -11 -35 0 -66 -4 -69 -10
-3 -5 -37 -10 -74 -10 -37 0 -90 -7 -117 -15 -27 -8 -50 -15 -51 -15 -2 0 -3
8 -3 19 0 13 7 18 28 18 15 1 81 8 147 17 66 9 163 21 215 27 138 15 237 26
390 44 74 9 176 20 225 25 50 4 149 15 220 25 72 9 166 21 210 25 130 14 258
29 290 35 17 3 66 8 110 11 44 3 84 8 89 12 5 3 53 9 105 13 53 5 152 15 221
23 69 8 163 19 210 25 47 5 126 14 175 20 148 16 223 30 257 50 36 20 48 20
27 -1z m-9859 -2 c0 -3 -4 -8 -10 -11 -5 -3 -10 -1 -10 4 0 6 5 11 10 11 6 0
10 -2 10 -4z m10511 -221 c-6 -22 -13 -67 -16 -101 -5 -50 -3 -64 10 -78 27
-27 10 -31 -25 -6 -23 16 -28 26 -21 33 6 6 11 26 11 44 0 18 4 41 9 51 14 26
31 131 33 203 2 57 2 55 6 -21 1 -47 -2 -103 -7 -125z m106 168 c-3 -10 -5 -4
-5 12 0 17 2 24 5 18 2 -7 2 -21 0 -30z m-3960 -20 c-3 -10 -5 -2 -5 17 0 19
2 27 5 18 2 -10 2 -26 0 -35z m792 -10 c-14 -16 -43 -18 -33 -2 3 6 0 15 -7
20 -12 8 -12 11 1 18 21 14 54 -17 39 -36z m-1597 20 c25 -22 23 -37 -8 -68
-21 -21 -29 -24 -35 -13 -5 7 -7 19 -4 26 3 8 5 27 5 43 0 33 15 37 42 12z
m-1638 -28 c16 -24 16 -25 -9 -25 -28 0 -29 -5 -16 -83 8 -46 7 -49 -18 -60
-14 -6 -29 -16 -33 -22 -4 -5 -8 6 -8 26 0 29 5 38 28 50 l27 14 -39 3 c-21 2
-43 -1 -49 -7 -18 -18 -37 -12 -37 10 0 18 -5 20 -27 17 -16 -3 -36 -9 -45
-13 -35 -14 -17 12 20 31 20 10 48 26 62 35 14 9 40 20 58 24 17 3 32 11 32
16 0 19 38 8 54 -16z m6435 -50 c13 -31 41 -142 41 -165 0 -11 5 -20 10 -20
17 0 10 -24 -16 -54 -30 -34 -39 -30 -18 9 11 22 13 35 5 53 -6 12 -11 40 -11
60 0 21 -4 42 -9 48 -5 5 -11 38 -14 74 -2 36 -3 54 0 40 2 -14 8 -34 12 -45z
m-4899 40 c0 -8 -7 -15 -15 -15 -8 0 -15 7 -15 15 0 8 7 15 15 15 8 0 15 -7
15 -15z m563 -105 l7 -55 -22 25 -23 26 -185 -1 c-114 -1 -188 3 -192 9 -8 12
9 46 22 46 6 0 10 -7 10 -15 0 -12 19 -15 110 -15 61 0 110 4 110 9 0 5 10 11
23 14 39 9 91 31 107 46 12 12 15 10 21 -10 3 -13 9 -49 12 -79z m344 78 c-3
-8 -6 -5 -6 6 -1 11 2 17 5 13 3 -3 4 -12 1 -19z m783 8 c0 -8 -51 -13 -56 -5
-3 5 9 9 25 9 17 0 31 -2 31 -4z m-130 -31 c0 -10 -10 -15 -28 -15 -15 0 -33
-5 -40 -12 -9 -9 -12 -9 -12 3 0 9 15 20 38 26 20 6 38 11 40 12 1 0 2 -6 2
-14z m53 8 c-7 -2 -19 -2 -25 0 -7 3 -2 5 12 5 14 0 19 -2 13 -5z m-7473 -53
c0 -5 -4 -10 -10 -10 -5 0 -10 5 -10 10 0 6 5 10 10 10 6 0 10 -4 10 -10z
m6747 -32 c-3 -8 -6 -5 -6 6 -1 11 2 17 5 13 3 -3 4 -12 1 -19z m-777 2 c0 -5
-4 -10 -10 -10 -5 0 -10 5 -10 10 0 6 5 10 10 10 6 0 10 -4 10 -10z m790 -51
c0 -5 -4 -9 -10 -9 -5 0 -10 7 -10 16 0 8 5 12 10 9 6 -3 10 -10 10 -16z
m-740 -11 c0 -16 -3 -19 -11 -11 -6 6 -8 16 -5 22 11 17 16 13 16 -11z m-1890
-6 c0 -5 15 -16 33 -25 l32 -16 -32 0 c-30 -1 -73 23 -73 41 0 5 9 8 20 8 11
0 20 -4 20 -8z m1700 -7 c0 -8 -7 -15 -15 -15 -8 0 -15 7 -15 15 0 8 7 15 15
15 8 0 15 -7 15 -15z m3690 5 c0 -5 4 -10 10 -10 17 0 50 -34 50 -51 0 -24 17
-28 146 -36 89 -5 114 -9 114 -20 0 -9 -7 -12 -17 -9 -20 6 -133 12 -408 22
-104 3 -201 7 -215 9 -14 1 -142 3 -285 5 -143 2 -236 5 -207 7 28 2 52 8 52
14 0 5 26 9 58 9 32 0 83 4 113 10 51 9 133 19 342 39 49 5 91 12 94 15 11 10
153 7 153 -4z m-5474 -57 c-4 -4 -11 -1 -16 7 -16 25 -11 35 7 17 9 -9 13 -20
9 -24z m2001 -41 c32 -32 81 -74 108 -92 28 -19 55 -41 61 -50 7 -8 32 -38 58
-65 41 -45 48 -49 66 -37 11 7 20 11 20 10 -3 -22 -41 -113 -48 -116 -6 -2
-16 11 -23 28 -8 16 -17 30 -21 30 -5 0 -8 9 -8 20 0 11 -4 20 -9 20 -5 0 -13
9 -16 21 -9 27 -29 52 -84 103 -24 23 -65 62 -92 89 -26 26 -51 47 -54 47 -3
0 -6 -12 -6 -27 -1 -25 -2 -24 -9 7 -4 19 -8 40 -10 45 -10 39 2 33 67 -33z
m954 48 c23 -13 25 -30 3 -30 -15 0 -44 23 -44 34 0 9 19 7 41 -4z m-1085 -53
c20 -12 17 -27 -6 -27 -11 0 -20 5 -20 10 0 6 -9 10 -21 10 -20 0 -20 0 3 33
l23 32 3 -25 c2 -14 10 -29 18 -33z m-5621 -21 c11 -2 47 -5 79 -5 60 -1 71
-15 13 -17 -18 -1 -48 -2 -67 -4 l-35 -2 40 -10 c22 -5 92 -13 155 -17 63 -5
126 -12 140 -15 27 -6 213 -21 450 -36 80 -5 210 -14 290 -19 80 -6 188 -13
240 -16 363 -20 493 -26 705 -35 132 -5 305 -12 385 -16 130 -5 170 -13 170
-33 0 -11 -783 16 -1125 39 -88 6 -198 12 -245 15 -231 11 -431 23 -480 29
-30 4 -122 11 -205 17 -352 25 -567 47 -601 59 -14 6 -39 10 -55 10 -41 0 -37
22 9 48 35 20 69 22 137 8z m5555 -1 c0 -7 -24 -49 -31 -55 -23 -19 -191 -325
-202 -368 -4 -13 -5 -12 -6 5 0 12 -4 23 -8 25 -9 4 -43 74 -43 88 0 6 8 5 19
-2 17 -10 24 -8 50 22 17 19 31 41 31 48 0 6 4 12 8 12 4 0 16 14 26 32 11 17
25 39 32 47 7 9 29 36 50 61 20 25 41 55 47 68 9 19 27 31 27 17z m4817 -11
c-3 -3 -12 -4 -19 -1 -8 3 -5 6 6 6 11 1 17 -2 13 -5z m-4767 -20 c0 -8 -5
-12 -10 -9 -6 4 -8 11 -5 16 9 14 15 11 15 -7z m-5333 -1 c-20 -2 -52 -2 -70
0 -17 2 0 4 38 4 39 0 53 -2 32 -4z m5471 -112 c5 -14 15 -46 22 -71 7 -25 16
-56 20 -70 5 -14 16 -53 27 -87 10 -35 21 -63 26 -63 4 0 7 -9 7 -21 0 -22 17
-60 32 -70 5 -3 -8 -19 -29 -34 -21 -16 -41 -34 -45 -39 -4 -6 -10 -7 -14 -4
-4 4 1 19 11 34 20 31 17 55 -30 249 -10 39 -20 87 -22 108 -3 20 -9 37 -14
37 -5 0 -9 15 -9 33 0 17 -4 47 -10 66 -5 19 -6 39 -2 45 3 6 10 -11 14 -38 4
-27 11 -61 16 -75z m942 99 c-13 -11 -25 -20 -28 -20 -3 0 3 9 13 20 10 11 23
20 28 20 6 0 0 -9 -13 -20z m-1115 -335 c-8 -34 -15 -75 -15 -93 0 -17 -5 -43
-12 -57 -10 -21 -8 -32 10 -65 24 -46 21 -47 -36 -20 -41 20 -45 32 -22 65 4
6 10 21 12 35 3 14 13 52 23 85 32 110 37 149 45 300 4 66 5 56 7 -55 3 -96
-1 -151 -12 -195z m-1557 298 c-21 -2 -38 -8 -38 -14 0 -5 -51 -8 -122 -7
l-123 2 102 5 c56 3 105 9 109 14 4 4 30 6 58 5 43 -1 45 -2 14 -5z m562 -8
c0 -8 -7 -15 -15 -15 -26 0 -18 20 13 29 1 1 2 -6 2 -14z m-896 -24 c7 -10
-241 -23 -534 -27 -118 -2 -240 -5 -270 -7 -30 -3 -38 -2 -17 0 20 2 37 8 37
14 0 5 96 9 238 10 130 1 262 4 292 9 79 10 248 12 254 1z m-954 -33 c0 -13
-23 -5 -28 10 -2 7 2 10 12 6 9 -3 16 -11 16 -16z m1370 9 c0 -17 -95 -35
-200 -37 -41 0 -79 -5 -84 -11 -6 -5 -25 -9 -44 -9 -76 0 -399 -57 -457 -80
l-30 -13 29 -8 c31 -9 46 -9 366 -3 228 5 287 0 125 -10 -420 -25 -975 -11
-975 25 0 5 -5 9 -11 9 -15 0 -69 61 -69 78 0 10 5 10 22 -2 14 -10 27 -12 38
-6 21 11 82 19 205 25 55 3 116 10 135 15 19 5 177 12 350 15 300 6 439 11
446 18 2 1 37 4 79 6 59 2 75 -1 75 -12z m1157 -149 c-3 -8 -6 -5 -6 6 -1 11
2 17 5 13 3 -3 4 -12 1 -19z m-2717 -4 c245 -3 290 -9 311 -37 3 -4 34 -12 70
-18 35 -6 65 -12 67 -14 2 -2 -79 -4 -180 -4 -212 -2 -296 -6 -305 -14 -3 -4
-14 -2 -25 4 -11 6 -27 7 -36 3 -21 -9 -32 -11 -170 -18 -62 -4 -122 -12 -133
-19 -14 -9 -22 -9 -27 -1 -5 8 -87 12 -87 4 0 -1 -18 -4 -40 -6 -22 -3 -49
-13 -60 -23 -23 -21 -45 -34 -45 -28 0 3 14 19 30 37 17 18 30 38 30 46 0 8 4
14 8 14 4 0 16 15 27 33 36 61 29 59 175 51 74 -3 250 -8 390 -10z m1990 6 c0
-5 -5 -10 -11 -10 -5 0 -7 5 -4 10 3 6 8 10 11 10 2 0 4 -4 4 -10z m260 0 c0
-5 -7 -10 -16 -10 -8 0 -12 5 -9 10 3 6 10 10 16 10 5 0 9 -4 9 -10z m-827
-57 c-7 -2 -19 -2 -25 0 -7 3 -2 5 12 5 14 0 19 -2 13 -5z m90 0 c-7 -2 -19
-2 -25 0 -7 3 -2 5 12 5 14 0 19 -2 13 -5z m1327 -158 c0 -5 -5 -3 -10 5 -5 8
-10 20 -10 25 0 6 5 3 10 -5 5 -8 10 -19 10 -25z"/>
<path d="M9210 2821 c0 -5 -10 -12 -22 -14 -20 -4 -19 -4 5 -6 18 -1 27 4 27
14 0 8 -2 15 -5 15 -3 0 -5 -4 -5 -9z"/>
<path d="M8930 2700 c0 -5 7 -10 15 -10 8 0 15 5 15 10 0 6 -7 10 -15 10 -8 0
-15 -4 -15 -10z"/>
<path d="M8390 2440 c0 -5 9 -10 20 -10 11 0 20 5 20 10 0 6 -9 10 -20 10 -11
0 -20 -4 -20 -10z"/>
<path d="M8090 2415 c0 -8 7 -15 15 -15 9 0 12 6 9 15 -4 8 -10 15 -15 15 -5
0 -9 -7 -9 -15z"/>
<path d="M8306 2415 c4 -8 15 -15 27 -15 23 0 22 2 -10 19 -19 10 -22 9 -17
-4z"/>
<path d="M8098 2373 c7 -3 16 -2 19 1 4 3 -2 6 -13 5 -11 0 -14 -3 -6 -6z"/>
<path d="M7160 3924 c0 -9 9 -18 21 -21 14 -4 17 -8 8 -13 -6 -5 -9 -15 -6
-24 5 -14 11 -15 27 -6 23 12 25 37 6 63 -17 22 -56 23 -56 1z"/>
<path d="M11920 3920 c0 -5 14 -10 30 -10 17 0 30 5 30 10 0 6 -13 10 -30 10
-16 0 -30 -4 -30 -10z"/>
<path d="M7112 3888 c2 -22 9 -34 21 -36 14 -3 17 4 17 32 0 30 -4 36 -21 36
-17 0 -20 -5 -17 -32z"/>
<path d="M11942 3838 c2 -22 9 -34 21 -36 14 -3 17 4 17 32 0 30 -4 36 -21 36
-17 0 -20 -5 -17 -32z"/>
<path d="M163 3843 c93 -2 241 -2 330 0 89 1 14 3 -168 3 -181 0 -254 -2 -162
-3z"/>
<path d="M11901 3804 c0 -11 3 -14 6 -6 3 7 2 16 -1 19 -3 4 -6 -2 -5 -13z"/>
<path d="M7293 3775 c0 -22 2 -30 4 -17 2 12 2 30 0 40 -3 9 -5 -1 -4 -23z"/>
<path d="M11944 3774 c3 -9 6 -63 6 -120 0 -86 3 -104 15 -104 13 0 15 20 15
120 0 115 -1 120 -21 120 -15 0 -19 -4 -15 -16z"/>
<path d="M11630 3773 c-20 -8 -67 -53 -55 -53 11 0 52 26 73 47 14 14 7 16
-18 6z"/>
<path d="M11881 3708 c-1 -52 3 -78 10 -78 8 0 7 -6 -2 -17 -12 -15 -12 -16 4
-10 14 5 17 0 17 -33 0 -22 5 -40 10 -40 6 0 10 38 10 95 0 84 -10 119 -23 83
-2 -8 -8 -9 -13 -4 -5 5 -4 11 4 13 14 5 17 33 3 33 -5 0 -12 8 -14 18 -3 9
-5 -18 -6 -60z"/>
<path d="M890 3753 c0 -10 -3 -27 -6 -38 -4 -16 8 -30 60 -68 37 -26 71 -47
77 -47 7 0 -11 23 -39 50 -28 28 -56 50 -63 50 -7 0 -8 7 -4 18 18 44 18 52
-4 52 -13 0 -21 -6 -21 -17z"/>
<path d="M10031 3754 c0 -11 3 -14 6 -6 3 7 2 16 -1 19 -3 4 -6 -2 -5 -13z"/>
<path d="M7303 3680 c6 -58 17 -62 17 -7 0 26 -5 47 -10 47 -7 0 -9 -16 -7
-40z"/>
<path d="M11495 3710 c-4 -6 5 -10 19 -10 14 0 26 5 26 10 0 6 -9 10 -19 10
-11 0 -23 -4 -26 -10z"/>
<path d="M11450 3696 c0 -2 7 -6 15 -10 8 -3 15 -1 15 4 0 6 -7 10 -15 10 -8
0 -15 -2 -15 -4z"/>
<path d="M5704 3665 c8 -8 18 -15 22 -15 3 0 1 7 -6 15 -7 8 -17 15 -22 15 -5
0 -3 -7 6 -15z"/>
<path d="M5750 3635 c7 -8 17 -15 22 -15 5 0 3 7 -6 15 -8 8 -18 15 -22 15 -3
0 -1 -7 6 -15z"/>
<path d="M11640 3600 c0 -11 4 -20 8 -20 7 0 18 -48 42 -190 5 -30 13 -77 18
-105 4 -27 14 -59 20 -70 11 -17 12 -4 9 75 -4 92 -29 207 -65 293 -16 40 -32
49 -32 17z"/>
<path d="M5790 3603 c8 -3 17 -9 20 -13 3 -3 23 -19 45 -35 42 -31 155 -142
155 -154 0 -8 46 -61 54 -61 10 0 7 21 -6 35 -7 7 -22 26 -33 41 -31 44 -122
132 -145 139 -11 3 -20 11 -20 16 0 5 -5 9 -11 9 -6 0 -17 7 -25 15 -9 8 -23
15 -32 14 -14 0 -14 -2 -2 -6z"/>
<path d="M11958 3523 c7 -3 16 -2 19 1 4 3 -2 6 -13 5 -11 0 -14 -3 -6 -6z"/>
<path d="M11950 3299 c0 -40 5 -65 15 -75 13 -14 15 -7 15 60 0 61 -3 76 -15
76 -12 0 -15 -13 -15 -61z"/>
<path d="M2218 3263 c7 -3 16 -2 19 1 4 3 -2 6 -13 5 -11 0 -14 -3 -6 -6z"/>
<path d="M4033 3243 c15 -2 37 -2 50 0 12 2 0 4 -28 4 -27 0 -38 -2 -22 -4z"/>
<path d="M3830 3230 c-11 -7 -4 -10 27 -10 23 0 45 5 48 10 8 13 -55 13 -75 0z"/>
<path d="M2738 3213 c6 -2 18 -2 25 0 6 3 1 5 -13 5 -14 0 -19 -2 -12 -5z"/>
<path d="M3648 3213 c23 -2 61 -2 85 0 23 2 4 4 -43 4 -47 0 -66 -2 -42 -4z"/>
<path d="M2653 3193 c9 -2 23 -2 30 0 6 3 -1 5 -18 5 -16 0 -22 -2 -12 -5z"/>
<path d="M3468 3193 c18 -2 45 -2 60 0 15 2 0 4 -33 4 -33 0 -45 -2 -27 -4z"/>
<path d="M2545 3180 c-4 -6 10 -10 34 -10 23 0 41 5 41 10 0 6 -15 10 -34 10
-19 0 -38 -4 -41 -10z"/>
<path d="M3278 3173 c12 -2 32 -2 45 0 12 2 2 4 -23 4 -25 0 -35 -2 -22 -4z"/>
<path d="M11690 3110 c0 -5 -8 -6 -17 -3 -17 7 -17 6 0 -11 21 -22 23 -66 2
-66 -11 0 -15 -12 -15 -50 0 -38 4 -50 15 -50 8 0 15 -4 15 -10 0 -5 -7 -10
-15 -10 -10 0 -15 -10 -15 -34 0 -19 -4 -38 -10 -41 -5 -3 -10 -23 -9 -43 1
-36 1 -37 12 -10 6 14 21 32 34 39 17 9 23 21 23 47 0 26 3 32 13 24 8 -7 16
-6 24 3 10 11 10 14 0 18 -8 3 -4 12 12 26 13 11 19 21 13 21 -7 0 -12 5 -12
11 0 6 7 9 15 5 9 -3 15 0 15 9 0 8 5 15 10 15 14 0 13 -33 -2 -48 -6 -6 -9
-14 -6 -17 8 -9 68 54 68 71 0 9 -4 13 -9 10 -5 -4 -16 -3 -25 0 -13 5 -13 8
-1 20 7 8 22 14 32 14 10 0 27 7 37 15 19 15 19 15 -1 15 -12 0 -25 -4 -28
-10 -13 -21 -71 -11 -101 18 -28 26 -74 40 -74 22z"/>
<path d="M11932 3075 c0 -16 2 -22 5 -12 2 9 2 23 0 30 -3 6 -5 -1 -5 -18z"/>
<path d="M11660 3065 c0 -8 2 -15 4 -15 2 0 6 7 10 15 3 8 1 15 -4 15 -6 0
-10 -7 -10 -15z"/>
<path d="M11916 3023 c-4 -9 -2 -21 4 -27 7 -7 10 -2 10 17 0 31 -5 34 -14 10z"/>
<path d="M11957 2983 c-12 -11 -8 -23 8 -23 8 0 15 7 15 15 0 16 -12 20 -23 8z"/>
<path d="M11902 2950 c0 -14 2 -19 5 -12 2 6 2 18 0 25 -3 6 -5 1 -5 -13z"/>
<path d="M7191 2914 c0 -11 3 -14 6 -6 3 7 2 16 -1 19 -3 4 -6 -2 -5 -13z"/>
<path d="M11948 2868 c-7 -19 2 -38 18 -38 8 0 14 10 14 25 0 26 -24 35 -32
13z"/>
<path d="M11958 2803 c7 -3 16 -2 19 1 4 3 -2 6 -13 5 -11 0 -14 -3 -6 -6z"/>
<path d="M11945 2750 c-3 -5 3 -10 14 -10 12 0 21 5 21 10 0 6 -6 10 -14 10
-8 0 -18 -4 -21 -10z"/>
<path d="M4025 2730 c3 -5 8 -10 11 -10 2 0 4 5 4 10 0 6 -5 10 -11 10 -5 0
-7 -4 -4 -10z"/>
<path d="M11820 2679 c0 -5 5 -7 10 -4 6 3 10 8 10 11 0 2 -4 4 -10 4 -5 0
-10 -5 -10 -11z"/>
<path d="M11590 2446 c0 -8 61 -12 66 -4 3 4 -11 8 -30 8 -20 0 -36 -2 -36 -4z"/>
<path d="M11593 2233 c31 -2 83 -2 115 0 31 2 5 3 -58 3 -63 0 -89 -1 -57 -3z"/>
<path d="M5401 2194 c0 -11 3 -14 6 -6 3 7 2 16 -1 19 -3 4 -6 -2 -5 -13z"/>
<path d="M298 2113 c6 -2 18 -2 25 0 6 3 1 5 -13 5 -14 0 -19 -2 -12 -5z"/>
<path d="M340 2080 c0 -5 5 -10 10 -10 6 0 10 5 10 10 0 6 -4 10 -10 10 -5 0
-10 -4 -10 -10z"/>
<path d="M11510 2083 c0 -5 71 -7 157 -5 292 4 319 8 81 10 -131 1 -238 -1
-238 -5z"/>
<path d="M11391 1873 c-1 -6 -10 -15 -21 -18 -19 -6 -29 -25 -12 -25 17 1 44
30 39 42 -4 9 -6 9 -6 1z"/>
<path d="M11391 1804 c0 -11 3 -14 6 -6 3 7 2 16 -1 19 -3 4 -6 -2 -5 -13z"/>
<path d="M1101 1474 c0 -11 3 -14 6 -6 3 7 2 16 -1 19 -3 4 -6 -2 -5 -13z"/>
<path d="M11203 1403 c-13 -2 -23 -8 -23 -13 0 -5 -16 -12 -35 -16 -19 -3 -35
-10 -35 -15 0 -5 -7 -9 -15 -9 -8 0 -15 -4 -15 -10 0 -5 -9 -10 -19 -10 -10 0
-21 -7 -25 -15 -3 -8 -17 -15 -31 -15 -18 0 -25 -5 -25 -19 0 -14 -10 -21 -35
-25 -19 -4 -35 -11 -35 -16 0 -6 -9 -10 -20 -10 -11 0 -20 -4 -20 -10 0 -5 -7
-10 -15 -10 -8 0 -15 -4 -15 -10 0 -5 -11 -12 -25 -16 -14 -3 -25 -10 -25 -15
0 -5 -9 -9 -20 -9 -11 0 -20 -4 -20 -9 0 -5 -11 -12 -25 -15 -14 -4 -25 -11
-25 -16 0 -6 -7 -10 -15 -10 -8 0 -15 -4 -15 -10 0 -5 -11 -10 -25 -10 -14 0
-25 -4 -25 -10 0 -5 -9 -10 -20 -10 -11 0 -20 -7 -20 -15 0 -9 -9 -15 -25 -15
-14 0 -25 -4 -25 -10 0 -5 -16 -12 -35 -16 -19 -3 -35 -10 -35 -15 0 -5 -11
-9 -25 -9 -14 0 -25 -4 -25 -10 0 -5 -7 -10 -15 -10 -8 0 -15 -4 -15 -10 0 -5
-15 -10 -34 -10 -35 0 -55 -13 -36 -25 5 -3 10 -42 10 -86 l0 -79 -75 0 c-69
0 -75 -2 -75 -20 0 -27 29 -38 45 -17 8 12 27 17 59 17 43 0 46 -2 46 -26 0
-16 -13 -39 -34 -60 -30 -30 -40 -34 -85 -34 -57 0 -105 20 -121 49 -5 11 -10
66 -10 123 0 57 -5 110 -10 118 -7 11 -10 7 -10 -17 0 -32 -1 -33 -41 -33 -28
0 -46 6 -54 17 -12 16 -14 16 -29 1 -15 -15 -12 -18 33 -33 26 -8 58 -26 70
-39 48 -51 33 -139 -29 -171 -38 -20 -114 -19 -146 1 -27 18 -54 63 -54 89 0
21 95 22 104 0 6 -17 42 -20 52 -4 9 15 -13 33 -68 53 -31 11 -54 28 -65 47
-10 16 -21 29 -25 29 -4 0 -8 -52 -8 -115 l0 -114 -102 0 c-91 0 -105 2 -125
21 -13 12 -23 31 -23 43 0 35 -12 37 -29 3 -26 -50 -72 -68 -173 -68 l-88 0 0
53 c0 28 -5 59 -10 67 -8 12 -10 11 -10 -7 0 -19 -6 -23 -29 -23 -50 0 -61 -9
-61 -51 l0 -39 -55 0 -55 0 0 45 c0 25 -4 45 -10 45 -5 0 -10 -20 -10 -45 l0
-44 -102 0 c-106 0 -148 13 -148 44 0 8 -9 15 -20 15 -11 0 -20 -4 -20 -9 0
-5 -15 -19 -34 -30 -45 -28 -129 -29 -171 -1 -18 12 -47 20 -74 20 -41 0 -43
-1 -37 -24 9 -38 -9 -40 -67 -8 -49 28 -55 29 -105 19 -39 -8 -67 -8 -110 1
-36 7 -153 12 -310 12 l-252 0 0 -245 0 -245 1980 0 1980 0 0 620 0 620 -147
-1 c-82 -1 -158 -4 -170 -6z m-553 -426 c21 -11 31 -11 63 2 50 19 113 2 127
-35 6 -14 10 -93 10 -175 l0 -149 -50 0 -49 0 -3 133 c-3 124 -4 132 -23 132
-19 0 -20 -8 -23 -132 l-3 -133 -49 0 -49 0 -3 133 c-3 128 -4 132 -25 135
-23 3 -23 3 -23 -132 l0 -136 -55 0 -55 0 0 181 0 180 65 -2 c36 -1 68 1 72 4
10 11 46 8 73 -6z m325 -79 c21 -88 18 -89 50 25 l16 57 49 0 c32 0 50 -4 50
-12 0 -7 -11 -48 -24 -92 -13 -45 -38 -133 -55 -196 -18 -63 -37 -127 -42
-142 -16 -40 -51 -58 -114 -58 l-56 0 7 38 c9 50 11 52 44 52 25 0 31 5 41 39
10 35 7 51 -40 196 -28 87 -51 162 -51 167 0 4 24 8 53 8 l54 0 18 -82z m-545
-233 l0 -45 -50 0 -50 0 0 45 0 45 50 0 50 0 0 -45z m-1900 -117 l9 -23 7 23
c4 15 14 22 31 22 22 0 24 -3 18 -32 l-6 -33 21 33 c30 44 47 41 58 -10 l9
-43 7 43 c6 32 12 42 27 42 19 0 20 -15 3 -67 -2 -8 6 -13 19 -13 15 0 29 12
45 40 22 38 51 54 53 28 0 -10 2 -10 6 0 7 18 30 15 38 -5 6 -17 7 -17 16 0
12 20 88 24 108 5 11 -10 14 -10 18 0 3 6 12 12 20 12 12 0 14 -8 9 -37 l-6
-38 20 38 c24 44 47 48 57 10 l7 -28 6 25 c5 22 12 25 52 28 58 3 71 -11 60
-64 -7 -33 -12 -40 -35 -42 -28 -3 -57 12 -57 29 0 5 8 9 17 9 11 0 14 3 7 10
-5 5 -19 7 -30 4 -16 -4 -20 -11 -16 -30 3 -17 0 -24 -11 -24 -8 0 -17 6 -20
13 -3 9 -9 9 -24 0 -25 -14 -133 -15 -150 -1 -23 19 -14 30 20 24 17 -3 25 -3
17 0 -8 4 -23 13 -32 22 -16 14 -19 12 -33 -22 -13 -31 -20 -36 -49 -36 -19 0
-36 6 -39 13 -4 10 -7 10 -18 0 -16 -16 -149 -18 -149 -3 0 6 -7 10 -15 10 -8
0 -15 -4 -15 -10 0 -5 -13 -10 -30 -10 -17 0 -30 5 -30 13 0 8 -3 9 -8 1 -4
-6 -24 -11 -45 -12 -32 -1 -38 2 -33 14 3 9 9 33 12 55 5 29 11 39 26 39 10 0
23 -10 28 -22z m1024 0 c14 -23 0 -35 -23 -21 -22 13 -31 8 -31 -19 0 -19 15
-24 25 -8 3 6 15 10 25 10 12 0 26 13 35 30 21 42 43 38 50 -7 10 -60 11 -61
19 -10 7 45 9 47 40 47 39 0 62 -22 51 -47 -5 -10 -7 -28 -6 -40 2 -17 -3 -23
-18 -23 -14 0 -21 6 -21 20 0 11 -4 20 -10 20 -5 0 -10 -9 -10 -20 0 -15 -7
-20 -28 -20 -15 0 -33 5 -40 12 -9 9 -15 9 -24 0 -7 -7 -33 -12 -58 -12 -25 0
-51 5 -58 12 -31 31 2 101 45 96 14 -2 31 -11 37 -20z m312 11 c4 -8 9 -8 17
0 25 25 39 12 32 -29 -9 -51 10 -54 22 -2 8 32 13 37 41 40 25 3 32 -1 32 -14
0 -16 1 -16 18 -1 14 13 38 17 105 16 77 -1 89 -3 102 -22 l15 -21 0 22 c0 13
6 22 15 22 8 0 15 -5 15 -11 0 -8 4 -8 14 1 8 6 25 10 38 8 19 -2 23 -9 25
-43 2 -49 -10 -65 -49 -65 -32 0 -50 27 -27 41 16 10 15 10 -23 13 -24 1 -28
-2 -28 -26 0 -34 -25 -38 -34 -5 l-7 22 -11 -21 c-8 -18 -19 -22 -70 -23 l-60
-1 7 37 c6 32 5 35 -8 24 -8 -6 -18 -23 -21 -36 -9 -35 -36 -32 -36 3 0 42
-12 47 -24 10 -10 -29 -16 -33 -48 -36 -23 -2 -38 1 -38 8 0 7 -6 8 -19 0 -11
-5 -36 -10 -56 -10 -30 0 -36 3 -31 16 3 9 9 33 12 55 6 36 9 39 40 39 18 0
36 -5 40 -11z m623 -6 c9 -17 10 -17 16 0 4 9 13 17 21 17 11 0 13 -9 8 -40
-8 -46 12 -57 22 -12 3 15 7 32 9 38 2 7 30 12 69 13 54 1 69 -2 86 -19 20
-20 20 -20 20 0 0 17 7 20 40 20 41 0 45 -5 34 -47 -4 -16 -15 -23 -33 -24
l-26 -2 28 -4 c42 -6 27 -28 -21 -31 -29 -2 -42 1 -42 9 0 10 -3 10 -12 1 -7
-7 -38 -12 -70 -12 -50 0 -57 2 -52 18 5 16 5 16 -6 0 -13 -21 -60 -24 -78 -6
-9 9 -12 9 -12 -1 0 -8 -13 -11 -42 -9 -42 3 -43 4 -46 43 -3 29 1 43 14 52
25 18 61 16 73 -4z m-1139 -2 c0 -6 12 -6 31 1 16 6 32 8 35 5 3 -3 2 -25 -3
-49 -6 -30 -14 -44 -27 -46 -16 -4 -18 0 -13 27 5 22 3 31 -7 31 -7 0 -16 -13
-19 -30 -6 -25 -11 -30 -37 -30 -28 0 -30 3 -30 35 0 20 6 42 13 50 14 16 57
20 57 6z"/>
<path d="M8842 510 c0 -14 2 -19 5 -12 2 6 2 18 0 25 -3 6 -5 1 -5 -13z"/>
<path d="M9690 529 c0 -5 5 -7 10 -4 6 3 10 8 10 11 0 2 -4 4 -10 4 -5 0 -10
-5 -10 -11z"/>
<path d="M9871 514 c0 -11 3 -14 6 -6 3 7 2 16 -1 19 -3 4 -6 -2 -5 -13z"/>
<path d="M9818 493 c7 -3 16 -2 19 1 4 3 -2 6 -13 5 -11 0 -14 -3 -6 -6z"/>
<path d="M10103 493 c9 -2 23 -2 30 0 6 3 -1 5 -18 5 -16 0 -22 -2 -12 -5z"/>
<path d="M10440 526 c-6 -9 -10 -21 -7 -28 4 -9 6 -7 6 4 1 9 7 18 14 21 6 2
9 7 6 11 -3 4 -12 0 -19 -8z"/>
<path d="M10667 510 c-6 -23 3 -26 21 -8 16 16 15 28 -2 28 -7 0 -16 -9 -19
-20z"/>
<path d="M755 1310 c3 -5 8 -10 11 -10 2 0 4 5 4 10 0 6 -5 10 -11 10 -5 0 -7
-4 -4 -10z"/>
<path d="M10170 866 c0 -21 5 -26 26 -26 21 0 25 4 22 23 -2 14 -11 23 -25 25
-19 3 -23 -1 -23 -22z"/>
<path d="M9400 750 c0 -13 -7 -20 -20 -20 -11 0 -20 -4 -20 -10 0 -16 36 -11
53 8 13 15 13 19 1 30 -12 11 -14 9 -14 -8z"/>
<path d="M9646 754 c-20 -19 -3 -59 21 -50 8 3 17 6 19 6 2 0 4 14 4 30 0 34
-19 40 -44 14z"/>
</g>
</svg>
