<?xml version="1.0" standalone="no"?>
<!DOCTYPE svg PUBLIC "-//W3C//DTD SVG 20010904//EN"
 "http://www.w3.org/TR/2001/REC-SVG-20010904/DTD/svg10.dtd">
<svg version="1.0" xmlns="http://www.w3.org/2000/svg"
 width="500.000000pt" height="350.000000pt" viewBox="0 0 500.000000 350.000000"
 preserveAspectRatio="xMidYMid meet">

<g transform="translate(0.000000,350.000000) scale(0.100000,-0.100000)"
fill="#000000" stroke="none">
<path d="M270 2579 c0 -649 2 -730 15 -719 13 11 15 105 15 731 0 632 -2 719
-15 719 -13 0 -15 -88 -15 -731z"/>
<path d="M320 2598 c-3 -394 -2 -714 3 -709 4 4 6 326 5 717 l-3 709 -5 -717z"/>
<path d="M345 2605 c0 -390 1 -552 2 -358 2 193 2 513 0 710 -1 197 -2 39 -2
-352z"/>
<path d="M360 2610 c0 -460 3 -700 10 -700 7 0 10 240 10 700 0 460 -3 700
-10 700 -7 0 -10 -240 -10 -700z"/>
<path d="M390 2615 c0 -457 3 -695 10 -695 7 0 10 238 10 695 0 457 -3 695
-10 695 -7 0 -10 -238 -10 -695z"/>
<path d="M425 2620 c0 -382 1 -539 2 -347 2 191 2 503 0 695 -1 191 -2 34 -2
-348z"/>
<path d="M440 2626 l0 -685 30 10 30 11 0 674 0 674 -30 0 -30 0 0 -684z"/>
<path d="M510 2641 l0 -670 30 10 30 11 0 659 0 659 -30 0 -30 0 0 -669z"/>
<path d="M580 2656 l0 -654 30 11 30 11 0 643 0 643 -30 0 -30 0 0 -654z"/>
<path d="M650 2671 c0 -634 0 -639 20 -634 20 5 20 14 20 639 0 627 0 634 -20
634 -20 0 -20 -7 -20 -639z"/>
<path d="M700 2680 l0 -630 53 21 c28 12 76 30 105 41 l52 21 0 588 0 589 -35
0 -35 0 -3 -602 -2 -603 -3 603 c-2 594 -2 602 -22 602 -20 0 -20 -8 -23 -612
l-2 -613 -3 613 -2 612 -40 0 -40 0 0 -630z"/>
<path d="M920 2725 c0 -322 2 -585 4 -585 1 0 18 5 36 11 l33 12 -7 66 c-3 36
-7 296 -8 576 l-3 510 -5 -580 -5 -580 -3 578 c-2 570 -2 577 -22 577 -20 0
-20 -7 -20 -585z"/>
<path d="M1090 2792 l0 -519 30 5 30 4 0 514 0 514 -30 0 -30 0 0 -518z"/>
<path d="M1160 2791 c0 -372 3 -520 11 -523 6 -2 -31 -32 -82 -66 l-94 -62
212 6 c162 5 216 4 227 -5 9 -7 21 -9 28 -5 17 10 167 7 599 -12 381 -17 378
-17 448 42 19 16 104 116 189 224 85 107 173 214 195 237 23 24 37 46 33 50
-4 5 -170 10 -367 12 -312 3 -362 1 -377 -12 -9 -9 -29 -19 -44 -22 -16 -4
-28 -11 -28 -16 0 -4 -16 -11 -35 -15 -58 -11 -34 -14 38 -6 52 7 67 6 67 -4
0 -8 -9 -18 -19 -23 -12 -7 -21 -25 -24 -48 -4 -34 -107 -276 -114 -269 -2 1
7 31 18 65 17 49 19 65 9 74 -9 9 -11 9 -10 -3 6 -39 0 -45 -41 -47 -23 0 -45
-7 -49 -14 -5 -7 -33 -14 -64 -17 -85 -7 -92 -29 -8 -24 37 2 65 2 62 -1 -3
-3 -48 -7 -100 -11 -113 -6 -111 -6 -80 -17 21 -7 18 -8 -13 -4 -20 2 -35 0
-33 -4 9 -14 -200 -61 -269 -61 -63 0 -65 1 -65 26 0 14 -4 23 -8 20 -11 -7
-54 -16 -127 -28 -33 -5 -73 -16 -90 -24 -24 -11 -18 -3 25 38 30 28 54 55 53
59 -1 3 5 6 15 5 9 0 16 4 15 10 -1 6 3 11 10 11 7 0 55 29 107 65 52 36 123
82 157 102 l62 38 1 389 c0 258 -3 389 -10 389 -7 0 -10 -131 -10 -389 0 -215
-3 -392 -7 -394 -5 -3 -7 172 -5 389 2 261 -1 394 -8 394 -6 0 -11 -140 -13
-402 l-2 -403 -3 403 c-1 257 -6 402 -12 402 -6 0 -11 -147 -13 -407 l-2 -408
-3 408 c-1 260 -6 407 -12 407 -6 0 -11 -151 -13 -417 l-2 -418 -3 418 c-1
267 -6 417 -12 417 -6 0 -11 -154 -13 -427 l-2 -428 -3 428 c-1 273 -6 427
-12 427 -6 0 -11 -157 -13 -437 l-2 -438 -3 438 c-1 280 -6 437 -12 437 -6 0
-11 -161 -13 -447 l-2 -448 -3 448 c-1 287 -6 447 -12 447 -6 0 -11 -164 -13
-457 l-2 -458 -3 458 c-1 293 -6 457 -12 457 -6 0 -11 -167 -13 -467 l-2 -468
-3 468 c-1 300 -6 467 -12 467 -6 0 -11 -171 -13 -477 l-2 -478 -3 478 c-1
306 -6 477 -12 477 -6 0 -11 -174 -13 -487 l-2 -488 -3 488 c-1 313 -6 487
-12 487 -6 0 -11 -177 -13 -497 l-2 -498 -3 498 c-1 320 -6 497 -12 497 -6 0
-11 -181 -13 -507 l-2 -508 -3 508 c-1 330 -5 507 -12 507 -7 0 -10 -179 -10
-516 0 -387 3 -513 12 -508 7 4 8 3 4 -5 -4 -6 -12 -9 -17 -6 -5 4 -9 214 -9
521 0 336 -3 514 -10 514 -7 0 -10 -180 -10 -519z m1403 -181 c47 0 23 -13
-28 -15 -42 -1 -51 -6 -96 -56 -27 -29 -49 -57 -49 -61 0 -5 -5 -8 -11 -8 -5
0 -7 5 -4 10 3 6 2 10 -4 10 -5 0 -13 -9 -16 -20 -3 -11 -10 -20 -15 -20 -5 0
-16 -7 -25 -16 -15 -15 -15 -14 -10 12 11 51 14 54 40 54 42 0 65 18 65 48 0
16 -6 34 -12 40 -22 22 11 34 76 28 32 -4 73 -6 89 -6z m-70 -75 c-3 -9 -8
-14 -10 -11 -3 3 -2 9 2 15 9 16 15 13 8 -4z m-36 -17 c-3 -8 -6 -5 -6 6 -1
11 2 17 5 13 3 -3 4 -12 1 -19z m-137 -112 c0 -2 -7 -7 -16 -10 -8 -3 -12 -2
-9 4 6 10 25 14 25 6z"/>
<path d="M1608 2925 c-2 -212 -2 -385 0 -385 2 0 38 20 80 44 l77 45 -3 340
-3 341 -49 0 -50 0 0 -361 c0 -237 3 -358 10 -354 6 3 10 4 10 1 0 -3 -8 -10
-17 -15 -17 -9 -18 11 -15 360 2 363 2 369 -18 369 -19 0 -20 -8 -22 -385z
m151 -289 c-10 -9 -69 -36 -69 -32 0 7 52 35 64 36 5 0 7 -2 5 -4z"/>
<path d="M1770 2981 l0 -330 30 10 30 11 0 319 0 319 -30 0 -30 0 0 -329z"/>
<path d="M1840 2996 c0 -227 3 -317 12 -322 7 -4 8 -3 4 4 -4 7 -1 12 6 12 10
0 12 60 10 310 -2 265 -5 310 -17 310 -13 0 -15 -44 -15 -314z"/>
<path d="M1890 3005 c0 -197 4 -305 10 -305 6 0 10 108 10 305 0 197 -4 305
-10 305 -6 0 -10 -108 -10 -305z"/>
<path d="M1920 3010 c0 -193 4 -300 10 -300 6 0 10 107 10 300 0 193 -4 300
-10 300 -6 0 -10 -107 -10 -300z"/>
<path d="M1950 3015 c0 -256 2 -295 15 -295 13 0 15 39 15 295 0 256 -2 295
-15 295 -13 0 -15 -39 -15 -295z"/>
<path d="M2000 3020 l0 -290 25 0 25 0 0 290 0 290 -25 0 -25 0 0 -290z"/>
<path d="M2090 3025 l0 -285 50 0 50 0 0 285 0 285 -50 0 -50 0 0 -285z"/>
<path d="M2220 3030 l0 -280 55 0 55 0 0 280 0 280 -55 0 -55 0 0 -280z"/>
<path d="M2360 3035 c0 -247 2 -275 16 -275 14 0 14 -3 4 -15 -18 -21 -6 -29
27 -18 17 6 28 17 28 28 0 16 9 18 88 16 l87 -2 0 45 c0 35 5 48 20 56 19 10
20 8 20 -40 l0 -50 75 0 75 0 0 85 c0 47 -3 85 -6 85 -3 0 -14 -5 -25 -10 -18
-10 -19 -7 -19 63 0 65 3 76 25 97 14 13 23 26 20 29 -8 7 137 151 152 151 7
0 10 7 7 15 -5 11 -24 15 -80 15 l-74 0 0 -78 c0 -66 -3 -82 -20 -97 -11 -10
-18 -21 -15 -25 2 -3 -41 -51 -96 -106 -85 -84 -99 -103 -99 -131 0 -26 -6
-36 -29 -47 -28 -15 -29 -15 -34 11 -4 24 9 41 114 141 l119 114 0 109 0 109
-55 0 -55 0 0 -158 0 -158 -40 -39 -40 -39 0 197 0 197 -60 0 -60 0 0 -253 c0
-241 -1 -255 -20 -272 -20 -18 -20 -17 -20 253 0 235 -2 272 -15 272 -13 0
-15 -37 -15 -275z"/>
<path d="M3460 3045 l0 -265 75 0 75 0 0 265 0 265 -75 0 -75 0 0 -265z"/>
<path d="M3640 3040 l0 -270 33 1 c17 0 26 3 20 6 -10 3 -13 67 -13 269 0 257
-1 264 -20 264 -20 0 -20 -7 -20 -270z"/>
<path d="M3427 3273 c-11 -11 -8 -493 3 -493 6 0 10 90 10 250 0 138 -1 250
-3 250 -2 0 -7 -3 -10 -7z"/>
<path d="M2878 3203 l-68 -69 0 -83 c0 -78 1 -83 20 -78 19 5 20 0 20 -89 l0
-94 60 0 60 0 0 125 c0 74 -4 125 -10 125 -5 0 -11 50 -12 115 l-3 116 -67
-68z"/>
<path d="M3377 3253 c-4 -3 -7 -109 -7 -235 0 -196 2 -228 15 -228 13 0 15 33
15 235 0 215 -3 248 -23 228z"/>
<path d="M3303 3222 l-33 -17 0 -202 0 -203 40 0 40 0 0 220 c0 121 -3 220 -7
219 -5 0 -23 -8 -40 -17z"/>
<path d="M3163 3154 l-43 -26 0 -159 0 -159 55 0 55 0 0 185 c0 142 -3 185
-12 185 -7 -1 -32 -12 -55 -26z"/>
<path d="M3033 3085 l-33 -14 0 -136 0 -135 35 0 35 0 0 150 c0 83 -1 150 -2
150 -2 -1 -18 -7 -35 -15z"/>
<path d="M2519 2863 c-13 -16 -12 -17 4 -4 9 7 17 15 17 17 0 8 -8 3 -21 -13z"/>
<path d="M3710 2770 c0 -5 9 -10 20 -10 11 0 20 5 20 10 0 6 -9 10 -20 10 -11
0 -20 -4 -20 -10z"/>
<path d="M3770 2765 c0 -8 7 -15 15 -15 8 0 15 7 15 15 0 8 -7 15 -15 15 -8 0
-15 -7 -15 -15z"/>
<path d="M3810 2760 c0 -11 7 -20 15 -20 8 0 15 9 15 20 0 11 -7 20 -15 20 -8
0 -15 -9 -15 -20z"/>
<path d="M3850 2755 c0 -16 6 -25 15 -25 9 0 15 9 15 25 0 16 -6 25 -15 25 -9
0 -15 -9 -15 -25z"/>
<path d="M3890 2750 c0 -16 5 -30 10 -30 6 0 10 14 10 30 0 17 -4 30 -10 30
-5 0 -10 -13 -10 -30z"/>
<path d="M3920 2746 c0 -29 4 -36 31 -45 18 -6 34 -11 35 -11 2 0 4 20 4 45 0
38 -3 45 -19 45 -15 0 -21 -8 -24 -37 l-4 -38 -1 38 c-2 46 -22 49 -22 3z"/>
<path d="M4003 2730 c0 -30 2 -43 4 -27 2 15 2 39 0 55 -2 15 -4 2 -4 -28z"/>
<path d="M4020 2727 l0 -53 53 -26 c83 -41 161 -93 239 -161 39 -34 81 -70 94
-80 l24 -19 -2 199 -3 198 -2 -188 c-2 -119 -7 -186 -13 -182 -6 4 -10 79 -10
186 l0 179 -30 0 -30 0 0 -151 c0 -97 -4 -148 -10 -144 -6 4 -10 65 -10 151 0
137 -1 144 -20 144 -18 0 -20 -8 -23 -127 l-3 -128 -2 128 c-3 162 -20 169
-25 10 l-3 -118 -2 118 c-2 95 -5 117 -17 117 -11 0 -15 -21 -18 -102 l-3
-103 -2 103 c-2 94 -4 102 -22 102 -17 0 -20 -8 -23 -87 l-3 -88 -2 88 -2 87
-65 0 -65 0 0 -53z"/>
<path d="M4450 2582 l-5 -203 33 -19 32 -19 0 219 c0 213 -1 220 -20 220 -19
0 -20 -7 -22 -202 l-2 -203 -6 205 -5 205 -5 -203z"/>
<path d="M4520 2555 c0 -214 1 -225 20 -235 20 -11 20 -8 18 227 l-2 238 -6
-230 -6 -230 -2 228 c-1 143 -6 227 -12 227 -6 0 -10 -82 -10 -225z"/>
<path d="M4574 2540 c0 -135 2 -190 3 -122 2 67 2 177 0 245 -1 67 -3 12 -3
-123z"/>
<path d="M4594 2535 c0 -137 2 -195 3 -128 2 67 2 179 0 250 -1 70 -3 16 -3
-122z"/>
<path d="M4614 2530 c0 -140 2 -198 3 -127 2 70 2 184 0 255 -1 70 -3 12 -3
-128z"/>
<path d="M4634 2525 c0 -143 2 -200 3 -127 2 73 2 190 0 260 -1 70 -3 10 -3
-133z"/>
<path d="M4650 2520 c0 -143 2 -260 4 -260 2 0 11 -3 20 -6 14 -6 16 21 16
260 0 259 -1 266 -20 266 -19 0 -20 -7 -20 -260z"/>
<path d="M4700 2510 c0 -173 4 -270 10 -270 6 0 10 97 10 270 0 173 -4 270
-10 270 -6 0 -10 -97 -10 -270z"/>
<path d="M4730 2505 c0 -238 2 -275 15 -275 13 0 15 37 15 275 0 238 -2 275
-15 275 -13 0 -15 -37 -15 -275z"/>
<path d="M4780 2500 c0 -242 2 -280 15 -280 13 0 15 38 15 280 0 242 -2 280
-15 280 -13 0 -15 -38 -15 -280z"/>
<path d="M4820 2497 c0 -271 1 -285 20 -302 11 -10 20 -13 20 -7 0 7 -4 12
-10 12 -6 0 -10 103 -10 290 0 187 -4 290 -10 290 -6 0 -10 -101 -10 -283z"/>
<path d="M3288 2679 c-197 -21 -269 -69 -417 -277 -69 -98 -171 -289 -171
-321 0 -52 8 -55 121 -42 230 26 893 93 1188 121 173 16 319 34 325 40 27 27
-109 210 -246 330 -88 77 -149 106 -271 130 -81 16 -357 37 -357 28 0 -3 9
-23 20 -46 24 -49 24 -49 5 -49 -8 0 -15 4 -15 8 0 5 -15 25 -32 45 -29 33
-30 36 -10 30 13 -5 22 -3 22 3 0 12 -47 12 -162 0z m248 -8 c-4 -5 -1 -22 4
-37 6 -15 8 -35 5 -43 -5 -12 -13 -4 -30 29 -30 57 -30 60 1 60 14 0 23 -4 20
-9z m-143 -38 c21 -19 56 -88 57 -112 0 -11 -3 -11 -13 2 -10 15 -12 3 -10
-65 l3 -83 -42 83 c-39 76 -45 82 -68 77 -14 -3 -51 -7 -82 -9 -31 -2 -61 -7
-66 -10 -5 -3 -23 -1 -40 3 -16 5 -57 6 -90 2 -53 -6 -59 -5 -50 8 22 34 93
82 142 96 125 36 223 39 259 8z m338 12 c93 -14 221 -53 242 -74 8 -8 8 -11 0
-11 -7 0 -15 5 -18 10 -3 6 -14 10 -23 10 -11 0 -6 -7 14 -19 45 -28 153 -131
170 -163 17 -32 19 -61 3 -38 -8 11 -12 12 -16 2 -3 -9 -13 -5 -35 13 -28 24
-36 25 -155 25 -106 0 -130 -3 -145 -17 -13 -11 -32 -16 -55 -14 -20 1 -39 -2
-43 -9 -5 -8 -14 7 -25 36 -10 27 -35 91 -56 141 -22 51 -39 100 -39 108 0 20
53 20 181 0z m335 -147 l19 -23 -25 20 c-14 11 -27 21 -29 22 -2 2 0 3 6 3 5
0 18 -10 29 -22z m-609 -20 c-3 -8 -6 -5 -6 6 -1 11 2 17 5 13 3 -3 4 -12 1
-19z m-292 -223 c20 -19 25 -34 25 -75 0 -65 -6 -67 -195 -76 l-145 -7 -27 28
c-16 17 -21 26 -12 22 13 -4 20 4 29 39 12 42 39 72 80 87 8 3 61 6 118 6 96
1 104 -1 127 -24z m968 -62 c-7 -2 -21 -2 -30 0 -10 3 -4 5 12 5 17 0 24 -2
18 -5z m-100 -10 c-7 -2 -21 -2 -30 0 -10 3 -4 5 12 5 17 0 24 -2 18 -5z
m-100 -10 c-7 -2 -19 -2 -25 0 -7 3 -2 5 12 5 14 0 19 -2 13 -5z m-96 -9 c-3
-3 -12 -4 -19 -1 -8 3 -5 6 6 6 11 1 17 -2 13 -5z"/>
<path d="M4306 2340 c46 -67 64 -87 38 -42 -10 19 -32 48 -47 65 -20 23 -18
17 9 -23z"/>
<path d="M1038 2253 c-37 -4 -38 -5 -38 -44 0 -44 19 -54 21 -11 2 23 2 24 6
5 6 -34 18 -28 36 17 8 22 15 39 14 38 -1 -1 -19 -3 -39 -5z"/>
<path d="M4810 2196 c0 -2 8 -10 18 -17 15 -13 16 -12 3 4 -13 16 -21 21 -21
13z"/>
<path d="M4880 2122 c0 -4 16 -6 35 -4 19 2 35 6 35 8 0 2 -16 4 -35 4 -19 0
-35 -4 -35 -8z"/>
<path d="M4858 2088 c3 -18 7 -95 7 -171 0 -110 3 -136 13 -132 8 3 27 5 43 5
l29 0 0 105 c0 97 -1 105 -19 105 -15 0 -21 -8 -24 -37 -3 -35 -4 -34 -5 10
-2 44 0 47 23 47 18 0 25 5 25 20 0 26 -46 28 -53 3 -4 -14 -5 -13 -6 4 -1 28
-22 73 -32 73 -5 0 -5 -15 -1 -32z"/>
<path d="M4890 2090 c0 -5 14 -10 30 -10 17 0 30 5 30 10 0 6 -13 10 -30 10
-16 0 -30 -4 -30 -10z"/>
<path d="M4294 2055 c-17 -13 -16 -14 16 -3 43 14 49 18 24 18 -11 0 -29 -7
-40 -15z"/>
<path d="M4338 2012 c-18 -26 -48 -35 -66 -20 -13 11 -14 10 -10 -2 8 -25 67
-25 94 1 13 12 24 26 24 31 0 15 -29 8 -42 -10z"/>
<path d="M3682 1990 c0 -19 2 -27 5 -17 2 9 2 25 0 35 -3 9 -5 1 -5 -18z"/>
<path d="M3580 1980 c13 -8 13 -10 -1 -10 -9 0 -27 -9 -40 -20 -29 -23 -22
-25 17 -5 16 8 37 15 46 15 26 0 30 17 5 24 -33 9 -44 7 -27 -4z"/>
<path d="M3513 1963 c-10 -10 -14 -15 -8 -11 6 4 22 12 36 17 15 6 18 10 8 10
-9 1 -25 -7 -36 -16z"/>
<path d="M3555 1908 c-58 -11 -57 -10 -49 -32 10 -27 95 -22 122 7 12 13 22
26 22 30 0 9 -32 7 -95 -5z"/>
<path d="M357 1894 c-4 -4 -4 -18 -1 -31 5 -18 3 -22 -9 -18 -8 4 -17 0 -20
-7 -3 -10 4 -13 29 -10 27 3 38 -1 58 -25 13 -16 51 -42 83 -58 56 -28 65 -29
233 -33 190 -5 263 3 539 59 79 16 146 27 148 25 2 -1 -14 -15 -36 -29 -30
-20 -74 -33 -173 -51 -182 -34 -436 -68 -448 -61 -16 10 -11 -8 9 -34 l19 -25
203 28 c164 22 211 32 239 50 45 29 100 58 100 52 0 -2 -33 -28 -72 -57 -40
-28 -77 -55 -82 -60 -5 -5 19 -22 57 -40 61 -28 75 -31 164 -30 104 1 343 17
405 27 36 5 38 9 67 82 59 156 59 167 -3 199 -59 32 -163 21 -561 -57 -324
-64 -432 -75 -617 -63 -141 10 -162 13 -202 37 -50 29 -93 76 -102 112 -6 24
-15 30 -27 18z m1462 -74 c18 -5 38 -13 44 -19 20 -20 30 -11 12 9 -10 11 -13
20 -7 20 6 0 16 -10 23 -21 8 -17 7 -28 -5 -53 -8 -17 -24 -52 -35 -78 -18
-43 -41 -64 -41 -38 0 6 4 10 9 10 5 0 7 9 4 20 -4 14 0 20 11 20 9 0 16 4 16
9 0 5 -9 7 -20 4 -26 -7 -25 5 2 28 26 24 11 25 -22 2 -13 -9 -31 -18 -40 -18
-8 -1 -42 -8 -75 -16 -50 -11 -56 -14 -35 -20 14 -4 43 -8 65 -8 l40 -2 -38
-19 c-21 -10 -54 -24 -73 -30 -19 -6 -34 -17 -34 -24 0 -19 -60 -15 -61 4 -3
29 3 45 19 58 13 10 9 12 -30 12 -38 0 -48 -4 -53 -20 -4 -11 -11 -18 -16 -15
-5 4 -21 -7 -35 -22 -21 -22 -24 -23 -15 -6 14 27 15 73 1 73 -5 0 -10 -7 -10
-15 0 -8 -9 -15 -20 -15 -11 0 -20 7 -20 15 0 12 -7 14 -27 9 -36 -9 -40 -13
-24 -24 11 -6 8 -13 -13 -34 -17 -15 -25 -30 -20 -37 5 -9 2 -10 -12 -4 -10 4
-29 10 -41 12 -13 3 -23 10 -23 15 0 13 42 47 59 48 7 0 23 10 35 23 11 12 36
29 54 36 19 8 38 24 42 37 11 27 56 51 115 59 41 7 43 6 38 -14 -3 -11 -8 -19
-12 -17 -4 3 -34 -1 -66 -7 -50 -10 -61 -16 -63 -34 -3 -19 1 -23 23 -23 22 0
25 3 20 20 -6 20 9 28 20 10 3 -5 15 -10 26 -10 10 0 19 -5 19 -11 0 -5 5 -7
11 -3 6 3 15 0 20 -7 6 -10 9 -8 9 10 0 16 -4 22 -15 17 -23 -8 -18 7 8 24 25
16 87 21 87 8 0 -8 37 -2 48 7 8 7 -12 35 -26 35 -26 0 -4 13 35 21 21 4 47 5
58 2 11 -2 35 -8 54 -13z m-449 -170 c0 -5 -2 -10 -4 -10 -3 0 -8 5 -11 10 -3
6 -1 10 4 10 6 0 11 -4 11 -10z m160 -12 c0 -7 3 -23 6 -35 5 -17 2 -23 -11
-23 -12 0 -15 5 -10 20 4 11 2 20 -4 20 -6 0 -8 7 -5 15 7 18 24 20 24 3z
m-50 -33 c0 -8 -4 -15 -10 -15 -5 0 -7 7 -4 15 4 8 8 15 10 15 2 0 4 -7 4 -15z
m-70 -5 c0 -5 -4 -10 -9 -10 -6 0 -13 5 -16 10 -3 6 1 10 9 10 9 0 16 -4 16
-10z m280 -10 c0 -5 -5 -10 -11 -10 -5 0 -7 5 -4 10 3 6 8 10 11 10 2 0 4 -4
4 -10z m-353 -26 c-3 -3 -12 -4 -19 -1 -8 3 -5 6 6 6 11 1 17 -2 13 -5z"/>
<path d="M1737 1750 c3 -11 9 -20 15 -20 5 0 4 9 -2 20 -6 11 -12 20 -14 20
-2 0 -2 -9 1 -20z"/>
<path d="M2761 1864 c0 -11 3 -14 6 -6 3 7 2 16 -1 19 -3 4 -6 -2 -5 -13z"/>
<path d="M3694 1770 c0 -63 1 -89 3 -57 2 31 2 83 0 115 -2 31 -3 5 -3 -58z"/>
<path d="M250 1829 c0 -5 5 -7 10 -4 6 3 10 8 10 11 0 2 -4 4 -10 4 -5 0 -10
-5 -10 -11z"/>
<path d="M283 1825 c-3 -9 -3 -18 -1 -21 3 -3 8 4 11 16 6 23 -1 27 -10 5z"/>
<path d="M292 1774 c-23 -16 -32 -74 -11 -74 7 0 9 10 5 25 -5 18 -2 25 9 25
8 0 15 6 15 14 0 8 6 17 13 19 6 3 7 6 2 6 -6 1 -21 -6 -33 -15z"/>
<path d="M337 1775 c-4 -8 -2 -17 3 -20 6 -4 10 3 10 14 0 25 -6 27 -13 6z"/>
<path d="M4920 1755 c0 -8 7 -15 15 -15 8 0 15 7 15 15 0 8 -7 15 -15 15 -8 0
-15 -7 -15 -15z"/>
<path d="M100 1720 c0 -29 2 -30 45 -30 29 0 45 -4 45 -12 1 -18 16 10 24 45
l6 27 -60 0 -60 0 0 -30z"/>
<path d="M389 1716 c12 -27 29 -40 76 -60 91 -39 127 -48 137 -33 5 8 8 7 8
-6 0 -10 7 -29 16 -42 20 -31 71 -34 104 -7 21 17 22 22 12 51 -6 17 -9 38 -6
46 13 34 -69 46 -108 16 -31 -25 -92 -15 -180 31 -35 18 -66 34 -69 36 -4 2 0
-13 10 -32z m301 -52 c0 -8 -4 -12 -10 -9 -5 3 -10 10 -10 16 0 5 5 9 10 9 6
0 10 -7 10 -16z m-4 -26 c20 1 32 -3 29 -8 -3 -6 -17 -10 -30 -10 -32 0 -76
21 -69 32 3 5 12 4 20 -3 8 -7 31 -12 50 -11z"/>
<path d="M2677 1733 c-9 -2 -15 -9 -12 -14 9 -14 22 -11 29 6 3 8 4 14 3 14
-1 -1 -10 -3 -20 -6z"/>
<path d="M2783 1680 c0 -25 2 -35 4 -22 2 12 2 32 0 45 -2 12 -4 2 -4 -23z"/>
<path d="M4453 1695 c-63 -32 -102 -79 -148 -178 -36 -79 -76 -211 -74 -243 6
-57 -2 -135 -13 -138 -21 -6 -161 -36 -193 -41 -129 -20 -367 -50 -560 -70
-64 -7 -217 -26 -255 -31 -19 -3 -119 -13 -221 -24 -102 -11 -204 -22 -227
-26 l-42 -7 0 44 c0 254 -7 346 -29 401 -33 84 -81 149 -136 183 -44 27 -56
30 -134 30 -108 0 -143 -16 -231 -104 -97 -97 -167 -258 -185 -425 -15 -133
-16 -136 -33 -133 -9 1 -22 5 -27 9 -6 3 -57 8 -114 9 -97 3 -105 1 -114 -18
-8 -17 -21 -21 -99 -27 -136 -9 -445 -7 -645 4 -411 24 -696 67 -768 116 -11
8 -23 14 -27 14 -5 0 -8 -103 -8 -230 l0 -230 35 0 35 0 2 208 2 207 6 -210 5
-210 5 200 5 200 3 -197 2 -198 44 0 44 0 4 143 c4 141 16 197 43 197 15 0 45
-43 45 -63 0 -8 9 -17 20 -20 19 -5 20 -14 20 -131 0 -119 1 -126 20 -126 18
0 20 8 23 108 l3 107 2 -107 2 -108 205 0 205 0 0 113 c0 116 6 137 41 137 10
0 19 10 22 23 2 12 5 -44 6 -125 l1 -148 35 0 34 0 4 148 3 147 2 -147 2 -148
1125 0 1125 0 0 210 c0 133 4 210 10 210 6 0 10 -77 10 -210 l0 -210 155 0
155 0 0 145 0 145 135 0 134 0 4 103 3 102 2 -102 2 -103 60 0 60 0 0 39 c0
21 5 52 11 70 9 25 16 31 41 31 44 0 78 -45 78 -105 l0 -35 195 0 195 0 0 55
0 55 175 0 175 0 0 60 0 60 -30 0 -30 0 0 121 c0 96 -3 119 -12 111 -15 -12
-126 -52 -145 -52 -9 0 -11 21 -6 83 17 256 -112 414 -274 332z m14 -242 c2
-31 0 -54 -2 -51 -8 8 -23 97 -17 103 13 13 17 1 19 -52z m44 -36 c-8 -8 -11
1 -11 29 0 53 14 67 18 19 2 -21 -1 -42 -7 -48z m69 5 c0 -11 -14 -38 -30 -61
-39 -53 -29 -74 15 -31 31 30 55 33 55 7 0 -17 -72 -62 -94 -58 -10 1 -16 -1
-13 -6 7 -11 -23 -10 -41 1 -7 4 -20 5 -30 2 -10 -4 -27 1 -38 9 -10 8 -27 15
-36 15 -21 0 -25 30 -4 30 7 0 19 -7 26 -15 12 -15 80 -22 80 -8 0 4 -21 28
-46 54 -26 26 -44 53 -42 60 2 7 18 -7 37 -34 19 -25 40 -48 47 -51 8 -3 14
-12 14 -21 0 -34 22 -11 52 55 33 70 48 86 48 52z m-2232 -207 c-3 -26 -5 -23
-17 23 -7 29 -10 60 -6 70 10 22 27 -49 23 -93z m66 6 l-8 -56 -8 64 c-7 47
-5 67 4 79 11 13 13 12 16 -8 2 -13 0 -49 -4 -79z m81 -11 c-32 -62 -95 -115
-95 -80 0 6 4 10 10 10 5 0 24 27 40 61 26 50 34 58 45 49 13 -10 13 -16 0
-40z m1931 3 c-15 -13 -34 -23 -42 -23 -8 0 -14 -7 -14 -15 0 -8 -4 -15 -10
-15 -5 0 -10 8 -10 18 0 11 16 26 45 40 25 12 45 27 46 34 0 9 2 8 6 -1 3 -8
-6 -24 -21 -38z m321 -20 c-2 -16 -4 -5 -4 22 0 28 2 40 4 28 2 -13 2 -35 0
-50z m-2444 -36 c36 -38 57 -53 61 -45 3 7 3 3 0 -9 -5 -24 9 -32 22 -12 3 6
19 9 34 5 22 -4 35 2 63 29 41 40 67 45 64 14 -2 -27 -96 -94 -111 -79 -18 18
-28 10 -22 -17 4 -19 4 -23 -3 -14 -5 8 -14 10 -21 6 -9 -6 -11 -4 -5 5 6 9 4
11 -4 5 -7 -4 -24 -1 -38 6 -20 11 -26 11 -32 0 -6 -9 -21 -5 -61 20 -35 22
-55 29 -58 21 -7 -23 -19 -12 -14 13 5 31 8 31 56 -1 37 -25 97 -36 113 -20 4
4 -22 36 -60 71 -51 47 -66 67 -60 80 6 17 7 17 14 -1 4 -10 32 -45 62 -77z
m2313 68 c18 -5 -3 -102 -34 -158 -26 -49 -64 -77 -102 -77 -32 0 -75 35 -95
76 -14 30 -15 37 -3 47 8 7 29 31 47 55 26 33 36 40 46 32 11 -9 4 -21 -31
-57 -25 -26 -44 -56 -44 -69 0 -26 24 -48 45 -41 8 4 17 2 20 -3 8 -12 45 -13
45 -2 0 5 15 20 34 33 l35 25 -19 42 c-11 23 -26 45 -35 48 -8 3 -15 15 -15
25 0 10 -5 19 -11 19 -5 0 -7 5 -4 10 9 14 25 2 25 -19 0 -9 15 -32 33 -49
l34 -33 12 28 c12 26 11 30 -25 61 l-38 32 35 -11 c19 -6 39 -12 45 -14z
m-2246 -76 c0 -5 -4 -9 -10 -9 -5 0 -10 7 -10 16 0 8 5 12 10 9 6 -3 10 -10
10 -16z m2470 -29 c0 -6 -37 -10 -90 -10 -53 0 -90 4 -90 10 0 6 37 10 90 10
53 0 90 -4 90 -10z m-700 -55 c0 -8 -4 -15 -10 -15 -5 0 -10 7 -10 15 0 8 5
15 10 15 6 0 10 -7 10 -15z m-1831 -61 c-7 -9 -37 -27 -66 -40 -46 -20 -53
-27 -53 -51 1 -70 32 -68 85 5 35 48 59 59 81 38 8 -9 11 -16 5 -16 -6 0 -8
-8 -5 -17 5 -17 5 -17 -5 -1 -10 15 -17 11 -61 -32 -65 -63 -66 -90 -7 -119
23 -12 43 -17 45 -11 2 5 13 5 28 -1 38 -14 54 -11 54 10 0 19 48 51 78 51 24
0 5 51 -36 92 -26 27 -38 34 -44 25 -5 -7 -8 1 -8 21 0 17 -4 32 -10 32 -5 0
-7 6 -4 14 8 22 34 7 34 -19 0 -15 15 -35 44 -58 l43 -36 22 30 c13 17 21 32
19 33 -1 1 -27 18 -55 36 -50 32 -68 54 -25 31 12 -6 33 -11 49 -11 46 0 52
-10 42 -63 -26 -144 -128 -249 -223 -232 -72 14 -146 111 -162 213 -6 39 -5
42 17 42 13 0 47 13 74 29 53 31 67 32 44 5z m98 -116 c-3 -8 -6 -5 -6 6 -1
11 2 17 5 13 3 -3 4 -12 1 -19z"/>
<path d="M4930 1685 c0 -19 5 -35 10 -35 6 0 10 16 10 35 0 19 -4 35 -10 35
-5 0 -10 -16 -10 -35z"/>
<path d="M352 1690 c0 -14 2 -19 5 -12 2 6 2 18 0 25 -3 6 -5 1 -5 -13z"/>
<path d="M250 1665 c0 -19 2 -35 4 -35 2 0 11 -3 19 -6 22 -8 30 47 9 63 -26
19 -32 16 -32 -22z"/>
<path d="M173 1653 c-7 -2 -13 -9 -13 -14 0 -6 5 -7 10 -4 6 3 10 2 10 -3 0
-10 71 -42 93 -42 16 0 97 52 97 62 0 4 -12 6 -27 4 -17 -1 -27 -8 -25 -15 4
-18 -27 -39 -49 -34 -10 3 -25 13 -34 23 -10 11 -24 16 -37 12 -14 -3 -19 -1
-14 6 8 13 7 13 -11 5z"/>
<path d="M411 1604 c64 -69 239 -113 394 -99 96 9 249 41 284 60 43 22 50 39
15 31 -60 -12 -256 -36 -294 -36 -22 0 -60 -7 -85 -15 -40 -14 -49 -14 -78 -1
-17 8 -49 17 -69 20 -20 4 -69 20 -109 36 -39 17 -74 30 -77 30 -3 0 5 -12 19
-26z"/>
<path d="M140 1609 c0 -5 5 -7 10 -4 6 3 10 8 10 11 0 2 -4 4 -10 4 -5 0 -10
-5 -10 -11z"/>
<path d="M4078 1613 c7 -3 16 -2 19 1 4 3 -2 6 -13 5 -11 0 -14 -3 -6 -6z"/>
<path d="M2793 1560 c0 -30 2 -43 4 -27 2 15 2 39 0 55 -2 15 -4 2 -4 -28z"/>
<path d="M3968 1603 c7 -3 16 -2 19 1 4 3 -2 6 -13 5 -11 0 -14 -3 -6 -6z"/>
<path d="M4285 1589 c-4 -6 -5 -12 -2 -15 2 -3 7 2 10 11 7 17 1 20 -8 4z"/>
<path d="M100 1555 c0 -19 5 -35 10 -35 6 0 10 10 10 23 0 13 5 28 12 35 9 9
7 12 -10 12 -18 0 -22 -6 -22 -35z"/>
<path d="M376 1577 c3 -10 9 -15 12 -12 3 3 0 11 -7 18 -10 9 -11 8 -5 -6z"/>
<path d="M3687 1583 c-4 -3 -7 -15 -7 -27 0 -20 0 -20 15 0 8 10 15 22 15 27
0 9 -14 9 -23 0z"/>
<path d="M3788 1583 c7 -3 16 -2 19 1 4 3 -2 6 -13 5 -11 0 -14 -3 -6 -6z"/>
<path d="M437 1529 c7 -7 15 -10 18 -7 3 3 -2 9 -12 12 -14 6 -15 5 -6 -5z"/>
<path d="M3358 1533 c7 -3 16 -2 19 1 4 3 -2 6 -13 5 -11 0 -14 -3 -6 -6z"/>
<path d="M4250 1519 c-7 -11 -10 -23 -7 -25 2 -2 9 7 15 21 14 30 7 33 -8 4z"/>
<path d="M4930 1510 c0 -16 5 -30 10 -30 6 0 10 14 10 30 0 17 -4 30 -10 30
-5 0 -10 -13 -10 -30z"/>
<path d="M3263 1523 c9 -2 23 -2 30 0 6 3 -1 5 -18 5 -16 0 -22 -2 -12 -5z"/>
<path d="M3183 1513 c9 -2 23 -2 30 0 6 3 -1 5 -18 5 -16 0 -22 -2 -12 -5z"/>
<path d="M3088 1503 c7 -3 16 -2 19 1 4 3 -2 6 -13 5 -11 0 -14 -3 -6 -6z"/>
<path d="M2858 1488 c5 -5 16 -8 23 -6 8 3 3 7 -10 11 -17 4 -21 3 -13 -5z"/>
<path d="M2998 1493 c7 -3 16 -2 19 1 4 3 -2 6 -13 5 -11 0 -14 -3 -6 -6z"/>
<path d="M102 1465 c0 -16 2 -22 5 -12 2 9 2 23 0 30 -3 6 -5 -1 -5 -18z"/>
<path d="M2908 1483 c6 -2 18 -2 25 0 6 3 1 5 -13 5 -14 0 -19 -2 -12 -5z"/>
<path d="M713 1473 c15 -2 39 -2 55 0 15 2 2 4 -28 4 -30 0 -43 -2 -27 -4z"/>
<path d="M2803 1430 c0 -25 2 -35 4 -22 2 12 2 32 0 45 -2 12 -4 2 -4 -23z"/>
<path d="M4912 1418 c-7 -24 -15 -49 -18 -55 -4 -9 4 -13 25 -13 31 0 31 0 31
55 0 68 -20 74 -38 13z"/>
<path d="M384 1416 c-3 -15 -3 -58 0 -95 l7 -69 -45 5 c-42 5 -46 3 -65 -27
-28 -46 -36 -99 -17 -113 8 -7 16 -21 18 -32 5 -32 87 -56 233 -66 72 -5 157
-14 190 -19 33 -6 170 -13 305 -16 257 -7 307 -2 349 35 l22 19 -45 37 c-24
21 -76 57 -116 81 -67 40 -78 43 -168 49 l-97 7 3 94 c3 72 1 95 -10 98 -7 3
-101 10 -208 16 -107 5 -230 13 -272 17 l-77 6 -7 -27z m151 -74 l-30 -5 25
-7 25 -8 -28 -1 c-35 -1 -26 -21 11 -22 18 -1 21 -3 9 -6 -36 -9 -67 6 -67 32
0 23 4 25 43 24 35 -2 37 -3 12 -7z m146 -13 c6 -11 11 -11 21 -1 14 14 54 16
62 3 3 -4 27 -7 53 -6 28 1 36 0 18 -3 l-30 -5 30 -6 c44 -9 39 -35 -7 -39
-21 -2 -38 1 -38 6 0 5 11 7 25 4 14 -2 25 0 25 6 0 16 -59 20 -71 5 -15 -18
-54 -17 -69 2 -11 13 -14 13 -26 -2 -12 -16 -13 -16 -14 10 0 20 -5 27 -20 27
-13 0 -20 -7 -20 -20 0 -11 -4 -20 -10 -20 -5 0 -10 11 -10 24 0 13 -6 27 -12
30 -7 3 9 4 36 2 27 -2 52 -10 57 -17z"/>
<path d="M715 1321 c-8 -15 3 -31 21 -31 9 0 14 7 12 17 -4 20 -24 28 -33 14z"/>
<path d="M4164 1353 c-27 -47 -60 -95 -74 -105 -23 -17 -102 -30 -373 -62
l-39 -4 4 63 c4 77 -7 77 -15 -1 -3 -31 -8 -58 -10 -60 -6 -7 -780 -94 -830
-94 -7 0 -7 -3 -2 -9 15 -14 1218 119 1255 139 38 20 98 111 130 196 17 44 3
25 -46 -63z"/>
<path d="M100 1370 c0 -16 5 -30 10 -30 6 0 10 14 10 30 0 17 -4 30 -10 30 -5
0 -10 -13 -10 -30z"/>
<path d="M113 1313 c-16 -6 -18 -123 -3 -123 16 0 21 23 18 77 -2 34 -7 48
-15 46z"/>
<path d="M140 1247 c0 -68 16 -107 44 -107 20 0 20 0 0 15 -11 8 -14 15 -6 15
6 0 12 4 12 10 0 5 -7 7 -15 4 -9 -4 -15 0 -15 9 0 9 8 18 18 20 16 4 15 5 -1
6 -15 1 -17 6 -12 29 4 20 1 33 -10 42 -13 11 -15 6 -15 -43z"/>
<path d="M1522 1184 c-59 -41 -1 -149 86 -161 35 -5 44 -1 67 21 22 22 26 33
21 59 -8 38 -32 66 -73 83 -42 18 -73 18 -101 -2z m140 -42 c-6 -2 -8 -10 -5
-18 6 -16 -13 -19 -22 -3 -4 6 -13 8 -21 5 -8 -3 -14 0 -14 7 0 8 14 13 37 13
20 0 31 -2 25 -4z m8 -63 c0 -5 -4 -8 -9 -4 -5 3 -12 1 -16 -5 -10 -16 -45
-12 -45 5 0 10 11 15 35 15 19 0 35 -5 35 -11z"/>
<path d="M100 865 c0 -278 0 -285 20 -285 20 0 20 7 20 285 0 278 0 285 -20
285 -20 0 -20 -7 -20 -285z"/>
<path d="M154 815 c0 -132 2 -185 3 -117 2 68 2 176 0 240 -1 64 -3 9 -3 -123z"/>
<path d="M658 953 c17 -2 47 -2 65 0 17 2 3 4 -33 4 -36 0 -50 -2 -32 -4z"/>
<path d="M788 943 c7 -3 16 -2 19 1 4 3 -2 6 -13 5 -11 0 -14 -3 -6 -6z"/>
</g>
</svg>
